999
"DXF R12 Output" (www.mydxf.blogspot.com)
 0 
SECTION
 2 
HEADER
 9 
$ACADVER
 1 
AC1009
 9 
$EXTMIN
 10 
 0 
 20 
 0 
 9 
$EXTMAX
 10 
 8.5 
 20 
 11 
 0 
ENDSEC
 0 
SECTION
 2 
ENTITIES
0
POLYLINE
8
Layer 1
62
7
70
0
10
0.000000
20
0.000000
66
1
0
VERTEX
8
Layer 1
10
579.395591
20
48.772484
70
0
0
VERTEX
8
Layer 1
10
579.507421
20
48.538751
70
0
0
VERTEX
8
Layer 1
10
579.693365
20
48.472500
70
0
0
SEQEND
8
Layer 1
0
POLYLINE
8
Layer 1
62
7
70
0
10
0.000000
20
0.000000
66
1
0
VERTEX
8
Layer 1
10
579.395587
20
106.023297
70
0
0
VERTEX
8
Layer 1
10
579.395587
20
48.773357
70
0
0
SEQEND
8
Layer 1
0
POLYLINE
8
Layer 1
62
7
70
0
10
0.000000
20
0.000000
66
1
0
VERTEX
8
Layer 1
10
579.693365
20
106.323239
70
0
0
VERTEX
8
Layer 1
10
579.460457
20
106.209588
70
0
0
VERTEX
8
Layer 1
10
579.395591
20
106.023247
70
0
0
SEQEND
8
Layer 1
0
POLYLINE
8
Layer 1
62
7
70
0
10
0.000000
20
0.000000
66
1
0
VERTEX
8
Layer 1
10
635.541873
20
106.323334
70
0
0
VERTEX
8
Layer 1
10
579.695651
20
106.323334
70
0
0
SEQEND
8
Layer 1
0
POLYLINE
8
Layer 1
62
7
70
0
10
0.000000
20
0.000000
66
1
0
VERTEX
8
Layer 1
10
646.158265
20
120.879633
70
0
0
VERTEX
8
Layer 1
10
635.541873
20
106.323334
70
0
0
SEQEND
8
Layer 1
0
POLYLINE
8
Layer 1
62
7
70
0
10
0.000000
20
0.000000
66
1
0
VERTEX
8
Layer 1
10
646.361952
20
121.003069
70
0
0
VERTEX
8
Layer 1
10
646.160459
20
120.882631
70
0
0
SEQEND
8
Layer 1
0
POLYLINE
8
Layer 1
62
7
70
0
10
0.000000
20
0.000000
66
1
0
VERTEX
8
Layer 1
10
683.918493
20
125.887924
70
0
0
VERTEX
8
Layer 1
10
646.364111
20
121.003458
70
0
0
SEQEND
8
Layer 1
0
POLYLINE
8
Layer 1
62
7
70
0
10
0.000000
20
0.000000
66
1
0
VERTEX
8
Layer 1
10
636.699688
20
41.473512
70
0
0
VERTEX
8
Layer 1
10
655.697541
20
41.473512
70
0
0
SEQEND
8
Layer 1
0
POLYLINE
8
Layer 1
62
7
70
0
10
0.000000
20
0.000000
66
1
0
VERTEX
8
Layer 1
10
636.399651
20
43.722467
70
0
0
VERTEX
8
Layer 1
10
636.399651
20
41.772491
70
0
0
SEQEND
8
Layer 1
0
POLYLINE
8
Layer 1
62
7
70
0
10
0.000000
20
0.000000
66
1
0
VERTEX
8
Layer 1
10
617.699189
20
43.722467
70
0
0
VERTEX
8
Layer 1
10
636.399651
20
43.722467
70
0
0
SEQEND
8
Layer 1
0
POLYLINE
8
Layer 1
62
7
70
0
10
0.000000
20
0.000000
66
1
0
VERTEX
8
Layer 1
10
617.399128
20
44.022716
70
0
0
VERTEX
8
Layer 1
10
617.510986
20
43.789010
70
0
0
VERTEX
8
Layer 1
10
617.696903
20
43.722732
70
0
0
SEQEND
8
Layer 1
0
POLYLINE
8
Layer 1
62
7
70
0
10
0.000000
20
0.000000
66
1
0
VERTEX
8
Layer 1
10
617.399152
20
48.471732
70
0
0
VERTEX
8
Layer 1
10
617.399152
20
44.021446
70
0
0
SEQEND
8
Layer 1
0
POLYLINE
8
Layer 1
62
7
70
0
10
0.000000
20
0.000000
66
1
0
VERTEX
8
Layer 1
10
579.695651
20
48.471732
70
0
0
VERTEX
8
Layer 1
10
617.399152
20
48.471732
70
0
0
SEQEND
8
Layer 1
0
POLYLINE
8
Layer 1
62
7
70
0
10
0.000000
20
0.000000
66
1
0
VERTEX
8
Layer 1
10
579.693375
20
48.471732
70
0
0
VERTEX
8
Layer 1
10
579.695651
20
48.471732
70
0
0
SEQEND
8
Layer 1
0
POLYLINE
8
Layer 1
62
7
70
0
10
0.000000
20
0.000000
66
1
0
VERTEX
8
Layer 1
10
618.645189
20
67.619646
70
0
0
VERTEX
8
Layer 1
10
618.566242
20
68.008486
70
0
0
VERTEX
8
Layer 1
10
618.351852
20
68.325938
70
0
0
VERTEX
8
Layer 1
10
618.034131
20
68.539928
70
0
0
VERTEX
8
Layer 1
10
617.645191
20
68.618385
70
0
0
VERTEX
8
Layer 1
10
617.256252
20
68.539928
70
0
0
VERTEX
8
Layer 1
10
616.938531
20
68.325938
70
0
0
VERTEX
8
Layer 1
10
616.724141
20
68.008486
70
0
0
VERTEX
8
Layer 1
10
616.645193
20
67.619646
70
0
0
VERTEX
8
Layer 1
10
616.724141
20
67.230806
70
0
0
VERTEX
8
Layer 1
10
616.938531
20
66.913355
70
0
0
VERTEX
8
Layer 1
10
617.256252
20
66.699365
70
0
0
VERTEX
8
Layer 1
10
617.645191
20
66.620907
70
0
0
VERTEX
8
Layer 1
10
618.034131
20
66.699365
70
0
0
VERTEX
8
Layer 1
10
618.351852
20
66.913355
70
0
0
VERTEX
8
Layer 1
10
618.566242
20
67.230806
70
0
0
VERTEX
8
Layer 1
10
618.645189
20
67.619646
70
0
0
VERTEX
8
Layer 1
10
618.645189
20
67.619646
70
0
0
SEQEND
8
Layer 1
0
POLYLINE
8
Layer 1
62
7
70
0
10
0.000000
20
0.000000
66
1
0
VERTEX
8
Layer 1
10
675.613119
20
64.105148
70
0
0
VERTEX
8
Layer 1
10
675.479144
20
64.605148
70
0
0
VERTEX
8
Layer 1
10
675.113119
20
64.971173
70
0
0
VERTEX
8
Layer 1
10
674.613119
20
65.105147
70
0
0
VERTEX
8
Layer 1
10
674.113120
20
64.971173
70
0
0
VERTEX
8
Layer 1
10
673.747094
20
64.605148
70
0
0
VERTEX
8
Layer 1
10
673.613120
20
64.105148
70
0
0
VERTEX
8
Layer 1
10
673.747094
20
63.605148
70
0
0
VERTEX
8
Layer 1
10
674.113120
20
63.239123
70
0
0
VERTEX
8
Layer 1
10
674.613119
20
63.105149
70
0
0
VERTEX
8
Layer 1
10
675.113119
20
63.239123
70
0
0
VERTEX
8
Layer 1
10
675.479144
20
63.605148
70
0
0
VERTEX
8
Layer 1
10
675.613119
20
64.105148
70
0
0
VERTEX
8
Layer 1
10
675.613119
20
64.105148
70
0
0
SEQEND
8
Layer 1
0
POLYLINE
8
Layer 1
62
7
70
0
10
0.000000
20
0.000000
66
1
0
VERTEX
8
Layer 1
10
636.399717
20
41.772385
70
0
0
VERTEX
8
Layer 1
10
636.511580
20
41.538679
70
0
0
VERTEX
8
Layer 1
10
636.697489
20
41.472401
70
0
0
SEQEND
8
Layer 1
0
POLYLINE
8
Layer 1
62
7
70
0
10
0.000000
20
0.000000
66
1
0
VERTEX
8
Layer 1
10
689.368101
20
111.474591
70
0
0
VERTEX
8
Layer 1
10
689.234126
20
111.974591
70
0
0
VERTEX
8
Layer 1
10
688.868101
20
112.340616
70
0
0
VERTEX
8
Layer 1
10
688.368102
20
112.474590
70
0
0
VERTEX
8
Layer 1
10
687.868102
20
112.340616
70
0
0
VERTEX
8
Layer 1
10
687.502077
20
111.974591
70
0
0
VERTEX
8
Layer 1
10
687.368102
20
111.474591
70
0
0
VERTEX
8
Layer 1
10
687.502077
20
110.974591
70
0
0
VERTEX
8
Layer 1
10
687.868102
20
110.608566
70
0
0
VERTEX
8
Layer 1
10
688.368102
20
110.474591
70
0
0
VERTEX
8
Layer 1
10
688.868101
20
110.608566
70
0
0
VERTEX
8
Layer 1
10
689.234126
20
110.974591
70
0
0
VERTEX
8
Layer 1
10
689.368101
20
111.474591
70
0
0
VERTEX
8
Layer 1
10
689.368101
20
111.474591
70
0
0
SEQEND
8
Layer 1
0
POLYLINE
8
Layer 1
62
7
70
0
10
0.000000
20
0.000000
66
1
0
VERTEX
8
Layer 1
10
697.504301
20
48.471732
70
0
0
VERTEX
8
Layer 1
10
714.700873
20
48.471732
70
0
0
SEQEND
8
Layer 1
0
POLYLINE
8
Layer 1
62
7
70
0
10
0.000000
20
0.000000
66
1
0
VERTEX
8
Layer 1
10
714.705614
20
48.472473
70
0
0
VERTEX
8
Layer 1
10
714.940180
20
48.585397
70
0
0
VERTEX
8
Layer 1
10
715.005672
20
48.772484
70
0
0
SEQEND
8
Layer 1
0
POLYLINE
8
Layer 1
62
7
70
0
10
0.000000
20
0.000000
66
1
0
VERTEX
8
Layer 1
10
697.504301
20
46.521756
70
0
0
VERTEX
8
Layer 1
10
697.504301
20
48.471732
70
0
0
SEQEND
8
Layer 1
0
POLYLINE
8
Layer 1
62
7
70
0
10
0.000000
20
0.000000
66
1
0
VERTEX
8
Layer 1
10
655.702142
20
41.472401
70
0
0
VERTEX
8
Layer 1
10
655.889313
20
41.537885
70
0
0
VERTEX
8
Layer 1
10
656.002200
20
41.772385
70
0
0
SEQEND
8
Layer 1
0
POLYLINE
8
Layer 1
62
7
70
0
10
0.000000
20
0.000000
66
1
0
VERTEX
8
Layer 1
10
715.005672
20
110.392460
70
0
0
VERTEX
8
Layer 1
10
714.965652
20
110.542147
70
0
0
SEQEND
8
Layer 1
0
POLYLINE
8
Layer 1
62
7
70
0
10
0.000000
20
0.000000
66
1
0
VERTEX
8
Layer 1
10
697.204335
20
46.222142
70
0
0
VERTEX
8
Layer 1
10
697.438906
20
46.335066
70
0
0
VERTEX
8
Layer 1
10
697.504396
20
46.522153
70
0
0
SEQEND
8
Layer 1
0
POLYLINE
8
Layer 1
62
7
70
0
10
0.000000
20
0.000000
66
1
0
VERTEX
8
Layer 1
10
675.002840
20
46.222777
70
0
0
VERTEX
8
Layer 1
10
697.199501
20
46.222777
70
0
0
SEQEND
8
Layer 1
0
POLYLINE
8
Layer 1
62
7
70
0
10
0.000000
20
0.000000
66
1
0
VERTEX
8
Layer 1
10
675.002840
20
44.021446
70
0
0
VERTEX
8
Layer 1
10
675.002840
20
46.222777
70
0
0
SEQEND
8
Layer 1
0
POLYLINE
8
Layer 1
62
7
70
0
10
0.000000
20
0.000000
66
1
0
VERTEX
8
Layer 1
10
700.317876
20
135.365023
70
0
0
VERTEX
8
Layer 1
10
683.918493
20
125.887924
70
0
0
SEQEND
8
Layer 1
0
POLYLINE
8
Layer 1
62
7
70
0
10
0.000000
20
0.000000
66
1
0
VERTEX
8
Layer 1
10
674.702694
20
43.722732
70
0
0
VERTEX
8
Layer 1
10
674.937268
20
43.835630
70
0
0
VERTEX
8
Layer 1
10
675.002752
20
44.022716
70
0
0
SEQEND
8
Layer 1
0
POLYLINE
8
Layer 1
62
7
70
0
10
0.000000
20
0.000000
66
1
0
VERTEX
8
Layer 1
10
656.002076
20
43.722467
70
0
0
VERTEX
8
Layer 1
10
674.698040
20
43.722467
70
0
0
SEQEND
8
Layer 1
0
POLYLINE
8
Layer 1
62
7
70
0
10
0.000000
20
0.000000
66
1
0
VERTEX
8
Layer 1
10
715.005672
20
48.773357
70
0
0
VERTEX
8
Layer 1
10
715.005672
20
110.392356
70
0
0
SEQEND
8
Layer 1
0
POLYLINE
8
Layer 1
62
7
70
0
10
0.000000
20
0.000000
66
1
0
VERTEX
8
Layer 1
10
642.802160
20
103.860101
70
0
0
VERTEX
8
Layer 1
10
642.668185
20
104.360101
70
0
0
VERTEX
8
Layer 1
10
642.302160
20
104.726126
70
0
0
VERTEX
8
Layer 1
10
641.802160
20
104.860101
70
0
0
VERTEX
8
Layer 1
10
641.302161
20
104.726126
70
0
0
VERTEX
8
Layer 1
10
640.936135
20
104.360101
70
0
0
VERTEX
8
Layer 1
10
640.802161
20
103.860101
70
0
0
VERTEX
8
Layer 1
10
640.936135
20
103.360101
70
0
0
VERTEX
8
Layer 1
10
641.302161
20
102.994076
70
0
0
VERTEX
8
Layer 1
10
641.802160
20
102.860102
70
0
0
VERTEX
8
Layer 1
10
642.302160
20
102.994076
70
0
0
VERTEX
8
Layer 1
10
642.668185
20
103.360101
70
0
0
VERTEX
8
Layer 1
10
642.802160
20
103.860101
70
0
0
VERTEX
8
Layer 1
10
642.802160
20
103.860101
70
0
0
SEQEND
8
Layer 1
0
POLYLINE
8
Layer 1
62
7
70
0
10
0.000000
20
0.000000
66
1
0
VERTEX
8
Layer 1
10
714.964133
20
110.544756
70
0
0
VERTEX
8
Layer 1
10
700.732743
20
135.257602
70
0
0
SEQEND
8
Layer 1
0
POLYLINE
8
Layer 1
62
7
70
0
10
0.000000
20
0.000000
66
1
0
VERTEX
8
Layer 1
10
656.002076
20
41.772491
70
0
0
VERTEX
8
Layer 1
10
656.002076
20
43.722467
70
0
0
SEQEND
8
Layer 1
0
POLYLINE
8
Layer 1
62
7
70
0
10
0.000000
20
0.000000
66
1
0
VERTEX
8
Layer 1
10
645.742591
20
197.279016
70
0
0
VERTEX
8
Layer 1
10
645.854421
20
197.512749
70
0
0
VERTEX
8
Layer 1
10
646.040365
20
197.579000
70
0
0
SEQEND
8
Layer 1
0
POLYLINE
8
Layer 1
62
7
70
0
10
0.000000
20
0.000000
66
1
0
VERTEX
8
Layer 1
10
645.742587
20
140.028203
70
0
0
VERTEX
8
Layer 1
10
645.742587
20
197.278143
70
0
0
SEQEND
8
Layer 1
0
POLYLINE
8
Layer 1
62
7
70
0
10
0.000000
20
0.000000
66
1
0
VERTEX
8
Layer 1
10
646.040365
20
139.728261
70
0
0
VERTEX
8
Layer 1
10
645.807457
20
139.841912
70
0
0
VERTEX
8
Layer 1
10
645.742591
20
140.028253
70
0
0
SEQEND
8
Layer 1
0
POLYLINE
8
Layer 1
62
7
70
0
10
0.000000
20
0.000000
66
1
0
VERTEX
8
Layer 1
10
701.888873
20
139.728166
70
0
0
VERTEX
8
Layer 1
10
646.042651
20
139.728166
70
0
0
SEQEND
8
Layer 1
0
POLYLINE
8
Layer 1
62
7
70
0
10
0.000000
20
0.000000
66
1
0
VERTEX
8
Layer 1
10
712.505265
20
125.171867
70
0
0
VERTEX
8
Layer 1
10
701.888873
20
139.728166
70
0
0
SEQEND
8
Layer 1
0
POLYLINE
8
Layer 1
62
7
70
0
10
0.000000
20
0.000000
66
1
0
VERTEX
8
Layer 1
10
712.708952
20
125.048431
70
0
0
VERTEX
8
Layer 1
10
712.507459
20
125.168869
70
0
0
SEQEND
8
Layer 1
0
POLYLINE
8
Layer 1
62
7
70
0
10
0.000000
20
0.000000
66
1
0
VERTEX
8
Layer 1
10
750.265493
20
120.163576
70
0
0
VERTEX
8
Layer 1
10
712.711111
20
125.048042
70
0
0
SEQEND
8
Layer 1
0
POLYLINE
8
Layer 1
62
7
70
0
10
0.000000
20
0.000000
66
1
0
VERTEX
8
Layer 1
10
703.046688
20
204.577988
70
0
0
VERTEX
8
Layer 1
10
722.044541
20
204.577988
70
0
0
SEQEND
8
Layer 1
0
POLYLINE
8
Layer 1
62
7
70
0
10
0.000000
20
0.000000
66
1
0
VERTEX
8
Layer 1
10
702.746651
20
202.329033
70
0
0
VERTEX
8
Layer 1
10
702.746651
20
204.279009
70
0
0
SEQEND
8
Layer 1
0
POLYLINE
8
Layer 1
62
7
70
0
10
0.000000
20
0.000000
66
1
0
VERTEX
8
Layer 1
10
684.046189
20
202.329033
70
0
0
VERTEX
8
Layer 1
10
702.746651
20
202.329033
70
0
0
SEQEND
8
Layer 1
0
POLYLINE
8
Layer 1
62
7
70
0
10
0.000000
20
0.000000
66
1
0
VERTEX
8
Layer 1
10
683.746128
20
202.028784
70
0
0
VERTEX
8
Layer 1
10
683.857986
20
202.262490
70
0
0
VERTEX
8
Layer 1
10
684.043903
20
202.328768
70
0
0
SEQEND
8
Layer 1
0
POLYLINE
8
Layer 1
62
7
70
0
10
0.000000
20
0.000000
66
1
0
VERTEX
8
Layer 1
10
683.746152
20
197.579768
70
0
0
VERTEX
8
Layer 1
10
683.746152
20
202.030054
70
0
0
SEQEND
8
Layer 1
0
POLYLINE
8
Layer 1
62
7
70
0
10
0.000000
20
0.000000
66
1
0
VERTEX
8
Layer 1
10
646.042651
20
197.579768
70
0
0
VERTEX
8
Layer 1
10
683.746152
20
197.579768
70
0
0
SEQEND
8
Layer 1
0
POLYLINE
8
Layer 1
62
7
70
0
10
0.000000
20
0.000000
66
1
0
VERTEX
8
Layer 1
10
646.040375
20
197.579768
70
0
0
VERTEX
8
Layer 1
10
646.042651
20
197.579768
70
0
0
SEQEND
8
Layer 1
0
POLYLINE
8
Layer 1
62
7
70
0
10
0.000000
20
0.000000
66
1
0
VERTEX
8
Layer 1
10
684.992189
20
178.431854
70
0
0
VERTEX
8
Layer 1
10
684.913242
20
178.043014
70
0
0
VERTEX
8
Layer 1
10
684.698852
20
177.725562
70
0
0
VERTEX
8
Layer 1
10
684.381131
20
177.511572
70
0
0
VERTEX
8
Layer 1
10
683.992191
20
177.433115
70
0
0
VERTEX
8
Layer 1
10
683.603252
20
177.511572
70
0
0
VERTEX
8
Layer 1
10
683.285531
20
177.725562
70
0
0
VERTEX
8
Layer 1
10
683.071141
20
178.043014
70
0
0
VERTEX
8
Layer 1
10
682.992193
20
178.431854
70
0
0
VERTEX
8
Layer 1
10
683.071141
20
178.820694
70
0
0
VERTEX
8
Layer 1
10
683.285531
20
179.138145
70
0
0
VERTEX
8
Layer 1
10
683.603252
20
179.352135
70
0
0
VERTEX
8
Layer 1
10
683.992191
20
179.430593
70
0
0
VERTEX
8
Layer 1
10
684.381131
20
179.352135
70
0
0
VERTEX
8
Layer 1
10
684.698852
20
179.138145
70
0
0
VERTEX
8
Layer 1
10
684.913242
20
178.820694
70
0
0
VERTEX
8
Layer 1
10
684.992189
20
178.431854
70
0
0
VERTEX
8
Layer 1
10
684.992189
20
178.431854
70
0
0
SEQEND
8
Layer 1
0
POLYLINE
8
Layer 1
62
7
70
0
10
0.000000
20
0.000000
66
1
0
VERTEX
8
Layer 1
10
741.960119
20
181.946352
70
0
0
VERTEX
8
Layer 1
10
741.826144
20
181.446352
70
0
0
VERTEX
8
Layer 1
10
741.460119
20
181.080327
70
0
0
VERTEX
8
Layer 1
10
740.960119
20
180.946353
70
0
0
VERTEX
8
Layer 1
10
740.460120
20
181.080327
70
0
0
VERTEX
8
Layer 1
10
740.094094
20
181.446352
70
0
0
VERTEX
8
Layer 1
10
739.960120
20
181.946352
70
0
0
VERTEX
8
Layer 1
10
740.094094
20
182.446352
70
0
0
VERTEX
8
Layer 1
10
740.460120
20
182.812377
70
0
0
VERTEX
8
Layer 1
10
740.960119
20
182.946351
70
0
0
VERTEX
8
Layer 1
10
741.460119
20
182.812377
70
0
0
VERTEX
8
Layer 1
10
741.826144
20
182.446352
70
0
0
VERTEX
8
Layer 1
10
741.960119
20
181.946352
70
0
0
VERTEX
8
Layer 1
10
741.960119
20
181.946352
70
0
0
SEQEND
8
Layer 1
0
POLYLINE
8
Layer 1
62
7
70
0
10
0.000000
20
0.000000
66
1
0
VERTEX
8
Layer 1
10
702.746717
20
204.279115
70
0
0
VERTEX
8
Layer 1
10
702.858580
20
204.512821
70
0
0
VERTEX
8
Layer 1
10
703.044489
20
204.579099
70
0
0
SEQEND
8
Layer 1
0
POLYLINE
8
Layer 1
62
7
70
0
10
0.000000
20
0.000000
66
1
0
VERTEX
8
Layer 1
10
755.715101
20
134.576909
70
0
0
VERTEX
8
Layer 1
10
755.636516
20
134.187664
70
0
0
VERTEX
8
Layer 1
10
755.422208
20
133.869803
70
0
0
VERTEX
8
Layer 1
10
755.104346
20
133.655495
70
0
0
VERTEX
8
Layer 1
10
754.715102
20
133.576910
70
0
0
VERTEX
8
Layer 1
10
754.325857
20
133.655495
70
0
0
VERTEX
8
Layer 1
10
754.007995
20
133.869803
70
0
0
VERTEX
8
Layer 1
10
753.793687
20
134.187664
70
0
0
VERTEX
8
Layer 1
10
753.715102
20
134.576909
70
0
0
VERTEX
8
Layer 1
10
753.793687
20
134.966154
70
0
0
VERTEX
8
Layer 1
10
754.007995
20
135.284015
70
0
0
VERTEX
8
Layer 1
10
754.325857
20
135.498323
70
0
0
VERTEX
8
Layer 1
10
754.715102
20
135.576908
70
0
0
VERTEX
8
Layer 1
10
755.104346
20
135.498323
70
0
0
VERTEX
8
Layer 1
10
755.422208
20
135.284015
70
0
0
VERTEX
8
Layer 1
10
755.636516
20
134.966154
70
0
0
VERTEX
8
Layer 1
10
755.715101
20
134.576909
70
0
0
VERTEX
8
Layer 1
10
755.715101
20
134.576909
70
0
0
SEQEND
8
Layer 1
0
POLYLINE
8
Layer 1
62
7
70
0
10
0.000000
20
0.000000
66
1
0
VERTEX
8
Layer 1
10
763.851301
20
197.579768
70
0
0
VERTEX
8
Layer 1
10
781.047873
20
197.579768
70
0
0
SEQEND
8
Layer 1
0
POLYLINE
8
Layer 1
62
7
70
0
10
0.000000
20
0.000000
66
1
0
VERTEX
8
Layer 1
10
781.052614
20
197.579027
70
0
0
VERTEX
8
Layer 1
10
781.287180
20
197.466103
70
0
0
VERTEX
8
Layer 1
10
781.352672
20
197.279016
70
0
0
SEQEND
8
Layer 1
0
POLYLINE
8
Layer 1
62
7
70
0
10
0.000000
20
0.000000
66
1
0
VERTEX
8
Layer 1
10
763.851301
20
199.529744
70
0
0
VERTEX
8
Layer 1
10
763.851301
20
197.579768
70
0
0
SEQEND
8
Layer 1
0
POLYLINE
8
Layer 1
62
7
70
0
10
0.000000
20
0.000000
66
1
0
VERTEX
8
Layer 1
10
722.049142
20
204.579099
70
0
0
VERTEX
8
Layer 1
10
722.236313
20
204.513615
70
0
0
VERTEX
8
Layer 1
10
722.349200
20
204.279115
70
0
0
SEQEND
8
Layer 1
0
POLYLINE
8
Layer 1
62
7
70
0
10
0.000000
20
0.000000
66
1
0
VERTEX
8
Layer 1
10
781.352672
20
135.659040
70
0
0
VERTEX
8
Layer 1
10
781.312652
20
135.509353
70
0
0
SEQEND
8
Layer 1
0
POLYLINE
8
Layer 1
62
7
70
0
10
0.000000
20
0.000000
66
1
0
VERTEX
8
Layer 1
10
763.551335
20
199.829358
70
0
0
VERTEX
8
Layer 1
10
763.785906
20
199.716434
70
0
0
VERTEX
8
Layer 1
10
763.851396
20
199.529347
70
0
0
SEQEND
8
Layer 1
0
POLYLINE
8
Layer 1
62
7
70
0
10
0.000000
20
0.000000
66
1
0
VERTEX
8
Layer 1
10
741.349840
20
199.828723
70
0
0
VERTEX
8
Layer 1
10
763.546501
20
199.828723
70
0
0
SEQEND
8
Layer 1
0
POLYLINE
8
Layer 1
62
7
70
0
10
0.000000
20
0.000000
66
1
0
VERTEX
8
Layer 1
10
741.349840
20
202.030054
70
0
0
VERTEX
8
Layer 1
10
741.349840
20
199.828723
70
0
0
SEQEND
8
Layer 1
0
POLYLINE
8
Layer 1
62
7
70
0
10
0.000000
20
0.000000
66
1
0
VERTEX
8
Layer 1
10
766.664876
20
110.686477
70
0
0
VERTEX
8
Layer 1
10
750.265493
20
120.163576
70
0
0
SEQEND
8
Layer 1
0
POLYLINE
8
Layer 1
62
7
70
0
10
0.000000
20
0.000000
66
1
0
VERTEX
8
Layer 1
10
741.049694
20
202.328768
70
0
0
VERTEX
8
Layer 1
10
741.284268
20
202.215870
70
0
0
VERTEX
8
Layer 1
10
741.349752
20
202.028784
70
0
0
SEQEND
8
Layer 1
0
POLYLINE
8
Layer 1
62
7
70
0
10
0.000000
20
0.000000
66
1
0
VERTEX
8
Layer 1
10
722.349076
20
202.329033
70
0
0
VERTEX
8
Layer 1
10
741.045040
20
202.329033
70
0
0
SEQEND
8
Layer 1
0
POLYLINE
8
Layer 1
62
7
70
0
10
0.000000
20
0.000000
66
1
0
VERTEX
8
Layer 1
10
781.352672
20
197.278143
70
0
0
VERTEX
8
Layer 1
10
781.352672
20
135.659144
70
0
0
SEQEND
8
Layer 1
0
POLYLINE
8
Layer 1
62
7
70
0
10
0.000000
20
0.000000
66
1
0
VERTEX
8
Layer 1
10
709.149160
20
142.191399
70
0
0
VERTEX
8
Layer 1
10
709.015185
20
141.691399
70
0
0
VERTEX
8
Layer 1
10
708.649160
20
141.325374
70
0
0
VERTEX
8
Layer 1
10
708.149160
20
141.191399
70
0
0
VERTEX
8
Layer 1
10
707.649161
20
141.325374
70
0
0
VERTEX
8
Layer 1
10
707.283135
20
141.691399
70
0
0
VERTEX
8
Layer 1
10
707.149161
20
142.191399
70
0
0
VERTEX
8
Layer 1
10
707.283135
20
142.691399
70
0
0
VERTEX
8
Layer 1
10
707.649161
20
143.057424
70
0
0
VERTEX
8
Layer 1
10
708.149160
20
143.191398
70
0
0
VERTEX
8
Layer 1
10
708.649160
20
143.057424
70
0
0
VERTEX
8
Layer 1
10
709.015185
20
142.691399
70
0
0
VERTEX
8
Layer 1
10
709.149160
20
142.191399
70
0
0
VERTEX
8
Layer 1
10
709.149160
20
142.191399
70
0
0
SEQEND
8
Layer 1
0
POLYLINE
8
Layer 1
62
7
70
0
10
0.000000
20
0.000000
66
1
0
VERTEX
8
Layer 1
10
781.311133
20
135.506744
70
0
0
VERTEX
8
Layer 1
10
767.079743
20
110.793898
70
0
0
SEQEND
8
Layer 1
0
POLYLINE
8
Layer 1
62
7
70
0
10
0.000000
20
0.000000
66
1
0
VERTEX
8
Layer 1
10
722.349076
20
204.279009
70
0
0
VERTEX
8
Layer 1
10
722.349076
20
202.329033
70
0
0
SEQEND
8
Layer 1
0
POLYLINE
8
Layer 1
62
7
70
0
10
0.000000
20
0.000000
66
1
0
VERTEX
8
Layer 1
10
606.062451
20
365.981333
70
0
0
VERTEX
8
Layer 1
10
605.847372
20
365.835320
70
0
0
VERTEX
8
Layer 1
10
605.652832
20
365.872282
70
0
0
SEQEND
8
Layer 1
0
POLYLINE
8
VISIBLE
62
7
70
0
10
0.000000
20
0.000000
66
1
0
VERTEX
8
VISIBLE
10
523.410865
20
339.765455
70
0
0
VERTEX
8
VISIBLE
10
523.276890
20
339.265455
70
0
0
VERTEX
8
VISIBLE
10
522.910865
20
338.899430
70
0
0
VERTEX
8
VISIBLE
10
522.410866
20
338.765455
70
0
0
VERTEX
8
VISIBLE
10
521.910866
20
338.899430
70
0
0
VERTEX
8
VISIBLE
10
521.544841
20
339.265455
70
0
0
VERTEX
8
VISIBLE
10
521.410866
20
339.765455
70
0
0
VERTEX
8
VISIBLE
10
521.544841
20
340.265455
70
0
0
VERTEX
8
VISIBLE
10
521.910866
20
340.631480
70
0
0
VERTEX
8
VISIBLE
10
522.410866
20
340.765454
70
0
0
VERTEX
8
VISIBLE
10
522.910865
20
340.631480
70
0
0
VERTEX
8
VISIBLE
10
523.276890
20
340.265455
70
0
0
VERTEX
8
VISIBLE
10
523.410865
20
339.765455
70
0
0
VERTEX
8
VISIBLE
10
523.410865
20
339.765455
70
0
0
SEQEND
8
VISIBLE
0
POLYLINE
8
VISIBLE
62
7
70
0
10
0.000000
20
0.000000
66
1
0
VERTEX
8
VISIBLE
10
595.866824
20
325.322266
70
0
0
VERTEX
8
VISIBLE
10
581.866944
20
325.322266
70
0
0
SEQEND
8
VISIBLE
0
POLYLINE
8
VISIBLE
62
7
70
0
10
0.000000
20
0.000000
66
1
0
VERTEX
8
VISIBLE
10
595.866824
20
339.321617
70
0
0
VERTEX
8
VISIBLE
10
595.866824
20
325.322266
70
0
0
SEQEND
8
VISIBLE
0
POLYLINE
8
VISIBLE
62
7
70
0
10
0.000000
20
0.000000
66
1
0
VERTEX
8
VISIBLE
10
581.866944
20
339.321617
70
0
0
VERTEX
8
VISIBLE
10
595.866824
20
339.321617
70
0
0
SEQEND
8
VISIBLE
0
POLYLINE
8
VISIBLE
62
7
70
0
10
0.000000
20
0.000000
66
1
0
VERTEX
8
VISIBLE
10
581.866944
20
325.322266
70
0
0
VERTEX
8
VISIBLE
10
581.866944
20
339.321617
70
0
0
SEQEND
8
VISIBLE
0
POLYLINE
8
VISIBLE
62
7
70
0
10
0.000000
20
0.000000
66
1
0
VERTEX
8
VISIBLE
10
595.866824
20
306.322031
70
0
0
VERTEX
8
VISIBLE
10
581.866944
20
306.322031
70
0
0
SEQEND
8
VISIBLE
0
POLYLINE
8
VISIBLE
62
7
70
0
10
0.000000
20
0.000000
66
1
0
VERTEX
8
VISIBLE
10
595.866824
20
320.322176
70
0
0
VERTEX
8
VISIBLE
10
595.866824
20
306.322031
70
0
0
SEQEND
8
VISIBLE
0
POLYLINE
8
VISIBLE
62
7
70
0
10
0.000000
20
0.000000
66
1
0
VERTEX
8
VISIBLE
10
581.866944
20
320.322176
70
0
0
VERTEX
8
VISIBLE
10
595.866824
20
320.322176
70
0
0
SEQEND
8
VISIBLE
0
POLYLINE
8
VISIBLE
62
7
70
0
10
0.000000
20
0.000000
66
1
0
VERTEX
8
VISIBLE
10
581.866944
20
306.322031
70
0
0
VERTEX
8
VISIBLE
10
581.866944
20
320.322176
70
0
0
SEQEND
8
VISIBLE
0
POLYLINE
8
VISIBLE
62
7
70
0
10
0.000000
20
0.000000
66
1
0
VERTEX
8
VISIBLE
10
486.863920
20
341.956864
70
0
0
VERTEX
8
VISIBLE
10
486.863920
20
355.958596
70
0
0
SEQEND
8
VISIBLE
0
POLYLINE
8
VISIBLE
62
7
70
0
10
0.000000
20
0.000000
66
1
0
VERTEX
8
VISIBLE
10
500.863800
20
341.956864
70
0
0
VERTEX
8
VISIBLE
10
486.863920
20
341.956864
70
0
0
SEQEND
8
VISIBLE
0
POLYLINE
8
VISIBLE
62
7
70
0
10
0.000000
20
0.000000
66
1
0
VERTEX
8
VISIBLE
10
500.863800
20
355.958596
70
0
0
VERTEX
8
VISIBLE
10
500.863800
20
341.956864
70
0
0
SEQEND
8
VISIBLE
0
POLYLINE
8
VISIBLE
62
7
70
0
10
0.000000
20
0.000000
66
1
0
VERTEX
8
VISIBLE
10
486.863920
20
355.958596
70
0
0
VERTEX
8
VISIBLE
10
500.863800
20
355.958596
70
0
0
SEQEND
8
VISIBLE
0
POLYLINE
8
VISIBLE
62
7
70
0
10
0.000000
20
0.000000
66
1
0
VERTEX
8
VISIBLE
10
500.863800
20
336.956245
70
0
0
VERTEX
8
VISIBLE
10
500.863800
20
322.957423
70
0
0
SEQEND
8
VISIBLE
0
POLYLINE
8
VISIBLE
62
7
70
0
10
0.000000
20
0.000000
66
1
0
VERTEX
8
VISIBLE
10
486.863920
20
336.956245
70
0
0
VERTEX
8
VISIBLE
10
500.863800
20
336.956245
70
0
0
SEQEND
8
VISIBLE
0
POLYLINE
8
VISIBLE
62
7
70
0
10
0.000000
20
0.000000
66
1
0
VERTEX
8
VISIBLE
10
486.863920
20
322.957423
70
0
0
VERTEX
8
VISIBLE
10
486.863920
20
336.956245
70
0
0
SEQEND
8
VISIBLE
0
POLYLINE
8
VISIBLE
62
7
70
0
10
0.000000
20
0.000000
66
1
0
VERTEX
8
VISIBLE
10
500.863800
20
322.957423
70
0
0
VERTEX
8
VISIBLE
10
486.863920
20
322.957423
70
0
0
SEQEND
8
VISIBLE
0
POLYLINE
8
VISIBLE
62
7
70
0
10
0.000000
20
0.000000
66
1
0
VERTEX
8
VISIBLE
10
557.863974
20
344.081465
70
0
0
VERTEX
8
VISIBLE
10
557.863974
20
330.081585
70
0
0
SEQEND
8
VISIBLE
0
POLYLINE
8
VISIBLE
62
7
70
0
10
0.000000
20
0.000000
66
1
0
VERTEX
8
VISIBLE
10
543.863829
20
344.081465
70
0
0
VERTEX
8
VISIBLE
10
557.863974
20
344.081465
70
0
0
SEQEND
8
VISIBLE
0
POLYLINE
8
VISIBLE
62
7
70
0
10
0.000000
20
0.000000
66
1
0
VERTEX
8
VISIBLE
10
543.863829
20
330.081585
70
0
0
VERTEX
8
VISIBLE
10
543.863829
20
344.081465
70
0
0
SEQEND
8
VISIBLE
0
POLYLINE
8
VISIBLE
62
7
70
0
10
0.000000
20
0.000000
66
1
0
VERTEX
8
VISIBLE
10
557.863974
20
330.081585
70
0
0
VERTEX
8
VISIBLE
10
543.863829
20
330.081585
70
0
0
SEQEND
8
VISIBLE
0
POLYLINE
8
VISIBLE
62
7
70
0
10
0.000000
20
0.000000
66
1
0
VERTEX
8
VISIBLE
10
601.042068
20
299.161092
70
0
0
VERTEX
8
VISIBLE
10
613.166055
20
292.161020
70
0
0
SEQEND
8
VISIBLE
0
POLYLINE
8
VISIBLE
62
7
70
0
10
0.000000
20
0.000000
66
1
0
VERTEX
8
VISIBLE
10
594.042260
20
287.036841
70
0
0
VERTEX
8
VISIBLE
10
601.042068
20
299.161092
70
0
0
SEQEND
8
VISIBLE
0
POLYLINE
8
VISIBLE
62
7
70
0
10
0.000000
20
0.000000
66
1
0
VERTEX
8
VISIBLE
10
606.166511
20
280.036769
70
0
0
VERTEX
8
VISIBLE
10
594.042260
20
287.036841
70
0
0
SEQEND
8
VISIBLE
0
POLYLINE
8
VISIBLE
62
7
70
0
10
0.000000
20
0.000000
66
1
0
VERTEX
8
VISIBLE
10
613.166055
20
292.161020
70
0
0
VERTEX
8
VISIBLE
10
606.166511
20
280.036769
70
0
0
SEQEND
8
VISIBLE
0
POLYLINE
8
VISIBLE
62
7
70
0
10
0.000000
20
0.000000
66
1
0
VERTEX
8
VISIBLE
10
562.865122
20
346.706128
70
0
0
VERTEX
8
VISIBLE
10
562.865122
20
360.707861
70
0
0
SEQEND
8
VISIBLE
0
POLYLINE
8
VISIBLE
62
7
70
0
10
0.000000
20
0.000000
66
1
0
VERTEX
8
VISIBLE
10
576.865267
20
346.706128
70
0
0
VERTEX
8
VISIBLE
10
562.865122
20
346.706128
70
0
0
SEQEND
8
VISIBLE
0
POLYLINE
8
VISIBLE
62
7
70
0
10
0.000000
20
0.000000
66
1
0
VERTEX
8
VISIBLE
10
576.865267
20
360.707861
70
0
0
VERTEX
8
VISIBLE
10
576.865267
20
346.706128
70
0
0
SEQEND
8
VISIBLE
0
POLYLINE
8
VISIBLE
62
7
70
0
10
0.000000
20
0.000000
66
1
0
VERTEX
8
VISIBLE
10
562.865122
20
360.707861
70
0
0
VERTEX
8
VISIBLE
10
576.865267
20
360.707861
70
0
0
SEQEND
8
VISIBLE
0
POLYLINE
8
VISIBLE
62
7
70
0
10
0.000000
20
0.000000
66
1
0
VERTEX
8
VISIBLE
10
524.862272
20
308.702749
70
0
0
VERTEX
8
VISIBLE
10
524.862272
20
322.702894
70
0
0
SEQEND
8
VISIBLE
0
POLYLINE
8
VISIBLE
62
7
70
0
10
0.000000
20
0.000000
66
1
0
VERTEX
8
VISIBLE
10
538.862152
20
308.702749
70
0
0
VERTEX
8
VISIBLE
10
524.862272
20
308.702749
70
0
0
SEQEND
8
VISIBLE
0
POLYLINE
8
VISIBLE
62
7
70
0
10
0.000000
20
0.000000
66
1
0
VERTEX
8
VISIBLE
10
538.862152
20
322.702894
70
0
0
VERTEX
8
VISIBLE
10
538.862152
20
308.702749
70
0
0
SEQEND
8
VISIBLE
0
POLYLINE
8
VISIBLE
62
7
70
0
10
0.000000
20
0.000000
66
1
0
VERTEX
8
VISIBLE
10
524.862272
20
322.702894
70
0
0
VERTEX
8
VISIBLE
10
538.862152
20
322.702894
70
0
0
SEQEND
8
VISIBLE
0
POLYLINE
8
VISIBLE
62
7
70
0
10
0.000000
20
0.000000
66
1
0
VERTEX
8
VISIBLE
10
557.863974
20
349.082084
70
0
0
VERTEX
8
VISIBLE
10
543.863829
20
349.082084
70
0
0
SEQEND
8
VISIBLE
0
POLYLINE
8
VISIBLE
62
7
70
0
10
0.000000
20
0.000000
66
1
0
VERTEX
8
VISIBLE
10
557.863974
20
363.081170
70
0
0
VERTEX
8
VISIBLE
10
557.863974
20
349.082084
70
0
0
SEQEND
8
VISIBLE
0
POLYLINE
8
VISIBLE
62
7
70
0
10
0.000000
20
0.000000
66
1
0
VERTEX
8
VISIBLE
10
543.863829
20
363.081170
70
0
0
VERTEX
8
VISIBLE
10
557.863974
20
363.081170
70
0
0
SEQEND
8
VISIBLE
0
POLYLINE
8
VISIBLE
62
7
70
0
10
0.000000
20
0.000000
66
1
0
VERTEX
8
VISIBLE
10
543.863829
20
349.082084
70
0
0
VERTEX
8
VISIBLE
10
543.863829
20
363.081170
70
0
0
SEQEND
8
VISIBLE
0
POLYLINE
8
VISIBLE
62
7
70
0
10
0.000000
20
0.000000
66
1
0
VERTEX
8
VISIBLE
10
524.862272
20
327.702719
70
0
0
VERTEX
8
VISIBLE
10
524.862272
20
341.702864
70
0
0
SEQEND
8
VISIBLE
0
POLYLINE
8
VISIBLE
62
7
70
0
10
0.000000
20
0.000000
66
1
0
VERTEX
8
VISIBLE
10
538.862152
20
327.702719
70
0
0
VERTEX
8
VISIBLE
10
524.862272
20
327.702719
70
0
0
SEQEND
8
VISIBLE
0
POLYLINE
8
VISIBLE
62
7
70
0
10
0.000000
20
0.000000
66
1
0
VERTEX
8
VISIBLE
10
538.862152
20
341.702864
70
0
0
VERTEX
8
VISIBLE
10
538.862152
20
327.702719
70
0
0
SEQEND
8
VISIBLE
0
POLYLINE
8
VISIBLE
62
7
70
0
10
0.000000
20
0.000000
66
1
0
VERTEX
8
VISIBLE
10
524.862272
20
341.702864
70
0
0
VERTEX
8
VISIBLE
10
538.862152
20
341.702864
70
0
0
SEQEND
8
VISIBLE
0
POLYLINE
8
VISIBLE
62
7
70
0
10
0.000000
20
0.000000
66
1
0
VERTEX
8
VISIBLE
10
519.861918
20
355.958596
70
0
0
VERTEX
8
VISIBLE
10
519.861918
20
341.956864
70
0
0
SEQEND
8
VISIBLE
0
POLYLINE
8
VISIBLE
62
7
70
0
10
0.000000
20
0.000000
66
1
0
VERTEX
8
VISIBLE
10
505.862038
20
355.958596
70
0
0
VERTEX
8
VISIBLE
10
519.861918
20
355.958596
70
0
0
SEQEND
8
VISIBLE
0
POLYLINE
8
VISIBLE
62
7
70
0
10
0.000000
20
0.000000
66
1
0
VERTEX
8
VISIBLE
10
505.862038
20
341.956864
70
0
0
VERTEX
8
VISIBLE
10
505.862038
20
355.958596
70
0
0
SEQEND
8
VISIBLE
0
POLYLINE
8
VISIBLE
62
7
70
0
10
0.000000
20
0.000000
66
1
0
VERTEX
8
VISIBLE
10
519.861918
20
341.956864
70
0
0
VERTEX
8
VISIBLE
10
505.862038
20
341.956864
70
0
0
SEQEND
8
VISIBLE
0
POLYLINE
8
VISIBLE
62
7
70
0
10
0.000000
20
0.000000
66
1
0
VERTEX
8
VISIBLE
10
505.862038
20
322.957423
70
0
0
VERTEX
8
VISIBLE
10
505.862038
20
336.956245
70
0
0
SEQEND
8
VISIBLE
0
POLYLINE
8
VISIBLE
62
7
70
0
10
0.000000
20
0.000000
66
1
0
VERTEX
8
VISIBLE
10
519.861918
20
322.957423
70
0
0
VERTEX
8
VISIBLE
10
505.862038
20
322.957423
70
0
0
SEQEND
8
VISIBLE
0
POLYLINE
8
VISIBLE
62
7
70
0
10
0.000000
20
0.000000
66
1
0
VERTEX
8
VISIBLE
10
519.861918
20
336.956245
70
0
0
VERTEX
8
VISIBLE
10
519.861918
20
322.957423
70
0
0
SEQEND
8
VISIBLE
0
POLYLINE
8
VISIBLE
62
7
70
0
10
0.000000
20
0.000000
66
1
0
VERTEX
8
VISIBLE
10
505.862038
20
336.956245
70
0
0
VERTEX
8
VISIBLE
10
519.861918
20
336.956245
70
0
0
SEQEND
8
VISIBLE
0
POLYLINE
8
VISIBLE
62
7
70
0
10
0.000000
20
0.000000
66
1
0
VERTEX
8
VISIBLE
10
519.861918
20
303.957188
70
0
0
VERTEX
8
VISIBLE
10
505.862038
20
303.957188
70
0
0
SEQEND
8
VISIBLE
0
POLYLINE
8
VISIBLE
62
7
70
0
10
0.000000
20
0.000000
66
1
0
VERTEX
8
VISIBLE
10
519.861918
20
317.957333
70
0
0
VERTEX
8
VISIBLE
10
519.861918
20
303.957188
70
0
0
SEQEND
8
VISIBLE
0
POLYLINE
8
VISIBLE
62
7
70
0
10
0.000000
20
0.000000
66
1
0
VERTEX
8
VISIBLE
10
505.862038
20
317.957333
70
0
0
VERTEX
8
VISIBLE
10
519.861918
20
317.957333
70
0
0
SEQEND
8
VISIBLE
0
POLYLINE
8
VISIBLE
62
7
70
0
10
0.000000
20
0.000000
66
1
0
VERTEX
8
VISIBLE
10
505.862038
20
303.957188
70
0
0
VERTEX
8
VISIBLE
10
505.862038
20
317.957333
70
0
0
SEQEND
8
VISIBLE
0
POLYLINE
8
VISIBLE
62
7
70
0
10
0.000000
20
0.000000
66
1
0
VERTEX
8
VISIBLE
10
567.383671
20
289.049259
70
0
0
VERTEX
8
VISIBLE
10
553.383526
20
289.049259
70
0
0
SEQEND
8
VISIBLE
0
POLYLINE
8
VISIBLE
62
7
70
0
10
0.000000
20
0.000000
66
1
0
VERTEX
8
VISIBLE
10
567.383671
20
303.049669
70
0
0
VERTEX
8
VISIBLE
10
567.383671
20
289.049259
70
0
0
SEQEND
8
VISIBLE
0
POLYLINE
8
VISIBLE
62
7
70
0
10
0.000000
20
0.000000
66
1
0
VERTEX
8
VISIBLE
10
553.383526
20
303.049669
70
0
0
VERTEX
8
VISIBLE
10
567.383671
20
303.049669
70
0
0
SEQEND
8
VISIBLE
0
POLYLINE
8
VISIBLE
62
7
70
0
10
0.000000
20
0.000000
66
1
0
VERTEX
8
VISIBLE
10
553.383526
20
289.049259
70
0
0
VERTEX
8
VISIBLE
10
553.383526
20
303.049669
70
0
0
SEQEND
8
VISIBLE
0
POLYLINE
8
VISIBLE
62
7
70
0
10
0.000000
20
0.000000
66
1
0
VERTEX
8
VISIBLE
10
562.865122
20
327.707217
70
0
0
VERTEX
8
VISIBLE
10
562.865122
20
341.708156
70
0
0
SEQEND
8
VISIBLE
0
POLYLINE
8
VISIBLE
62
7
70
0
10
0.000000
20
0.000000
66
1
0
VERTEX
8
VISIBLE
10
576.865267
20
327.707217
70
0
0
VERTEX
8
VISIBLE
10
562.865122
20
327.707217
70
0
0
SEQEND
8
VISIBLE
0
POLYLINE
8
VISIBLE
62
7
70
0
10
0.000000
20
0.000000
66
1
0
VERTEX
8
VISIBLE
10
576.865267
20
341.708156
70
0
0
VERTEX
8
VISIBLE
10
576.865267
20
327.707217
70
0
0
SEQEND
8
VISIBLE
0
POLYLINE
8
VISIBLE
62
7
70
0
10
0.000000
20
0.000000
66
1
0
VERTEX
8
VISIBLE
10
562.865122
20
341.708156
70
0
0
VERTEX
8
VISIBLE
10
576.865267
20
341.708156
70
0
0
SEQEND
8
VISIBLE
0
POLYLINE
8
VISIBLE
62
7
70
0
10
0.000000
20
0.000000
66
1
0
VERTEX
8
VISIBLE
10
500.863800
20
303.957188
70
0
0
VERTEX
8
VISIBLE
10
486.863920
20
303.957188
70
0
0
SEQEND
8
VISIBLE
0
POLYLINE
8
VISIBLE
62
7
70
0
10
0.000000
20
0.000000
66
1
0
VERTEX
8
VISIBLE
10
500.863800
20
317.957333
70
0
0
VERTEX
8
VISIBLE
10
500.863800
20
303.957188
70
0
0
SEQEND
8
VISIBLE
0
POLYLINE
8
VISIBLE
62
7
70
0
10
0.000000
20
0.000000
66
1
0
VERTEX
8
VISIBLE
10
486.863920
20
317.957333
70
0
0
VERTEX
8
VISIBLE
10
500.863800
20
317.957333
70
0
0
SEQEND
8
VISIBLE
0
POLYLINE
8
VISIBLE
62
7
70
0
10
0.000000
20
0.000000
66
1
0
VERTEX
8
VISIBLE
10
486.863920
20
303.957188
70
0
0
VERTEX
8
VISIBLE
10
486.863920
20
317.957333
70
0
0
SEQEND
8
VISIBLE
0
POLYLINE
8
VISIBLE
62
7
70
0
10
0.000000
20
0.000000
66
1
0
VERTEX
8
VISIBLE
10
572.772962
20
288.389125
70
0
0
VERTEX
8
VISIBLE
10
576.396426
20
301.912226
70
0
0
SEQEND
8
VISIBLE
0
POLYLINE
8
VISIBLE
62
7
70
0
10
0.000000
20
0.000000
66
1
0
VERTEX
8
VISIBLE
10
586.296063
20
284.765661
70
0
0
VERTEX
8
VISIBLE
10
572.772962
20
288.389125
70
0
0
SEQEND
8
VISIBLE
0
POLYLINE
8
VISIBLE
62
7
70
0
10
0.000000
20
0.000000
66
1
0
VERTEX
8
VISIBLE
10
589.919528
20
298.288762
70
0
0
VERTEX
8
VISIBLE
10
586.296063
20
284.765661
70
0
0
SEQEND
8
VISIBLE
0
POLYLINE
8
VISIBLE
62
7
70
0
10
0.000000
20
0.000000
66
1
0
VERTEX
8
VISIBLE
10
576.396426
20
301.912226
70
0
0
VERTEX
8
VISIBLE
10
589.919528
20
298.288762
70
0
0
SEQEND
8
VISIBLE
0
POLYLINE
8
VISIBLE
62
7
70
0
10
0.000000
20
0.000000
66
1
0
VERTEX
8
VISIBLE
10
557.863974
20
311.081880
70
0
0
VERTEX
8
VISIBLE
10
543.863829
20
311.081880
70
0
0
SEQEND
8
VISIBLE
0
POLYLINE
8
VISIBLE
62
7
70
0
10
0.000000
20
0.000000
66
1
0
VERTEX
8
VISIBLE
10
557.863974
20
325.082024
70
0
0
VERTEX
8
VISIBLE
10
557.863974
20
311.081880
70
0
0
SEQEND
8
VISIBLE
0
POLYLINE
8
VISIBLE
62
7
70
0
10
0.000000
20
0.000000
66
1
0
VERTEX
8
VISIBLE
10
543.863829
20
325.082024
70
0
0
VERTEX
8
VISIBLE
10
557.863974
20
325.082024
70
0
0
SEQEND
8
VISIBLE
0
POLYLINE
8
VISIBLE
62
7
70
0
10
0.000000
20
0.000000
66
1
0
VERTEX
8
VISIBLE
10
543.863829
20
311.081880
70
0
0
VERTEX
8
VISIBLE
10
543.863829
20
325.082024
70
0
0
SEQEND
8
VISIBLE
0
POLYLINE
8
VISIBLE
62
7
70
0
10
0.000000
20
0.000000
66
1
0
VERTEX
8
VISIBLE
10
538.862152
20
360.702569
70
0
0
VERTEX
8
VISIBLE
10
538.862152
20
346.703483
70
0
0
SEQEND
8
VISIBLE
0
POLYLINE
8
VISIBLE
62
7
70
0
10
0.000000
20
0.000000
66
1
0
VERTEX
8
VISIBLE
10
524.862272
20
360.702569
70
0
0
VERTEX
8
VISIBLE
10
538.862152
20
360.702569
70
0
0
SEQEND
8
VISIBLE
0
POLYLINE
8
VISIBLE
62
7
70
0
10
0.000000
20
0.000000
66
1
0
VERTEX
8
VISIBLE
10
524.862272
20
346.703483
70
0
0
VERTEX
8
VISIBLE
10
524.862272
20
360.702569
70
0
0
SEQEND
8
VISIBLE
0
POLYLINE
8
VISIBLE
62
7
70
0
10
0.000000
20
0.000000
66
1
0
VERTEX
8
VISIBLE
10
538.862152
20
346.703483
70
0
0
VERTEX
8
VISIBLE
10
524.862272
20
346.703483
70
0
0
SEQEND
8
VISIBLE
0
POLYLINE
8
VISIBLE
62
7
70
0
10
0.000000
20
0.000000
66
1
0
VERTEX
8
VISIBLE
10
595.866824
20
358.321322
70
0
0
VERTEX
8
VISIBLE
10
595.866824
20
344.322236
70
0
0
SEQEND
8
VISIBLE
0
POLYLINE
8
VISIBLE
62
7
70
0
10
0.000000
20
0.000000
66
1
0
VERTEX
8
VISIBLE
10
581.866944
20
358.321322
70
0
0
VERTEX
8
VISIBLE
10
595.866824
20
358.321322
70
0
0
SEQEND
8
VISIBLE
0
POLYLINE
8
VISIBLE
62
7
70
0
10
0.000000
20
0.000000
66
1
0
VERTEX
8
VISIBLE
10
581.866944
20
344.322236
70
0
0
VERTEX
8
VISIBLE
10
581.866944
20
358.321322
70
0
0
SEQEND
8
VISIBLE
0
POLYLINE
8
VISIBLE
62
7
70
0
10
0.000000
20
0.000000
66
1
0
VERTEX
8
VISIBLE
10
595.866824
20
344.322236
70
0
0
VERTEX
8
VISIBLE
10
581.866944
20
344.322236
70
0
0
SEQEND
8
VISIBLE
0
POLYLINE
8
VISIBLE
62
7
70
0
10
0.000000
20
0.000000
66
1
0
VERTEX
8
VISIBLE
10
562.865122
20
322.707127
70
0
0
VERTEX
8
VISIBLE
10
576.865267
20
322.707127
70
0
0
SEQEND
8
VISIBLE
0
POLYLINE
8
VISIBLE
62
7
70
0
10
0.000000
20
0.000000
66
1
0
VERTEX
8
VISIBLE
10
562.865122
20
308.706983
70
0
0
VERTEX
8
VISIBLE
10
562.865122
20
322.707127
70
0
0
SEQEND
8
VISIBLE
0
POLYLINE
8
VISIBLE
62
7
70
0
10
0.000000
20
0.000000
66
1
0
VERTEX
8
VISIBLE
10
576.865267
20
308.706983
70
0
0
VERTEX
8
VISIBLE
10
562.865122
20
308.706983
70
0
0
SEQEND
8
VISIBLE
0
POLYLINE
8
VISIBLE
62
7
70
0
10
0.000000
20
0.000000
66
1
0
VERTEX
8
VISIBLE
10
576.865267
20
322.707127
70
0
0
VERTEX
8
VISIBLE
10
576.865267
20
308.706983
70
0
0
SEQEND
8
VISIBLE
0
POLYLINE
8
VISIBLE
62
7
70
0
10
0.000000
20
0.000000
66
1
0
VERTEX
8
VISIBLE
10
540.602050
20
301.829677
70
0
0
VERTEX
8
VISIBLE
10
484.853354
20
301.829677
70
0
0
SEQEND
8
VISIBLE
0
POLYLINE
8
VISIBLE
62
7
70
0
10
0.000000
20
0.000000
66
1
0
VERTEX
8
VISIBLE
10
484.853354
20
301.829677
70
0
0
VERTEX
8
VISIBLE
10
484.853354
20
358.080552
70
0
0
SEQEND
8
VISIBLE
0
POLYLINE
8
VISIBLE
62
7
70
0
10
0.000000
20
0.000000
66
1
0
VERTEX
8
VISIBLE
10
484.853354
20
358.080552
70
0
0
VERTEX
8
VISIBLE
10
522.854087
20
358.080552
70
0
0
SEQEND
8
VISIBLE
0
POLYLINE
8
VISIBLE
62
7
70
0
10
0.000000
20
0.000000
66
1
0
VERTEX
8
VISIBLE
10
522.854087
20
358.080552
70
0
0
VERTEX
8
VISIBLE
10
522.854087
20
362.829816
70
0
0
SEQEND
8
VISIBLE
0
POLYLINE
8
VISIBLE
62
7
70
0
10
0.000000
20
0.000000
66
1
0
VERTEX
8
VISIBLE
10
522.854087
20
362.829816
70
0
0
VERTEX
8
VISIBLE
10
541.853263
20
362.829816
70
0
0
SEQEND
8
VISIBLE
0
POLYLINE
8
VISIBLE
62
7
70
0
10
0.000000
20
0.000000
66
1
0
VERTEX
8
VISIBLE
10
541.853263
20
362.829816
70
0
0
VERTEX
8
VISIBLE
10
541.853263
20
365.081418
70
0
0
SEQEND
8
VISIBLE
0
POLYLINE
8
VISIBLE
62
7
70
0
10
0.000000
20
0.000000
66
1
0
VERTEX
8
VISIBLE
10
541.853263
20
365.081418
70
0
0
VERTEX
8
VISIBLE
10
559.854168
20
365.081418
70
0
0
SEQEND
8
VISIBLE
0
POLYLINE
8
VISIBLE
62
7
70
0
10
0.000000
20
0.000000
66
1
0
VERTEX
8
VISIBLE
10
559.854168
20
365.081418
70
0
0
VERTEX
8
VISIBLE
10
559.854168
20
362.829816
70
0
0
SEQEND
8
VISIBLE
0
POLYLINE
8
VISIBLE
62
7
70
0
10
0.000000
20
0.000000
66
1
0
VERTEX
8
VISIBLE
10
559.854168
20
362.829816
70
0
0
VERTEX
8
VISIBLE
10
578.853344
20
362.829816
70
0
0
SEQEND
8
VISIBLE
0
POLYLINE
8
VISIBLE
62
7
70
0
10
0.000000
20
0.000000
66
1
0
VERTEX
8
VISIBLE
10
578.853344
20
362.829816
70
0
0
VERTEX
8
VISIBLE
10
578.853344
20
360.329507
70
0
0
SEQEND
8
VISIBLE
0
POLYLINE
8
VISIBLE
62
7
70
0
10
0.000000
20
0.000000
66
1
0
VERTEX
8
VISIBLE
10
578.853344
20
360.329507
70
0
0
VERTEX
8
VISIBLE
10
598.353111
20
360.329507
70
0
0
SEQEND
8
VISIBLE
0
POLYLINE
8
VISIBLE
62
7
70
0
10
0.000000
20
0.000000
66
1
0
VERTEX
8
VISIBLE
10
598.353111
20
360.329507
70
0
0
VERTEX
8
VISIBLE
10
598.353111
20
308.517012
70
0
0
SEQEND
8
VISIBLE
0
POLYLINE
8
VISIBLE
62
7
70
0
10
0.000000
20
0.000000
66
1
0
VERTEX
8
VISIBLE
10
598.353111
20
308.517012
70
0
0
VERTEX
8
VISIBLE
10
618.677318
20
296.788048
70
0
0
SEQEND
8
VISIBLE
0
POLYLINE
8
VISIBLE
62
7
70
0
10
0.000000
20
0.000000
66
1
0
VERTEX
8
VISIBLE
10
618.677318
20
296.788048
70
0
0
VERTEX
8
VISIBLE
10
604.937788
20
272.928482
70
0
0
SEQEND
8
VISIBLE
0
POLYLINE
8
VISIBLE
62
7
70
0
10
0.000000
20
0.000000
66
1
0
VERTEX
8
VISIBLE
10
604.937788
20
272.928482
70
0
0
VERTEX
8
VISIBLE
10
588.830239
20
282.237570
70
0
0
SEQEND
8
VISIBLE
0
POLYLINE
8
VISIBLE
62
7
70
0
10
0.000000
20
0.000000
66
1
0
VERTEX
8
VISIBLE
10
588.830239
20
282.237570
70
0
0
VERTEX
8
VISIBLE
10
551.333007
20
287.115158
70
0
0
SEQEND
8
VISIBLE
0
POLYLINE
8
VISIBLE
62
7
70
0
10
0.000000
20
0.000000
66
1
0
VERTEX
8
VISIBLE
10
551.333007
20
287.115158
70
0
0
VERTEX
8
VISIBLE
10
540.602050
20
301.829677
70
0
0
SEQEND
8
VISIBLE
0
POLYLINE
8
VISIBLE
62
7
70
0
10
0.000000
20
0.000000
66
1
0
VERTEX
8
VISIBLE
10
547.567833
20
303.524995
70
0
0
VERTEX
8
VISIBLE
10
547.488885
20
303.136155
70
0
0
VERTEX
8
VISIBLE
10
547.274495
20
302.818703
70
0
0
VERTEX
8
VISIBLE
10
546.956774
20
302.604713
70
0
0
VERTEX
8
VISIBLE
10
546.567835
20
302.526256
70
0
0
VERTEX
8
VISIBLE
10
546.178895
20
302.604713
70
0
0
VERTEX
8
VISIBLE
10
545.861174
20
302.818703
70
0
0
VERTEX
8
VISIBLE
10
545.646784
20
303.136155
70
0
0
VERTEX
8
VISIBLE
10
545.567836
20
303.524995
70
0
0
VERTEX
8
VISIBLE
10
545.646784
20
303.913835
70
0
0
VERTEX
8
VISIBLE
10
545.861174
20
304.231286
70
0
0
VERTEX
8
VISIBLE
10
546.178895
20
304.445276
70
0
0
VERTEX
8
VISIBLE
10
546.567835
20
304.523734
70
0
0
VERTEX
8
VISIBLE
10
546.956774
20
304.445276
70
0
0
VERTEX
8
VISIBLE
10
547.274495
20
304.231286
70
0
0
VERTEX
8
VISIBLE
10
547.488885
20
303.913835
70
0
0
VERTEX
8
VISIBLE
10
547.567833
20
303.524995
70
0
0
VERTEX
8
VISIBLE
10
547.567833
20
303.524995
70
0
0
SEQEND
8
VISIBLE
0
POLYLINE
8
VISIBLE
62
7
70
0
10
0.000000
20
0.000000
66
1
0
VERTEX
8
VISIBLE
10
594.133774
20
295.910505
70
0
0
VERTEX
8
VISIBLE
10
594.054827
20
295.521665
70
0
0
VERTEX
8
VISIBLE
10
593.840436
20
295.204214
70
0
0
VERTEX
8
VISIBLE
10
593.522715
20
294.990223
70
0
0
VERTEX
8
VISIBLE
10
593.133776
20
294.911766
70
0
0
VERTEX
8
VISIBLE
10
592.744837
20
294.990223
70
0
0
VERTEX
8
VISIBLE
10
592.427115
20
295.204214
70
0
0
VERTEX
8
VISIBLE
10
592.212725
20
295.521665
70
0
0
VERTEX
8
VISIBLE
10
592.133778
20
295.910505
70
0
0
VERTEX
8
VISIBLE
10
592.212725
20
296.299345
70
0
0
VERTEX
8
VISIBLE
10
592.427115
20
296.616796
70
0
0
VERTEX
8
VISIBLE
10
592.744837
20
296.830787
70
0
0
VERTEX
8
VISIBLE
10
593.133776
20
296.909244
70
0
0
VERTEX
8
VISIBLE
10
593.522715
20
296.830787
70
0
0
VERTEX
8
VISIBLE
10
593.840436
20
296.616796
70
0
0
VERTEX
8
VISIBLE
10
594.054827
20
296.299345
70
0
0
VERTEX
8
VISIBLE
10
594.133774
20
295.910505
70
0
0
VERTEX
8
VISIBLE
10
594.133774
20
295.910505
70
0
0
SEQEND
8
VISIBLE
0
POLYLINE
8
VISIBLE
62
7
70
0
10
0.000000
20
0.000000
66
1
0
VERTEX
8
VISIBLE
10
580.378792
20
343.279937
70
0
0
VERTEX
8
VISIBLE
10
580.299844
20
342.891097
70
0
0
VERTEX
8
VISIBLE
10
580.085454
20
342.573646
70
0
0
VERTEX
8
VISIBLE
10
579.767733
20
342.359656
70
0
0
VERTEX
8
VISIBLE
10
579.378794
20
342.281198
70
0
0
VERTEX
8
VISIBLE
10
578.989854
20
342.359656
70
0
0
VERTEX
8
VISIBLE
10
578.672133
20
342.573646
70
0
0
VERTEX
8
VISIBLE
10
578.457743
20
342.891097
70
0
0
VERTEX
8
VISIBLE
10
578.378795
20
343.279937
70
0
0
VERTEX
8
VISIBLE
10
578.457743
20
343.668777
70
0
0
VERTEX
8
VISIBLE
10
578.672133
20
343.986229
70
0
0
VERTEX
8
VISIBLE
10
578.989854
20
344.200219
70
0
0
VERTEX
8
VISIBLE
10
579.378794
20
344.278676
70
0
0
VERTEX
8
VISIBLE
10
579.767733
20
344.200219
70
0
0
VERTEX
8
VISIBLE
10
580.085454
20
343.986229
70
0
0
VERTEX
8
VISIBLE
10
580.299844
20
343.668777
70
0
0
VERTEX
8
VISIBLE
10
580.378792
20
343.279937
70
0
0
VERTEX
8
VISIBLE
10
580.378792
20
343.279937
70
0
0
SEQEND
8
VISIBLE
0
POLYLINE
8
Layer 1
62
7
70
0
10
0.000000
20
0.000000
66
1
0
VERTEX
8
Layer 1
10
742.640451
20
361.440333
70
0
0
VERTEX
8
Layer 1
10
742.425372
20
361.294320
70
0
0
VERTEX
8
Layer 1
10
742.230832
20
361.331282
70
0
0
SEQEND
8
Layer 1
0
POLYLINE
8
VISIBLE
62
7
70
0
10
0.000000
20
0.000000
66
1
0
VERTEX
8
VISIBLE
10
659.988865
20
335.224655
70
0
0
VERTEX
8
VISIBLE
10
659.854890
20
334.724655
70
0
0
VERTEX
8
VISIBLE
10
659.488865
20
334.358630
70
0
0
VERTEX
8
VISIBLE
10
658.988866
20
334.224655
70
0
0
VERTEX
8
VISIBLE
10
658.488866
20
334.358630
70
0
0
VERTEX
8
VISIBLE
10
658.122841
20
334.724655
70
0
0
VERTEX
8
VISIBLE
10
657.988866
20
335.224655
70
0
0
VERTEX
8
VISIBLE
10
658.122841
20
335.724655
70
0
0
VERTEX
8
VISIBLE
10
658.488866
20
336.090680
70
0
0
VERTEX
8
VISIBLE
10
658.988866
20
336.224654
70
0
0
VERTEX
8
VISIBLE
10
659.488865
20
336.090680
70
0
0
VERTEX
8
VISIBLE
10
659.854890
20
335.724655
70
0
0
VERTEX
8
VISIBLE
10
659.988865
20
335.224655
70
0
0
VERTEX
8
VISIBLE
10
659.988865
20
335.224655
70
0
0
SEQEND
8
VISIBLE
0
POLYLINE
8
VISIBLE
62
7
70
0
10
0.000000
20
0.000000
66
1
0
VERTEX
8
VISIBLE
10
732.444824
20
320.781466
70
0
0
VERTEX
8
VISIBLE
10
718.444944
20
320.781466
70
0
0
SEQEND
8
VISIBLE
0
POLYLINE
8
VISIBLE
62
7
70
0
10
0.000000
20
0.000000
66
1
0
VERTEX
8
VISIBLE
10
732.444824
20
334.780817
70
0
0
VERTEX
8
VISIBLE
10
732.444824
20
320.781466
70
0
0
SEQEND
8
VISIBLE
0
POLYLINE
8
VISIBLE
62
7
70
0
10
0.000000
20
0.000000
66
1
0
VERTEX
8
VISIBLE
10
718.444944
20
334.780817
70
0
0
VERTEX
8
VISIBLE
10
732.444824
20
334.780817
70
0
0
SEQEND
8
VISIBLE
0
POLYLINE
8
VISIBLE
62
7
70
0
10
0.000000
20
0.000000
66
1
0
VERTEX
8
VISIBLE
10
718.444944
20
320.781466
70
0
0
VERTEX
8
VISIBLE
10
718.444944
20
334.780817
70
0
0
SEQEND
8
VISIBLE
0
POLYLINE
8
VISIBLE
62
7
70
0
10
0.000000
20
0.000000
66
1
0
VERTEX
8
VISIBLE
10
732.444824
20
301.781231
70
0
0
VERTEX
8
VISIBLE
10
718.444944
20
301.781231
70
0
0
SEQEND
8
VISIBLE
0
POLYLINE
8
VISIBLE
62
7
70
0
10
0.000000
20
0.000000
66
1
0
VERTEX
8
VISIBLE
10
732.444824
20
315.781376
70
0
0
VERTEX
8
VISIBLE
10
732.444824
20
301.781231
70
0
0
SEQEND
8
VISIBLE
0
POLYLINE
8
VISIBLE
62
7
70
0
10
0.000000
20
0.000000
66
1
0
VERTEX
8
VISIBLE
10
718.444944
20
315.781376
70
0
0
VERTEX
8
VISIBLE
10
732.444824
20
315.781376
70
0
0
SEQEND
8
VISIBLE
0
POLYLINE
8
VISIBLE
62
7
70
0
10
0.000000
20
0.000000
66
1
0
VERTEX
8
VISIBLE
10
718.444944
20
301.781231
70
0
0
VERTEX
8
VISIBLE
10
718.444944
20
315.781376
70
0
0
SEQEND
8
VISIBLE
0
POLYLINE
8
VISIBLE
62
7
70
0
10
0.000000
20
0.000000
66
1
0
VERTEX
8
VISIBLE
10
623.441920
20
337.416064
70
0
0
VERTEX
8
VISIBLE
10
623.441920
20
351.417796
70
0
0
SEQEND
8
VISIBLE
0
POLYLINE
8
VISIBLE
62
7
70
0
10
0.000000
20
0.000000
66
1
0
VERTEX
8
VISIBLE
10
637.441800
20
337.416064
70
0
0
VERTEX
8
VISIBLE
10
623.441920
20
337.416064
70
0
0
SEQEND
8
VISIBLE
0
POLYLINE
8
VISIBLE
62
7
70
0
10
0.000000
20
0.000000
66
1
0
VERTEX
8
VISIBLE
10
637.441800
20
351.417796
70
0
0
VERTEX
8
VISIBLE
10
637.441800
20
337.416064
70
0
0
SEQEND
8
VISIBLE
0
POLYLINE
8
VISIBLE
62
7
70
0
10
0.000000
20
0.000000
66
1
0
VERTEX
8
VISIBLE
10
623.441920
20
351.417796
70
0
0
VERTEX
8
VISIBLE
10
637.441800
20
351.417796
70
0
0
SEQEND
8
VISIBLE
0
POLYLINE
8
VISIBLE
62
7
70
0
10
0.000000
20
0.000000
66
1
0
VERTEX
8
VISIBLE
10
637.441800
20
332.415445
70
0
0
VERTEX
8
VISIBLE
10
637.441800
20
318.416623
70
0
0
SEQEND
8
VISIBLE
0
POLYLINE
8
VISIBLE
62
7
70
0
10
0.000000
20
0.000000
66
1
0
VERTEX
8
VISIBLE
10
623.441920
20
332.415445
70
0
0
VERTEX
8
VISIBLE
10
637.441800
20
332.415445
70
0
0
SEQEND
8
VISIBLE
0
POLYLINE
8
VISIBLE
62
7
70
0
10
0.000000
20
0.000000
66
1
0
VERTEX
8
VISIBLE
10
623.441920
20
318.416623
70
0
0
VERTEX
8
VISIBLE
10
623.441920
20
332.415445
70
0
0
SEQEND
8
VISIBLE
0
POLYLINE
8
VISIBLE
62
7
70
0
10
0.000000
20
0.000000
66
1
0
VERTEX
8
VISIBLE
10
637.441800
20
318.416623
70
0
0
VERTEX
8
VISIBLE
10
623.441920
20
318.416623
70
0
0
SEQEND
8
VISIBLE
0
POLYLINE
8
VISIBLE
62
7
70
0
10
0.000000
20
0.000000
66
1
0
VERTEX
8
VISIBLE
10
694.441974
20
339.540665
70
0
0
VERTEX
8
VISIBLE
10
694.441974
20
325.540785
70
0
0
SEQEND
8
VISIBLE
0
POLYLINE
8
VISIBLE
62
7
70
0
10
0.000000
20
0.000000
66
1
0
VERTEX
8
VISIBLE
10
680.441829
20
339.540665
70
0
0
VERTEX
8
VISIBLE
10
694.441974
20
339.540665
70
0
0
SEQEND
8
VISIBLE
0
POLYLINE
8
VISIBLE
62
7
70
0
10
0.000000
20
0.000000
66
1
0
VERTEX
8
VISIBLE
10
680.441829
20
325.540785
70
0
0
VERTEX
8
VISIBLE
10
680.441829
20
339.540665
70
0
0
SEQEND
8
VISIBLE
0
POLYLINE
8
VISIBLE
62
7
70
0
10
0.000000
20
0.000000
66
1
0
VERTEX
8
VISIBLE
10
694.441974
20
325.540785
70
0
0
VERTEX
8
VISIBLE
10
680.441829
20
325.540785
70
0
0
SEQEND
8
VISIBLE
0
POLYLINE
8
VISIBLE
62
7
70
0
10
0.000000
20
0.000000
66
1
0
VERTEX
8
VISIBLE
10
737.620068
20
294.620292
70
0
0
VERTEX
8
VISIBLE
10
749.744055
20
287.620220
70
0
0
SEQEND
8
VISIBLE
0
POLYLINE
8
VISIBLE
62
7
70
0
10
0.000000
20
0.000000
66
1
0
VERTEX
8
VISIBLE
10
730.620260
20
282.496041
70
0
0
VERTEX
8
VISIBLE
10
737.620068
20
294.620292
70
0
0
SEQEND
8
VISIBLE
0
POLYLINE
8
VISIBLE
62
7
70
0
10
0.000000
20
0.000000
66
1
0
VERTEX
8
VISIBLE
10
742.744511
20
275.495969
70
0
0
VERTEX
8
VISIBLE
10
730.620260
20
282.496041
70
0
0
SEQEND
8
VISIBLE
0
POLYLINE
8
VISIBLE
62
7
70
0
10
0.000000
20
0.000000
66
1
0
VERTEX
8
VISIBLE
10
749.744055
20
287.620220
70
0
0
VERTEX
8
VISIBLE
10
742.744511
20
275.495969
70
0
0
SEQEND
8
VISIBLE
0
POLYLINE
8
VISIBLE
62
7
70
0
10
0.000000
20
0.000000
66
1
0
VERTEX
8
VISIBLE
10
699.443122
20
342.165328
70
0
0
VERTEX
8
VISIBLE
10
699.443122
20
356.167061
70
0
0
SEQEND
8
VISIBLE
0
POLYLINE
8
VISIBLE
62
7
70
0
10
0.000000
20
0.000000
66
1
0
VERTEX
8
VISIBLE
10
713.443267
20
342.165328
70
0
0
VERTEX
8
VISIBLE
10
699.443122
20
342.165328
70
0
0
SEQEND
8
VISIBLE
0
POLYLINE
8
VISIBLE
62
7
70
0
10
0.000000
20
0.000000
66
1
0
VERTEX
8
VISIBLE
10
713.443267
20
356.167061
70
0
0
VERTEX
8
VISIBLE
10
713.443267
20
342.165328
70
0
0
SEQEND
8
VISIBLE
0
POLYLINE
8
VISIBLE
62
7
70
0
10
0.000000
20
0.000000
66
1
0
VERTEX
8
VISIBLE
10
699.443122
20
356.167061
70
0
0
VERTEX
8
VISIBLE
10
713.443267
20
356.167061
70
0
0
SEQEND
8
VISIBLE
0
POLYLINE
8
VISIBLE
62
7
70
0
10
0.000000
20
0.000000
66
1
0
VERTEX
8
VISIBLE
10
661.440272
20
304.161949
70
0
0
VERTEX
8
VISIBLE
10
661.440272
20
318.162094
70
0
0
SEQEND
8
VISIBLE
0
POLYLINE
8
VISIBLE
62
7
70
0
10
0.000000
20
0.000000
66
1
0
VERTEX
8
VISIBLE
10
675.440152
20
304.161949
70
0
0
VERTEX
8
VISIBLE
10
661.440272
20
304.161949
70
0
0
SEQEND
8
VISIBLE
0
POLYLINE
8
VISIBLE
62
7
70
0
10
0.000000
20
0.000000
66
1
0
VERTEX
8
VISIBLE
10
675.440152
20
318.162094
70
0
0
VERTEX
8
VISIBLE
10
675.440152
20
304.161949
70
0
0
SEQEND
8
VISIBLE
0
POLYLINE
8
VISIBLE
62
7
70
0
10
0.000000
20
0.000000
66
1
0
VERTEX
8
VISIBLE
10
661.440272
20
318.162094
70
0
0
VERTEX
8
VISIBLE
10
675.440152
20
318.162094
70
0
0
SEQEND
8
VISIBLE
0
POLYLINE
8
VISIBLE
62
7
70
0
10
0.000000
20
0.000000
66
1
0
VERTEX
8
VISIBLE
10
694.441974
20
344.541284
70
0
0
VERTEX
8
VISIBLE
10
680.441829
20
344.541284
70
0
0
SEQEND
8
VISIBLE
0
POLYLINE
8
VISIBLE
62
7
70
0
10
0.000000
20
0.000000
66
1
0
VERTEX
8
VISIBLE
10
694.441974
20
358.540370
70
0
0
VERTEX
8
VISIBLE
10
694.441974
20
344.541284
70
0
0
SEQEND
8
VISIBLE
0
POLYLINE
8
VISIBLE
62
7
70
0
10
0.000000
20
0.000000
66
1
0
VERTEX
8
VISIBLE
10
680.441829
20
358.540370
70
0
0
VERTEX
8
VISIBLE
10
694.441974
20
358.540370
70
0
0
SEQEND
8
VISIBLE
0
POLYLINE
8
VISIBLE
62
7
70
0
10
0.000000
20
0.000000
66
1
0
VERTEX
8
VISIBLE
10
680.441829
20
344.541284
70
0
0
VERTEX
8
VISIBLE
10
680.441829
20
358.540370
70
0
0
SEQEND
8
VISIBLE
0
POLYLINE
8
VISIBLE
62
7
70
0
10
0.000000
20
0.000000
66
1
0
VERTEX
8
VISIBLE
10
661.440272
20
323.161919
70
0
0
VERTEX
8
VISIBLE
10
661.440272
20
337.162064
70
0
0
SEQEND
8
VISIBLE
0
POLYLINE
8
VISIBLE
62
7
70
0
10
0.000000
20
0.000000
66
1
0
VERTEX
8
VISIBLE
10
675.440152
20
323.161919
70
0
0
VERTEX
8
VISIBLE
10
661.440272
20
323.161919
70
0
0
SEQEND
8
VISIBLE
0
POLYLINE
8
VISIBLE
62
7
70
0
10
0.000000
20
0.000000
66
1
0
VERTEX
8
VISIBLE
10
675.440152
20
337.162064
70
0
0
VERTEX
8
VISIBLE
10
675.440152
20
323.161919
70
0
0
SEQEND
8
VISIBLE
0
POLYLINE
8
VISIBLE
62
7
70
0
10
0.000000
20
0.000000
66
1
0
VERTEX
8
VISIBLE
10
661.440272
20
337.162064
70
0
0
VERTEX
8
VISIBLE
10
675.440152
20
337.162064
70
0
0
SEQEND
8
VISIBLE
0
POLYLINE
8
VISIBLE
62
7
70
0
10
0.000000
20
0.000000
66
1
0
VERTEX
8
VISIBLE
10
656.439918
20
351.417796
70
0
0
VERTEX
8
VISIBLE
10
656.439918
20
337.416064
70
0
0
SEQEND
8
VISIBLE
0
POLYLINE
8
VISIBLE
62
7
70
0
10
0.000000
20
0.000000
66
1
0
VERTEX
8
VISIBLE
10
642.440038
20
351.417796
70
0
0
VERTEX
8
VISIBLE
10
656.439918
20
351.417796
70
0
0
SEQEND
8
VISIBLE
0
POLYLINE
8
VISIBLE
62
7
70
0
10
0.000000
20
0.000000
66
1
0
VERTEX
8
VISIBLE
10
642.440038
20
337.416064
70
0
0
VERTEX
8
VISIBLE
10
642.440038
20
351.417796
70
0
0
SEQEND
8
VISIBLE
0
POLYLINE
8
VISIBLE
62
7
70
0
10
0.000000
20
0.000000
66
1
0
VERTEX
8
VISIBLE
10
656.439918
20
337.416064
70
0
0
VERTEX
8
VISIBLE
10
642.440038
20
337.416064
70
0
0
SEQEND
8
VISIBLE
0
POLYLINE
8
VISIBLE
62
7
70
0
10
0.000000
20
0.000000
66
1
0
VERTEX
8
VISIBLE
10
642.440038
20
318.416623
70
0
0
VERTEX
8
VISIBLE
10
642.440038
20
332.415445
70
0
0
SEQEND
8
VISIBLE
0
POLYLINE
8
VISIBLE
62
7
70
0
10
0.000000
20
0.000000
66
1
0
VERTEX
8
VISIBLE
10
656.439918
20
318.416623
70
0
0
VERTEX
8
VISIBLE
10
642.440038
20
318.416623
70
0
0
SEQEND
8
VISIBLE
0
POLYLINE
8
VISIBLE
62
7
70
0
10
0.000000
20
0.000000
66
1
0
VERTEX
8
VISIBLE
10
656.439918
20
332.415445
70
0
0
VERTEX
8
VISIBLE
10
656.439918
20
318.416623
70
0
0
SEQEND
8
VISIBLE
0
POLYLINE
8
VISIBLE
62
7
70
0
10
0.000000
20
0.000000
66
1
0
VERTEX
8
VISIBLE
10
642.440038
20
332.415445
70
0
0
VERTEX
8
VISIBLE
10
656.439918
20
332.415445
70
0
0
SEQEND
8
VISIBLE
0
POLYLINE
8
VISIBLE
62
7
70
0
10
0.000000
20
0.000000
66
1
0
VERTEX
8
VISIBLE
10
656.439918
20
299.416388
70
0
0
VERTEX
8
VISIBLE
10
642.440038
20
299.416388
70
0
0
SEQEND
8
VISIBLE
0
POLYLINE
8
VISIBLE
62
7
70
0
10
0.000000
20
0.000000
66
1
0
VERTEX
8
VISIBLE
10
656.439918
20
313.416533
70
0
0
VERTEX
8
VISIBLE
10
656.439918
20
299.416388
70
0
0
SEQEND
8
VISIBLE
0
POLYLINE
8
VISIBLE
62
7
70
0
10
0.000000
20
0.000000
66
1
0
VERTEX
8
VISIBLE
10
642.440038
20
313.416533
70
0
0
VERTEX
8
VISIBLE
10
656.439918
20
313.416533
70
0
0
SEQEND
8
VISIBLE
0
POLYLINE
8
VISIBLE
62
7
70
0
10
0.000000
20
0.000000
66
1
0
VERTEX
8
VISIBLE
10
642.440038
20
299.416388
70
0
0
VERTEX
8
VISIBLE
10
642.440038
20
313.416533
70
0
0
SEQEND
8
VISIBLE
0
POLYLINE
8
VISIBLE
62
7
70
0
10
0.000000
20
0.000000
66
1
0
VERTEX
8
VISIBLE
10
703.961671
20
284.508459
70
0
0
VERTEX
8
VISIBLE
10
689.961526
20
284.508459
70
0
0
SEQEND
8
VISIBLE
0
POLYLINE
8
VISIBLE
62
7
70
0
10
0.000000
20
0.000000
66
1
0
VERTEX
8
VISIBLE
10
703.961671
20
298.508869
70
0
0
VERTEX
8
VISIBLE
10
703.961671
20
284.508459
70
0
0
SEQEND
8
VISIBLE
0
POLYLINE
8
VISIBLE
62
7
70
0
10
0.000000
20
0.000000
66
1
0
VERTEX
8
VISIBLE
10
689.961526
20
298.508869
70
0
0
VERTEX
8
VISIBLE
10
703.961671
20
298.508869
70
0
0
SEQEND
8
VISIBLE
0
POLYLINE
8
VISIBLE
62
7
70
0
10
0.000000
20
0.000000
66
1
0
VERTEX
8
VISIBLE
10
689.961526
20
284.508459
70
0
0
VERTEX
8
VISIBLE
10
689.961526
20
298.508869
70
0
0
SEQEND
8
VISIBLE
0
POLYLINE
8
VISIBLE
62
7
70
0
10
0.000000
20
0.000000
66
1
0
VERTEX
8
VISIBLE
10
699.443122
20
323.166417
70
0
0
VERTEX
8
VISIBLE
10
699.443122
20
337.167356
70
0
0
SEQEND
8
VISIBLE
0
POLYLINE
8
VISIBLE
62
7
70
0
10
0.000000
20
0.000000
66
1
0
VERTEX
8
VISIBLE
10
713.443267
20
323.166417
70
0
0
VERTEX
8
VISIBLE
10
699.443122
20
323.166417
70
0
0
SEQEND
8
VISIBLE
0
POLYLINE
8
VISIBLE
62
7
70
0
10
0.000000
20
0.000000
66
1
0
VERTEX
8
VISIBLE
10
713.443267
20
337.167356
70
0
0
VERTEX
8
VISIBLE
10
713.443267
20
323.166417
70
0
0
SEQEND
8
VISIBLE
0
POLYLINE
8
VISIBLE
62
7
70
0
10
0.000000
20
0.000000
66
1
0
VERTEX
8
VISIBLE
10
699.443122
20
337.167356
70
0
0
VERTEX
8
VISIBLE
10
713.443267
20
337.167356
70
0
0
SEQEND
8
VISIBLE
0
POLYLINE
8
VISIBLE
62
7
70
0
10
0.000000
20
0.000000
66
1
0
VERTEX
8
VISIBLE
10
637.441800
20
299.416388
70
0
0
VERTEX
8
VISIBLE
10
623.441920
20
299.416388
70
0
0
SEQEND
8
VISIBLE
0
POLYLINE
8
VISIBLE
62
7
70
0
10
0.000000
20
0.000000
66
1
0
VERTEX
8
VISIBLE
10
637.441800
20
313.416533
70
0
0
VERTEX
8
VISIBLE
10
637.441800
20
299.416388
70
0
0
SEQEND
8
VISIBLE
0
POLYLINE
8
VISIBLE
62
7
70
0
10
0.000000
20
0.000000
66
1
0
VERTEX
8
VISIBLE
10
623.441920
20
313.416533
70
0
0
VERTEX
8
VISIBLE
10
637.441800
20
313.416533
70
0
0
SEQEND
8
VISIBLE
0
POLYLINE
8
VISIBLE
62
7
70
0
10
0.000000
20
0.000000
66
1
0
VERTEX
8
VISIBLE
10
623.441920
20
299.416388
70
0
0
VERTEX
8
VISIBLE
10
623.441920
20
313.416533
70
0
0
SEQEND
8
VISIBLE
0
POLYLINE
8
VISIBLE
62
7
70
0
10
0.000000
20
0.000000
66
1
0
VERTEX
8
VISIBLE
10
709.350962
20
283.848325
70
0
0
VERTEX
8
VISIBLE
10
712.974426
20
297.371426
70
0
0
SEQEND
8
VISIBLE
0
POLYLINE
8
VISIBLE
62
7
70
0
10
0.000000
20
0.000000
66
1
0
VERTEX
8
VISIBLE
10
722.874063
20
280.224861
70
0
0
VERTEX
8
VISIBLE
10
709.350962
20
283.848325
70
0
0
SEQEND
8
VISIBLE
0
POLYLINE
8
VISIBLE
62
7
70
0
10
0.000000
20
0.000000
66
1
0
VERTEX
8
VISIBLE
10
726.497528
20
293.747962
70
0
0
VERTEX
8
VISIBLE
10
722.874063
20
280.224861
70
0
0
SEQEND
8
VISIBLE
0
POLYLINE
8
VISIBLE
62
7
70
0
10
0.000000
20
0.000000
66
1
0
VERTEX
8
VISIBLE
10
712.974426
20
297.371426
70
0
0
VERTEX
8
VISIBLE
10
726.497528
20
293.747962
70
0
0
SEQEND
8
VISIBLE
0
POLYLINE
8
VISIBLE
62
7
70
0
10
0.000000
20
0.000000
66
1
0
VERTEX
8
VISIBLE
10
694.441974
20
306.541080
70
0
0
VERTEX
8
VISIBLE
10
680.441829
20
306.541080
70
0
0
SEQEND
8
VISIBLE
0
POLYLINE
8
VISIBLE
62
7
70
0
10
0.000000
20
0.000000
66
1
0
VERTEX
8
VISIBLE
10
694.441974
20
320.541224
70
0
0
VERTEX
8
VISIBLE
10
694.441974
20
306.541080
70
0
0
SEQEND
8
VISIBLE
0
POLYLINE
8
VISIBLE
62
7
70
0
10
0.000000
20
0.000000
66
1
0
VERTEX
8
VISIBLE
10
680.441829
20
320.541224
70
0
0
VERTEX
8
VISIBLE
10
694.441974
20
320.541224
70
0
0
SEQEND
8
VISIBLE
0
POLYLINE
8
VISIBLE
62
7
70
0
10
0.000000
20
0.000000
66
1
0
VERTEX
8
VISIBLE
10
680.441829
20
306.541080
70
0
0
VERTEX
8
VISIBLE
10
680.441829
20
320.541224
70
0
0
SEQEND
8
VISIBLE
0
POLYLINE
8
VISIBLE
62
7
70
0
10
0.000000
20
0.000000
66
1
0
VERTEX
8
VISIBLE
10
675.440152
20
356.161769
70
0
0
VERTEX
8
VISIBLE
10
675.440152
20
342.162683
70
0
0
SEQEND
8
VISIBLE
0
POLYLINE
8
VISIBLE
62
7
70
0
10
0.000000
20
0.000000
66
1
0
VERTEX
8
VISIBLE
10
661.440272
20
356.161769
70
0
0
VERTEX
8
VISIBLE
10
675.440152
20
356.161769
70
0
0
SEQEND
8
VISIBLE
0
POLYLINE
8
VISIBLE
62
7
70
0
10
0.000000
20
0.000000
66
1
0
VERTEX
8
VISIBLE
10
661.440272
20
342.162683
70
0
0
VERTEX
8
VISIBLE
10
661.440272
20
356.161769
70
0
0
SEQEND
8
VISIBLE
0
POLYLINE
8
VISIBLE
62
7
70
0
10
0.000000
20
0.000000
66
1
0
VERTEX
8
VISIBLE
10
675.440152
20
342.162683
70
0
0
VERTEX
8
VISIBLE
10
661.440272
20
342.162683
70
0
0
SEQEND
8
VISIBLE
0
POLYLINE
8
VISIBLE
62
7
70
0
10
0.000000
20
0.000000
66
1
0
VERTEX
8
VISIBLE
10
732.444824
20
353.780522
70
0
0
VERTEX
8
VISIBLE
10
732.444824
20
339.781436
70
0
0
SEQEND
8
VISIBLE
0
POLYLINE
8
VISIBLE
62
7
70
0
10
0.000000
20
0.000000
66
1
0
VERTEX
8
VISIBLE
10
718.444944
20
353.780522
70
0
0
VERTEX
8
VISIBLE
10
732.444824
20
353.780522
70
0
0
SEQEND
8
VISIBLE
0
POLYLINE
8
VISIBLE
62
7
70
0
10
0.000000
20
0.000000
66
1
0
VERTEX
8
VISIBLE
10
718.444944
20
339.781436
70
0
0
VERTEX
8
VISIBLE
10
718.444944
20
353.780522
70
0
0
SEQEND
8
VISIBLE
0
POLYLINE
8
VISIBLE
62
7
70
0
10
0.000000
20
0.000000
66
1
0
VERTEX
8
VISIBLE
10
732.444824
20
339.781436
70
0
0
VERTEX
8
VISIBLE
10
718.444944
20
339.781436
70
0
0
SEQEND
8
VISIBLE
0
POLYLINE
8
VISIBLE
62
7
70
0
10
0.000000
20
0.000000
66
1
0
VERTEX
8
VISIBLE
10
699.443122
20
318.166327
70
0
0
VERTEX
8
VISIBLE
10
713.443267
20
318.166327
70
0
0
SEQEND
8
VISIBLE
0
POLYLINE
8
VISIBLE
62
7
70
0
10
0.000000
20
0.000000
66
1
0
VERTEX
8
VISIBLE
10
699.443122
20
304.166183
70
0
0
VERTEX
8
VISIBLE
10
699.443122
20
318.166327
70
0
0
SEQEND
8
VISIBLE
0
POLYLINE
8
VISIBLE
62
7
70
0
10
0.000000
20
0.000000
66
1
0
VERTEX
8
VISIBLE
10
713.443267
20
304.166183
70
0
0
VERTEX
8
VISIBLE
10
699.443122
20
304.166183
70
0
0
SEQEND
8
VISIBLE
0
POLYLINE
8
VISIBLE
62
7
70
0
10
0.000000
20
0.000000
66
1
0
VERTEX
8
VISIBLE
10
713.443267
20
318.166327
70
0
0
VERTEX
8
VISIBLE
10
713.443267
20
304.166183
70
0
0
SEQEND
8
VISIBLE
0
POLYLINE
8
VISIBLE
62
7
70
0
10
0.000000
20
0.000000
66
1
0
VERTEX
8
VISIBLE
10
677.180050
20
297.288877
70
0
0
VERTEX
8
VISIBLE
10
621.431354
20
297.288877
70
0
0
SEQEND
8
VISIBLE
0
POLYLINE
8
VISIBLE
62
7
70
0
10
0.000000
20
0.000000
66
1
0
VERTEX
8
VISIBLE
10
621.431354
20
297.288877
70
0
0
VERTEX
8
VISIBLE
10
621.431354
20
353.539752
70
0
0
SEQEND
8
VISIBLE
0
POLYLINE
8
VISIBLE
62
7
70
0
10
0.000000
20
0.000000
66
1
0
VERTEX
8
VISIBLE
10
621.431354
20
353.539752
70
0
0
VERTEX
8
VISIBLE
10
659.432087
20
353.539752
70
0
0
SEQEND
8
VISIBLE
0
POLYLINE
8
VISIBLE
62
7
70
0
10
0.000000
20
0.000000
66
1
0
VERTEX
8
VISIBLE
10
659.432087
20
353.539752
70
0
0
VERTEX
8
VISIBLE
10
659.432087
20
358.289016
70
0
0
SEQEND
8
VISIBLE
0
POLYLINE
8
VISIBLE
62
7
70
0
10
0.000000
20
0.000000
66
1
0
VERTEX
8
VISIBLE
10
659.432087
20
358.289016
70
0
0
VERTEX
8
VISIBLE
10
678.431263
20
358.289016
70
0
0
SEQEND
8
VISIBLE
0
POLYLINE
8
VISIBLE
62
7
70
0
10
0.000000
20
0.000000
66
1
0
VERTEX
8
VISIBLE
10
678.431263
20
358.289016
70
0
0
VERTEX
8
VISIBLE
10
678.431263
20
360.540618
70
0
0
SEQEND
8
VISIBLE
0
POLYLINE
8
VISIBLE
62
7
70
0
10
0.000000
20
0.000000
66
1
0
VERTEX
8
VISIBLE
10
678.431263
20
360.540618
70
0
0
VERTEX
8
VISIBLE
10
696.432168
20
360.540618
70
0
0
SEQEND
8
VISIBLE
0
POLYLINE
8
VISIBLE
62
7
70
0
10
0.000000
20
0.000000
66
1
0
VERTEX
8
VISIBLE
10
696.432168
20
360.540618
70
0
0
VERTEX
8
VISIBLE
10
696.432168
20
358.289016
70
0
0
SEQEND
8
VISIBLE
0
POLYLINE
8
VISIBLE
62
7
70
0
10
0.000000
20
0.000000
66
1
0
VERTEX
8
VISIBLE
10
696.432168
20
358.289016
70
0
0
VERTEX
8
VISIBLE
10
715.431344
20
358.289016
70
0
0
SEQEND
8
VISIBLE
0
POLYLINE
8
VISIBLE
62
7
70
0
10
0.000000
20
0.000000
66
1
0
VERTEX
8
VISIBLE
10
715.431344
20
358.289016
70
0
0
VERTEX
8
VISIBLE
10
715.431344
20
355.788707
70
0
0
SEQEND
8
VISIBLE
0
POLYLINE
8
VISIBLE
62
7
70
0
10
0.000000
20
0.000000
66
1
0
VERTEX
8
VISIBLE
10
715.431344
20
355.788707
70
0
0
VERTEX
8
VISIBLE
10
734.931111
20
355.788707
70
0
0
SEQEND
8
VISIBLE
0
POLYLINE
8
VISIBLE
62
7
70
0
10
0.000000
20
0.000000
66
1
0
VERTEX
8
VISIBLE
10
734.931111
20
355.788707
70
0
0
VERTEX
8
VISIBLE
10
734.931111
20
303.976212
70
0
0
SEQEND
8
VISIBLE
0
POLYLINE
8
VISIBLE
62
7
70
0
10
0.000000
20
0.000000
66
1
0
VERTEX
8
VISIBLE
10
734.931111
20
303.976212
70
0
0
VERTEX
8
VISIBLE
10
755.255318
20
292.247248
70
0
0
SEQEND
8
VISIBLE
0
POLYLINE
8
VISIBLE
62
7
70
0
10
0.000000
20
0.000000
66
1
0
VERTEX
8
VISIBLE
10
755.255318
20
292.247248
70
0
0
VERTEX
8
VISIBLE
10
741.515788
20
268.387682
70
0
0
SEQEND
8
VISIBLE
0
POLYLINE
8
VISIBLE
62
7
70
0
10
0.000000
20
0.000000
66
1
0
VERTEX
8
VISIBLE
10
741.515788
20
268.387682
70
0
0
VERTEX
8
VISIBLE
10
725.408239
20
277.696770
70
0
0
SEQEND
8
VISIBLE
0
POLYLINE
8
VISIBLE
62
7
70
0
10
0.000000
20
0.000000
66
1
0
VERTEX
8
VISIBLE
10
725.408239
20
277.696770
70
0
0
VERTEX
8
VISIBLE
10
687.911007
20
282.574358
70
0
0
SEQEND
8
VISIBLE
0
POLYLINE
8
VISIBLE
62
7
70
0
10
0.000000
20
0.000000
66
1
0
VERTEX
8
VISIBLE
10
687.911007
20
282.574358
70
0
0
VERTEX
8
VISIBLE
10
677.180050
20
297.288877
70
0
0
SEQEND
8
VISIBLE
0
POLYLINE
8
VISIBLE
62
7
70
0
10
0.000000
20
0.000000
66
1
0
VERTEX
8
VISIBLE
10
684.145833
20
298.984195
70
0
0
VERTEX
8
VISIBLE
10
684.066885
20
298.595355
70
0
0
VERTEX
8
VISIBLE
10
683.852495
20
298.277903
70
0
0
VERTEX
8
VISIBLE
10
683.534774
20
298.063913
70
0
0
VERTEX
8
VISIBLE
10
683.145835
20
297.985456
70
0
0
VERTEX
8
VISIBLE
10
682.756895
20
298.063913
70
0
0
VERTEX
8
VISIBLE
10
682.439174
20
298.277903
70
0
0
VERTEX
8
VISIBLE
10
682.224784
20
298.595355
70
0
0
VERTEX
8
VISIBLE
10
682.145836
20
298.984195
70
0
0
VERTEX
8
VISIBLE
10
682.224784
20
299.373035
70
0
0
VERTEX
8
VISIBLE
10
682.439174
20
299.690486
70
0
0
VERTEX
8
VISIBLE
10
682.756895
20
299.904476
70
0
0
VERTEX
8
VISIBLE
10
683.145835
20
299.982934
70
0
0
VERTEX
8
VISIBLE
10
683.534774
20
299.904476
70
0
0
VERTEX
8
VISIBLE
10
683.852495
20
299.690486
70
0
0
VERTEX
8
VISIBLE
10
684.066885
20
299.373035
70
0
0
VERTEX
8
VISIBLE
10
684.145833
20
298.984195
70
0
0
VERTEX
8
VISIBLE
10
684.145833
20
298.984195
70
0
0
SEQEND
8
VISIBLE
0
POLYLINE
8
VISIBLE
62
7
70
0
10
0.000000
20
0.000000
66
1
0
VERTEX
8
VISIBLE
10
730.711774
20
291.369705
70
0
0
VERTEX
8
VISIBLE
10
730.632827
20
290.980865
70
0
0
VERTEX
8
VISIBLE
10
730.418436
20
290.663414
70
0
0
VERTEX
8
VISIBLE
10
730.100715
20
290.449423
70
0
0
VERTEX
8
VISIBLE
10
729.711776
20
290.370966
70
0
0
VERTEX
8
VISIBLE
10
729.322837
20
290.449423
70
0
0
VERTEX
8
VISIBLE
10
729.005115
20
290.663414
70
0
0
VERTEX
8
VISIBLE
10
728.790725
20
290.980865
70
0
0
VERTEX
8
VISIBLE
10
728.711778
20
291.369705
70
0
0
VERTEX
8
VISIBLE
10
728.790725
20
291.758545
70
0
0
VERTEX
8
VISIBLE
10
729.005115
20
292.075996
70
0
0
VERTEX
8
VISIBLE
10
729.322837
20
292.289987
70
0
0
VERTEX
8
VISIBLE
10
729.711776
20
292.368444
70
0
0
VERTEX
8
VISIBLE
10
730.100715
20
292.289987
70
0
0
VERTEX
8
VISIBLE
10
730.418436
20
292.075996
70
0
0
VERTEX
8
VISIBLE
10
730.632827
20
291.758545
70
0
0
VERTEX
8
VISIBLE
10
730.711774
20
291.369705
70
0
0
VERTEX
8
VISIBLE
10
730.711774
20
291.369705
70
0
0
SEQEND
8
VISIBLE
0
POLYLINE
8
VISIBLE
62
7
70
0
10
0.000000
20
0.000000
66
1
0
VERTEX
8
VISIBLE
10
716.956792
20
338.739137
70
0
0
VERTEX
8
VISIBLE
10
716.877844
20
338.350297
70
0
0
VERTEX
8
VISIBLE
10
716.663454
20
338.032846
70
0
0
VERTEX
8
VISIBLE
10
716.345733
20
337.818856
70
0
0
VERTEX
8
VISIBLE
10
715.956794
20
337.740398
70
0
0
VERTEX
8
VISIBLE
10
715.567854
20
337.818856
70
0
0
VERTEX
8
VISIBLE
10
715.250133
20
338.032846
70
0
0
VERTEX
8
VISIBLE
10
715.035743
20
338.350297
70
0
0
VERTEX
8
VISIBLE
10
714.956795
20
338.739137
70
0
0
VERTEX
8
VISIBLE
10
715.035743
20
339.127977
70
0
0
VERTEX
8
VISIBLE
10
715.250133
20
339.445429
70
0
0
VERTEX
8
VISIBLE
10
715.567854
20
339.659419
70
0
0
VERTEX
8
VISIBLE
10
715.956794
20
339.737876
70
0
0
VERTEX
8
VISIBLE
10
716.345733
20
339.659419
70
0
0
VERTEX
8
VISIBLE
10
716.663454
20
339.445429
70
0
0
VERTEX
8
VISIBLE
10
716.877844
20
339.127977
70
0
0
VERTEX
8
VISIBLE
10
716.956792
20
338.739137
70
0
0
VERTEX
8
VISIBLE
10
716.956792
20
338.739137
70
0
0
SEQEND
8
VISIBLE
0
POLYLINE
8
Layer 1
62
7
70
0
10
0.000000
20
0.000000
66
1
0
VERTEX
8
Layer 1
10
478.538451
20
360.851333
70
0
0
VERTEX
8
Layer 1
10
478.323372
20
360.705320
70
0
0
VERTEX
8
Layer 1
10
478.128832
20
360.742282
70
0
0
SEQEND
8
Layer 1
0
POLYLINE
8
VISIBLE
62
7
70
0
10
0.000000
20
0.000000
66
1
0
VERTEX
8
VISIBLE
10
395.887865
20
334.635155
70
0
0
VERTEX
8
VISIBLE
10
395.753890
20
334.135155
70
0
0
VERTEX
8
VISIBLE
10
395.387865
20
333.769130
70
0
0
VERTEX
8
VISIBLE
10
394.887866
20
333.635155
70
0
0
VERTEX
8
VISIBLE
10
394.387866
20
333.769130
70
0
0
VERTEX
8
VISIBLE
10
394.021841
20
334.135155
70
0
0
VERTEX
8
VISIBLE
10
393.887866
20
334.635155
70
0
0
VERTEX
8
VISIBLE
10
394.021841
20
335.135155
70
0
0
VERTEX
8
VISIBLE
10
394.387866
20
335.501180
70
0
0
VERTEX
8
VISIBLE
10
394.887866
20
335.635154
70
0
0
VERTEX
8
VISIBLE
10
395.387865
20
335.501180
70
0
0
VERTEX
8
VISIBLE
10
395.753890
20
335.135155
70
0
0
VERTEX
8
VISIBLE
10
395.887865
20
334.635155
70
0
0
VERTEX
8
VISIBLE
10
395.887865
20
334.635155
70
0
0
SEQEND
8
VISIBLE
0
POLYLINE
8
VISIBLE
62
7
70
0
10
0.000000
20
0.000000
66
1
0
VERTEX
8
VISIBLE
10
468.343824
20
320.191966
70
0
0
VERTEX
8
VISIBLE
10
454.343944
20
320.191966
70
0
0
SEQEND
8
VISIBLE
0
POLYLINE
8
VISIBLE
62
7
70
0
10
0.000000
20
0.000000
66
1
0
VERTEX
8
VISIBLE
10
468.343824
20
334.191317
70
0
0
VERTEX
8
VISIBLE
10
468.343824
20
320.191966
70
0
0
SEQEND
8
VISIBLE
0
POLYLINE
8
VISIBLE
62
7
70
0
10
0.000000
20
0.000000
66
1
0
VERTEX
8
VISIBLE
10
454.343944
20
334.191317
70
0
0
VERTEX
8
VISIBLE
10
468.343824
20
334.191317
70
0
0
SEQEND
8
VISIBLE
0
POLYLINE
8
VISIBLE
62
7
70
0
10
0.000000
20
0.000000
66
1
0
VERTEX
8
VISIBLE
10
454.343944
20
320.191966
70
0
0
VERTEX
8
VISIBLE
10
454.343944
20
334.191317
70
0
0
SEQEND
8
VISIBLE
0
POLYLINE
8
VISIBLE
62
7
70
0
10
0.000000
20
0.000000
66
1
0
VERTEX
8
VISIBLE
10
468.343824
20
301.191731
70
0
0
VERTEX
8
VISIBLE
10
454.343944
20
301.191731
70
0
0
SEQEND
8
VISIBLE
0
POLYLINE
8
VISIBLE
62
7
70
0
10
0.000000
20
0.000000
66
1
0
VERTEX
8
VISIBLE
10
468.343824
20
315.191876
70
0
0
VERTEX
8
VISIBLE
10
468.343824
20
301.191731
70
0
0
SEQEND
8
VISIBLE
0
POLYLINE
8
VISIBLE
62
7
70
0
10
0.000000
20
0.000000
66
1
0
VERTEX
8
VISIBLE
10
454.343944
20
315.191876
70
0
0
VERTEX
8
VISIBLE
10
468.343824
20
315.191876
70
0
0
SEQEND
8
VISIBLE
0
POLYLINE
8
VISIBLE
62
7
70
0
10
0.000000
20
0.000000
66
1
0
VERTEX
8
VISIBLE
10
454.343944
20
301.191731
70
0
0
VERTEX
8
VISIBLE
10
454.343944
20
315.191876
70
0
0
SEQEND
8
VISIBLE
0
POLYLINE
8
VISIBLE
62
7
70
0
10
0.000000
20
0.000000
66
1
0
VERTEX
8
VISIBLE
10
359.340920
20
336.826564
70
0
0
VERTEX
8
VISIBLE
10
359.340920
20
350.828296
70
0
0
SEQEND
8
VISIBLE
0
POLYLINE
8
VISIBLE
62
7
70
0
10
0.000000
20
0.000000
66
1
0
VERTEX
8
VISIBLE
10
373.340800
20
336.826564
70
0
0
VERTEX
8
VISIBLE
10
359.340920
20
336.826564
70
0
0
SEQEND
8
VISIBLE
0
POLYLINE
8
VISIBLE
62
7
70
0
10
0.000000
20
0.000000
66
1
0
VERTEX
8
VISIBLE
10
373.340800
20
350.828296
70
0
0
VERTEX
8
VISIBLE
10
373.340800
20
336.826564
70
0
0
SEQEND
8
VISIBLE
0
POLYLINE
8
VISIBLE
62
7
70
0
10
0.000000
20
0.000000
66
1
0
VERTEX
8
VISIBLE
10
359.340920
20
350.828296
70
0
0
VERTEX
8
VISIBLE
10
373.340800
20
350.828296
70
0
0
SEQEND
8
VISIBLE
0
POLYLINE
8
VISIBLE
62
7
70
0
10
0.000000
20
0.000000
66
1
0
VERTEX
8
VISIBLE
10
373.340800
20
331.825945
70
0
0
VERTEX
8
VISIBLE
10
373.340800
20
317.827123
70
0
0
SEQEND
8
VISIBLE
0
POLYLINE
8
VISIBLE
62
7
70
0
10
0.000000
20
0.000000
66
1
0
VERTEX
8
VISIBLE
10
359.340920
20
331.825945
70
0
0
VERTEX
8
VISIBLE
10
373.340800
20
331.825945
70
0
0
SEQEND
8
VISIBLE
0
POLYLINE
8
VISIBLE
62
7
70
0
10
0.000000
20
0.000000
66
1
0
VERTEX
8
VISIBLE
10
359.340920
20
317.827123
70
0
0
VERTEX
8
VISIBLE
10
359.340920
20
331.825945
70
0
0
SEQEND
8
VISIBLE
0
POLYLINE
8
VISIBLE
62
7
70
0
10
0.000000
20
0.000000
66
1
0
VERTEX
8
VISIBLE
10
373.340800
20
317.827123
70
0
0
VERTEX
8
VISIBLE
10
359.340920
20
317.827123
70
0
0
SEQEND
8
VISIBLE
0
POLYLINE
8
VISIBLE
62
7
70
0
10
0.000000
20
0.000000
66
1
0
VERTEX
8
VISIBLE
10
430.340974
20
338.951165
70
0
0
VERTEX
8
VISIBLE
10
430.340974
20
324.951285
70
0
0
SEQEND
8
VISIBLE
0
POLYLINE
8
VISIBLE
62
7
70
0
10
0.000000
20
0.000000
66
1
0
VERTEX
8
VISIBLE
10
416.340829
20
338.951165
70
0
0
VERTEX
8
VISIBLE
10
430.340974
20
338.951165
70
0
0
SEQEND
8
VISIBLE
0
POLYLINE
8
VISIBLE
62
7
70
0
10
0.000000
20
0.000000
66
1
0
VERTEX
8
VISIBLE
10
416.340829
20
324.951285
70
0
0
VERTEX
8
VISIBLE
10
416.340829
20
338.951165
70
0
0
SEQEND
8
VISIBLE
0
POLYLINE
8
VISIBLE
62
7
70
0
10
0.000000
20
0.000000
66
1
0
VERTEX
8
VISIBLE
10
430.340974
20
324.951285
70
0
0
VERTEX
8
VISIBLE
10
416.340829
20
324.951285
70
0
0
SEQEND
8
VISIBLE
0
POLYLINE
8
VISIBLE
62
7
70
0
10
0.000000
20
0.000000
66
1
0
VERTEX
8
VISIBLE
10
473.519068
20
294.030792
70
0
0
VERTEX
8
VISIBLE
10
485.643055
20
287.030720
70
0
0
SEQEND
8
VISIBLE
0
POLYLINE
8
VISIBLE
62
7
70
0
10
0.000000
20
0.000000
66
1
0
VERTEX
8
VISIBLE
10
466.519260
20
281.906541
70
0
0
VERTEX
8
VISIBLE
10
473.519068
20
294.030792
70
0
0
SEQEND
8
VISIBLE
0
POLYLINE
8
VISIBLE
62
7
70
0
10
0.000000
20
0.000000
66
1
0
VERTEX
8
VISIBLE
10
478.643511
20
274.906469
70
0
0
VERTEX
8
VISIBLE
10
466.519260
20
281.906541
70
0
0
SEQEND
8
VISIBLE
0
POLYLINE
8
VISIBLE
62
7
70
0
10
0.000000
20
0.000000
66
1
0
VERTEX
8
VISIBLE
10
485.643055
20
287.030720
70
0
0
VERTEX
8
VISIBLE
10
478.643511
20
274.906469
70
0
0
SEQEND
8
VISIBLE
0
POLYLINE
8
VISIBLE
62
7
70
0
10
0.000000
20
0.000000
66
1
0
VERTEX
8
VISIBLE
10
435.342122
20
341.575828
70
0
0
VERTEX
8
VISIBLE
10
435.342122
20
355.577561
70
0
0
SEQEND
8
VISIBLE
0
POLYLINE
8
VISIBLE
62
7
70
0
10
0.000000
20
0.000000
66
1
0
VERTEX
8
VISIBLE
10
449.342267
20
341.575828
70
0
0
VERTEX
8
VISIBLE
10
435.342122
20
341.575828
70
0
0
SEQEND
8
VISIBLE
0
POLYLINE
8
VISIBLE
62
7
70
0
10
0.000000
20
0.000000
66
1
0
VERTEX
8
VISIBLE
10
449.342267
20
355.577561
70
0
0
VERTEX
8
VISIBLE
10
449.342267
20
341.575828
70
0
0
SEQEND
8
VISIBLE
0
POLYLINE
8
VISIBLE
62
7
70
0
10
0.000000
20
0.000000
66
1
0
VERTEX
8
VISIBLE
10
435.342122
20
355.577561
70
0
0
VERTEX
8
VISIBLE
10
449.342267
20
355.577561
70
0
0
SEQEND
8
VISIBLE
0
POLYLINE
8
VISIBLE
62
7
70
0
10
0.000000
20
0.000000
66
1
0
VERTEX
8
VISIBLE
10
397.339272
20
303.572449
70
0
0
VERTEX
8
VISIBLE
10
397.339272
20
317.572594
70
0
0
SEQEND
8
VISIBLE
0
POLYLINE
8
VISIBLE
62
7
70
0
10
0.000000
20
0.000000
66
1
0
VERTEX
8
VISIBLE
10
411.339152
20
303.572449
70
0
0
VERTEX
8
VISIBLE
10
397.339272
20
303.572449
70
0
0
SEQEND
8
VISIBLE
0
POLYLINE
8
VISIBLE
62
7
70
0
10
0.000000
20
0.000000
66
1
0
VERTEX
8
VISIBLE
10
411.339152
20
317.572594
70
0
0
VERTEX
8
VISIBLE
10
411.339152
20
303.572449
70
0
0
SEQEND
8
VISIBLE
0
POLYLINE
8
VISIBLE
62
7
70
0
10
0.000000
20
0.000000
66
1
0
VERTEX
8
VISIBLE
10
397.339272
20
317.572594
70
0
0
VERTEX
8
VISIBLE
10
411.339152
20
317.572594
70
0
0
SEQEND
8
VISIBLE
0
POLYLINE
8
VISIBLE
62
7
70
0
10
0.000000
20
0.000000
66
1
0
VERTEX
8
VISIBLE
10
430.340974
20
343.951784
70
0
0
VERTEX
8
VISIBLE
10
416.340829
20
343.951784
70
0
0
SEQEND
8
VISIBLE
0
POLYLINE
8
VISIBLE
62
7
70
0
10
0.000000
20
0.000000
66
1
0
VERTEX
8
VISIBLE
10
430.340974
20
357.950870
70
0
0
VERTEX
8
VISIBLE
10
430.340974
20
343.951784
70
0
0
SEQEND
8
VISIBLE
0
POLYLINE
8
VISIBLE
62
7
70
0
10
0.000000
20
0.000000
66
1
0
VERTEX
8
VISIBLE
10
416.340829
20
357.950870
70
0
0
VERTEX
8
VISIBLE
10
430.340974
20
357.950870
70
0
0
SEQEND
8
VISIBLE
0
POLYLINE
8
VISIBLE
62
7
70
0
10
0.000000
20
0.000000
66
1
0
VERTEX
8
VISIBLE
10
416.340829
20
343.951784
70
0
0
VERTEX
8
VISIBLE
10
416.340829
20
357.950870
70
0
0
SEQEND
8
VISIBLE
0
POLYLINE
8
VISIBLE
62
7
70
0
10
0.000000
20
0.000000
66
1
0
VERTEX
8
VISIBLE
10
397.339272
20
322.572419
70
0
0
VERTEX
8
VISIBLE
10
397.339272
20
336.572564
70
0
0
SEQEND
8
VISIBLE
0
POLYLINE
8
VISIBLE
62
7
70
0
10
0.000000
20
0.000000
66
1
0
VERTEX
8
VISIBLE
10
411.339152
20
322.572419
70
0
0
VERTEX
8
VISIBLE
10
397.339272
20
322.572419
70
0
0
SEQEND
8
VISIBLE
0
POLYLINE
8
VISIBLE
62
7
70
0
10
0.000000
20
0.000000
66
1
0
VERTEX
8
VISIBLE
10
411.339152
20
336.572564
70
0
0
VERTEX
8
VISIBLE
10
411.339152
20
322.572419
70
0
0
SEQEND
8
VISIBLE
0
POLYLINE
8
VISIBLE
62
7
70
0
10
0.000000
20
0.000000
66
1
0
VERTEX
8
VISIBLE
10
397.339272
20
336.572564
70
0
0
VERTEX
8
VISIBLE
10
411.339152
20
336.572564
70
0
0
SEQEND
8
VISIBLE
0
POLYLINE
8
VISIBLE
62
7
70
0
10
0.000000
20
0.000000
66
1
0
VERTEX
8
VISIBLE
10
392.338918
20
350.828296
70
0
0
VERTEX
8
VISIBLE
10
392.338918
20
336.826564
70
0
0
SEQEND
8
VISIBLE
0
POLYLINE
8
VISIBLE
62
7
70
0
10
0.000000
20
0.000000
66
1
0
VERTEX
8
VISIBLE
10
378.339038
20
350.828296
70
0
0
VERTEX
8
VISIBLE
10
392.338918
20
350.828296
70
0
0
SEQEND
8
VISIBLE
0
POLYLINE
8
VISIBLE
62
7
70
0
10
0.000000
20
0.000000
66
1
0
VERTEX
8
VISIBLE
10
378.339038
20
336.826564
70
0
0
VERTEX
8
VISIBLE
10
378.339038
20
350.828296
70
0
0
SEQEND
8
VISIBLE
0
POLYLINE
8
VISIBLE
62
7
70
0
10
0.000000
20
0.000000
66
1
0
VERTEX
8
VISIBLE
10
392.338918
20
336.826564
70
0
0
VERTEX
8
VISIBLE
10
378.339038
20
336.826564
70
0
0
SEQEND
8
VISIBLE
0
POLYLINE
8
VISIBLE
62
7
70
0
10
0.000000
20
0.000000
66
1
0
VERTEX
8
VISIBLE
10
378.339038
20
317.827123
70
0
0
VERTEX
8
VISIBLE
10
378.339038
20
331.825945
70
0
0
SEQEND
8
VISIBLE
0
POLYLINE
8
VISIBLE
62
7
70
0
10
0.000000
20
0.000000
66
1
0
VERTEX
8
VISIBLE
10
392.338918
20
317.827123
70
0
0
VERTEX
8
VISIBLE
10
378.339038
20
317.827123
70
0
0
SEQEND
8
VISIBLE
0
POLYLINE
8
VISIBLE
62
7
70
0
10
0.000000
20
0.000000
66
1
0
VERTEX
8
VISIBLE
10
392.338918
20
331.825945
70
0
0
VERTEX
8
VISIBLE
10
392.338918
20
317.827123
70
0
0
SEQEND
8
VISIBLE
0
POLYLINE
8
VISIBLE
62
7
70
0
10
0.000000
20
0.000000
66
1
0
VERTEX
8
VISIBLE
10
378.339038
20
331.825945
70
0
0
VERTEX
8
VISIBLE
10
392.338918
20
331.825945
70
0
0
SEQEND
8
VISIBLE
0
POLYLINE
8
VISIBLE
62
7
70
0
10
0.000000
20
0.000000
66
1
0
VERTEX
8
VISIBLE
10
392.338918
20
298.826888
70
0
0
VERTEX
8
VISIBLE
10
378.339038
20
298.826888
70
0
0
SEQEND
8
VISIBLE
0
POLYLINE
8
VISIBLE
62
7
70
0
10
0.000000
20
0.000000
66
1
0
VERTEX
8
VISIBLE
10
392.338918
20
312.827033
70
0
0
VERTEX
8
VISIBLE
10
392.338918
20
298.826888
70
0
0
SEQEND
8
VISIBLE
0
POLYLINE
8
VISIBLE
62
7
70
0
10
0.000000
20
0.000000
66
1
0
VERTEX
8
VISIBLE
10
378.339038
20
312.827033
70
0
0
VERTEX
8
VISIBLE
10
392.338918
20
312.827033
70
0
0
SEQEND
8
VISIBLE
0
POLYLINE
8
VISIBLE
62
7
70
0
10
0.000000
20
0.000000
66
1
0
VERTEX
8
VISIBLE
10
378.339038
20
298.826888
70
0
0
VERTEX
8
VISIBLE
10
378.339038
20
312.827033
70
0
0
SEQEND
8
VISIBLE
0
POLYLINE
8
VISIBLE
62
7
70
0
10
0.000000
20
0.000000
66
1
0
VERTEX
8
VISIBLE
10
439.860671
20
283.918959
70
0
0
VERTEX
8
VISIBLE
10
425.860526
20
283.918959
70
0
0
SEQEND
8
VISIBLE
0
POLYLINE
8
VISIBLE
62
7
70
0
10
0.000000
20
0.000000
66
1
0
VERTEX
8
VISIBLE
10
439.860671
20
297.919369
70
0
0
VERTEX
8
VISIBLE
10
439.860671
20
283.918959
70
0
0
SEQEND
8
VISIBLE
0
POLYLINE
8
VISIBLE
62
7
70
0
10
0.000000
20
0.000000
66
1
0
VERTEX
8
VISIBLE
10
425.860526
20
297.919369
70
0
0
VERTEX
8
VISIBLE
10
439.860671
20
297.919369
70
0
0
SEQEND
8
VISIBLE
0
POLYLINE
8
VISIBLE
62
7
70
0
10
0.000000
20
0.000000
66
1
0
VERTEX
8
VISIBLE
10
425.860526
20
283.918959
70
0
0
VERTEX
8
VISIBLE
10
425.860526
20
297.919369
70
0
0
SEQEND
8
VISIBLE
0
POLYLINE
8
VISIBLE
62
7
70
0
10
0.000000
20
0.000000
66
1
0
VERTEX
8
VISIBLE
10
435.342122
20
322.576917
70
0
0
VERTEX
8
VISIBLE
10
435.342122
20
336.577856
70
0
0
SEQEND
8
VISIBLE
0
POLYLINE
8
VISIBLE
62
7
70
0
10
0.000000
20
0.000000
66
1
0
VERTEX
8
VISIBLE
10
449.342267
20
322.576917
70
0
0
VERTEX
8
VISIBLE
10
435.342122
20
322.576917
70
0
0
SEQEND
8
VISIBLE
0
POLYLINE
8
VISIBLE
62
7
70
0
10
0.000000
20
0.000000
66
1
0
VERTEX
8
VISIBLE
10
449.342267
20
336.577856
70
0
0
VERTEX
8
VISIBLE
10
449.342267
20
322.576917
70
0
0
SEQEND
8
VISIBLE
0
POLYLINE
8
VISIBLE
62
7
70
0
10
0.000000
20
0.000000
66
1
0
VERTEX
8
VISIBLE
10
435.342122
20
336.577856
70
0
0
VERTEX
8
VISIBLE
10
449.342267
20
336.577856
70
0
0
SEQEND
8
VISIBLE
0
POLYLINE
8
VISIBLE
62
7
70
0
10
0.000000
20
0.000000
66
1
0
VERTEX
8
VISIBLE
10
373.340800
20
298.826888
70
0
0
VERTEX
8
VISIBLE
10
359.340920
20
298.826888
70
0
0
SEQEND
8
VISIBLE
0
POLYLINE
8
VISIBLE
62
7
70
0
10
0.000000
20
0.000000
66
1
0
VERTEX
8
VISIBLE
10
373.340800
20
312.827033
70
0
0
VERTEX
8
VISIBLE
10
373.340800
20
298.826888
70
0
0
SEQEND
8
VISIBLE
0
POLYLINE
8
VISIBLE
62
7
70
0
10
0.000000
20
0.000000
66
1
0
VERTEX
8
VISIBLE
10
359.340920
20
312.827033
70
0
0
VERTEX
8
VISIBLE
10
373.340800
20
312.827033
70
0
0
SEQEND
8
VISIBLE
0
POLYLINE
8
VISIBLE
62
7
70
0
10
0.000000
20
0.000000
66
1
0
VERTEX
8
VISIBLE
10
359.340920
20
298.826888
70
0
0
VERTEX
8
VISIBLE
10
359.340920
20
312.827033
70
0
0
SEQEND
8
VISIBLE
0
POLYLINE
8
VISIBLE
62
7
70
0
10
0.000000
20
0.000000
66
1
0
VERTEX
8
VISIBLE
10
445.249962
20
283.258825
70
0
0
VERTEX
8
VISIBLE
10
448.873426
20
296.781926
70
0
0
SEQEND
8
VISIBLE
0
POLYLINE
8
VISIBLE
62
7
70
0
10
0.000000
20
0.000000
66
1
0
VERTEX
8
VISIBLE
10
458.773063
20
279.635361
70
0
0
VERTEX
8
VISIBLE
10
445.249962
20
283.258825
70
0
0
SEQEND
8
VISIBLE
0
POLYLINE
8
VISIBLE
62
7
70
0
10
0.000000
20
0.000000
66
1
0
VERTEX
8
VISIBLE
10
462.396528
20
293.158462
70
0
0
VERTEX
8
VISIBLE
10
458.773063
20
279.635361
70
0
0
SEQEND
8
VISIBLE
0
POLYLINE
8
VISIBLE
62
7
70
0
10
0.000000
20
0.000000
66
1
0
VERTEX
8
VISIBLE
10
448.873426
20
296.781926
70
0
0
VERTEX
8
VISIBLE
10
462.396528
20
293.158462
70
0
0
SEQEND
8
VISIBLE
0
POLYLINE
8
VISIBLE
62
7
70
0
10
0.000000
20
0.000000
66
1
0
VERTEX
8
VISIBLE
10
430.340974
20
305.951580
70
0
0
VERTEX
8
VISIBLE
10
416.340829
20
305.951580
70
0
0
SEQEND
8
VISIBLE
0
POLYLINE
8
VISIBLE
62
7
70
0
10
0.000000
20
0.000000
66
1
0
VERTEX
8
VISIBLE
10
430.340974
20
319.951724
70
0
0
VERTEX
8
VISIBLE
10
430.340974
20
305.951580
70
0
0
SEQEND
8
VISIBLE
0
POLYLINE
8
VISIBLE
62
7
70
0
10
0.000000
20
0.000000
66
1
0
VERTEX
8
VISIBLE
10
416.340829
20
319.951724
70
0
0
VERTEX
8
VISIBLE
10
430.340974
20
319.951724
70
0
0
SEQEND
8
VISIBLE
0
POLYLINE
8
VISIBLE
62
7
70
0
10
0.000000
20
0.000000
66
1
0
VERTEX
8
VISIBLE
10
416.340829
20
305.951580
70
0
0
VERTEX
8
VISIBLE
10
416.340829
20
319.951724
70
0
0
SEQEND
8
VISIBLE
0
POLYLINE
8
VISIBLE
62
7
70
0
10
0.000000
20
0.000000
66
1
0
VERTEX
8
VISIBLE
10
411.339152
20
355.572269
70
0
0
VERTEX
8
VISIBLE
10
411.339152
20
341.573183
70
0
0
SEQEND
8
VISIBLE
0
POLYLINE
8
VISIBLE
62
7
70
0
10
0.000000
20
0.000000
66
1
0
VERTEX
8
VISIBLE
10
397.339272
20
355.572269
70
0
0
VERTEX
8
VISIBLE
10
411.339152
20
355.572269
70
0
0
SEQEND
8
VISIBLE
0
POLYLINE
8
VISIBLE
62
7
70
0
10
0.000000
20
0.000000
66
1
0
VERTEX
8
VISIBLE
10
397.339272
20
341.573183
70
0
0
VERTEX
8
VISIBLE
10
397.339272
20
355.572269
70
0
0
SEQEND
8
VISIBLE
0
POLYLINE
8
VISIBLE
62
7
70
0
10
0.000000
20
0.000000
66
1
0
VERTEX
8
VISIBLE
10
411.339152
20
341.573183
70
0
0
VERTEX
8
VISIBLE
10
397.339272
20
341.573183
70
0
0
SEQEND
8
VISIBLE
0
POLYLINE
8
VISIBLE
62
7
70
0
10
0.000000
20
0.000000
66
1
0
VERTEX
8
VISIBLE
10
468.343824
20
353.191022
70
0
0
VERTEX
8
VISIBLE
10
468.343824
20
339.191936
70
0
0
SEQEND
8
VISIBLE
0
POLYLINE
8
VISIBLE
62
7
70
0
10
0.000000
20
0.000000
66
1
0
VERTEX
8
VISIBLE
10
454.343944
20
353.191022
70
0
0
VERTEX
8
VISIBLE
10
468.343824
20
353.191022
70
0
0
SEQEND
8
VISIBLE
0
POLYLINE
8
VISIBLE
62
7
70
0
10
0.000000
20
0.000000
66
1
0
VERTEX
8
VISIBLE
10
454.343944
20
339.191936
70
0
0
VERTEX
8
VISIBLE
10
454.343944
20
353.191022
70
0
0
SEQEND
8
VISIBLE
0
POLYLINE
8
VISIBLE
62
7
70
0
10
0.000000
20
0.000000
66
1
0
VERTEX
8
VISIBLE
10
468.343824
20
339.191936
70
0
0
VERTEX
8
VISIBLE
10
454.343944
20
339.191936
70
0
0
SEQEND
8
VISIBLE
0
POLYLINE
8
VISIBLE
62
7
70
0
10
0.000000
20
0.000000
66
1
0
VERTEX
8
VISIBLE
10
435.342122
20
317.576827
70
0
0
VERTEX
8
VISIBLE
10
449.342267
20
317.576827
70
0
0
SEQEND
8
VISIBLE
0
POLYLINE
8
VISIBLE
62
7
70
0
10
0.000000
20
0.000000
66
1
0
VERTEX
8
VISIBLE
10
435.342122
20
303.576683
70
0
0
VERTEX
8
VISIBLE
10
435.342122
20
317.576827
70
0
0
SEQEND
8
VISIBLE
0
POLYLINE
8
VISIBLE
62
7
70
0
10
0.000000
20
0.000000
66
1
0
VERTEX
8
VISIBLE
10
449.342267
20
303.576683
70
0
0
VERTEX
8
VISIBLE
10
435.342122
20
303.576683
70
0
0
SEQEND
8
VISIBLE
0
POLYLINE
8
VISIBLE
62
7
70
0
10
0.000000
20
0.000000
66
1
0
VERTEX
8
VISIBLE
10
449.342267
20
317.576827
70
0
0
VERTEX
8
VISIBLE
10
449.342267
20
303.576683
70
0
0
SEQEND
8
VISIBLE
0
POLYLINE
8
VISIBLE
62
7
70
0
10
0.000000
20
0.000000
66
1
0
VERTEX
8
VISIBLE
10
413.079050
20
296.699377
70
0
0
VERTEX
8
VISIBLE
10
357.330354
20
296.699377
70
0
0
SEQEND
8
VISIBLE
0
POLYLINE
8
VISIBLE
62
7
70
0
10
0.000000
20
0.000000
66
1
0
VERTEX
8
VISIBLE
10
357.330354
20
296.699377
70
0
0
VERTEX
8
VISIBLE
10
357.330354
20
352.950252
70
0
0
SEQEND
8
VISIBLE
0
POLYLINE
8
VISIBLE
62
7
70
0
10
0.000000
20
0.000000
66
1
0
VERTEX
8
VISIBLE
10
357.330354
20
352.950252
70
0
0
VERTEX
8
VISIBLE
10
395.331087
20
352.950252
70
0
0
SEQEND
8
VISIBLE
0
POLYLINE
8
VISIBLE
62
7
70
0
10
0.000000
20
0.000000
66
1
0
VERTEX
8
VISIBLE
10
395.331087
20
352.950252
70
0
0
VERTEX
8
VISIBLE
10
395.331087
20
357.699516
70
0
0
SEQEND
8
VISIBLE
0
POLYLINE
8
VISIBLE
62
7
70
0
10
0.000000
20
0.000000
66
1
0
VERTEX
8
VISIBLE
10
395.331087
20
357.699516
70
0
0
VERTEX
8
VISIBLE
10
414.330263
20
357.699516
70
0
0
SEQEND
8
VISIBLE
0
POLYLINE
8
VISIBLE
62
7
70
0
10
0.000000
20
0.000000
66
1
0
VERTEX
8
VISIBLE
10
414.330263
20
357.699516
70
0
0
VERTEX
8
VISIBLE
10
414.330263
20
359.951118
70
0
0
SEQEND
8
VISIBLE
0
POLYLINE
8
VISIBLE
62
7
70
0
10
0.000000
20
0.000000
66
1
0
VERTEX
8
VISIBLE
10
414.330263
20
359.951118
70
0
0
VERTEX
8
VISIBLE
10
432.331168
20
359.951118
70
0
0
SEQEND
8
VISIBLE
0
POLYLINE
8
VISIBLE
62
7
70
0
10
0.000000
20
0.000000
66
1
0
VERTEX
8
VISIBLE
10
432.331168
20
359.951118
70
0
0
VERTEX
8
VISIBLE
10
432.331168
20
357.699516
70
0
0
SEQEND
8
VISIBLE
0
POLYLINE
8
VISIBLE
62
7
70
0
10
0.000000
20
0.000000
66
1
0
VERTEX
8
VISIBLE
10
432.331168
20
357.699516
70
0
0
VERTEX
8
VISIBLE
10
451.330344
20
357.699516
70
0
0
SEQEND
8
VISIBLE
0
POLYLINE
8
VISIBLE
62
7
70
0
10
0.000000
20
0.000000
66
1
0
VERTEX
8
VISIBLE
10
451.330344
20
357.699516
70
0
0
VERTEX
8
VISIBLE
10
451.330344
20
355.199207
70
0
0
SEQEND
8
VISIBLE
0
POLYLINE
8
VISIBLE
62
7
70
0
10
0.000000
20
0.000000
66
1
0
VERTEX
8
VISIBLE
10
451.330344
20
355.199207
70
0
0
VERTEX
8
VISIBLE
10
470.830111
20
355.199207
70
0
0
SEQEND
8
VISIBLE
0
POLYLINE
8
VISIBLE
62
7
70
0
10
0.000000
20
0.000000
66
1
0
VERTEX
8
VISIBLE
10
470.830111
20
355.199207
70
0
0
VERTEX
8
VISIBLE
10
470.830111
20
303.386712
70
0
0
SEQEND
8
VISIBLE
0
POLYLINE
8
VISIBLE
62
7
70
0
10
0.000000
20
0.000000
66
1
0
VERTEX
8
VISIBLE
10
470.830111
20
303.386712
70
0
0
VERTEX
8
VISIBLE
10
491.154318
20
291.657748
70
0
0
SEQEND
8
VISIBLE
0
POLYLINE
8
VISIBLE
62
7
70
0
10
0.000000
20
0.000000
66
1
0
VERTEX
8
VISIBLE
10
491.154318
20
291.657748
70
0
0
VERTEX
8
VISIBLE
10
477.414788
20
267.798182
70
0
0
SEQEND
8
VISIBLE
0
POLYLINE
8
VISIBLE
62
7
70
0
10
0.000000
20
0.000000
66
1
0
VERTEX
8
VISIBLE
10
477.414788
20
267.798182
70
0
0
VERTEX
8
VISIBLE
10
461.307239
20
277.107270
70
0
0
SEQEND
8
VISIBLE
0
POLYLINE
8
VISIBLE
62
7
70
0
10
0.000000
20
0.000000
66
1
0
VERTEX
8
VISIBLE
10
461.307239
20
277.107270
70
0
0
VERTEX
8
VISIBLE
10
423.810007
20
281.984858
70
0
0
SEQEND
8
VISIBLE
0
POLYLINE
8
VISIBLE
62
7
70
0
10
0.000000
20
0.000000
66
1
0
VERTEX
8
VISIBLE
10
423.810007
20
281.984858
70
0
0
VERTEX
8
VISIBLE
10
413.079050
20
296.699377
70
0
0
SEQEND
8
VISIBLE
0
POLYLINE
8
VISIBLE
62
7
70
0
10
0.000000
20
0.000000
66
1
0
VERTEX
8
VISIBLE
10
420.044833
20
298.394695
70
0
0
VERTEX
8
VISIBLE
10
419.965885
20
298.005855
70
0
0
VERTEX
8
VISIBLE
10
419.751495
20
297.688403
70
0
0
VERTEX
8
VISIBLE
10
419.433774
20
297.474413
70
0
0
VERTEX
8
VISIBLE
10
419.044835
20
297.395956
70
0
0
VERTEX
8
VISIBLE
10
418.655895
20
297.474413
70
0
0
VERTEX
8
VISIBLE
10
418.338174
20
297.688403
70
0
0
VERTEX
8
VISIBLE
10
418.123784
20
298.005855
70
0
0
VERTEX
8
VISIBLE
10
418.044836
20
298.394695
70
0
0
VERTEX
8
VISIBLE
10
418.123784
20
298.783535
70
0
0
VERTEX
8
VISIBLE
10
418.338174
20
299.100986
70
0
0
VERTEX
8
VISIBLE
10
418.655895
20
299.314976
70
0
0
VERTEX
8
VISIBLE
10
419.044835
20
299.393434
70
0
0
VERTEX
8
VISIBLE
10
419.433774
20
299.314976
70
0
0
VERTEX
8
VISIBLE
10
419.751495
20
299.100986
70
0
0
VERTEX
8
VISIBLE
10
419.965885
20
298.783535
70
0
0
VERTEX
8
VISIBLE
10
420.044833
20
298.394695
70
0
0
VERTEX
8
VISIBLE
10
420.044833
20
298.394695
70
0
0
SEQEND
8
VISIBLE
0
POLYLINE
8
VISIBLE
62
7
70
0
10
0.000000
20
0.000000
66
1
0
VERTEX
8
VISIBLE
10
466.610774
20
290.780205
70
0
0
VERTEX
8
VISIBLE
10
466.531827
20
290.391365
70
0
0
VERTEX
8
VISIBLE
10
466.317436
20
290.073914
70
0
0
VERTEX
8
VISIBLE
10
465.999715
20
289.859923
70
0
0
VERTEX
8
VISIBLE
10
465.610776
20
289.781466
70
0
0
VERTEX
8
VISIBLE
10
465.221837
20
289.859923
70
0
0
VERTEX
8
VISIBLE
10
464.904115
20
290.073914
70
0
0
VERTEX
8
VISIBLE
10
464.689725
20
290.391365
70
0
0
VERTEX
8
VISIBLE
10
464.610778
20
290.780205
70
0
0
VERTEX
8
VISIBLE
10
464.689725
20
291.169045
70
0
0
VERTEX
8
VISIBLE
10
464.904115
20
291.486496
70
0
0
VERTEX
8
VISIBLE
10
465.221837
20
291.700487
70
0
0
VERTEX
8
VISIBLE
10
465.610776
20
291.778944
70
0
0
VERTEX
8
VISIBLE
10
465.999715
20
291.700487
70
0
0
VERTEX
8
VISIBLE
10
466.317436
20
291.486496
70
0
0
VERTEX
8
VISIBLE
10
466.531827
20
291.169045
70
0
0
VERTEX
8
VISIBLE
10
466.610774
20
290.780205
70
0
0
VERTEX
8
VISIBLE
10
466.610774
20
290.780205
70
0
0
SEQEND
8
VISIBLE
0
POLYLINE
8
VISIBLE
62
7
70
0
10
0.000000
20
0.000000
66
1
0
VERTEX
8
VISIBLE
10
452.855792
20
338.149637
70
0
0
VERTEX
8
VISIBLE
10
452.776844
20
337.760797
70
0
0
VERTEX
8
VISIBLE
10
452.562454
20
337.443346
70
0
0
VERTEX
8
VISIBLE
10
452.244733
20
337.229356
70
0
0
VERTEX
8
VISIBLE
10
451.855794
20
337.150898
70
0
0
VERTEX
8
VISIBLE
10
451.466854
20
337.229356
70
0
0
VERTEX
8
VISIBLE
10
451.149133
20
337.443346
70
0
0
VERTEX
8
VISIBLE
10
450.934743
20
337.760797
70
0
0
VERTEX
8
VISIBLE
10
450.855795
20
338.149637
70
0
0
VERTEX
8
VISIBLE
10
450.934743
20
338.538477
70
0
0
VERTEX
8
VISIBLE
10
451.149133
20
338.855929
70
0
0
VERTEX
8
VISIBLE
10
451.466854
20
339.069919
70
0
0
VERTEX
8
VISIBLE
10
451.855794
20
339.148376
70
0
0
VERTEX
8
VISIBLE
10
452.244733
20
339.069919
70
0
0
VERTEX
8
VISIBLE
10
452.562454
20
338.855929
70
0
0
VERTEX
8
VISIBLE
10
452.776844
20
338.538477
70
0
0
VERTEX
8
VISIBLE
10
452.855792
20
338.149637
70
0
0
VERTEX
8
VISIBLE
10
452.855792
20
338.149637
70
0
0
SEQEND
8
VISIBLE
0
POLYLINE
8
Layer 1
62
7
70
0
10
0.000000
20
0.000000
66
1
0
VERTEX
8
Layer 1
10
672.727451
20
200.128667
70
0
0
VERTEX
8
Layer 1
10
672.512372
20
200.274680
70
0
0
VERTEX
8
Layer 1
10
672.317832
20
200.237718
70
0
0
SEQEND
8
Layer 1
0
POLYLINE
8
VISIBLE
62
7
70
0
10
0.000000
20
0.000000
66
1
0
VERTEX
8
VISIBLE
10
590.075865
20
226.345045
70
0
0
VERTEX
8
VISIBLE
10
589.941890
20
226.845045
70
0
0
VERTEX
8
VISIBLE
10
589.575865
20
227.211070
70
0
0
VERTEX
8
VISIBLE
10
589.075866
20
227.345045
70
0
0
VERTEX
8
VISIBLE
10
588.575866
20
227.211070
70
0
0
VERTEX
8
VISIBLE
10
588.209841
20
226.845045
70
0
0
VERTEX
8
VISIBLE
10
588.075866
20
226.345045
70
0
0
VERTEX
8
VISIBLE
10
588.209841
20
225.845045
70
0
0
VERTEX
8
VISIBLE
10
588.575866
20
225.479020
70
0
0
VERTEX
8
VISIBLE
10
589.075866
20
225.345046
70
0
0
VERTEX
8
VISIBLE
10
589.575865
20
225.479020
70
0
0
VERTEX
8
VISIBLE
10
589.941890
20
225.845045
70
0
0
VERTEX
8
VISIBLE
10
590.075865
20
226.345045
70
0
0
VERTEX
8
VISIBLE
10
590.075865
20
226.345045
70
0
0
SEQEND
8
VISIBLE
0
POLYLINE
8
VISIBLE
62
7
70
0
10
0.000000
20
0.000000
66
1
0
VERTEX
8
VISIBLE
10
662.531824
20
240.788234
70
0
0
VERTEX
8
VISIBLE
10
648.531944
20
240.788234
70
0
0
SEQEND
8
VISIBLE
0
POLYLINE
8
VISIBLE
62
7
70
0
10
0.000000
20
0.000000
66
1
0
VERTEX
8
VISIBLE
10
662.531824
20
226.788883
70
0
0
VERTEX
8
VISIBLE
10
662.531824
20
240.788234
70
0
0
SEQEND
8
VISIBLE
0
POLYLINE
8
VISIBLE
62
7
70
0
10
0.000000
20
0.000000
66
1
0
VERTEX
8
VISIBLE
10
648.531944
20
226.788883
70
0
0
VERTEX
8
VISIBLE
10
662.531824
20
226.788883
70
0
0
SEQEND
8
VISIBLE
0
POLYLINE
8
VISIBLE
62
7
70
0
10
0.000000
20
0.000000
66
1
0
VERTEX
8
VISIBLE
10
648.531944
20
240.788234
70
0
0
VERTEX
8
VISIBLE
10
648.531944
20
226.788883
70
0
0
SEQEND
8
VISIBLE
0
POLYLINE
8
VISIBLE
62
7
70
0
10
0.000000
20
0.000000
66
1
0
VERTEX
8
VISIBLE
10
662.531824
20
259.788469
70
0
0
VERTEX
8
VISIBLE
10
648.531944
20
259.788469
70
0
0
SEQEND
8
VISIBLE
0
POLYLINE
8
VISIBLE
62
7
70
0
10
0.000000
20
0.000000
66
1
0
VERTEX
8
VISIBLE
10
662.531824
20
245.788324
70
0
0
VERTEX
8
VISIBLE
10
662.531824
20
259.788469
70
0
0
SEQEND
8
VISIBLE
0
POLYLINE
8
VISIBLE
62
7
70
0
10
0.000000
20
0.000000
66
1
0
VERTEX
8
VISIBLE
10
648.531944
20
245.788324
70
0
0
VERTEX
8
VISIBLE
10
662.531824
20
245.788324
70
0
0
SEQEND
8
VISIBLE
0
POLYLINE
8
VISIBLE
62
7
70
0
10
0.000000
20
0.000000
66
1
0
VERTEX
8
VISIBLE
10
648.531944
20
259.788469
70
0
0
VERTEX
8
VISIBLE
10
648.531944
20
245.788324
70
0
0
SEQEND
8
VISIBLE
0
POLYLINE
8
VISIBLE
62
7
70
0
10
0.000000
20
0.000000
66
1
0
VERTEX
8
VISIBLE
10
553.528920
20
224.153636
70
0
0
VERTEX
8
VISIBLE
10
553.528920
20
210.151904
70
0
0
SEQEND
8
VISIBLE
0
POLYLINE
8
VISIBLE
62
7
70
0
10
0.000000
20
0.000000
66
1
0
VERTEX
8
VISIBLE
10
567.528800
20
224.153636
70
0
0
VERTEX
8
VISIBLE
10
553.528920
20
224.153636
70
0
0
SEQEND
8
VISIBLE
0
POLYLINE
8
VISIBLE
62
7
70
0
10
0.000000
20
0.000000
66
1
0
VERTEX
8
VISIBLE
10
567.528800
20
210.151904
70
0
0
VERTEX
8
VISIBLE
10
567.528800
20
224.153636
70
0
0
SEQEND
8
VISIBLE
0
POLYLINE
8
VISIBLE
62
7
70
0
10
0.000000
20
0.000000
66
1
0
VERTEX
8
VISIBLE
10
553.528920
20
210.151904
70
0
0
VERTEX
8
VISIBLE
10
567.528800
20
210.151904
70
0
0
SEQEND
8
VISIBLE
0
POLYLINE
8
VISIBLE
62
7
70
0
10
0.000000
20
0.000000
66
1
0
VERTEX
8
VISIBLE
10
567.528800
20
229.154255
70
0
0
VERTEX
8
VISIBLE
10
567.528800
20
243.153077
70
0
0
SEQEND
8
VISIBLE
0
POLYLINE
8
VISIBLE
62
7
70
0
10
0.000000
20
0.000000
66
1
0
VERTEX
8
VISIBLE
10
553.528920
20
229.154255
70
0
0
VERTEX
8
VISIBLE
10
567.528800
20
229.154255
70
0
0
SEQEND
8
VISIBLE
0
POLYLINE
8
VISIBLE
62
7
70
0
10
0.000000
20
0.000000
66
1
0
VERTEX
8
VISIBLE
10
553.528920
20
243.153077
70
0
0
VERTEX
8
VISIBLE
10
553.528920
20
229.154255
70
0
0
SEQEND
8
VISIBLE
0
POLYLINE
8
VISIBLE
62
7
70
0
10
0.000000
20
0.000000
66
1
0
VERTEX
8
VISIBLE
10
567.528800
20
243.153077
70
0
0
VERTEX
8
VISIBLE
10
553.528920
20
243.153077
70
0
0
SEQEND
8
VISIBLE
0
POLYLINE
8
VISIBLE
62
7
70
0
10
0.000000
20
0.000000
66
1
0
VERTEX
8
VISIBLE
10
624.528974
20
222.029035
70
0
0
VERTEX
8
VISIBLE
10
624.528974
20
236.028915
70
0
0
SEQEND
8
VISIBLE
0
POLYLINE
8
VISIBLE
62
7
70
0
10
0.000000
20
0.000000
66
1
0
VERTEX
8
VISIBLE
10
610.528829
20
222.029035
70
0
0
VERTEX
8
VISIBLE
10
624.528974
20
222.029035
70
0
0
SEQEND
8
VISIBLE
0
POLYLINE
8
VISIBLE
62
7
70
0
10
0.000000
20
0.000000
66
1
0
VERTEX
8
VISIBLE
10
610.528829
20
236.028915
70
0
0
VERTEX
8
VISIBLE
10
610.528829
20
222.029035
70
0
0
SEQEND
8
VISIBLE
0
POLYLINE
8
VISIBLE
62
7
70
0
10
0.000000
20
0.000000
66
1
0
VERTEX
8
VISIBLE
10
624.528974
20
236.028915
70
0
0
VERTEX
8
VISIBLE
10
610.528829
20
236.028915
70
0
0
SEQEND
8
VISIBLE
0
POLYLINE
8
VISIBLE
62
7
70
0
10
0.000000
20
0.000000
66
1
0
VERTEX
8
VISIBLE
10
667.707068
20
266.949408
70
0
0
VERTEX
8
VISIBLE
10
679.831055
20
273.949480
70
0
0
SEQEND
8
VISIBLE
0
POLYLINE
8
VISIBLE
62
7
70
0
10
0.000000
20
0.000000
66
1
0
VERTEX
8
VISIBLE
10
660.707260
20
279.073659
70
0
0
VERTEX
8
VISIBLE
10
667.707068
20
266.949408
70
0
0
SEQEND
8
VISIBLE
0
POLYLINE
8
VISIBLE
62
7
70
0
10
0.000000
20
0.000000
66
1
0
VERTEX
8
VISIBLE
10
672.831511
20
286.073731
70
0
0
VERTEX
8
VISIBLE
10
660.707260
20
279.073659
70
0
0
SEQEND
8
VISIBLE
0
POLYLINE
8
VISIBLE
62
7
70
0
10
0.000000
20
0.000000
66
1
0
VERTEX
8
VISIBLE
10
679.831055
20
273.949480
70
0
0
VERTEX
8
VISIBLE
10
672.831511
20
286.073731
70
0
0
SEQEND
8
VISIBLE
0
POLYLINE
8
VISIBLE
62
7
70
0
10
0.000000
20
0.000000
66
1
0
VERTEX
8
VISIBLE
10
629.530122
20
219.404372
70
0
0
VERTEX
8
VISIBLE
10
629.530122
20
205.402639
70
0
0
SEQEND
8
VISIBLE
0
POLYLINE
8
VISIBLE
62
7
70
0
10
0.000000
20
0.000000
66
1
0
VERTEX
8
VISIBLE
10
643.530267
20
219.404372
70
0
0
VERTEX
8
VISIBLE
10
629.530122
20
219.404372
70
0
0
SEQEND
8
VISIBLE
0
POLYLINE
8
VISIBLE
62
7
70
0
10
0.000000
20
0.000000
66
1
0
VERTEX
8
VISIBLE
10
643.530267
20
205.402639
70
0
0
VERTEX
8
VISIBLE
10
643.530267
20
219.404372
70
0
0
SEQEND
8
VISIBLE
0
POLYLINE
8
VISIBLE
62
7
70
0
10
0.000000
20
0.000000
66
1
0
VERTEX
8
VISIBLE
10
629.530122
20
205.402639
70
0
0
VERTEX
8
VISIBLE
10
643.530267
20
205.402639
70
0
0
SEQEND
8
VISIBLE
0
POLYLINE
8
VISIBLE
62
7
70
0
10
0.000000
20
0.000000
66
1
0
VERTEX
8
VISIBLE
10
591.527272
20
257.407751
70
0
0
VERTEX
8
VISIBLE
10
591.527272
20
243.407606
70
0
0
SEQEND
8
VISIBLE
0
POLYLINE
8
VISIBLE
62
7
70
0
10
0.000000
20
0.000000
66
1
0
VERTEX
8
VISIBLE
10
605.527152
20
257.407751
70
0
0
VERTEX
8
VISIBLE
10
591.527272
20
257.407751
70
0
0
SEQEND
8
VISIBLE
0
POLYLINE
8
VISIBLE
62
7
70
0
10
0.000000
20
0.000000
66
1
0
VERTEX
8
VISIBLE
10
605.527152
20
243.407606
70
0
0
VERTEX
8
VISIBLE
10
605.527152
20
257.407751
70
0
0
SEQEND
8
VISIBLE
0
POLYLINE
8
VISIBLE
62
7
70
0
10
0.000000
20
0.000000
66
1
0
VERTEX
8
VISIBLE
10
591.527272
20
243.407606
70
0
0
VERTEX
8
VISIBLE
10
605.527152
20
243.407606
70
0
0
SEQEND
8
VISIBLE
0
POLYLINE
8
VISIBLE
62
7
70
0
10
0.000000
20
0.000000
66
1
0
VERTEX
8
VISIBLE
10
624.528974
20
217.028416
70
0
0
VERTEX
8
VISIBLE
10
610.528829
20
217.028416
70
0
0
SEQEND
8
VISIBLE
0
POLYLINE
8
VISIBLE
62
7
70
0
10
0.000000
20
0.000000
66
1
0
VERTEX
8
VISIBLE
10
624.528974
20
203.029330
70
0
0
VERTEX
8
VISIBLE
10
624.528974
20
217.028416
70
0
0
SEQEND
8
VISIBLE
0
POLYLINE
8
VISIBLE
62
7
70
0
10
0.000000
20
0.000000
66
1
0
VERTEX
8
VISIBLE
10
610.528829
20
203.029330
70
0
0
VERTEX
8
VISIBLE
10
624.528974
20
203.029330
70
0
0
SEQEND
8
VISIBLE
0
POLYLINE
8
VISIBLE
62
7
70
0
10
0.000000
20
0.000000
66
1
0
VERTEX
8
VISIBLE
10
610.528829
20
217.028416
70
0
0
VERTEX
8
VISIBLE
10
610.528829
20
203.029330
70
0
0
SEQEND
8
VISIBLE
0
POLYLINE
8
VISIBLE
62
7
70
0
10
0.000000
20
0.000000
66
1
0
VERTEX
8
VISIBLE
10
591.527272
20
238.407781
70
0
0
VERTEX
8
VISIBLE
10
591.527272
20
224.407636
70
0
0
SEQEND
8
VISIBLE
0
POLYLINE
8
VISIBLE
62
7
70
0
10
0.000000
20
0.000000
66
1
0
VERTEX
8
VISIBLE
10
605.527152
20
238.407781
70
0
0
VERTEX
8
VISIBLE
10
591.527272
20
238.407781
70
0
0
SEQEND
8
VISIBLE
0
POLYLINE
8
VISIBLE
62
7
70
0
10
0.000000
20
0.000000
66
1
0
VERTEX
8
VISIBLE
10
605.527152
20
224.407636
70
0
0
VERTEX
8
VISIBLE
10
605.527152
20
238.407781
70
0
0
SEQEND
8
VISIBLE
0
POLYLINE
8
VISIBLE
62
7
70
0
10
0.000000
20
0.000000
66
1
0
VERTEX
8
VISIBLE
10
591.527272
20
224.407636
70
0
0
VERTEX
8
VISIBLE
10
605.527152
20
224.407636
70
0
0
SEQEND
8
VISIBLE
0
POLYLINE
8
VISIBLE
62
7
70
0
10
0.000000
20
0.000000
66
1
0
VERTEX
8
VISIBLE
10
586.526918
20
210.151904
70
0
0
VERTEX
8
VISIBLE
10
586.526918
20
224.153636
70
0
0
SEQEND
8
VISIBLE
0
POLYLINE
8
VISIBLE
62
7
70
0
10
0.000000
20
0.000000
66
1
0
VERTEX
8
VISIBLE
10
572.527038
20
210.151904
70
0
0
VERTEX
8
VISIBLE
10
586.526918
20
210.151904
70
0
0
SEQEND
8
VISIBLE
0
POLYLINE
8
VISIBLE
62
7
70
0
10
0.000000
20
0.000000
66
1
0
VERTEX
8
VISIBLE
10
572.527038
20
224.153636
70
0
0
VERTEX
8
VISIBLE
10
572.527038
20
210.151904
70
0
0
SEQEND
8
VISIBLE
0
POLYLINE
8
VISIBLE
62
7
70
0
10
0.000000
20
0.000000
66
1
0
VERTEX
8
VISIBLE
10
586.526918
20
224.153636
70
0
0
VERTEX
8
VISIBLE
10
572.527038
20
224.153636
70
0
0
SEQEND
8
VISIBLE
0
POLYLINE
8
VISIBLE
62
7
70
0
10
0.000000
20
0.000000
66
1
0
VERTEX
8
VISIBLE
10
572.527038
20
243.153077
70
0
0
VERTEX
8
VISIBLE
10
572.527038
20
229.154255
70
0
0
SEQEND
8
VISIBLE
0
POLYLINE
8
VISIBLE
62
7
70
0
10
0.000000
20
0.000000
66
1
0
VERTEX
8
VISIBLE
10
586.526918
20
243.153077
70
0
0
VERTEX
8
VISIBLE
10
572.527038
20
243.153077
70
0
0
SEQEND
8
VISIBLE
0
POLYLINE
8
VISIBLE
62
7
70
0
10
0.000000
20
0.000000
66
1
0
VERTEX
8
VISIBLE
10
586.526918
20
229.154255
70
0
0
VERTEX
8
VISIBLE
10
586.526918
20
243.153077
70
0
0
SEQEND
8
VISIBLE
0
POLYLINE
8
VISIBLE
62
7
70
0
10
0.000000
20
0.000000
66
1
0
VERTEX
8
VISIBLE
10
572.527038
20
229.154255
70
0
0
VERTEX
8
VISIBLE
10
586.526918
20
229.154255
70
0
0
SEQEND
8
VISIBLE
0
POLYLINE
8
VISIBLE
62
7
70
0
10
0.000000
20
0.000000
66
1
0
VERTEX
8
VISIBLE
10
586.526918
20
262.153312
70
0
0
VERTEX
8
VISIBLE
10
572.527038
20
262.153312
70
0
0
SEQEND
8
VISIBLE
0
POLYLINE
8
VISIBLE
62
7
70
0
10
0.000000
20
0.000000
66
1
0
VERTEX
8
VISIBLE
10
586.526918
20
248.153167
70
0
0
VERTEX
8
VISIBLE
10
586.526918
20
262.153312
70
0
0
SEQEND
8
VISIBLE
0
POLYLINE
8
VISIBLE
62
7
70
0
10
0.000000
20
0.000000
66
1
0
VERTEX
8
VISIBLE
10
572.527038
20
248.153167
70
0
0
VERTEX
8
VISIBLE
10
586.526918
20
248.153167
70
0
0
SEQEND
8
VISIBLE
0
POLYLINE
8
VISIBLE
62
7
70
0
10
0.000000
20
0.000000
66
1
0
VERTEX
8
VISIBLE
10
572.527038
20
262.153312
70
0
0
VERTEX
8
VISIBLE
10
572.527038
20
248.153167
70
0
0
SEQEND
8
VISIBLE
0
POLYLINE
8
VISIBLE
62
7
70
0
10
0.000000
20
0.000000
66
1
0
VERTEX
8
VISIBLE
10
634.048671
20
277.061241
70
0
0
VERTEX
8
VISIBLE
10
620.048526
20
277.061241
70
0
0
SEQEND
8
VISIBLE
0
POLYLINE
8
VISIBLE
62
7
70
0
10
0.000000
20
0.000000
66
1
0
VERTEX
8
VISIBLE
10
634.048671
20
263.060831
70
0
0
VERTEX
8
VISIBLE
10
634.048671
20
277.061241
70
0
0
SEQEND
8
VISIBLE
0
POLYLINE
8
VISIBLE
62
7
70
0
10
0.000000
20
0.000000
66
1
0
VERTEX
8
VISIBLE
10
620.048526
20
263.060831
70
0
0
VERTEX
8
VISIBLE
10
634.048671
20
263.060831
70
0
0
SEQEND
8
VISIBLE
0
POLYLINE
8
VISIBLE
62
7
70
0
10
0.000000
20
0.000000
66
1
0
VERTEX
8
VISIBLE
10
620.048526
20
277.061241
70
0
0
VERTEX
8
VISIBLE
10
620.048526
20
263.060831
70
0
0
SEQEND
8
VISIBLE
0
POLYLINE
8
VISIBLE
62
7
70
0
10
0.000000
20
0.000000
66
1
0
VERTEX
8
VISIBLE
10
629.530122
20
238.403283
70
0
0
VERTEX
8
VISIBLE
10
629.530122
20
224.402344
70
0
0
SEQEND
8
VISIBLE
0
POLYLINE
8
VISIBLE
62
7
70
0
10
0.000000
20
0.000000
66
1
0
VERTEX
8
VISIBLE
10
643.530267
20
238.403283
70
0
0
VERTEX
8
VISIBLE
10
629.530122
20
238.403283
70
0
0
SEQEND
8
VISIBLE
0
POLYLINE
8
VISIBLE
62
7
70
0
10
0.000000
20
0.000000
66
1
0
VERTEX
8
VISIBLE
10
643.530267
20
224.402344
70
0
0
VERTEX
8
VISIBLE
10
643.530267
20
238.403283
70
0
0
SEQEND
8
VISIBLE
0
POLYLINE
8
VISIBLE
62
7
70
0
10
0.000000
20
0.000000
66
1
0
VERTEX
8
VISIBLE
10
629.530122
20
224.402344
70
0
0
VERTEX
8
VISIBLE
10
643.530267
20
224.402344
70
0
0
SEQEND
8
VISIBLE
0
POLYLINE
8
VISIBLE
62
7
70
0
10
0.000000
20
0.000000
66
1
0
VERTEX
8
VISIBLE
10
567.528800
20
262.153312
70
0
0
VERTEX
8
VISIBLE
10
553.528920
20
262.153312
70
0
0
SEQEND
8
VISIBLE
0
POLYLINE
8
VISIBLE
62
7
70
0
10
0.000000
20
0.000000
66
1
0
VERTEX
8
VISIBLE
10
567.528800
20
248.153167
70
0
0
VERTEX
8
VISIBLE
10
567.528800
20
262.153312
70
0
0
SEQEND
8
VISIBLE
0
POLYLINE
8
VISIBLE
62
7
70
0
10
0.000000
20
0.000000
66
1
0
VERTEX
8
VISIBLE
10
553.528920
20
248.153167
70
0
0
VERTEX
8
VISIBLE
10
567.528800
20
248.153167
70
0
0
SEQEND
8
VISIBLE
0
POLYLINE
8
VISIBLE
62
7
70
0
10
0.000000
20
0.000000
66
1
0
VERTEX
8
VISIBLE
10
553.528920
20
262.153312
70
0
0
VERTEX
8
VISIBLE
10
553.528920
20
248.153167
70
0
0
SEQEND
8
VISIBLE
0
POLYLINE
8
VISIBLE
62
7
70
0
10
0.000000
20
0.000000
66
1
0
VERTEX
8
VISIBLE
10
639.437962
20
277.721375
70
0
0
VERTEX
8
VISIBLE
10
643.061426
20
264.198274
70
0
0
SEQEND
8
VISIBLE
0
POLYLINE
8
VISIBLE
62
7
70
0
10
0.000000
20
0.000000
66
1
0
VERTEX
8
VISIBLE
10
652.961063
20
281.344839
70
0
0
VERTEX
8
VISIBLE
10
639.437962
20
277.721375
70
0
0
SEQEND
8
VISIBLE
0
POLYLINE
8
VISIBLE
62
7
70
0
10
0.000000
20
0.000000
66
1
0
VERTEX
8
VISIBLE
10
656.584528
20
267.821738
70
0
0
VERTEX
8
VISIBLE
10
652.961063
20
281.344839
70
0
0
SEQEND
8
VISIBLE
0
POLYLINE
8
VISIBLE
62
7
70
0
10
0.000000
20
0.000000
66
1
0
VERTEX
8
VISIBLE
10
643.061426
20
264.198274
70
0
0
VERTEX
8
VISIBLE
10
656.584528
20
267.821738
70
0
0
SEQEND
8
VISIBLE
0
POLYLINE
8
VISIBLE
62
7
70
0
10
0.000000
20
0.000000
66
1
0
VERTEX
8
VISIBLE
10
624.528974
20
255.028620
70
0
0
VERTEX
8
VISIBLE
10
610.528829
20
255.028620
70
0
0
SEQEND
8
VISIBLE
0
POLYLINE
8
VISIBLE
62
7
70
0
10
0.000000
20
0.000000
66
1
0
VERTEX
8
VISIBLE
10
624.528974
20
241.028476
70
0
0
VERTEX
8
VISIBLE
10
624.528974
20
255.028620
70
0
0
SEQEND
8
VISIBLE
0
POLYLINE
8
VISIBLE
62
7
70
0
10
0.000000
20
0.000000
66
1
0
VERTEX
8
VISIBLE
10
610.528829
20
241.028476
70
0
0
VERTEX
8
VISIBLE
10
624.528974
20
241.028476
70
0
0
SEQEND
8
VISIBLE
0
POLYLINE
8
VISIBLE
62
7
70
0
10
0.000000
20
0.000000
66
1
0
VERTEX
8
VISIBLE
10
610.528829
20
255.028620
70
0
0
VERTEX
8
VISIBLE
10
610.528829
20
241.028476
70
0
0
SEQEND
8
VISIBLE
0
POLYLINE
8
VISIBLE
62
7
70
0
10
0.000000
20
0.000000
66
1
0
VERTEX
8
VISIBLE
10
605.527152
20
205.407931
70
0
0
VERTEX
8
VISIBLE
10
605.527152
20
219.407017
70
0
0
SEQEND
8
VISIBLE
0
POLYLINE
8
VISIBLE
62
7
70
0
10
0.000000
20
0.000000
66
1
0
VERTEX
8
VISIBLE
10
591.527272
20
205.407931
70
0
0
VERTEX
8
VISIBLE
10
605.527152
20
205.407931
70
0
0
SEQEND
8
VISIBLE
0
POLYLINE
8
VISIBLE
62
7
70
0
10
0.000000
20
0.000000
66
1
0
VERTEX
8
VISIBLE
10
591.527272
20
219.407017
70
0
0
VERTEX
8
VISIBLE
10
591.527272
20
205.407931
70
0
0
SEQEND
8
VISIBLE
0
POLYLINE
8
VISIBLE
62
7
70
0
10
0.000000
20
0.000000
66
1
0
VERTEX
8
VISIBLE
10
605.527152
20
219.407017
70
0
0
VERTEX
8
VISIBLE
10
591.527272
20
219.407017
70
0
0
SEQEND
8
VISIBLE
0
POLYLINE
8
VISIBLE
62
7
70
0
10
0.000000
20
0.000000
66
1
0
VERTEX
8
VISIBLE
10
662.531824
20
207.789178
70
0
0
VERTEX
8
VISIBLE
10
662.531824
20
221.788264
70
0
0
SEQEND
8
VISIBLE
0
POLYLINE
8
VISIBLE
62
7
70
0
10
0.000000
20
0.000000
66
1
0
VERTEX
8
VISIBLE
10
648.531944
20
207.789178
70
0
0
VERTEX
8
VISIBLE
10
662.531824
20
207.789178
70
0
0
SEQEND
8
VISIBLE
0
POLYLINE
8
VISIBLE
62
7
70
0
10
0.000000
20
0.000000
66
1
0
VERTEX
8
VISIBLE
10
648.531944
20
221.788264
70
0
0
VERTEX
8
VISIBLE
10
648.531944
20
207.789178
70
0
0
SEQEND
8
VISIBLE
0
POLYLINE
8
VISIBLE
62
7
70
0
10
0.000000
20
0.000000
66
1
0
VERTEX
8
VISIBLE
10
662.531824
20
221.788264
70
0
0
VERTEX
8
VISIBLE
10
648.531944
20
221.788264
70
0
0
SEQEND
8
VISIBLE
0
POLYLINE
8
VISIBLE
62
7
70
0
10
0.000000
20
0.000000
66
1
0
VERTEX
8
VISIBLE
10
629.530122
20
243.403373
70
0
0
VERTEX
8
VISIBLE
10
643.530267
20
243.403373
70
0
0
SEQEND
8
VISIBLE
0
POLYLINE
8
VISIBLE
62
7
70
0
10
0.000000
20
0.000000
66
1
0
VERTEX
8
VISIBLE
10
629.530122
20
257.403517
70
0
0
VERTEX
8
VISIBLE
10
629.530122
20
243.403373
70
0
0
SEQEND
8
VISIBLE
0
POLYLINE
8
VISIBLE
62
7
70
0
10
0.000000
20
0.000000
66
1
0
VERTEX
8
VISIBLE
10
643.530267
20
257.403517
70
0
0
VERTEX
8
VISIBLE
10
629.530122
20
257.403517
70
0
0
SEQEND
8
VISIBLE
0
POLYLINE
8
VISIBLE
62
7
70
0
10
0.000000
20
0.000000
66
1
0
VERTEX
8
VISIBLE
10
643.530267
20
243.403373
70
0
0
VERTEX
8
VISIBLE
10
643.530267
20
257.403517
70
0
0
SEQEND
8
VISIBLE
0
POLYLINE
8
VISIBLE
62
7
70
0
10
0.000000
20
0.000000
66
1
0
VERTEX
8
VISIBLE
10
607.267050
20
264.280823
70
0
0
VERTEX
8
VISIBLE
10
551.518354
20
264.280823
70
0
0
SEQEND
8
VISIBLE
0
POLYLINE
8
VISIBLE
62
7
70
0
10
0.000000
20
0.000000
66
1
0
VERTEX
8
VISIBLE
10
551.518354
20
264.280823
70
0
0
VERTEX
8
VISIBLE
10
551.518354
20
208.029948
70
0
0
SEQEND
8
VISIBLE
0
POLYLINE
8
VISIBLE
62
7
70
0
10
0.000000
20
0.000000
66
1
0
VERTEX
8
VISIBLE
10
551.518354
20
208.029948
70
0
0
VERTEX
8
VISIBLE
10
589.519087
20
208.029948
70
0
0
SEQEND
8
VISIBLE
0
POLYLINE
8
VISIBLE
62
7
70
0
10
0.000000
20
0.000000
66
1
0
VERTEX
8
VISIBLE
10
589.519087
20
208.029948
70
0
0
VERTEX
8
VISIBLE
10
589.519087
20
203.280684
70
0
0
SEQEND
8
VISIBLE
0
POLYLINE
8
VISIBLE
62
7
70
0
10
0.000000
20
0.000000
66
1
0
VERTEX
8
VISIBLE
10
589.519087
20
203.280684
70
0
0
VERTEX
8
VISIBLE
10
608.518263
20
203.280684
70
0
0
SEQEND
8
VISIBLE
0
POLYLINE
8
VISIBLE
62
7
70
0
10
0.000000
20
0.000000
66
1
0
VERTEX
8
VISIBLE
10
608.518263
20
203.280684
70
0
0
VERTEX
8
VISIBLE
10
608.518263
20
201.029082
70
0
0
SEQEND
8
VISIBLE
0
POLYLINE
8
VISIBLE
62
7
70
0
10
0.000000
20
0.000000
66
1
0
VERTEX
8
VISIBLE
10
608.518263
20
201.029082
70
0
0
VERTEX
8
VISIBLE
10
626.519168
20
201.029082
70
0
0
SEQEND
8
VISIBLE
0
POLYLINE
8
VISIBLE
62
7
70
0
10
0.000000
20
0.000000
66
1
0
VERTEX
8
VISIBLE
10
626.519168
20
201.029082
70
0
0
VERTEX
8
VISIBLE
10
626.519168
20
203.280684
70
0
0
SEQEND
8
VISIBLE
0
POLYLINE
8
VISIBLE
62
7
70
0
10
0.000000
20
0.000000
66
1
0
VERTEX
8
VISIBLE
10
626.519168
20
203.280684
70
0
0
VERTEX
8
VISIBLE
10
645.518344
20
203.280684
70
0
0
SEQEND
8
VISIBLE
0
POLYLINE
8
VISIBLE
62
7
70
0
10
0.000000
20
0.000000
66
1
0
VERTEX
8
VISIBLE
10
645.518344
20
203.280684
70
0
0
VERTEX
8
VISIBLE
10
645.518344
20
205.780993
70
0
0
SEQEND
8
VISIBLE
0
POLYLINE
8
VISIBLE
62
7
70
0
10
0.000000
20
0.000000
66
1
0
VERTEX
8
VISIBLE
10
645.518344
20
205.780993
70
0
0
VERTEX
8
VISIBLE
10
665.018111
20
205.780993
70
0
0
SEQEND
8
VISIBLE
0
POLYLINE
8
VISIBLE
62
7
70
0
10
0.000000
20
0.000000
66
1
0
VERTEX
8
VISIBLE
10
665.018111
20
205.780993
70
0
0
VERTEX
8
VISIBLE
10
665.018111
20
257.593488
70
0
0
SEQEND
8
VISIBLE
0
POLYLINE
8
VISIBLE
62
7
70
0
10
0.000000
20
0.000000
66
1
0
VERTEX
8
VISIBLE
10
665.018111
20
257.593488
70
0
0
VERTEX
8
VISIBLE
10
685.342318
20
269.322452
70
0
0
SEQEND
8
VISIBLE
0
POLYLINE
8
VISIBLE
62
7
70
0
10
0.000000
20
0.000000
66
1
0
VERTEX
8
VISIBLE
10
685.342318
20
269.322452
70
0
0
VERTEX
8
VISIBLE
10
671.602788
20
293.182018
70
0
0
SEQEND
8
VISIBLE
0
POLYLINE
8
VISIBLE
62
7
70
0
10
0.000000
20
0.000000
66
1
0
VERTEX
8
VISIBLE
10
671.602788
20
293.182018
70
0
0
VERTEX
8
VISIBLE
10
655.495239
20
283.872930
70
0
0
SEQEND
8
VISIBLE
0
POLYLINE
8
VISIBLE
62
7
70
0
10
0.000000
20
0.000000
66
1
0
VERTEX
8
VISIBLE
10
655.495239
20
283.872930
70
0
0
VERTEX
8
VISIBLE
10
617.998007
20
278.995342
70
0
0
SEQEND
8
VISIBLE
0
POLYLINE
8
VISIBLE
62
7
70
0
10
0.000000
20
0.000000
66
1
0
VERTEX
8
VISIBLE
10
617.998007
20
278.995342
70
0
0
VERTEX
8
VISIBLE
10
607.267050
20
264.280823
70
0
0
SEQEND
8
VISIBLE
0
POLYLINE
8
VISIBLE
62
7
70
0
10
0.000000
20
0.000000
66
1
0
VERTEX
8
VISIBLE
10
614.232833
20
262.585505
70
0
0
VERTEX
8
VISIBLE
10
614.153885
20
262.974345
70
0
0
VERTEX
8
VISIBLE
10
613.939495
20
263.291797
70
0
0
VERTEX
8
VISIBLE
10
613.621774
20
263.505787
70
0
0
VERTEX
8
VISIBLE
10
613.232835
20
263.584244
70
0
0
VERTEX
8
VISIBLE
10
612.843895
20
263.505787
70
0
0
VERTEX
8
VISIBLE
10
612.526174
20
263.291797
70
0
0
VERTEX
8
VISIBLE
10
612.311784
20
262.974345
70
0
0
VERTEX
8
VISIBLE
10
612.232836
20
262.585505
70
0
0
VERTEX
8
VISIBLE
10
612.311784
20
262.196665
70
0
0
VERTEX
8
VISIBLE
10
612.526174
20
261.879214
70
0
0
VERTEX
8
VISIBLE
10
612.843895
20
261.665224
70
0
0
VERTEX
8
VISIBLE
10
613.232835
20
261.586766
70
0
0
VERTEX
8
VISIBLE
10
613.621774
20
261.665224
70
0
0
VERTEX
8
VISIBLE
10
613.939495
20
261.879214
70
0
0
VERTEX
8
VISIBLE
10
614.153885
20
262.196665
70
0
0
VERTEX
8
VISIBLE
10
614.232833
20
262.585505
70
0
0
VERTEX
8
VISIBLE
10
614.232833
20
262.585505
70
0
0
SEQEND
8
VISIBLE
0
POLYLINE
8
VISIBLE
62
7
70
0
10
0.000000
20
0.000000
66
1
0
VERTEX
8
VISIBLE
10
660.798774
20
270.199995
70
0
0
VERTEX
8
VISIBLE
10
660.719827
20
270.588835
70
0
0
VERTEX
8
VISIBLE
10
660.505436
20
270.906286
70
0
0
VERTEX
8
VISIBLE
10
660.187715
20
271.120277
70
0
0
VERTEX
8
VISIBLE
10
659.798776
20
271.198734
70
0
0
VERTEX
8
VISIBLE
10
659.409837
20
271.120277
70
0
0
VERTEX
8
VISIBLE
10
659.092115
20
270.906286
70
0
0
VERTEX
8
VISIBLE
10
658.877725
20
270.588835
70
0
0
VERTEX
8
VISIBLE
10
658.798778
20
270.199995
70
0
0
VERTEX
8
VISIBLE
10
658.877725
20
269.811155
70
0
0
VERTEX
8
VISIBLE
10
659.092115
20
269.493704
70
0
0
VERTEX
8
VISIBLE
10
659.409837
20
269.279713
70
0
0
VERTEX
8
VISIBLE
10
659.798776
20
269.201256
70
0
0
VERTEX
8
VISIBLE
10
660.187715
20
269.279713
70
0
0
VERTEX
8
VISIBLE
10
660.505436
20
269.493704
70
0
0
VERTEX
8
VISIBLE
10
660.719827
20
269.811155
70
0
0
VERTEX
8
VISIBLE
10
660.798774
20
270.199995
70
0
0
VERTEX
8
VISIBLE
10
660.798774
20
270.199995
70
0
0
SEQEND
8
VISIBLE
0
POLYLINE
8
VISIBLE
62
7
70
0
10
0.000000
20
0.000000
66
1
0
VERTEX
8
VISIBLE
10
647.043792
20
222.830563
70
0
0
VERTEX
8
VISIBLE
10
646.964844
20
223.219403
70
0
0
VERTEX
8
VISIBLE
10
646.750454
20
223.536854
70
0
0
VERTEX
8
VISIBLE
10
646.432733
20
223.750844
70
0
0
VERTEX
8
VISIBLE
10
646.043794
20
223.829302
70
0
0
VERTEX
8
VISIBLE
10
645.654854
20
223.750844
70
0
0
VERTEX
8
VISIBLE
10
645.337133
20
223.536854
70
0
0
VERTEX
8
VISIBLE
10
645.122743
20
223.219403
70
0
0
VERTEX
8
VISIBLE
10
645.043795
20
222.830563
70
0
0
VERTEX
8
VISIBLE
10
645.122743
20
222.441723
70
0
0
VERTEX
8
VISIBLE
10
645.337133
20
222.124271
70
0
0
VERTEX
8
VISIBLE
10
645.654854
20
221.910281
70
0
0
VERTEX
8
VISIBLE
10
646.043794
20
221.831824
70
0
0
VERTEX
8
VISIBLE
10
646.432733
20
221.910281
70
0
0
VERTEX
8
VISIBLE
10
646.750454
20
222.124271
70
0
0
VERTEX
8
VISIBLE
10
646.964844
20
222.441723
70
0
0
VERTEX
8
VISIBLE
10
647.043792
20
222.830563
70
0
0
VERTEX
8
VISIBLE
10
647.043792
20
222.830563
70
0
0
SEQEND
8
VISIBLE
0
POLYLINE
8
Layer 1
62
7
70
0
10
0.000000
20
0.000000
66
1
0
VERTEX
8
Layer 1
10
807.878451
20
201.640667
70
0
0
VERTEX
8
Layer 1
10
807.663372
20
201.786680
70
0
0
VERTEX
8
Layer 1
10
807.468832
20
201.749718
70
0
0
SEQEND
8
Layer 1
0
POLYLINE
8
VISIBLE
62
7
70
0
10
0.000000
20
0.000000
66
1
0
VERTEX
8
VISIBLE
10
725.226865
20
227.857045
70
0
0
VERTEX
8
VISIBLE
10
725.092890
20
228.357045
70
0
0
VERTEX
8
VISIBLE
10
724.726865
20
228.723070
70
0
0
VERTEX
8
VISIBLE
10
724.226866
20
228.857045
70
0
0
VERTEX
8
VISIBLE
10
723.726866
20
228.723070
70
0
0
VERTEX
8
VISIBLE
10
723.360841
20
228.357045
70
0
0
VERTEX
8
VISIBLE
10
723.226866
20
227.857045
70
0
0
VERTEX
8
VISIBLE
10
723.360841
20
227.357045
70
0
0
VERTEX
8
VISIBLE
10
723.726866
20
226.991020
70
0
0
VERTEX
8
VISIBLE
10
724.226866
20
226.857046
70
0
0
VERTEX
8
VISIBLE
10
724.726865
20
226.991020
70
0
0
VERTEX
8
VISIBLE
10
725.092890
20
227.357045
70
0
0
VERTEX
8
VISIBLE
10
725.226865
20
227.857045
70
0
0
VERTEX
8
VISIBLE
10
725.226865
20
227.857045
70
0
0
SEQEND
8
VISIBLE
0
POLYLINE
8
VISIBLE
62
7
70
0
10
0.000000
20
0.000000
66
1
0
VERTEX
8
VISIBLE
10
797.682824
20
242.300234
70
0
0
VERTEX
8
VISIBLE
10
783.682944
20
242.300234
70
0
0
SEQEND
8
VISIBLE
0
POLYLINE
8
VISIBLE
62
7
70
0
10
0.000000
20
0.000000
66
1
0
VERTEX
8
VISIBLE
10
797.682824
20
228.300883
70
0
0
VERTEX
8
VISIBLE
10
797.682824
20
242.300234
70
0
0
SEQEND
8
VISIBLE
0
POLYLINE
8
VISIBLE
62
7
70
0
10
0.000000
20
0.000000
66
1
0
VERTEX
8
VISIBLE
10
783.682944
20
228.300883
70
0
0
VERTEX
8
VISIBLE
10
797.682824
20
228.300883
70
0
0
SEQEND
8
VISIBLE
0
POLYLINE
8
VISIBLE
62
7
70
0
10
0.000000
20
0.000000
66
1
0
VERTEX
8
VISIBLE
10
783.682944
20
242.300234
70
0
0
VERTEX
8
VISIBLE
10
783.682944
20
228.300883
70
0
0
SEQEND
8
VISIBLE
0
POLYLINE
8
VISIBLE
62
7
70
0
10
0.000000
20
0.000000
66
1
0
VERTEX
8
VISIBLE
10
797.682824
20
261.300469
70
0
0
VERTEX
8
VISIBLE
10
783.682944
20
261.300469
70
0
0
SEQEND
8
VISIBLE
0
POLYLINE
8
VISIBLE
62
7
70
0
10
0.000000
20
0.000000
66
1
0
VERTEX
8
VISIBLE
10
797.682824
20
247.300324
70
0
0
VERTEX
8
VISIBLE
10
797.682824
20
261.300469
70
0
0
SEQEND
8
VISIBLE
0
POLYLINE
8
VISIBLE
62
7
70
0
10
0.000000
20
0.000000
66
1
0
VERTEX
8
VISIBLE
10
783.682944
20
247.300324
70
0
0
VERTEX
8
VISIBLE
10
797.682824
20
247.300324
70
0
0
SEQEND
8
VISIBLE
0
POLYLINE
8
VISIBLE
62
7
70
0
10
0.000000
20
0.000000
66
1
0
VERTEX
8
VISIBLE
10
783.682944
20
261.300469
70
0
0
VERTEX
8
VISIBLE
10
783.682944
20
247.300324
70
0
0
SEQEND
8
VISIBLE
0
POLYLINE
8
VISIBLE
62
7
70
0
10
0.000000
20
0.000000
66
1
0
VERTEX
8
VISIBLE
10
688.679920
20
225.665636
70
0
0
VERTEX
8
VISIBLE
10
688.679920
20
211.663904
70
0
0
SEQEND
8
VISIBLE
0
POLYLINE
8
VISIBLE
62
7
70
0
10
0.000000
20
0.000000
66
1
0
VERTEX
8
VISIBLE
10
702.679800
20
225.665636
70
0
0
VERTEX
8
VISIBLE
10
688.679920
20
225.665636
70
0
0
SEQEND
8
VISIBLE
0
POLYLINE
8
VISIBLE
62
7
70
0
10
0.000000
20
0.000000
66
1
0
VERTEX
8
VISIBLE
10
702.679800
20
211.663904
70
0
0
VERTEX
8
VISIBLE
10
702.679800
20
225.665636
70
0
0
SEQEND
8
VISIBLE
0
POLYLINE
8
VISIBLE
62
7
70
0
10
0.000000
20
0.000000
66
1
0
VERTEX
8
VISIBLE
10
688.679920
20
211.663904
70
0
0
VERTEX
8
VISIBLE
10
702.679800
20
211.663904
70
0
0
SEQEND
8
VISIBLE
0
POLYLINE
8
VISIBLE
62
7
70
0
10
0.000000
20
0.000000
66
1
0
VERTEX
8
VISIBLE
10
702.679800
20
230.666255
70
0
0
VERTEX
8
VISIBLE
10
702.679800
20
244.665077
70
0
0
SEQEND
8
VISIBLE
0
POLYLINE
8
VISIBLE
62
7
70
0
10
0.000000
20
0.000000
66
1
0
VERTEX
8
VISIBLE
10
688.679920
20
230.666255
70
0
0
VERTEX
8
VISIBLE
10
702.679800
20
230.666255
70
0
0
SEQEND
8
VISIBLE
0
POLYLINE
8
VISIBLE
62
7
70
0
10
0.000000
20
0.000000
66
1
0
VERTEX
8
VISIBLE
10
688.679920
20
244.665077
70
0
0
VERTEX
8
VISIBLE
10
688.679920
20
230.666255
70
0
0
SEQEND
8
VISIBLE
0
POLYLINE
8
VISIBLE
62
7
70
0
10
0.000000
20
0.000000
66
1
0
VERTEX
8
VISIBLE
10
702.679800
20
244.665077
70
0
0
VERTEX
8
VISIBLE
10
688.679920
20
244.665077
70
0
0
SEQEND
8
VISIBLE
0
POLYLINE
8
VISIBLE
62
7
70
0
10
0.000000
20
0.000000
66
1
0
VERTEX
8
VISIBLE
10
759.679974
20
223.541035
70
0
0
VERTEX
8
VISIBLE
10
759.679974
20
237.540915
70
0
0
SEQEND
8
VISIBLE
0
POLYLINE
8
VISIBLE
62
7
70
0
10
0.000000
20
0.000000
66
1
0
VERTEX
8
VISIBLE
10
745.679829
20
223.541035
70
0
0
VERTEX
8
VISIBLE
10
759.679974
20
223.541035
70
0
0
SEQEND
8
VISIBLE
0
POLYLINE
8
VISIBLE
62
7
70
0
10
0.000000
20
0.000000
66
1
0
VERTEX
8
VISIBLE
10
745.679829
20
237.540915
70
0
0
VERTEX
8
VISIBLE
10
745.679829
20
223.541035
70
0
0
SEQEND
8
VISIBLE
0
POLYLINE
8
VISIBLE
62
7
70
0
10
0.000000
20
0.000000
66
1
0
VERTEX
8
VISIBLE
10
759.679974
20
237.540915
70
0
0
VERTEX
8
VISIBLE
10
745.679829
20
237.540915
70
0
0
SEQEND
8
VISIBLE
0
POLYLINE
8
VISIBLE
62
7
70
0
10
0.000000
20
0.000000
66
1
0
VERTEX
8
VISIBLE
10
802.858068
20
268.461408
70
0
0
VERTEX
8
VISIBLE
10
814.982055
20
275.461480
70
0
0
SEQEND
8
VISIBLE
0
POLYLINE
8
VISIBLE
62
7
70
0
10
0.000000
20
0.000000
66
1
0
VERTEX
8
VISIBLE
10
795.858260
20
280.585659
70
0
0
VERTEX
8
VISIBLE
10
802.858068
20
268.461408
70
0
0
SEQEND
8
VISIBLE
0
POLYLINE
8
VISIBLE
62
7
70
0
10
0.000000
20
0.000000
66
1
0
VERTEX
8
VISIBLE
10
807.982511
20
287.585731
70
0
0
VERTEX
8
VISIBLE
10
795.858260
20
280.585659
70
0
0
SEQEND
8
VISIBLE
0
POLYLINE
8
VISIBLE
62
7
70
0
10
0.000000
20
0.000000
66
1
0
VERTEX
8
VISIBLE
10
814.982055
20
275.461480
70
0
0
VERTEX
8
VISIBLE
10
807.982511
20
287.585731
70
0
0
SEQEND
8
VISIBLE
0
POLYLINE
8
VISIBLE
62
7
70
0
10
0.000000
20
0.000000
66
1
0
VERTEX
8
VISIBLE
10
764.681122
20
220.916372
70
0
0
VERTEX
8
VISIBLE
10
764.681122
20
206.914639
70
0
0
SEQEND
8
VISIBLE
0
POLYLINE
8
VISIBLE
62
7
70
0
10
0.000000
20
0.000000
66
1
0
VERTEX
8
VISIBLE
10
778.681267
20
220.916372
70
0
0
VERTEX
8
VISIBLE
10
764.681122
20
220.916372
70
0
0
SEQEND
8
VISIBLE
0
POLYLINE
8
VISIBLE
62
7
70
0
10
0.000000
20
0.000000
66
1
0
VERTEX
8
VISIBLE
10
778.681267
20
206.914639
70
0
0
VERTEX
8
VISIBLE
10
778.681267
20
220.916372
70
0
0
SEQEND
8
VISIBLE
0
POLYLINE
8
VISIBLE
62
7
70
0
10
0.000000
20
0.000000
66
1
0
VERTEX
8
VISIBLE
10
764.681122
20
206.914639
70
0
0
VERTEX
8
VISIBLE
10
778.681267
20
206.914639
70
0
0
SEQEND
8
VISIBLE
0
POLYLINE
8
VISIBLE
62
7
70
0
10
0.000000
20
0.000000
66
1
0
VERTEX
8
VISIBLE
10
726.678272
20
258.919751
70
0
0
VERTEX
8
VISIBLE
10
726.678272
20
244.919606
70
0
0
SEQEND
8
VISIBLE
0
POLYLINE
8
VISIBLE
62
7
70
0
10
0.000000
20
0.000000
66
1
0
VERTEX
8
VISIBLE
10
740.678152
20
258.919751
70
0
0
VERTEX
8
VISIBLE
10
726.678272
20
258.919751
70
0
0
SEQEND
8
VISIBLE
0
POLYLINE
8
VISIBLE
62
7
70
0
10
0.000000
20
0.000000
66
1
0
VERTEX
8
VISIBLE
10
740.678152
20
244.919606
70
0
0
VERTEX
8
VISIBLE
10
740.678152
20
258.919751
70
0
0
SEQEND
8
VISIBLE
0
POLYLINE
8
VISIBLE
62
7
70
0
10
0.000000
20
0.000000
66
1
0
VERTEX
8
VISIBLE
10
726.678272
20
244.919606
70
0
0
VERTEX
8
VISIBLE
10
740.678152
20
244.919606
70
0
0
SEQEND
8
VISIBLE
0
POLYLINE
8
VISIBLE
62
7
70
0
10
0.000000
20
0.000000
66
1
0
VERTEX
8
VISIBLE
10
759.679974
20
218.540416
70
0
0
VERTEX
8
VISIBLE
10
745.679829
20
218.540416
70
0
0
SEQEND
8
VISIBLE
0
POLYLINE
8
VISIBLE
62
7
70
0
10
0.000000
20
0.000000
66
1
0
VERTEX
8
VISIBLE
10
759.679974
20
204.541330
70
0
0
VERTEX
8
VISIBLE
10
759.679974
20
218.540416
70
0
0
SEQEND
8
VISIBLE
0
POLYLINE
8
VISIBLE
62
7
70
0
10
0.000000
20
0.000000
66
1
0
VERTEX
8
VISIBLE
10
745.679829
20
204.541330
70
0
0
VERTEX
8
VISIBLE
10
759.679974
20
204.541330
70
0
0
SEQEND
8
VISIBLE
0
POLYLINE
8
VISIBLE
62
7
70
0
10
0.000000
20
0.000000
66
1
0
VERTEX
8
VISIBLE
10
745.679829
20
218.540416
70
0
0
VERTEX
8
VISIBLE
10
745.679829
20
204.541330
70
0
0
SEQEND
8
VISIBLE
0
POLYLINE
8
VISIBLE
62
7
70
0
10
0.000000
20
0.000000
66
1
0
VERTEX
8
VISIBLE
10
726.678272
20
239.919781
70
0
0
VERTEX
8
VISIBLE
10
726.678272
20
225.919636
70
0
0
SEQEND
8
VISIBLE
0
POLYLINE
8
VISIBLE
62
7
70
0
10
0.000000
20
0.000000
66
1
0
VERTEX
8
VISIBLE
10
740.678152
20
239.919781
70
0
0
VERTEX
8
VISIBLE
10
726.678272
20
239.919781
70
0
0
SEQEND
8
VISIBLE
0
POLYLINE
8
VISIBLE
62
7
70
0
10
0.000000
20
0.000000
66
1
0
VERTEX
8
VISIBLE
10
740.678152
20
225.919636
70
0
0
VERTEX
8
VISIBLE
10
740.678152
20
239.919781
70
0
0
SEQEND
8
VISIBLE
0
POLYLINE
8
VISIBLE
62
7
70
0
10
0.000000
20
0.000000
66
1
0
VERTEX
8
VISIBLE
10
726.678272
20
225.919636
70
0
0
VERTEX
8
VISIBLE
10
740.678152
20
225.919636
70
0
0
SEQEND
8
VISIBLE
0
POLYLINE
8
VISIBLE
62
7
70
0
10
0.000000
20
0.000000
66
1
0
VERTEX
8
VISIBLE
10
721.677918
20
211.663904
70
0
0
VERTEX
8
VISIBLE
10
721.677918
20
225.665636
70
0
0
SEQEND
8
VISIBLE
0
POLYLINE
8
VISIBLE
62
7
70
0
10
0.000000
20
0.000000
66
1
0
VERTEX
8
VISIBLE
10
707.678038
20
211.663904
70
0
0
VERTEX
8
VISIBLE
10
721.677918
20
211.663904
70
0
0
SEQEND
8
VISIBLE
0
POLYLINE
8
VISIBLE
62
7
70
0
10
0.000000
20
0.000000
66
1
0
VERTEX
8
VISIBLE
10
707.678038
20
225.665636
70
0
0
VERTEX
8
VISIBLE
10
707.678038
20
211.663904
70
0
0
SEQEND
8
VISIBLE
0
POLYLINE
8
VISIBLE
62
7
70
0
10
0.000000
20
0.000000
66
1
0
VERTEX
8
VISIBLE
10
721.677918
20
225.665636
70
0
0
VERTEX
8
VISIBLE
10
707.678038
20
225.665636
70
0
0
SEQEND
8
VISIBLE
0
POLYLINE
8
VISIBLE
62
7
70
0
10
0.000000
20
0.000000
66
1
0
VERTEX
8
VISIBLE
10
707.678038
20
244.665077
70
0
0
VERTEX
8
VISIBLE
10
707.678038
20
230.666255
70
0
0
SEQEND
8
VISIBLE
0
POLYLINE
8
VISIBLE
62
7
70
0
10
0.000000
20
0.000000
66
1
0
VERTEX
8
VISIBLE
10
721.677918
20
244.665077
70
0
0
VERTEX
8
VISIBLE
10
707.678038
20
244.665077
70
0
0
SEQEND
8
VISIBLE
0
POLYLINE
8
VISIBLE
62
7
70
0
10
0.000000
20
0.000000
66
1
0
VERTEX
8
VISIBLE
10
721.677918
20
230.666255
70
0
0
VERTEX
8
VISIBLE
10
721.677918
20
244.665077
70
0
0
SEQEND
8
VISIBLE
0
POLYLINE
8
VISIBLE
62
7
70
0
10
0.000000
20
0.000000
66
1
0
VERTEX
8
VISIBLE
10
707.678038
20
230.666255
70
0
0
VERTEX
8
VISIBLE
10
721.677918
20
230.666255
70
0
0
SEQEND
8
VISIBLE
0
POLYLINE
8
VISIBLE
62
7
70
0
10
0.000000
20
0.000000
66
1
0
VERTEX
8
VISIBLE
10
721.677918
20
263.665312
70
0
0
VERTEX
8
VISIBLE
10
707.678038
20
263.665312
70
0
0
SEQEND
8
VISIBLE
0
POLYLINE
8
VISIBLE
62
7
70
0
10
0.000000
20
0.000000
66
1
0
VERTEX
8
VISIBLE
10
721.677918
20
249.665167
70
0
0
VERTEX
8
VISIBLE
10
721.677918
20
263.665312
70
0
0
SEQEND
8
VISIBLE
0
POLYLINE
8
VISIBLE
62
7
70
0
10
0.000000
20
0.000000
66
1
0
VERTEX
8
VISIBLE
10
707.678038
20
249.665167
70
0
0
VERTEX
8
VISIBLE
10
721.677918
20
249.665167
70
0
0
SEQEND
8
VISIBLE
0
POLYLINE
8
VISIBLE
62
7
70
0
10
0.000000
20
0.000000
66
1
0
VERTEX
8
VISIBLE
10
707.678038
20
263.665312
70
0
0
VERTEX
8
VISIBLE
10
707.678038
20
249.665167
70
0
0
SEQEND
8
VISIBLE
0
POLYLINE
8
VISIBLE
62
7
70
0
10
0.000000
20
0.000000
66
1
0
VERTEX
8
VISIBLE
10
769.199671
20
278.573241
70
0
0
VERTEX
8
VISIBLE
10
755.199526
20
278.573241
70
0
0
SEQEND
8
VISIBLE
0
POLYLINE
8
VISIBLE
62
7
70
0
10
0.000000
20
0.000000
66
1
0
VERTEX
8
VISIBLE
10
769.199671
20
264.572831
70
0
0
VERTEX
8
VISIBLE
10
769.199671
20
278.573241
70
0
0
SEQEND
8
VISIBLE
0
POLYLINE
8
VISIBLE
62
7
70
0
10
0.000000
20
0.000000
66
1
0
VERTEX
8
VISIBLE
10
755.199526
20
264.572831
70
0
0
VERTEX
8
VISIBLE
10
769.199671
20
264.572831
70
0
0
SEQEND
8
VISIBLE
0
POLYLINE
8
VISIBLE
62
7
70
0
10
0.000000
20
0.000000
66
1
0
VERTEX
8
VISIBLE
10
755.199526
20
278.573241
70
0
0
VERTEX
8
VISIBLE
10
755.199526
20
264.572831
70
0
0
SEQEND
8
VISIBLE
0
POLYLINE
8
VISIBLE
62
7
70
0
10
0.000000
20
0.000000
66
1
0
VERTEX
8
VISIBLE
10
764.681122
20
239.915283
70
0
0
VERTEX
8
VISIBLE
10
764.681122
20
225.914344
70
0
0
SEQEND
8
VISIBLE
0
POLYLINE
8
VISIBLE
62
7
70
0
10
0.000000
20
0.000000
66
1
0
VERTEX
8
VISIBLE
10
778.681267
20
239.915283
70
0
0
VERTEX
8
VISIBLE
10
764.681122
20
239.915283
70
0
0
SEQEND
8
VISIBLE
0
POLYLINE
8
VISIBLE
62
7
70
0
10
0.000000
20
0.000000
66
1
0
VERTEX
8
VISIBLE
10
778.681267
20
225.914344
70
0
0
VERTEX
8
VISIBLE
10
778.681267
20
239.915283
70
0
0
SEQEND
8
VISIBLE
0
POLYLINE
8
VISIBLE
62
7
70
0
10
0.000000
20
0.000000
66
1
0
VERTEX
8
VISIBLE
10
764.681122
20
225.914344
70
0
0
VERTEX
8
VISIBLE
10
778.681267
20
225.914344
70
0
0
SEQEND
8
VISIBLE
0
POLYLINE
8
VISIBLE
62
7
70
0
10
0.000000
20
0.000000
66
1
0
VERTEX
8
VISIBLE
10
702.679800
20
263.665312
70
0
0
VERTEX
8
VISIBLE
10
688.679920
20
263.665312
70
0
0
SEQEND
8
VISIBLE
0
POLYLINE
8
VISIBLE
62
7
70
0
10
0.000000
20
0.000000
66
1
0
VERTEX
8
VISIBLE
10
702.679800
20
249.665167
70
0
0
VERTEX
8
VISIBLE
10
702.679800
20
263.665312
70
0
0
SEQEND
8
VISIBLE
0
POLYLINE
8
VISIBLE
62
7
70
0
10
0.000000
20
0.000000
66
1
0
VERTEX
8
VISIBLE
10
688.679920
20
249.665167
70
0
0
VERTEX
8
VISIBLE
10
702.679800
20
249.665167
70
0
0
SEQEND
8
VISIBLE
0
POLYLINE
8
VISIBLE
62
7
70
0
10
0.000000
20
0.000000
66
1
0
VERTEX
8
VISIBLE
10
688.679920
20
263.665312
70
0
0
VERTEX
8
VISIBLE
10
688.679920
20
249.665167
70
0
0
SEQEND
8
VISIBLE
0
POLYLINE
8
VISIBLE
62
7
70
0
10
0.000000
20
0.000000
66
1
0
VERTEX
8
VISIBLE
10
774.588962
20
279.233375
70
0
0
VERTEX
8
VISIBLE
10
778.212426
20
265.710274
70
0
0
SEQEND
8
VISIBLE
0
POLYLINE
8
VISIBLE
62
7
70
0
10
0.000000
20
0.000000
66
1
0
VERTEX
8
VISIBLE
10
788.112063
20
282.856839
70
0
0
VERTEX
8
VISIBLE
10
774.588962
20
279.233375
70
0
0
SEQEND
8
VISIBLE
0
POLYLINE
8
VISIBLE
62
7
70
0
10
0.000000
20
0.000000
66
1
0
VERTEX
8
VISIBLE
10
791.735528
20
269.333738
70
0
0
VERTEX
8
VISIBLE
10
788.112063
20
282.856839
70
0
0
SEQEND
8
VISIBLE
0
POLYLINE
8
VISIBLE
62
7
70
0
10
0.000000
20
0.000000
66
1
0
VERTEX
8
VISIBLE
10
778.212426
20
265.710274
70
0
0
VERTEX
8
VISIBLE
10
791.735528
20
269.333738
70
0
0
SEQEND
8
VISIBLE
0
POLYLINE
8
VISIBLE
62
7
70
0
10
0.000000
20
0.000000
66
1
0
VERTEX
8
VISIBLE
10
759.679974
20
256.540620
70
0
0
VERTEX
8
VISIBLE
10
745.679829
20
256.540620
70
0
0
SEQEND
8
VISIBLE
0
POLYLINE
8
VISIBLE
62
7
70
0
10
0.000000
20
0.000000
66
1
0
VERTEX
8
VISIBLE
10
759.679974
20
242.540476
70
0
0
VERTEX
8
VISIBLE
10
759.679974
20
256.540620
70
0
0
SEQEND
8
VISIBLE
0
POLYLINE
8
VISIBLE
62
7
70
0
10
0.000000
20
0.000000
66
1
0
VERTEX
8
VISIBLE
10
745.679829
20
242.540476
70
0
0
VERTEX
8
VISIBLE
10
759.679974
20
242.540476
70
0
0
SEQEND
8
VISIBLE
0
POLYLINE
8
VISIBLE
62
7
70
0
10
0.000000
20
0.000000
66
1
0
VERTEX
8
VISIBLE
10
745.679829
20
256.540620
70
0
0
VERTEX
8
VISIBLE
10
745.679829
20
242.540476
70
0
0
SEQEND
8
VISIBLE
0
POLYLINE
8
VISIBLE
62
7
70
0
10
0.000000
20
0.000000
66
1
0
VERTEX
8
VISIBLE
10
740.678152
20
206.919931
70
0
0
VERTEX
8
VISIBLE
10
740.678152
20
220.919017
70
0
0
SEQEND
8
VISIBLE
0
POLYLINE
8
VISIBLE
62
7
70
0
10
0.000000
20
0.000000
66
1
0
VERTEX
8
VISIBLE
10
726.678272
20
206.919931
70
0
0
VERTEX
8
VISIBLE
10
740.678152
20
206.919931
70
0
0
SEQEND
8
VISIBLE
0
POLYLINE
8
VISIBLE
62
7
70
0
10
0.000000
20
0.000000
66
1
0
VERTEX
8
VISIBLE
10
726.678272
20
220.919017
70
0
0
VERTEX
8
VISIBLE
10
726.678272
20
206.919931
70
0
0
SEQEND
8
VISIBLE
0
POLYLINE
8
VISIBLE
62
7
70
0
10
0.000000
20
0.000000
66
1
0
VERTEX
8
VISIBLE
10
740.678152
20
220.919017
70
0
0
VERTEX
8
VISIBLE
10
726.678272
20
220.919017
70
0
0
SEQEND
8
VISIBLE
0
POLYLINE
8
VISIBLE
62
7
70
0
10
0.000000
20
0.000000
66
1
0
VERTEX
8
VISIBLE
10
797.682824
20
209.301178
70
0
0
VERTEX
8
VISIBLE
10
797.682824
20
223.300264
70
0
0
SEQEND
8
VISIBLE
0
POLYLINE
8
VISIBLE
62
7
70
0
10
0.000000
20
0.000000
66
1
0
VERTEX
8
VISIBLE
10
783.682944
20
209.301178
70
0
0
VERTEX
8
VISIBLE
10
797.682824
20
209.301178
70
0
0
SEQEND
8
VISIBLE
0
POLYLINE
8
VISIBLE
62
7
70
0
10
0.000000
20
0.000000
66
1
0
VERTEX
8
VISIBLE
10
783.682944
20
223.300264
70
0
0
VERTEX
8
VISIBLE
10
783.682944
20
209.301178
70
0
0
SEQEND
8
VISIBLE
0
POLYLINE
8
VISIBLE
62
7
70
0
10
0.000000
20
0.000000
66
1
0
VERTEX
8
VISIBLE
10
797.682824
20
223.300264
70
0
0
VERTEX
8
VISIBLE
10
783.682944
20
223.300264
70
0
0
SEQEND
8
VISIBLE
0
POLYLINE
8
VISIBLE
62
7
70
0
10
0.000000
20
0.000000
66
1
0
VERTEX
8
VISIBLE
10
764.681122
20
244.915373
70
0
0
VERTEX
8
VISIBLE
10
778.681267
20
244.915373
70
0
0
SEQEND
8
VISIBLE
0
POLYLINE
8
VISIBLE
62
7
70
0
10
0.000000
20
0.000000
66
1
0
VERTEX
8
VISIBLE
10
764.681122
20
258.915517
70
0
0
VERTEX
8
VISIBLE
10
764.681122
20
244.915373
70
0
0
SEQEND
8
VISIBLE
0
POLYLINE
8
VISIBLE
62
7
70
0
10
0.000000
20
0.000000
66
1
0
VERTEX
8
VISIBLE
10
778.681267
20
258.915517
70
0
0
VERTEX
8
VISIBLE
10
764.681122
20
258.915517
70
0
0
SEQEND
8
VISIBLE
0
POLYLINE
8
VISIBLE
62
7
70
0
10
0.000000
20
0.000000
66
1
0
VERTEX
8
VISIBLE
10
778.681267
20
244.915373
70
0
0
VERTEX
8
VISIBLE
10
778.681267
20
258.915517
70
0
0
SEQEND
8
VISIBLE
0
POLYLINE
8
VISIBLE
62
7
70
0
10
0.000000
20
0.000000
66
1
0
VERTEX
8
VISIBLE
10
742.418050
20
265.792823
70
0
0
VERTEX
8
VISIBLE
10
686.669354
20
265.792823
70
0
0
SEQEND
8
VISIBLE
0
POLYLINE
8
VISIBLE
62
7
70
0
10
0.000000
20
0.000000
66
1
0
VERTEX
8
VISIBLE
10
686.669354
20
265.792823
70
0
0
VERTEX
8
VISIBLE
10
686.669354
20
209.541948
70
0
0
SEQEND
8
VISIBLE
0
POLYLINE
8
VISIBLE
62
7
70
0
10
0.000000
20
0.000000
66
1
0
VERTEX
8
VISIBLE
10
686.669354
20
209.541948
70
0
0
VERTEX
8
VISIBLE
10
724.670087
20
209.541948
70
0
0
SEQEND
8
VISIBLE
0
POLYLINE
8
VISIBLE
62
7
70
0
10
0.000000
20
0.000000
66
1
0
VERTEX
8
VISIBLE
10
724.670087
20
209.541948
70
0
0
VERTEX
8
VISIBLE
10
724.670087
20
204.792684
70
0
0
SEQEND
8
VISIBLE
0
POLYLINE
8
VISIBLE
62
7
70
0
10
0.000000
20
0.000000
66
1
0
VERTEX
8
VISIBLE
10
724.670087
20
204.792684
70
0
0
VERTEX
8
VISIBLE
10
743.669263
20
204.792684
70
0
0
SEQEND
8
VISIBLE
0
POLYLINE
8
VISIBLE
62
7
70
0
10
0.000000
20
0.000000
66
1
0
VERTEX
8
VISIBLE
10
743.669263
20
204.792684
70
0
0
VERTEX
8
VISIBLE
10
743.669263
20
202.541082
70
0
0
SEQEND
8
VISIBLE
0
POLYLINE
8
VISIBLE
62
7
70
0
10
0.000000
20
0.000000
66
1
0
VERTEX
8
VISIBLE
10
743.669263
20
202.541082
70
0
0
VERTEX
8
VISIBLE
10
761.670168
20
202.541082
70
0
0
SEQEND
8
VISIBLE
0
POLYLINE
8
VISIBLE
62
7
70
0
10
0.000000
20
0.000000
66
1
0
VERTEX
8
VISIBLE
10
761.670168
20
202.541082
70
0
0
VERTEX
8
VISIBLE
10
761.670168
20
204.792684
70
0
0
SEQEND
8
VISIBLE
0
POLYLINE
8
VISIBLE
62
7
70
0
10
0.000000
20
0.000000
66
1
0
VERTEX
8
VISIBLE
10
761.670168
20
204.792684
70
0
0
VERTEX
8
VISIBLE
10
780.669344
20
204.792684
70
0
0
SEQEND
8
VISIBLE
0
POLYLINE
8
VISIBLE
62
7
70
0
10
0.000000
20
0.000000
66
1
0
VERTEX
8
VISIBLE
10
780.669344
20
204.792684
70
0
0
VERTEX
8
VISIBLE
10
780.669344
20
207.292993
70
0
0
SEQEND
8
VISIBLE
0
POLYLINE
8
VISIBLE
62
7
70
0
10
0.000000
20
0.000000
66
1
0
VERTEX
8
VISIBLE
10
780.669344
20
207.292993
70
0
0
VERTEX
8
VISIBLE
10
800.169111
20
207.292993
70
0
0
SEQEND
8
VISIBLE
0
POLYLINE
8
VISIBLE
62
7
70
0
10
0.000000
20
0.000000
66
1
0
VERTEX
8
VISIBLE
10
800.169111
20
207.292993
70
0
0
VERTEX
8
VISIBLE
10
800.169111
20
259.105488
70
0
0
SEQEND
8
VISIBLE
0
POLYLINE
8
VISIBLE
62
7
70
0
10
0.000000
20
0.000000
66
1
0
VERTEX
8
VISIBLE
10
800.169111
20
259.105488
70
0
0
VERTEX
8
VISIBLE
10
820.493318
20
270.834452
70
0
0
SEQEND
8
VISIBLE
0
POLYLINE
8
VISIBLE
62
7
70
0
10
0.000000
20
0.000000
66
1
0
VERTEX
8
VISIBLE
10
820.493318
20
270.834452
70
0
0
VERTEX
8
VISIBLE
10
806.753788
20
294.694018
70
0
0
SEQEND
8
VISIBLE
0
POLYLINE
8
VISIBLE
62
7
70
0
10
0.000000
20
0.000000
66
1
0
VERTEX
8
VISIBLE
10
806.753788
20
294.694018
70
0
0
VERTEX
8
VISIBLE
10
790.646239
20
285.384930
70
0
0
SEQEND
8
VISIBLE
0
POLYLINE
8
VISIBLE
62
7
70
0
10
0.000000
20
0.000000
66
1
0
VERTEX
8
VISIBLE
10
790.646239
20
285.384930
70
0
0
VERTEX
8
VISIBLE
10
753.149007
20
280.507342
70
0
0
SEQEND
8
VISIBLE
0
POLYLINE
8
VISIBLE
62
7
70
0
10
0.000000
20
0.000000
66
1
0
VERTEX
8
VISIBLE
10
753.149007
20
280.507342
70
0
0
VERTEX
8
VISIBLE
10
742.418050
20
265.792823
70
0
0
SEQEND
8
VISIBLE
0
POLYLINE
8
VISIBLE
62
7
70
0
10
0.000000
20
0.000000
66
1
0
VERTEX
8
VISIBLE
10
749.383833
20
264.097505
70
0
0
VERTEX
8
VISIBLE
10
749.304885
20
264.486345
70
0
0
VERTEX
8
VISIBLE
10
749.090495
20
264.803797
70
0
0
VERTEX
8
VISIBLE
10
748.772774
20
265.017787
70
0
0
VERTEX
8
VISIBLE
10
748.383835
20
265.096244
70
0
0
VERTEX
8
VISIBLE
10
747.994895
20
265.017787
70
0
0
VERTEX
8
VISIBLE
10
747.677174
20
264.803797
70
0
0
VERTEX
8
VISIBLE
10
747.462784
20
264.486345
70
0
0
VERTEX
8
VISIBLE
10
747.383836
20
264.097505
70
0
0
VERTEX
8
VISIBLE
10
747.462784
20
263.708665
70
0
0
VERTEX
8
VISIBLE
10
747.677174
20
263.391214
70
0
0
VERTEX
8
VISIBLE
10
747.994895
20
263.177224
70
0
0
VERTEX
8
VISIBLE
10
748.383835
20
263.098766
70
0
0
VERTEX
8
VISIBLE
10
748.772774
20
263.177224
70
0
0
VERTEX
8
VISIBLE
10
749.090495
20
263.391214
70
0
0
VERTEX
8
VISIBLE
10
749.304885
20
263.708665
70
0
0
VERTEX
8
VISIBLE
10
749.383833
20
264.097505
70
0
0
VERTEX
8
VISIBLE
10
749.383833
20
264.097505
70
0
0
SEQEND
8
VISIBLE
0
POLYLINE
8
VISIBLE
62
7
70
0
10
0.000000
20
0.000000
66
1
0
VERTEX
8
VISIBLE
10
795.949774
20
271.711995
70
0
0
VERTEX
8
VISIBLE
10
795.870827
20
272.100835
70
0
0
VERTEX
8
VISIBLE
10
795.656436
20
272.418286
70
0
0
VERTEX
8
VISIBLE
10
795.338715
20
272.632277
70
0
0
VERTEX
8
VISIBLE
10
794.949776
20
272.710734
70
0
0
VERTEX
8
VISIBLE
10
794.560837
20
272.632277
70
0
0
VERTEX
8
VISIBLE
10
794.243115
20
272.418286
70
0
0
VERTEX
8
VISIBLE
10
794.028725
20
272.100835
70
0
0
VERTEX
8
VISIBLE
10
793.949778
20
271.711995
70
0
0
VERTEX
8
VISIBLE
10
794.028725
20
271.323155
70
0
0
VERTEX
8
VISIBLE
10
794.243115
20
271.005704
70
0
0
VERTEX
8
VISIBLE
10
794.560837
20
270.791713
70
0
0
VERTEX
8
VISIBLE
10
794.949776
20
270.713256
70
0
0
VERTEX
8
VISIBLE
10
795.338715
20
270.791713
70
0
0
VERTEX
8
VISIBLE
10
795.656436
20
271.005704
70
0
0
VERTEX
8
VISIBLE
10
795.870827
20
271.323155
70
0
0
VERTEX
8
VISIBLE
10
795.949774
20
271.711995
70
0
0
VERTEX
8
VISIBLE
10
795.949774
20
271.711995
70
0
0
SEQEND
8
VISIBLE
0
POLYLINE
8
VISIBLE
62
7
70
0
10
0.000000
20
0.000000
66
1
0
VERTEX
8
VISIBLE
10
782.194792
20
224.342563
70
0
0
VERTEX
8
VISIBLE
10
782.115844
20
224.731403
70
0
0
VERTEX
8
VISIBLE
10
781.901454
20
225.048854
70
0
0
VERTEX
8
VISIBLE
10
781.583733
20
225.262844
70
0
0
VERTEX
8
VISIBLE
10
781.194794
20
225.341302
70
0
0
VERTEX
8
VISIBLE
10
780.805854
20
225.262844
70
0
0
VERTEX
8
VISIBLE
10
780.488133
20
225.048854
70
0
0
VERTEX
8
VISIBLE
10
780.273743
20
224.731403
70
0
0
VERTEX
8
VISIBLE
10
780.194795
20
224.342563
70
0
0
VERTEX
8
VISIBLE
10
780.273743
20
223.953723
70
0
0
VERTEX
8
VISIBLE
10
780.488133
20
223.636271
70
0
0
VERTEX
8
VISIBLE
10
780.805854
20
223.422281
70
0
0
VERTEX
8
VISIBLE
10
781.194794
20
223.343824
70
0
0
VERTEX
8
VISIBLE
10
781.583733
20
223.422281
70
0
0
VERTEX
8
VISIBLE
10
781.901454
20
223.636271
70
0
0
VERTEX
8
VISIBLE
10
782.115844
20
223.953723
70
0
0
VERTEX
8
VISIBLE
10
782.194792
20
224.342563
70
0
0
VERTEX
8
VISIBLE
10
782.194792
20
224.342563
70
0
0
SEQEND
8
VISIBLE
0
POLYLINE
8
Layer 1
62
7
70
0
10
0.000000
20
0.000000
66
1
0
VERTEX
8
Layer 1
10
543.210451
20
200.073667
70
0
0
VERTEX
8
Layer 1
10
542.995372
20
200.219680
70
0
0
VERTEX
8
Layer 1
10
542.800832
20
200.182718
70
0
0
SEQEND
8
Layer 1
0
POLYLINE
8
VISIBLE
62
7
70
0
10
0.000000
20
0.000000
66
1
0
VERTEX
8
VISIBLE
10
460.558865
20
226.289045
70
0
0
VERTEX
8
VISIBLE
10
460.424890
20
226.789045
70
0
0
VERTEX
8
VISIBLE
10
460.058865
20
227.155070
70
0
0
VERTEX
8
VISIBLE
10
459.558866
20
227.289045
70
0
0
VERTEX
8
VISIBLE
10
459.058866
20
227.155070
70
0
0
VERTEX
8
VISIBLE
10
458.692841
20
226.789045
70
0
0
VERTEX
8
VISIBLE
10
458.558866
20
226.289045
70
0
0
VERTEX
8
VISIBLE
10
458.692841
20
225.789045
70
0
0
VERTEX
8
VISIBLE
10
459.058866
20
225.423020
70
0
0
VERTEX
8
VISIBLE
10
459.558866
20
225.289046
70
0
0
VERTEX
8
VISIBLE
10
460.058865
20
225.423020
70
0
0
VERTEX
8
VISIBLE
10
460.424890
20
225.789045
70
0
0
VERTEX
8
VISIBLE
10
460.558865
20
226.289045
70
0
0
VERTEX
8
VISIBLE
10
460.558865
20
226.289045
70
0
0
SEQEND
8
VISIBLE
0
POLYLINE
8
VISIBLE
62
7
70
0
10
0.000000
20
0.000000
66
1
0
VERTEX
8
VISIBLE
10
533.014824
20
240.732234
70
0
0
VERTEX
8
VISIBLE
10
519.014944
20
240.732234
70
0
0
SEQEND
8
VISIBLE
0
POLYLINE
8
VISIBLE
62
7
70
0
10
0.000000
20
0.000000
66
1
0
VERTEX
8
VISIBLE
10
533.014824
20
226.732883
70
0
0
VERTEX
8
VISIBLE
10
533.014824
20
240.732234
70
0
0
SEQEND
8
VISIBLE
0
POLYLINE
8
VISIBLE
62
7
70
0
10
0.000000
20
0.000000
66
1
0
VERTEX
8
VISIBLE
10
519.014944
20
226.732883
70
0
0
VERTEX
8
VISIBLE
10
533.014824
20
226.732883
70
0
0
SEQEND
8
VISIBLE
0
POLYLINE
8
VISIBLE
62
7
70
0
10
0.000000
20
0.000000
66
1
0
VERTEX
8
VISIBLE
10
519.014944
20
240.732234
70
0
0
VERTEX
8
VISIBLE
10
519.014944
20
226.732883
70
0
0
SEQEND
8
VISIBLE
0
POLYLINE
8
VISIBLE
62
7
70
0
10
0.000000
20
0.000000
66
1
0
VERTEX
8
VISIBLE
10
533.014824
20
259.732469
70
0
0
VERTEX
8
VISIBLE
10
519.014944
20
259.732469
70
0
0
SEQEND
8
VISIBLE
0
POLYLINE
8
VISIBLE
62
7
70
0
10
0.000000
20
0.000000
66
1
0
VERTEX
8
VISIBLE
10
533.014824
20
245.732324
70
0
0
VERTEX
8
VISIBLE
10
533.014824
20
259.732469
70
0
0
SEQEND
8
VISIBLE
0
POLYLINE
8
VISIBLE
62
7
70
0
10
0.000000
20
0.000000
66
1
0
VERTEX
8
VISIBLE
10
519.014944
20
245.732324
70
0
0
VERTEX
8
VISIBLE
10
533.014824
20
245.732324
70
0
0
SEQEND
8
VISIBLE
0
POLYLINE
8
VISIBLE
62
7
70
0
10
0.000000
20
0.000000
66
1
0
VERTEX
8
VISIBLE
10
519.014944
20
259.732469
70
0
0
VERTEX
8
VISIBLE
10
519.014944
20
245.732324
70
0
0
SEQEND
8
VISIBLE
0
POLYLINE
8
VISIBLE
62
7
70
0
10
0.000000
20
0.000000
66
1
0
VERTEX
8
VISIBLE
10
424.011920
20
224.097636
70
0
0
VERTEX
8
VISIBLE
10
424.011920
20
210.095904
70
0
0
SEQEND
8
VISIBLE
0
POLYLINE
8
VISIBLE
62
7
70
0
10
0.000000
20
0.000000
66
1
0
VERTEX
8
VISIBLE
10
438.011800
20
224.097636
70
0
0
VERTEX
8
VISIBLE
10
424.011920
20
224.097636
70
0
0
SEQEND
8
VISIBLE
0
POLYLINE
8
VISIBLE
62
7
70
0
10
0.000000
20
0.000000
66
1
0
VERTEX
8
VISIBLE
10
438.011800
20
210.095904
70
0
0
VERTEX
8
VISIBLE
10
438.011800
20
224.097636
70
0
0
SEQEND
8
VISIBLE
0
POLYLINE
8
VISIBLE
62
7
70
0
10
0.000000
20
0.000000
66
1
0
VERTEX
8
VISIBLE
10
424.011920
20
210.095904
70
0
0
VERTEX
8
VISIBLE
10
438.011800
20
210.095904
70
0
0
SEQEND
8
VISIBLE
0
POLYLINE
8
VISIBLE
62
7
70
0
10
0.000000
20
0.000000
66
1
0
VERTEX
8
VISIBLE
10
438.011800
20
229.098255
70
0
0
VERTEX
8
VISIBLE
10
438.011800
20
243.097077
70
0
0
SEQEND
8
VISIBLE
0
POLYLINE
8
VISIBLE
62
7
70
0
10
0.000000
20
0.000000
66
1
0
VERTEX
8
VISIBLE
10
424.011920
20
229.098255
70
0
0
VERTEX
8
VISIBLE
10
438.011800
20
229.098255
70
0
0
SEQEND
8
VISIBLE
0
POLYLINE
8
VISIBLE
62
7
70
0
10
0.000000
20
0.000000
66
1
0
VERTEX
8
VISIBLE
10
424.011920
20
243.097077
70
0
0
VERTEX
8
VISIBLE
10
424.011920
20
229.098255
70
0
0
SEQEND
8
VISIBLE
0
POLYLINE
8
VISIBLE
62
7
70
0
10
0.000000
20
0.000000
66
1
0
VERTEX
8
VISIBLE
10
438.011800
20
243.097077
70
0
0
VERTEX
8
VISIBLE
10
424.011920
20
243.097077
70
0
0
SEQEND
8
VISIBLE
0
POLYLINE
8
VISIBLE
62
7
70
0
10
0.000000
20
0.000000
66
1
0
VERTEX
8
VISIBLE
10
495.011974
20
221.973035
70
0
0
VERTEX
8
VISIBLE
10
495.011974
20
235.972915
70
0
0
SEQEND
8
VISIBLE
0
POLYLINE
8
VISIBLE
62
7
70
0
10
0.000000
20
0.000000
66
1
0
VERTEX
8
VISIBLE
10
481.011829
20
221.973035
70
0
0
VERTEX
8
VISIBLE
10
495.011974
20
221.973035
70
0
0
SEQEND
8
VISIBLE
0
POLYLINE
8
VISIBLE
62
7
70
0
10
0.000000
20
0.000000
66
1
0
VERTEX
8
VISIBLE
10
481.011829
20
235.972915
70
0
0
VERTEX
8
VISIBLE
10
481.011829
20
221.973035
70
0
0
SEQEND
8
VISIBLE
0
POLYLINE
8
VISIBLE
62
7
70
0
10
0.000000
20
0.000000
66
1
0
VERTEX
8
VISIBLE
10
495.011974
20
235.972915
70
0
0
VERTEX
8
VISIBLE
10
481.011829
20
235.972915
70
0
0
SEQEND
8
VISIBLE
0
POLYLINE
8
VISIBLE
62
7
70
0
10
0.000000
20
0.000000
66
1
0
VERTEX
8
VISIBLE
10
538.190068
20
266.893408
70
0
0
VERTEX
8
VISIBLE
10
550.314055
20
273.893480
70
0
0
SEQEND
8
VISIBLE
0
POLYLINE
8
VISIBLE
62
7
70
0
10
0.000000
20
0.000000
66
1
0
VERTEX
8
VISIBLE
10
531.190260
20
279.017659
70
0
0
VERTEX
8
VISIBLE
10
538.190068
20
266.893408
70
0
0
SEQEND
8
VISIBLE
0
POLYLINE
8
VISIBLE
62
7
70
0
10
0.000000
20
0.000000
66
1
0
VERTEX
8
VISIBLE
10
543.314511
20
286.017731
70
0
0
VERTEX
8
VISIBLE
10
531.190260
20
279.017659
70
0
0
SEQEND
8
VISIBLE
0
POLYLINE
8
VISIBLE
62
7
70
0
10
0.000000
20
0.000000
66
1
0
VERTEX
8
VISIBLE
10
550.314055
20
273.893480
70
0
0
VERTEX
8
VISIBLE
10
543.314511
20
286.017731
70
0
0
SEQEND
8
VISIBLE
0
POLYLINE
8
VISIBLE
62
7
70
0
10
0.000000
20
0.000000
66
1
0
VERTEX
8
VISIBLE
10
500.013122
20
219.348372
70
0
0
VERTEX
8
VISIBLE
10
500.013122
20
205.346639
70
0
0
SEQEND
8
VISIBLE
0
POLYLINE
8
VISIBLE
62
7
70
0
10
0.000000
20
0.000000
66
1
0
VERTEX
8
VISIBLE
10
514.013267
20
219.348372
70
0
0
VERTEX
8
VISIBLE
10
500.013122
20
219.348372
70
0
0
SEQEND
8
VISIBLE
0
POLYLINE
8
VISIBLE
62
7
70
0
10
0.000000
20
0.000000
66
1
0
VERTEX
8
VISIBLE
10
514.013267
20
205.346639
70
0
0
VERTEX
8
VISIBLE
10
514.013267
20
219.348372
70
0
0
SEQEND
8
VISIBLE
0
POLYLINE
8
VISIBLE
62
7
70
0
10
0.000000
20
0.000000
66
1
0
VERTEX
8
VISIBLE
10
500.013122
20
205.346639
70
0
0
VERTEX
8
VISIBLE
10
514.013267
20
205.346639
70
0
0
SEQEND
8
VISIBLE
0
POLYLINE
8
VISIBLE
62
7
70
0
10
0.000000
20
0.000000
66
1
0
VERTEX
8
VISIBLE
10
462.010272
20
257.351751
70
0
0
VERTEX
8
VISIBLE
10
462.010272
20
243.351606
70
0
0
SEQEND
8
VISIBLE
0
POLYLINE
8
VISIBLE
62
7
70
0
10
0.000000
20
0.000000
66
1
0
VERTEX
8
VISIBLE
10
476.010152
20
257.351751
70
0
0
VERTEX
8
VISIBLE
10
462.010272
20
257.351751
70
0
0
SEQEND
8
VISIBLE
0
POLYLINE
8
VISIBLE
62
7
70
0
10
0.000000
20
0.000000
66
1
0
VERTEX
8
VISIBLE
10
476.010152
20
243.351606
70
0
0
VERTEX
8
VISIBLE
10
476.010152
20
257.351751
70
0
0
SEQEND
8
VISIBLE
0
POLYLINE
8
VISIBLE
62
7
70
0
10
0.000000
20
0.000000
66
1
0
VERTEX
8
VISIBLE
10
462.010272
20
243.351606
70
0
0
VERTEX
8
VISIBLE
10
476.010152
20
243.351606
70
0
0
SEQEND
8
VISIBLE
0
POLYLINE
8
VISIBLE
62
7
70
0
10
0.000000
20
0.000000
66
1
0
VERTEX
8
VISIBLE
10
495.011974
20
216.972416
70
0
0
VERTEX
8
VISIBLE
10
481.011829
20
216.972416
70
0
0
SEQEND
8
VISIBLE
0
POLYLINE
8
VISIBLE
62
7
70
0
10
0.000000
20
0.000000
66
1
0
VERTEX
8
VISIBLE
10
495.011974
20
202.973330
70
0
0
VERTEX
8
VISIBLE
10
495.011974
20
216.972416
70
0
0
SEQEND
8
VISIBLE
0
POLYLINE
8
VISIBLE
62
7
70
0
10
0.000000
20
0.000000
66
1
0
VERTEX
8
VISIBLE
10
481.011829
20
202.973330
70
0
0
VERTEX
8
VISIBLE
10
495.011974
20
202.973330
70
0
0
SEQEND
8
VISIBLE
0
POLYLINE
8
VISIBLE
62
7
70
0
10
0.000000
20
0.000000
66
1
0
VERTEX
8
VISIBLE
10
481.011829
20
216.972416
70
0
0
VERTEX
8
VISIBLE
10
481.011829
20
202.973330
70
0
0
SEQEND
8
VISIBLE
0
POLYLINE
8
VISIBLE
62
7
70
0
10
0.000000
20
0.000000
66
1
0
VERTEX
8
VISIBLE
10
462.010272
20
238.351781
70
0
0
VERTEX
8
VISIBLE
10
462.010272
20
224.351636
70
0
0
SEQEND
8
VISIBLE
0
POLYLINE
8
VISIBLE
62
7
70
0
10
0.000000
20
0.000000
66
1
0
VERTEX
8
VISIBLE
10
476.010152
20
238.351781
70
0
0
VERTEX
8
VISIBLE
10
462.010272
20
238.351781
70
0
0
SEQEND
8
VISIBLE
0
POLYLINE
8
VISIBLE
62
7
70
0
10
0.000000
20
0.000000
66
1
0
VERTEX
8
VISIBLE
10
476.010152
20
224.351636
70
0
0
VERTEX
8
VISIBLE
10
476.010152
20
238.351781
70
0
0
SEQEND
8
VISIBLE
0
POLYLINE
8
VISIBLE
62
7
70
0
10
0.000000
20
0.000000
66
1
0
VERTEX
8
VISIBLE
10
462.010272
20
224.351636
70
0
0
VERTEX
8
VISIBLE
10
476.010152
20
224.351636
70
0
0
SEQEND
8
VISIBLE
0
POLYLINE
8
VISIBLE
62
7
70
0
10
0.000000
20
0.000000
66
1
0
VERTEX
8
VISIBLE
10
457.009918
20
210.095904
70
0
0
VERTEX
8
VISIBLE
10
457.009918
20
224.097636
70
0
0
SEQEND
8
VISIBLE
0
POLYLINE
8
VISIBLE
62
7
70
0
10
0.000000
20
0.000000
66
1
0
VERTEX
8
VISIBLE
10
443.010038
20
210.095904
70
0
0
VERTEX
8
VISIBLE
10
457.009918
20
210.095904
70
0
0
SEQEND
8
VISIBLE
0
POLYLINE
8
VISIBLE
62
7
70
0
10
0.000000
20
0.000000
66
1
0
VERTEX
8
VISIBLE
10
443.010038
20
224.097636
70
0
0
VERTEX
8
VISIBLE
10
443.010038
20
210.095904
70
0
0
SEQEND
8
VISIBLE
0
POLYLINE
8
VISIBLE
62
7
70
0
10
0.000000
20
0.000000
66
1
0
VERTEX
8
VISIBLE
10
457.009918
20
224.097636
70
0
0
VERTEX
8
VISIBLE
10
443.010038
20
224.097636
70
0
0
SEQEND
8
VISIBLE
0
POLYLINE
8
VISIBLE
62
7
70
0
10
0.000000
20
0.000000
66
1
0
VERTEX
8
VISIBLE
10
443.010038
20
243.097077
70
0
0
VERTEX
8
VISIBLE
10
443.010038
20
229.098255
70
0
0
SEQEND
8
VISIBLE
0
POLYLINE
8
VISIBLE
62
7
70
0
10
0.000000
20
0.000000
66
1
0
VERTEX
8
VISIBLE
10
457.009918
20
243.097077
70
0
0
VERTEX
8
VISIBLE
10
443.010038
20
243.097077
70
0
0
SEQEND
8
VISIBLE
0
POLYLINE
8
VISIBLE
62
7
70
0
10
0.000000
20
0.000000
66
1
0
VERTEX
8
VISIBLE
10
457.009918
20
229.098255
70
0
0
VERTEX
8
VISIBLE
10
457.009918
20
243.097077
70
0
0
SEQEND
8
VISIBLE
0
POLYLINE
8
VISIBLE
62
7
70
0
10
0.000000
20
0.000000
66
1
0
VERTEX
8
VISIBLE
10
443.010038
20
229.098255
70
0
0
VERTEX
8
VISIBLE
10
457.009918
20
229.098255
70
0
0
SEQEND
8
VISIBLE
0
POLYLINE
8
VISIBLE
62
7
70
0
10
0.000000
20
0.000000
66
1
0
VERTEX
8
VISIBLE
10
457.009918
20
262.097312
70
0
0
VERTEX
8
VISIBLE
10
443.010038
20
262.097312
70
0
0
SEQEND
8
VISIBLE
0
POLYLINE
8
VISIBLE
62
7
70
0
10
0.000000
20
0.000000
66
1
0
VERTEX
8
VISIBLE
10
457.009918
20
248.097167
70
0
0
VERTEX
8
VISIBLE
10
457.009918
20
262.097312
70
0
0
SEQEND
8
VISIBLE
0
POLYLINE
8
VISIBLE
62
7
70
0
10
0.000000
20
0.000000
66
1
0
VERTEX
8
VISIBLE
10
443.010038
20
248.097167
70
0
0
VERTEX
8
VISIBLE
10
457.009918
20
248.097167
70
0
0
SEQEND
8
VISIBLE
0
POLYLINE
8
VISIBLE
62
7
70
0
10
0.000000
20
0.000000
66
1
0
VERTEX
8
VISIBLE
10
443.010038
20
262.097312
70
0
0
VERTEX
8
VISIBLE
10
443.010038
20
248.097167
70
0
0
SEQEND
8
VISIBLE
0
POLYLINE
8
VISIBLE
62
7
70
0
10
0.000000
20
0.000000
66
1
0
VERTEX
8
VISIBLE
10
504.531671
20
277.005241
70
0
0
VERTEX
8
VISIBLE
10
490.531526
20
277.005241
70
0
0
SEQEND
8
VISIBLE
0
POLYLINE
8
VISIBLE
62
7
70
0
10
0.000000
20
0.000000
66
1
0
VERTEX
8
VISIBLE
10
504.531671
20
263.004831
70
0
0
VERTEX
8
VISIBLE
10
504.531671
20
277.005241
70
0
0
SEQEND
8
VISIBLE
0
POLYLINE
8
VISIBLE
62
7
70
0
10
0.000000
20
0.000000
66
1
0
VERTEX
8
VISIBLE
10
490.531526
20
263.004831
70
0
0
VERTEX
8
VISIBLE
10
504.531671
20
263.004831
70
0
0
SEQEND
8
VISIBLE
0
POLYLINE
8
VISIBLE
62
7
70
0
10
0.000000
20
0.000000
66
1
0
VERTEX
8
VISIBLE
10
490.531526
20
277.005241
70
0
0
VERTEX
8
VISIBLE
10
490.531526
20
263.004831
70
0
0
SEQEND
8
VISIBLE
0
POLYLINE
8
VISIBLE
62
7
70
0
10
0.000000
20
0.000000
66
1
0
VERTEX
8
VISIBLE
10
500.013122
20
238.347283
70
0
0
VERTEX
8
VISIBLE
10
500.013122
20
224.346344
70
0
0
SEQEND
8
VISIBLE
0
POLYLINE
8
VISIBLE
62
7
70
0
10
0.000000
20
0.000000
66
1
0
VERTEX
8
VISIBLE
10
514.013267
20
238.347283
70
0
0
VERTEX
8
VISIBLE
10
500.013122
20
238.347283
70
0
0
SEQEND
8
VISIBLE
0
POLYLINE
8
VISIBLE
62
7
70
0
10
0.000000
20
0.000000
66
1
0
VERTEX
8
VISIBLE
10
514.013267
20
224.346344
70
0
0
VERTEX
8
VISIBLE
10
514.013267
20
238.347283
70
0
0
SEQEND
8
VISIBLE
0
POLYLINE
8
VISIBLE
62
7
70
0
10
0.000000
20
0.000000
66
1
0
VERTEX
8
VISIBLE
10
500.013122
20
224.346344
70
0
0
VERTEX
8
VISIBLE
10
514.013267
20
224.346344
70
0
0
SEQEND
8
VISIBLE
0
POLYLINE
8
VISIBLE
62
7
70
0
10
0.000000
20
0.000000
66
1
0
VERTEX
8
VISIBLE
10
438.011800
20
262.097312
70
0
0
VERTEX
8
VISIBLE
10
424.011920
20
262.097312
70
0
0
SEQEND
8
VISIBLE
0
POLYLINE
8
VISIBLE
62
7
70
0
10
0.000000
20
0.000000
66
1
0
VERTEX
8
VISIBLE
10
438.011800
20
248.097167
70
0
0
VERTEX
8
VISIBLE
10
438.011800
20
262.097312
70
0
0
SEQEND
8
VISIBLE
0
POLYLINE
8
VISIBLE
62
7
70
0
10
0.000000
20
0.000000
66
1
0
VERTEX
8
VISIBLE
10
424.011920
20
248.097167
70
0
0
VERTEX
8
VISIBLE
10
438.011800
20
248.097167
70
0
0
SEQEND
8
VISIBLE
0
POLYLINE
8
VISIBLE
62
7
70
0
10
0.000000
20
0.000000
66
1
0
VERTEX
8
VISIBLE
10
424.011920
20
262.097312
70
0
0
VERTEX
8
VISIBLE
10
424.011920
20
248.097167
70
0
0
SEQEND
8
VISIBLE
0
POLYLINE
8
VISIBLE
62
7
70
0
10
0.000000
20
0.000000
66
1
0
VERTEX
8
VISIBLE
10
509.920962
20
277.665375
70
0
0
VERTEX
8
VISIBLE
10
513.544426
20
264.142274
70
0
0
SEQEND
8
VISIBLE
0
POLYLINE
8
VISIBLE
62
7
70
0
10
0.000000
20
0.000000
66
1
0
VERTEX
8
VISIBLE
10
523.444063
20
281.288839
70
0
0
VERTEX
8
VISIBLE
10
509.920962
20
277.665375
70
0
0
SEQEND
8
VISIBLE
0
POLYLINE
8
VISIBLE
62
7
70
0
10
0.000000
20
0.000000
66
1
0
VERTEX
8
VISIBLE
10
527.067528
20
267.765738
70
0
0
VERTEX
8
VISIBLE
10
523.444063
20
281.288839
70
0
0
SEQEND
8
VISIBLE
0
POLYLINE
8
VISIBLE
62
7
70
0
10
0.000000
20
0.000000
66
1
0
VERTEX
8
VISIBLE
10
513.544426
20
264.142274
70
0
0
VERTEX
8
VISIBLE
10
527.067528
20
267.765738
70
0
0
SEQEND
8
VISIBLE
0
POLYLINE
8
VISIBLE
62
7
70
0
10
0.000000
20
0.000000
66
1
0
VERTEX
8
VISIBLE
10
495.011974
20
254.972620
70
0
0
VERTEX
8
VISIBLE
10
481.011829
20
254.972620
70
0
0
SEQEND
8
VISIBLE
0
POLYLINE
8
VISIBLE
62
7
70
0
10
0.000000
20
0.000000
66
1
0
VERTEX
8
VISIBLE
10
495.011974
20
240.972476
70
0
0
VERTEX
8
VISIBLE
10
495.011974
20
254.972620
70
0
0
SEQEND
8
VISIBLE
0
POLYLINE
8
VISIBLE
62
7
70
0
10
0.000000
20
0.000000
66
1
0
VERTEX
8
VISIBLE
10
481.011829
20
240.972476
70
0
0
VERTEX
8
VISIBLE
10
495.011974
20
240.972476
70
0
0
SEQEND
8
VISIBLE
0
POLYLINE
8
VISIBLE
62
7
70
0
10
0.000000
20
0.000000
66
1
0
VERTEX
8
VISIBLE
10
481.011829
20
254.972620
70
0
0
VERTEX
8
VISIBLE
10
481.011829
20
240.972476
70
0
0
SEQEND
8
VISIBLE
0
POLYLINE
8
VISIBLE
62
7
70
0
10
0.000000
20
0.000000
66
1
0
VERTEX
8
VISIBLE
10
476.010152
20
205.351931
70
0
0
VERTEX
8
VISIBLE
10
476.010152
20
219.351017
70
0
0
SEQEND
8
VISIBLE
0
POLYLINE
8
VISIBLE
62
7
70
0
10
0.000000
20
0.000000
66
1
0
VERTEX
8
VISIBLE
10
462.010272
20
205.351931
70
0
0
VERTEX
8
VISIBLE
10
476.010152
20
205.351931
70
0
0
SEQEND
8
VISIBLE
0
POLYLINE
8
VISIBLE
62
7
70
0
10
0.000000
20
0.000000
66
1
0
VERTEX
8
VISIBLE
10
462.010272
20
219.351017
70
0
0
VERTEX
8
VISIBLE
10
462.010272
20
205.351931
70
0
0
SEQEND
8
VISIBLE
0
POLYLINE
8
VISIBLE
62
7
70
0
10
0.000000
20
0.000000
66
1
0
VERTEX
8
VISIBLE
10
476.010152
20
219.351017
70
0
0
VERTEX
8
VISIBLE
10
462.010272
20
219.351017
70
0
0
SEQEND
8
VISIBLE
0
POLYLINE
8
VISIBLE
62
7
70
0
10
0.000000
20
0.000000
66
1
0
VERTEX
8
VISIBLE
10
533.014824
20
207.733178
70
0
0
VERTEX
8
VISIBLE
10
533.014824
20
221.732264
70
0
0
SEQEND
8
VISIBLE
0
POLYLINE
8
VISIBLE
62
7
70
0
10
0.000000
20
0.000000
66
1
0
VERTEX
8
VISIBLE
10
519.014944
20
207.733178
70
0
0
VERTEX
8
VISIBLE
10
533.014824
20
207.733178
70
0
0
SEQEND
8
VISIBLE
0
POLYLINE
8
VISIBLE
62
7
70
0
10
0.000000
20
0.000000
66
1
0
VERTEX
8
VISIBLE
10
519.014944
20
221.732264
70
0
0
VERTEX
8
VISIBLE
10
519.014944
20
207.733178
70
0
0
SEQEND
8
VISIBLE
0
POLYLINE
8
VISIBLE
62
7
70
0
10
0.000000
20
0.000000
66
1
0
VERTEX
8
VISIBLE
10
533.014824
20
221.732264
70
0
0
VERTEX
8
VISIBLE
10
519.014944
20
221.732264
70
0
0
SEQEND
8
VISIBLE
0
POLYLINE
8
VISIBLE
62
7
70
0
10
0.000000
20
0.000000
66
1
0
VERTEX
8
VISIBLE
10
500.013122
20
243.347373
70
0
0
VERTEX
8
VISIBLE
10
514.013267
20
243.347373
70
0
0
SEQEND
8
VISIBLE
0
POLYLINE
8
VISIBLE
62
7
70
0
10
0.000000
20
0.000000
66
1
0
VERTEX
8
VISIBLE
10
500.013122
20
257.347517
70
0
0
VERTEX
8
VISIBLE
10
500.013122
20
243.347373
70
0
0
SEQEND
8
VISIBLE
0
POLYLINE
8
VISIBLE
62
7
70
0
10
0.000000
20
0.000000
66
1
0
VERTEX
8
VISIBLE
10
514.013267
20
257.347517
70
0
0
VERTEX
8
VISIBLE
10
500.013122
20
257.347517
70
0
0
SEQEND
8
VISIBLE
0
POLYLINE
8
VISIBLE
62
7
70
0
10
0.000000
20
0.000000
66
1
0
VERTEX
8
VISIBLE
10
514.013267
20
243.347373
70
0
0
VERTEX
8
VISIBLE
10
514.013267
20
257.347517
70
0
0
SEQEND
8
VISIBLE
0
POLYLINE
8
VISIBLE
62
7
70
0
10
0.000000
20
0.000000
66
1
0
VERTEX
8
VISIBLE
10
477.750050
20
264.224823
70
0
0
VERTEX
8
VISIBLE
10
422.001354
20
264.224823
70
0
0
SEQEND
8
VISIBLE
0
POLYLINE
8
VISIBLE
62
7
70
0
10
0.000000
20
0.000000
66
1
0
VERTEX
8
VISIBLE
10
422.001354
20
264.224823
70
0
0
VERTEX
8
VISIBLE
10
422.001354
20
207.973948
70
0
0
SEQEND
8
VISIBLE
0
POLYLINE
8
VISIBLE
62
7
70
0
10
0.000000
20
0.000000
66
1
0
VERTEX
8
VISIBLE
10
422.001354
20
207.973948
70
0
0
VERTEX
8
VISIBLE
10
460.002087
20
207.973948
70
0
0
SEQEND
8
VISIBLE
0
POLYLINE
8
VISIBLE
62
7
70
0
10
0.000000
20
0.000000
66
1
0
VERTEX
8
VISIBLE
10
460.002087
20
207.973948
70
0
0
VERTEX
8
VISIBLE
10
460.002087
20
203.224684
70
0
0
SEQEND
8
VISIBLE
0
POLYLINE
8
VISIBLE
62
7
70
0
10
0.000000
20
0.000000
66
1
0
VERTEX
8
VISIBLE
10
460.002087
20
203.224684
70
0
0
VERTEX
8
VISIBLE
10
479.001263
20
203.224684
70
0
0
SEQEND
8
VISIBLE
0
POLYLINE
8
VISIBLE
62
7
70
0
10
0.000000
20
0.000000
66
1
0
VERTEX
8
VISIBLE
10
479.001263
20
203.224684
70
0
0
VERTEX
8
VISIBLE
10
479.001263
20
200.973082
70
0
0
SEQEND
8
VISIBLE
0
POLYLINE
8
VISIBLE
62
7
70
0
10
0.000000
20
0.000000
66
1
0
VERTEX
8
VISIBLE
10
479.001263
20
200.973082
70
0
0
VERTEX
8
VISIBLE
10
497.002168
20
200.973082
70
0
0
SEQEND
8
VISIBLE
0
POLYLINE
8
VISIBLE
62
7
70
0
10
0.000000
20
0.000000
66
1
0
VERTEX
8
VISIBLE
10
497.002168
20
200.973082
70
0
0
VERTEX
8
VISIBLE
10
497.002168
20
203.224684
70
0
0
SEQEND
8
VISIBLE
0
POLYLINE
8
VISIBLE
62
7
70
0
10
0.000000
20
0.000000
66
1
0
VERTEX
8
VISIBLE
10
497.002168
20
203.224684
70
0
0
VERTEX
8
VISIBLE
10
516.001344
20
203.224684
70
0
0
SEQEND
8
VISIBLE
0
POLYLINE
8
VISIBLE
62
7
70
0
10
0.000000
20
0.000000
66
1
0
VERTEX
8
VISIBLE
10
516.001344
20
203.224684
70
0
0
VERTEX
8
VISIBLE
10
516.001344
20
205.724993
70
0
0
SEQEND
8
VISIBLE
0
POLYLINE
8
VISIBLE
62
7
70
0
10
0.000000
20
0.000000
66
1
0
VERTEX
8
VISIBLE
10
516.001344
20
205.724993
70
0
0
VERTEX
8
VISIBLE
10
535.501111
20
205.724993
70
0
0
SEQEND
8
VISIBLE
0
POLYLINE
8
VISIBLE
62
7
70
0
10
0.000000
20
0.000000
66
1
0
VERTEX
8
VISIBLE
10
535.501111
20
205.724993
70
0
0
VERTEX
8
VISIBLE
10
535.501111
20
257.537488
70
0
0
SEQEND
8
VISIBLE
0
POLYLINE
8
VISIBLE
62
7
70
0
10
0.000000
20
0.000000
66
1
0
VERTEX
8
VISIBLE
10
535.501111
20
257.537488
70
0
0
VERTEX
8
VISIBLE
10
555.825318
20
269.266452
70
0
0
SEQEND
8
VISIBLE
0
POLYLINE
8
VISIBLE
62
7
70
0
10
0.000000
20
0.000000
66
1
0
VERTEX
8
VISIBLE
10
555.825318
20
269.266452
70
0
0
VERTEX
8
VISIBLE
10
542.085788
20
293.126018
70
0
0
SEQEND
8
VISIBLE
0
POLYLINE
8
VISIBLE
62
7
70
0
10
0.000000
20
0.000000
66
1
0
VERTEX
8
VISIBLE
10
542.085788
20
293.126018
70
0
0
VERTEX
8
VISIBLE
10
525.978239
20
283.816930
70
0
0
SEQEND
8
VISIBLE
0
POLYLINE
8
VISIBLE
62
7
70
0
10
0.000000
20
0.000000
66
1
0
VERTEX
8
VISIBLE
10
525.978239
20
283.816930
70
0
0
VERTEX
8
VISIBLE
10
488.481007
20
278.939342
70
0
0
SEQEND
8
VISIBLE
0
POLYLINE
8
VISIBLE
62
7
70
0
10
0.000000
20
0.000000
66
1
0
VERTEX
8
VISIBLE
10
488.481007
20
278.939342
70
0
0
VERTEX
8
VISIBLE
10
477.750050
20
264.224823
70
0
0
SEQEND
8
VISIBLE
0
POLYLINE
8
VISIBLE
62
7
70
0
10
0.000000
20
0.000000
66
1
0
VERTEX
8
VISIBLE
10
484.715833
20
262.529505
70
0
0
VERTEX
8
VISIBLE
10
484.636885
20
262.918345
70
0
0
VERTEX
8
VISIBLE
10
484.422495
20
263.235797
70
0
0
VERTEX
8
VISIBLE
10
484.104774
20
263.449787
70
0
0
VERTEX
8
VISIBLE
10
483.715835
20
263.528244
70
0
0
VERTEX
8
VISIBLE
10
483.326895
20
263.449787
70
0
0
VERTEX
8
VISIBLE
10
483.009174
20
263.235797
70
0
0
VERTEX
8
VISIBLE
10
482.794784
20
262.918345
70
0
0
VERTEX
8
VISIBLE
10
482.715836
20
262.529505
70
0
0
VERTEX
8
VISIBLE
10
482.794784
20
262.140665
70
0
0
VERTEX
8
VISIBLE
10
483.009174
20
261.823214
70
0
0
VERTEX
8
VISIBLE
10
483.326895
20
261.609224
70
0
0
VERTEX
8
VISIBLE
10
483.715835
20
261.530766
70
0
0
VERTEX
8
VISIBLE
10
484.104774
20
261.609224
70
0
0
VERTEX
8
VISIBLE
10
484.422495
20
261.823214
70
0
0
VERTEX
8
VISIBLE
10
484.636885
20
262.140665
70
0
0
VERTEX
8
VISIBLE
10
484.715833
20
262.529505
70
0
0
VERTEX
8
VISIBLE
10
484.715833
20
262.529505
70
0
0
SEQEND
8
VISIBLE
0
POLYLINE
8
VISIBLE
62
7
70
0
10
0.000000
20
0.000000
66
1
0
VERTEX
8
VISIBLE
10
531.281774
20
270.143995
70
0
0
VERTEX
8
VISIBLE
10
531.202827
20
270.532835
70
0
0
VERTEX
8
VISIBLE
10
530.988436
20
270.850286
70
0
0
VERTEX
8
VISIBLE
10
530.670715
20
271.064277
70
0
0
VERTEX
8
VISIBLE
10
530.281776
20
271.142734
70
0
0
VERTEX
8
VISIBLE
10
529.892837
20
271.064277
70
0
0
VERTEX
8
VISIBLE
10
529.575115
20
270.850286
70
0
0
VERTEX
8
VISIBLE
10
529.360725
20
270.532835
70
0
0
VERTEX
8
VISIBLE
10
529.281778
20
270.143995
70
0
0
VERTEX
8
VISIBLE
10
529.360725
20
269.755155
70
0
0
VERTEX
8
VISIBLE
10
529.575115
20
269.437704
70
0
0
VERTEX
8
VISIBLE
10
529.892837
20
269.223713
70
0
0
VERTEX
8
VISIBLE
10
530.281776
20
269.145256
70
0
0
VERTEX
8
VISIBLE
10
530.670715
20
269.223713
70
0
0
VERTEX
8
VISIBLE
10
530.988436
20
269.437704
70
0
0
VERTEX
8
VISIBLE
10
531.202827
20
269.755155
70
0
0
VERTEX
8
VISIBLE
10
531.281774
20
270.143995
70
0
0
VERTEX
8
VISIBLE
10
531.281774
20
270.143995
70
0
0
SEQEND
8
VISIBLE
0
POLYLINE
8
VISIBLE
62
7
70
0
10
0.000000
20
0.000000
66
1
0
VERTEX
8
VISIBLE
10
517.526792
20
222.774563
70
0
0
VERTEX
8
VISIBLE
10
517.447844
20
223.163403
70
0
0
VERTEX
8
VISIBLE
10
517.233454
20
223.480854
70
0
0
VERTEX
8
VISIBLE
10
516.915733
20
223.694844
70
0
0
VERTEX
8
VISIBLE
10
516.526794
20
223.773302
70
0
0
VERTEX
8
VISIBLE
10
516.137854
20
223.694844
70
0
0
VERTEX
8
VISIBLE
10
515.820133
20
223.480854
70
0
0
VERTEX
8
VISIBLE
10
515.605743
20
223.163403
70
0
0
VERTEX
8
VISIBLE
10
515.526795
20
222.774563
70
0
0
VERTEX
8
VISIBLE
10
515.605743
20
222.385723
70
0
0
VERTEX
8
VISIBLE
10
515.820133
20
222.068271
70
0
0
VERTEX
8
VISIBLE
10
516.137854
20
221.854281
70
0
0
VERTEX
8
VISIBLE
10
516.526794
20
221.775824
70
0
0
VERTEX
8
VISIBLE
10
516.915733
20
221.854281
70
0
0
VERTEX
8
VISIBLE
10
517.233454
20
222.068271
70
0
0
VERTEX
8
VISIBLE
10
517.447844
20
222.385723
70
0
0
VERTEX
8
VISIBLE
10
517.526792
20
222.774563
70
0
0
VERTEX
8
VISIBLE
10
517.526792
20
222.774563
70
0
0
SEQEND
8
VISIBLE
 0 
ENDSEC
 0 
EOF