  0
SECTION
  2
HEADER
  9
$ACADVER
  1
AC1014
  9
$HANDSEED
  5
FFFF
  9
$INSUNITS
 70
     0
  9
$MEASUREMENT
 70
     1
  0
ENDSEC
  0
SECTION
  2
TABLES
  0
TABLE
  2
VPORT
  5
8
330
0
100
AcDbSymbolTable
 70
     4
  0
VPORT
  5
2E
330
8
100
AcDbSymbolTableRecord
100
AcDbViewportTableRecord
  2
*ACTIVE
 70
     0
 10
0.0
 20
0.0
 11
1.0
 21
1.0
 12
210.0
 22
148.5
 13
0.0
 23
0.0
 14
10.0
 24
10.0
 15
10.0
 25
10.0
 16
0.0
 26
0.0
 36
1.0
 17
0.0
 27
0.0
 37
0.0
 40
341.0
 41
1.24
 42
50.0
 43
0.0
 44
0.0
 50
0.0
 51
0.0
 71
     0
 72
   100
 73
     1
 74
     3
 75
     0
 76
     0
 77
     0
 78
     0
  0
ENDTAB
  0
TABLE
  2
LTYPE
  5
5
330
0
100
AcDbSymbolTable
 70
     1
  0
LTYPE
  5
14
330
5
100
AcDbSymbolTableRecord
100
AcDbLinetypeTableRecord
  2
BYBLOCK
 70
     0
  3

 72
    65
 73
     0
 40
0.0
  0
LTYPE
  5
15
330
5
100
AcDbSymbolTableRecord
100
AcDbLinetypeTableRecord
  2
BYLAYER
 70
     0
  3

 72
    65
 73
     0
 40
0.0
  0
LTYPE
  5
16
330
5
100
AcDbSymbolTableRecord
100
AcDbLinetypeTableRecord
  2
CONTINUOUS
 70
     0
  3
Solid line
 72
    65
 73
     0
 40
0.0
  0
ENDTAB
  0
TABLE
  2
LAYER
  5
2
100
AcDbSymbolTable
 70
48
  0
LAYER
  5
50
100
AcDbSymbolTableRecord
100
AcDbLayerTableRecord
  2
0
 70
0
  6
CONTINUOUS
  0
LAYER
  5
51
100
AcDbSymbolTableRecord
100
AcDbLayerTableRecord
  2
SECTION_CUTTING_LINE
 70
0
  6
CONTINUOUS
  0
LAYER
  5
52
100
AcDbSymbolTableRecord
100
AcDbLayerTableRecord
  2
DETAIL_VIEW_BORDER
 70
0
  6
CONTINUOUS
  0
LAYER
  5
53
100
AcDbSymbolTableRecord
100
AcDbLayerTableRecord
  2
DETAIL_VIEW_PARENT_BORDER
 70
0
  6
CONTINUOUS
  0
LAYER
  5
54
100
AcDbSymbolTableRecord
100
AcDbLayerTableRecord
  2
TEXT
 70
0
  6
CONTINUOUS
  0
LAYER
  5
55
100
AcDbSymbolTableRecord
100
AcDbLayerTableRecord
  2
SKETCHED_GEOMETRY
 70
0
  6
CONTINUOUS
  0
LAYER
  5
56
100
AcDbSymbolTableRecord
100
AcDbLayerTableRecord
  2
VIRTUAL_SHARPS
 70
0
  6
CONTINUOUS
  0
LAYER
  5
57
100
AcDbSymbolTableRecord
100
AcDbLayerTableRecord
  2
CENTERLINES
 70
0
  6
CONTINUOUS
  0
LAYER
  5
58
100
AcDbSymbolTableRecord
100
AcDbLayerTableRecord
  2
CENTERMARKS
 70
0
  6
CONTINUOUS
  0
LAYER
  5
59
100
AcDbSymbolTableRecord
100
AcDbLayerTableRecord
  2
TABLES
 70
0
  6
CONTINUOUS
  0
LAYER
  5
5a
100
AcDbSymbolTableRecord
100
AcDbLayerTableRecord
  2
IMAGES
 70
0
  6
CONTINUOUS
  0
LAYER
  5
5b
100
AcDbSymbolTableRecord
100
AcDbLayerTableRecord
  2
ANNOTATION_LINES
 70
0
  6
CONTINUOUS
  0
LAYER
  5
5c
100
AcDbSymbolTableRecord
100
AcDbLayerTableRecord
  2
ANNOTATION_TEXT
 70
0
  6
CONTINUOUS
  0
LAYER
  5
5d
100
AcDbSymbolTableRecord
100
AcDbLayerTableRecord
  2
SIDE_THREAD_SYMBOLS
 70
0
  6
CONTINUOUS
  0
LAYER
  5
5e
100
AcDbSymbolTableRecord
100
AcDbLayerTableRecord
  2
SIDE_THREAD_SYMBOLS_HIDDEN
 70
0
  6
CONTINUOUS
  0
LAYER
  5
5f
100
AcDbSymbolTableRecord
100
AcDbLayerTableRecord
  2
SURFACE_THREAD_SYMBOLS
 70
0
  6
CONTINUOUS
  0
LAYER
  5
60
100
AcDbSymbolTableRecord
100
AcDbLayerTableRecord
  2
SURFACE_THREAD_SYMBOLS_ON_
 70
0
  6
CONTINUOUS
  0
LAYER
  5
61
100
AcDbSymbolTableRecord
100
AcDbLayerTableRecord
  2
SURFACE_THREAD_SYMBOLS_HID
 70
0
  6
CONTINUOUS
  0
LAYER
  5
62
100
AcDbSymbolTableRecord
100
AcDbLayerTableRecord
  2
BLIND_THREAD_SYMBOLS
 70
0
  6
CONTINUOUS
  0
LAYER
  5
63
100
AcDbSymbolTableRecord
100
AcDbLayerTableRecord
  2
BLIND_THREAD_SYMBOLS_HIDDE
 70
0
  6
CONTINUOUS
  0
LAYER
  5
64
100
AcDbSymbolTableRecord
100
AcDbLayerTableRecord
  2
EXPLODE_LINES
 70
0
  6
CONTINUOUS
  0
LAYER
  5
65
100
AcDbSymbolTableRecord
100
AcDbLayerTableRecord
  2
HIDDEN_EXPLODE_LINES
 70
0
  6
CONTINUOUS
  0
LAYER
  5
66
100
AcDbSymbolTableRecord
100
AcDbLayerTableRecord
  2
BREAK_LINES
 70
0
  6
CONTINUOUS
  0
LAYER
  5
67
100
AcDbSymbolTableRecord
100
AcDbLayerTableRecord
  2
SHEETMETAL_BEND_LINES_UP
 70
0
  6
CONTINUOUS
  0
LAYER
  5
68
100
AcDbSymbolTableRecord
100
AcDbLayerTableRecord
  2
SHEETMETAL_BEND_LINES_DOWN
 70
0
  6
CONTINUOUS
  0
LAYER
  5
69
100
AcDbSymbolTableRecord
100
AcDbLayerTableRecord
  2
SHEETMETAL_BEND_TANGENT_LI
 70
0
  6
CONTINUOUS
  0
LAYER
  5
6a
100
AcDbSymbolTableRecord
100
AcDbLayerTableRecord
  2
SHEETMETAL_CUT_LINES
 70
0
  6
CONTINUOUS
  0
LAYER
  5
6b
100
AcDbSymbolTableRecord
100
AcDbLayerTableRecord
  2
SHEETMETAL_CBORE_CSINK_UP
 70
0
  6
CONTINUOUS
  0
LAYER
  5
6c
100
AcDbSymbolTableRecord
100
AcDbLayerTableRecord
  2
SHEETMETAL_CBORE_CSINK_DOW
 70
0
  6
CONTINUOUS
  0
LAYER
  5
6d
100
AcDbSymbolTableRecord
100
AcDbLayerTableRecord
  2
SHEETMETAL_CBORE_CSINK_UP_
 70
0
  6
CONTINUOUS
  0
LAYER
  5
6e
100
AcDbSymbolTableRecord
100
AcDbLayerTableRecord
  2
SHEETMETAL_CBORE_CSINK_DO0
 70
0
  6
CONTINUOUS
  0
LAYER
  5
6f
100
AcDbSymbolTableRecord
100
AcDbLayerTableRecord
  2
SHEETMETAL_FORM_TEAR
 70
0
  6
CONTINUOUS
  0
LAYER
  5
70
100
AcDbSymbolTableRecord
100
AcDbLayerTableRecord
  2
SHEETMETAL_FORM_UP
 70
0
  6
CONTINUOUS
  0
LAYER
  5
71
100
AcDbSymbolTableRecord
100
AcDbLayerTableRecord
  2
SHEETMETAL_FORM_DOWN
 70
0
  6
CONTINUOUS
  0
LAYER
  5
72
100
AcDbSymbolTableRecord
100
AcDbLayerTableRecord
  2
SHEETMETAL_FORM_CENTERMARK
 70
0
  6
CONTINUOUS
  0
LAYER
  5
73
100
AcDbSymbolTableRecord
100
AcDbLayerTableRecord
  2
REGION_ASSOC_POINTS
 70
0
  6
CONTINUOUS
  0
LAYER
  5
74
100
AcDbSymbolTableRecord
100
AcDbLayerTableRecord
  2
PATTERN_CENTERLINES
 70
0
  6
CONTINUOUS
  0
LAYER
  5
75
100
AcDbSymbolTableRecord
100
AcDbLayerTableRecord
  2
HIDDEN
 70
0
  6
CONTINUOUS
  0
LAYER
  5
76
100
AcDbSymbolTableRecord
100
AcDbLayerTableRecord
  2
VISIBLE
 70
0
  6
CONTINUOUS
  0
LAYER
  5
77
100
AcDbSymbolTableRecord
100
AcDbLayerTableRecord
  2
MODELSKETCH_VISIBLE
 70
0
  6
CONTINUOUS
  0
LAYER
  5
78
100
AcDbSymbolTableRecord
100
AcDbLayerTableRecord
  2
MODELSKETCH_POINT
 70
0
  6
CONTINUOUS
  0
LAYER
  5
79
100
AcDbSymbolTableRecord
100
AcDbLayerTableRecord
  2
MODELSKETCH_CONSTRUCTION
 70
0
  6
CONTINUOUS
  0
LAYER
  5
7a
100
AcDbSymbolTableRecord
100
AcDbLayerTableRecord
  2
HIDDEN_BASE_VIEW
 70
0
  6
CONTINUOUS
  0
LAYER
  5
7b
100
AcDbSymbolTableRecord
100
AcDbLayerTableRecord
  2
TANGENT_LINES
 70
0
  6
CONTINUOUS
  0
LAYER
  5
7c
100
AcDbSymbolTableRecord
100
AcDbLayerTableRecord
  2
TANGENT_HIDDEN
 70
0
  6
CONTINUOUS
  0
LAYER
  5
7d
100
AcDbSymbolTableRecord
100
AcDbLayerTableRecord
  2
INVISIBLE_LINES
 70
0
  6
CONTINUOUS
  0
LAYER
  5
7e
100
AcDbSymbolTableRecord
100
AcDbLayerTableRecord
  2
VIEW_HATCHES
 70
0
  6
CONTINUOUS
  0
LAYER
  5
7f
100
AcDbSymbolTableRecord
100
AcDbLayerTableRecord
  2
SECTION_JOG_LINES
 70
0
  6
CONTINUOUS
  0
ENDTAB
  0
TABLE
  2
STYLE
  5
3
330
0
100
AcDbSymbolTable
 70
     1
  0
STYLE
  5
11
330
3
100
AcDbSymbolTableRecord
100
AcDbTextStyleTableRecord
  2
STANDARD
 70
     0
 40
0.0
 41
1.0
 50
0.0
 71
     0
 42
2.5
  3
txt
  4

  0
ENDTAB
  0
TABLE
  2
VIEW
  5
6
330
0
100
AcDbSymbolTable
 70
     0
  0
ENDTAB
  0
TABLE
  2
UCS
  5
7
330
0
100
AcDbSymbolTable
 70
     0
  0
ENDTAB
  0
TABLE
  2
APPID
  5
9
330
0
100
AcDbSymbolTable
 70
     2
  0
APPID
  5
12
330
9
100
AcDbSymbolTableRecord
100
AcDbRegAppTableRecord
  2
ACAD
 70
     0
  0
ENDTAB
  0
TABLE
  2
DIMSTYLE
  5
A
330
0
100
AcDbSymbolTable
 70
     1
  0
DIMSTYLE
105
27
330
A
100
AcDbSymbolTableRecord
100
AcDbDimStyleTableRecord
  2
ISO-25
 70
     0
  3

  4

  5

  6

  7

 40
1.0
 41
2.5
 42
0.625
 43
3.75
 44
1.25
 45
0.0
 46
0.0
 47
0.0
 48
0.0
140
2.5
141
2.5
142
0.0
143
0.03937007874016
144
1.0
145
0.0
146
1.0
147
0.625
 71
     0
 72
     0
 73
     0
 74
     0
 75
     0
 76
     0
 77
     1
 78
     8
170
     0
171
     3
172
     1
173
     0
174
     0
175
     0
176
     0
177
     0
178
     0
270
     2
271
     2
272
     2
273
     2
274
     3
340
11
275
     0
280
     0
281
     0
282
     0
283
     0
284
     8
285
     0
286
     0
287
     3
288
     0
  0
ENDTAB
  0
TABLE
  2
BLOCK_RECORD
  5
1
330
0
100
AcDbSymbolTable
 70
     1
  0
BLOCK_RECORD
  5
1F
330
1
100
AcDbSymbolTableRecord
100
AcDbBlockTableRecord
  2
*MODEL_SPACE
  0
BLOCK_RECORD
  5
1B
330
1
100
AcDbSymbolTableRecord
100
AcDbBlockTableRecord
  2
*PAPER_SPACE
  0
ENDTAB
  0
ENDSEC
  0
SECTION
  2
BLOCKS
  0
BLOCK
  5
20
330
1F
100
AcDbEntity
  8
0
100
AcDbBlockBegin
  2
*MODEL_SPACE
 70
     0
 10
0.0
 20
0.0
 30
0.0
  3
*MODEL_SPACE
  1

  0
ENDBLK
  5
21
330
1F
100
AcDbEntity
  8
0
100
AcDbBlockEnd
  0
BLOCK
  5
1C
330
1B
100
AcDbEntity
 67
     1
  8
0
100
AcDbBlockBegin
  2
*PAPER_SPACE
  1

  0
ENDBLK
  5
1D
330
1B
100
AcDbEntity
 67
     1
  8
0
100
AcDbBlockEnd
  0
ENDSEC
  0
SECTION
  2
ENTITIES
  0
SPLINE
  5
100
100
AcDbEntity
  8
MODELSKETCH_VISIBLE
 62
7
100
AcDbSpline
 70
8
 71
3
 72
8
 73
4
 74
0
 40
0
 40
0
 40
0
 40
0
 40
1
 40
1
 40
1
 40
1
 10
2189.841315
 20
184.336385
 30
0.0
 10
2189.841315
 20
183.998785
 30
0.0
 10
2190.002168
 20
183.664585
 30
0.0
 10
2190.263978
 20
183.452985
 30
0.0
  0
SPLINE
  5
101
100
AcDbEntity
  8
MODELSKETCH_VISIBLE
 62
7
100
AcDbSpline
 70
8
 71
3
 72
8
 73
4
 74
0
 40
0
 40
0
 40
0
 40
0
 40
1
 40
1
 40
1
 40
1
 10
2190.263978
 20
183.452985
 30
0.0
 10
2190.460335
 20
183.294185
 30
0.0
 10
2190.713481
 20
183.204485
 30
0.0
 10
2190.966759
 20
183.202585
 30
0.0
  0
SPLINE
  5
102
100
AcDbEntity
  8
MODELSKETCH_VISIBLE
 62
7
100
AcDbSpline
 70
8
 71
3
 72
8
 73
4
 74
0
 40
0
 40
0
 40
0
 40
0
 40
1
 40
1
 40
1
 40
1
 10
2190.966759
 20
401.851325
 30
0.0
 10
2190.629055
 20
401.848325
 30
0.0
 10
2190.296137
 20
401.685125
 30
0.0
 10
2190.086476
 20
401.421775
 30
0.0
  0
SPLINE
  5
103
100
AcDbEntity
  8
MODELSKETCH_VISIBLE
 62
7
100
AcDbSpline
 70
8
 71
3
 72
8
 73
4
 74
0
 40
0
 40
0
 40
0
 40
0
 40
1
 40
1
 40
1
 40
1
 10
2190.086476
 20
401.421775
 30
0.0
 10
2189.929229
 20
401.224275
 30
0.0
 10
2189.841315
 20
400.970675
 30
0.0
 10
2189.841315
 20
400.717495
 30
0.0
  0
LWPOLYLINE
  5
104
100
AcDbEntity
  8
MODELSKETCH_VISIBLE
 62
7
100
AcDbPolyline
 90
2
 70
0
 10
2189.841300
 20
400.717685
 30
0.0
 10
2189.841300
 20
184.339685
 30
0.0
  0
LWPOLYLINE
  5
105
100
AcDbEntity
  8
MODELSKETCH_VISIBLE
 62
7
100
AcDbPolyline
 90
2
 70
0
 10
2402.048000
 20
401.851685
 30
0.0
 10
2190.975400
 20
401.851685
 30
0.0
  0
SPLINE
  5
106
100
AcDbEntity
  8
MODELSKETCH_VISIBLE
 62
7
100
AcDbSpline
 70
8
 71
3
 72
8
 73
4
 74
0
 40
0
 40
0
 40
0
 40
0
 40
1
 40
1
 40
1
 40
1
 10
2442.942840
 20
457.334215
 30
0.0
 10
2442.641958
 20
457.292833
 30
0.0
 10
2442.360183
 20
457.124409
 30
0.0
 10
2442.181290
 20
456.879015
 30
0.0
  0
LWPOLYLINE
  5
107
100
AcDbEntity
  8
MODELSKETCH_VISIBLE
 62
7
100
AcDbPolyline
 90
2
 70
0
 10
2442.173000
 20
456.867685
 30
0.0
 10
2402.048000
 20
401.851685
 30
0.0
  0
LWPOLYLINE
  5
108
100
AcDbEntity
  8
MODELSKETCH_VISIBLE
 62
7
100
AcDbPolyline
 90
2
 70
0
 10
2584.889000
 20
475.796685
 30
0.0
 10
2442.951000
 20
457.335685
 30
0.0
  0
LWPOLYLINE
  5
109
100
AcDbEntity
  8
MODELSKETCH_VISIBLE
 62
7
100
AcDbPolyline
 90
2
 70
0
 10
2406.424000
 20
156.749685
 30
0.0
 10
2478.227000
 20
156.749685
 30
0.0
  0
LWPOLYLINE
  5
10a
100
AcDbEntity
  8
MODELSKETCH_VISIBLE
 62
7
100
AcDbPolyline
 90
2
 70
0
 10
2405.290000
 20
165.249685
 30
0.0
 10
2405.290000
 20
157.879685
 30
0.0
  0
SPLINE
  5
10b
100
AcDbEntity
  8
MODELSKETCH_VISIBLE
 62
7
100
AcDbSpline
 70
8
 71
3
 72
8
 73
4
 74
0
 40
0
 40
0
 40
0
 40
0
 40
1
 40
1
 40
1
 40
1
 10
2333.476910
 20
166.384485
 30
0.0
 10
2333.476910
 20
166.046985
 30
0.0
 10
2333.637890
 20
165.712885
 30
0.0
 10
2333.899680
 20
165.501185
 30
0.0
  0
SPLINE
  5
10c
100
AcDbEntity
  8
MODELSKETCH_VISIBLE
 62
7
100
AcDbSpline
 70
8
 71
3
 72
8
 73
4
 74
0
 40
0
 40
0
 40
0
 40
0
 40
1
 40
1
 40
1
 40
1
 10
2333.899680
 20
165.501185
 30
0.0
 10
2334.096030
 20
165.342485
 30
0.0
 10
2334.349080
 20
165.252585
 30
0.0
 10
2334.602360
 20
165.250685
 30
0.0
  0
LWPOLYLINE
  5
10d
100
AcDbEntity
  8
MODELSKETCH_VISIBLE
 62
7
100
AcDbPolyline
 90
2
 70
0
 10
2334.611000
 20
165.249685
 30
0.0
 10
2405.290000
 20
165.249685
 30
0.0
  0
LWPOLYLINE
  5
10e
100
AcDbEntity
  8
MODELSKETCH_VISIBLE
 62
7
100
AcDbPolyline
 90
2
 70
0
 10
2333.477000
 20
183.199685
 30
0.0
 10
2333.477000
 20
166.379685
 30
0.0
  0
LWPOLYLINE
  5
10f
100
AcDbEntity
  8
MODELSKETCH_VISIBLE
 62
7
100
AcDbPolyline
 90
2
 70
0
 10
2190.975400
 20
183.199685
 30
0.0
 10
2333.477000
 20
183.199685
 30
0.0
  0
SPLINE
  5
110
100
AcDbEntity
  8
MODELSKETCH_VISIBLE
 62
7
100
AcDbSpline
 70
8
 71
3
 72
8
 73
4
 74
0
 40
0
 40
0
 40
0
 40
0
 40
1
 40
1
 40
1
 40
1
 10
2338.186440
 20
255.569845
 30
0.0
 10
2338.183812
 20
257.655360
 30
0.0
 10
2336.492431
 20
259.344611
 30
0.0
 10
2334.406915
 20
259.344611
 30
0.0
  0
SPLINE
  5
111
100
AcDbEntity
  8
MODELSKETCH_VISIBLE
 62
7
100
AcDbSpline
 70
8
 71
3
 72
8
 73
4
 74
0
 40
0
 40
0
 40
0
 40
0
 40
1
 40
1
 40
1
 40
1
 10
2334.406915
 20
259.344611
 30
0.0
 10
2332.321399
 20
259.344611
 30
0.0
 10
2330.630018
 20
257.655360
 30
0.0
 10
2330.627390
 20
255.569845
 30
0.0
  0
SPLINE
  5
112
100
AcDbEntity
  8
MODELSKETCH_VISIBLE
 62
7
100
AcDbSpline
 70
8
 71
3
 72
8
 73
4
 74
0
 40
0
 40
0
 40
0
 40
0
 40
1
 40
1
 40
1
 40
1
 10
2330.627390
 20
255.569845
 30
0.0
 10
2330.630018
 20
253.484330
 30
0.0
 10
2332.321399
 20
251.795079
 30
0.0
 10
2334.406915
 20
251.795079
 30
0.0
  0
SPLINE
  5
113
100
AcDbEntity
  8
MODELSKETCH_VISIBLE
 62
7
100
AcDbSpline
 70
8
 71
3
 72
8
 73
4
 74
0
 40
0
 40
0
 40
0
 40
0
 40
1
 40
1
 40
1
 40
1
 10
2334.406915
 20
251.795079
 30
0.0
 10
2336.492431
 20
251.795079
 30
0.0
 10
2338.183812
 20
253.484330
 30
0.0
 10
2338.186440
 20
255.569845
 30
0.0
  0
LWPOLYLINE
  5
114
100
AcDbEntity
  8
MODELSKETCH_VISIBLE
 62
7
100
AcDbPolyline
 90
1
 70
1
 10
2190.966800
 20
183.199685
 30
0.0
  0
SPLINE
  5
115
100
AcDbEntity
  8
MODELSKETCH_VISIBLE
 62
7
100
AcDbSpline
 70
8
 71
3
 72
8
 73
4
 74
0
 40
0
 40
0
 40
0
 40
0
 40
1
 40
1
 40
1
 40
1
 10
2553.498570
 20
242.286685
 30
0.0
 10
2553.498570
 20
243.636981
 30
0.0
 10
2552.778196
 20
244.884706
 30
0.0
 10
2551.608805
 20
245.559854
 30
0.0
  0
SPLINE
  5
116
100
AcDbEntity
  8
MODELSKETCH_VISIBLE
 62
7
100
AcDbSpline
 70
8
 71
3
 72
8
 73
4
 74
0
 40
0
 40
0
 40
0
 40
0
 40
1
 40
1
 40
1
 40
1
 10
2551.608805
 20
245.559854
 30
0.0
 10
2550.439414
 20
246.235002
 30
0.0
 10
2548.998666
 20
246.235002
 30
0.0
 10
2547.829275
 20
245.559854
 30
0.0
  0
SPLINE
  5
117
100
AcDbEntity
  8
MODELSKETCH_VISIBLE
 62
7
100
AcDbSpline
 70
8
 71
3
 72
8
 73
4
 74
0
 40
0
 40
0
 40
0
 40
0
 40
1
 40
1
 40
1
 40
1
 10
2547.829275
 20
245.559854
 30
0.0
 10
2546.659884
 20
244.884706
 30
0.0
 10
2545.939510
 20
243.636981
 30
0.0
 10
2545.939510
 20
242.286685
 30
0.0
  0
SPLINE
  5
118
100
AcDbEntity
  8
MODELSKETCH_VISIBLE
 62
7
100
AcDbSpline
 70
8
 71
3
 72
8
 73
4
 74
0
 40
0
 40
0
 40
0
 40
0
 40
1
 40
1
 40
1
 40
1
 10
2545.939510
 20
242.286685
 30
0.0
 10
2545.939510
 20
240.936389
 30
0.0
 10
2546.659884
 20
239.688664
 30
0.0
 10
2547.829275
 20
239.013516
 30
0.0
  0
SPLINE
  5
119
100
AcDbEntity
  8
MODELSKETCH_VISIBLE
 62
7
100
AcDbSpline
 70
8
 71
3
 72
8
 73
4
 74
0
 40
0
 40
0
 40
0
 40
0
 40
1
 40
1
 40
1
 40
1
 10
2547.829275
 20
239.013516
 30
0.0
 10
2548.998666
 20
238.338368
 30
0.0
 10
2550.439414
 20
238.338368
 30
0.0
 10
2551.608805
 20
239.013516
 30
0.0
  0
SPLINE
  5
11a
100
AcDbEntity
  8
MODELSKETCH_VISIBLE
 62
7
100
AcDbSpline
 70
8
 71
3
 72
8
 73
4
 74
0
 40
0
 40
0
 40
0
 40
0
 40
1
 40
1
 40
1
 40
1
 10
2551.608805
 20
239.013516
 30
0.0
 10
2552.778196
 20
239.688664
 30
0.0
 10
2553.498570
 20
240.936389
 30
0.0
 10
2553.498570
 20
242.286685
 30
0.0
  0
LWPOLYLINE
  5
11b
100
AcDbEntity
  8
MODELSKETCH_VISIBLE
 62
7
100
AcDbPolyline
 90
1
 70
1
 10
2338.186440
 20
255.569845
 30
0.0
  0
SPLINE
  5
11c
100
AcDbEntity
  8
MODELSKETCH_VISIBLE
 62
7
100
AcDbSpline
 70
8
 71
3
 72
8
 73
4
 74
0
 40
0
 40
0
 40
0
 40
0
 40
1
 40
1
 40
1
 40
1
 10
2405.290250
 20
157.879285
 30
0.0
 10
2405.290250
 20
157.541785
 30
0.0
 10
2405.451250
 20
157.207685
 30
0.0
 10
2405.713040
 20
156.995985
 30
0.0
  0
SPLINE
  5
11d
100
AcDbEntity
  8
MODELSKETCH_VISIBLE
 62
7
100
AcDbSpline
 70
8
 71
3
 72
8
 73
4
 74
0
 40
0
 40
0
 40
0
 40
0
 40
1
 40
1
 40
1
 40
1
 10
2405.713040
 20
156.995985
 30
0.0
 10
2405.909380
 20
156.837285
 30
0.0
 10
2406.162410
 20
156.747385
 30
0.0
 10
2406.415690
 20
156.745485
 30
0.0
  0
SPLINE
  5
11e
100
AcDbEntity
  8
MODELSKETCH_VISIBLE
 62
7
100
AcDbSpline
 70
8
 71
3
 72
8
 73
4
 74
0
 40
0
 40
0
 40
0
 40
0
 40
1
 40
1
 40
1
 40
1
 10
2605.485970
 20
421.321025
 30
0.0
 10
2605.485970
 20
422.671321
 30
0.0
 10
2604.765596
 20
423.919046
 30
0.0
 10
2603.596205
 20
424.594194
 30
0.0
  0
SPLINE
  5
11f
100
AcDbEntity
  8
MODELSKETCH_VISIBLE
 62
7
100
AcDbSpline
 70
8
 71
3
 72
8
 73
4
 74
0
 40
0
 40
0
 40
0
 40
0
 40
1
 40
1
 40
1
 40
1
 10
2603.596205
 20
424.594194
 30
0.0
 10
2602.426814
 20
425.269342
 30
0.0
 10
2600.986066
 20
425.269342
 30
0.0
 10
2599.816675
 20
424.594194
 30
0.0
  0
SPLINE
  5
120
100
AcDbEntity
  8
MODELSKETCH_VISIBLE
 62
7
100
AcDbSpline
 70
8
 71
3
 72
8
 73
4
 74
0
 40
0
 40
0
 40
0
 40
0
 40
1
 40
1
 40
1
 40
1
 10
2599.816675
 20
424.594194
 30
0.0
 10
2598.647284
 20
423.919046
 30
0.0
 10
2597.926910
 20
422.671321
 30
0.0
 10
2597.926910
 20
421.321025
 30
0.0
  0
SPLINE
  5
121
100
AcDbEntity
  8
MODELSKETCH_VISIBLE
 62
7
100
AcDbSpline
 70
8
 71
3
 72
8
 73
4
 74
0
 40
0
 40
0
 40
0
 40
0
 40
1
 40
1
 40
1
 40
1
 10
2597.926910
 20
421.321025
 30
0.0
 10
2597.926910
 20
419.970729
 30
0.0
 10
2598.647284
 20
418.723004
 30
0.0
 10
2599.816675
 20
418.047856
 30
0.0
  0
SPLINE
  5
122
100
AcDbEntity
  8
MODELSKETCH_VISIBLE
 62
7
100
AcDbSpline
 70
8
 71
3
 72
8
 73
4
 74
0
 40
0
 40
0
 40
0
 40
0
 40
1
 40
1
 40
1
 40
1
 10
2599.816675
 20
418.047856
 30
0.0
 10
2600.986066
 20
417.372708
 30
0.0
 10
2602.426814
 20
417.372708
 30
0.0
 10
2603.596205
 20
418.047856
 30
0.0
  0
SPLINE
  5
123
100
AcDbEntity
  8
MODELSKETCH_VISIBLE
 62
7
100
AcDbSpline
 70
8
 71
3
 72
8
 73
4
 74
0
 40
0
 40
0
 40
0
 40
0
 40
1
 40
1
 40
1
 40
1
 10
2603.596205
 20
418.047856
 30
0.0
 10
2604.765596
 20
418.723004
 30
0.0
 10
2605.485970
 20
419.970729
 30
0.0
 10
2605.485970
 20
421.321025
 30
0.0
  0
LWPOLYLINE
  5
124
100
AcDbEntity
  8
MODELSKETCH_VISIBLE
 62
7
100
AcDbPolyline
 90
1
 70
1
 10
2553.498570
 20
242.286685
 30
0.0
  0
LWPOLYLINE
  5
125
100
AcDbEntity
  8
MODELSKETCH_VISIBLE
 62
7
100
AcDbPolyline
 90
1
 70
1
 10
2605.485970
 20
421.321025
 30
0.0
  0
SPLINE
  5
126
100
AcDbEntity
  8
MODELSKETCH_VISIBLE
 62
7
100
AcDbSpline
 70
8
 71
3
 72
8
 73
4
 74
0
 40
0
 40
0
 40
0
 40
0
 40
1
 40
1
 40
1
 40
1
 10
2701.249920
 20
183.202485
 30
0.0
 10
2701.589280
 20
183.202485
 30
0.0
 10
2701.924920
 20
183.365385
 30
0.0
 10
2702.136470
 20
183.629285
 30
0.0
  0
SPLINE
  5
127
100
AcDbEntity
  8
MODELSKETCH_VISIBLE
 62
7
100
AcDbSpline
 70
8
 71
3
 72
8
 73
4
 74
0
 40
0
 40
0
 40
0
 40
0
 40
1
 40
1
 40
1
 40
1
 10
2702.136470
 20
183.629285
 30
0.0
 10
2702.295140
 20
183.827185
 30
0.0
 10
2702.384000
 20
184.081985
 30
0.0
 10
2702.384000
 20
184.336385
 30
0.0
  0
LWPOLYLINE
  5
128
100
AcDbEntity
  8
MODELSKETCH_VISIBLE
 62
7
100
AcDbPolyline
 90
2
 70
0
 10
2636.237000
 20
183.199685
 30
0.0
 10
2701.232000
 20
183.199685
 30
0.0
  0
SPLINE
  5
129
100
AcDbEntity
  8
MODELSKETCH_VISIBLE
 62
7
100
AcDbSpline
 70
8
 71
3
 72
8
 73
4
 74
0
 40
0
 40
0
 40
0
 40
0
 40
1
 40
1
 40
1
 40
1
 10
2478.244390
 20
156.745485
 30
0.0
 10
2478.498910
 20
156.745485
 30
0.0
 10
2478.753840
 20
156.834485
 30
0.0
 10
2478.951810
 20
156.992985
 30
0.0
  0
SPLINE
  5
12a
100
AcDbEntity
  8
MODELSKETCH_VISIBLE
 62
7
100
AcDbSpline
 70
8
 71
3
 72
8
 73
4
 74
0
 40
0
 40
0
 40
0
 40
0
 40
1
 40
1
 40
1
 40
1
 10
2478.951810
 20
156.992985
 30
0.0
 10
2479.215770
 20
157.204485
 30
0.0
 10
2479.378470
 20
157.540085
 30
0.0
 10
2479.378470
 20
157.879285
 30
0.0
  0
SPLINE
  5
12b
100
AcDbEntity
  8
MODELSKETCH_VISIBLE
 62
7
100
AcDbSpline
 70
8
 71
3
 72
8
 73
4
 74
0
 40
0
 40
0
 40
0
 40
0
 40
1
 40
1
 40
1
 40
1
 10
2702.384000
 20
417.231075
 30
0.0
 10
2702.384004
 20
417.428501
 30
0.0
 10
2702.331272
 20
417.625734
 30
0.0
 10
2702.232740
 20
417.796825
 30
0.0
  0
SPLINE
  5
12c
100
AcDbEntity
  8
MODELSKETCH_VISIBLE
 62
7
100
AcDbSpline
 70
8
 71
3
 72
8
 73
4
 74
0
 40
0
 40
0
 40
0
 40
0
 40
1
 40
1
 40
1
 40
1
 10
2635.103270
 20
174.697285
 30
0.0
 10
2635.442630
 20
174.697285
 30
0.0
 10
2635.778290
 20
174.860085
 30
0.0
 10
2635.989840
 20
175.124085
 30
0.0
  0
SPLINE
  5
12d
100
AcDbEntity
  8
MODELSKETCH_VISIBLE
 62
7
100
AcDbSpline
 70
8
 71
3
 72
8
 73
4
 74
0
 40
0
 40
0
 40
0
 40
0
 40
1
 40
1
 40
1
 40
1
 10
2635.989840
 20
175.124085
 30
0.0
 10
2636.148500
 20
175.321985
 30
0.0
 10
2636.237360
 20
175.576785
 30
0.0
 10
2636.237360
 20
175.831185
 30
0.0
  0
LWPOLYLINE
  5
12e
100
AcDbEntity
  8
MODELSKETCH_VISIBLE
 62
7
100
AcDbPolyline
 90
2
 70
0
 10
2636.237000
 20
175.829685
 30
0.0
 10
2636.237000
 20
183.199685
 30
0.0
  0
LWPOLYLINE
  5
12f
100
AcDbEntity
  8
MODELSKETCH_VISIBLE
 62
7
100
AcDbPolyline
 90
2
 70
0
 10
2551.192000
 20
174.699685
 30
0.0
 10
2635.085000
 20
174.699685
 30
0.0
  0
LWPOLYLINE
  5
130
100
AcDbEntity
  8
MODELSKETCH_VISIBLE
 62
7
100
AcDbPolyline
 90
2
 70
0
 10
2551.192000
 20
166.379685
 30
0.0
 10
2551.192000
 20
174.699685
 30
0.0
  0
SPLINE
  5
131
100
AcDbEntity
  8
MODELSKETCH_VISIBLE
 62
7
100
AcDbSpline
 70
8
 71
3
 72
8
 73
4
 74
0
 40
0
 40
0
 40
0
 40
0
 40
1
 40
1
 40
1
 40
1
 10
2550.057590
 20
165.250685
 30
0.0
 10
2550.396950
 20
165.250685
 30
0.0
 10
2550.732620
 20
165.413485
 30
0.0
 10
2550.944170
 20
165.677385
 30
0.0
  0
SPLINE
  5
132
100
AcDbEntity
  8
MODELSKETCH_VISIBLE
 62
7
100
AcDbSpline
 70
8
 71
3
 72
8
 73
4
 74
0
 40
0
 40
0
 40
0
 40
0
 40
1
 40
1
 40
1
 40
1
 10
2550.944170
 20
165.677385
 30
0.0
 10
2551.102830
 20
165.875285
 30
0.0
 10
2551.191670
 20
166.130085
 30
0.0
 10
2551.191670
 20
166.384485
 30
0.0
  0
LWPOLYLINE
  5
133
100
AcDbEntity
  8
MODELSKETCH_VISIBLE
 62
7
100
AcDbPolyline
 90
2
 70
0
 10
2646.871000
 20
511.615685
 30
0.0
 10
2584.889000
 20
475.796685
 30
0.0
  0
LWPOLYLINE
  5
134
100
AcDbEntity
  8
MODELSKETCH_VISIBLE
 62
7
100
AcDbPolyline
 90
2
 70
0
 10
2479.378000
 20
165.249685
 30
0.0
 10
2550.040000
 20
165.249685
 30
0.0
  0
SPLINE
  5
135
100
AcDbEntity
  8
MODELSKETCH_VISIBLE
 62
7
100
AcDbSpline
 70
8
 71
3
 72
8
 73
4
 74
0
 40
0
 40
0
 40
0
 40
0
 40
1
 40
1
 40
1
 40
1
 10
2429.488490
 20
392.541815
 30
0.0
 10
2429.488490
 20
394.629192
 30
0.0
 10
2427.796337
 20
396.321345
 30
0.0
 10
2425.708960
 20
396.321345
 30
0.0
  0
SPLINE
  5
136
100
AcDbEntity
  8
MODELSKETCH_VISIBLE
 62
7
100
AcDbSpline
 70
8
 71
3
 72
8
 73
4
 74
0
 40
0
 40
0
 40
0
 40
0
 40
1
 40
1
 40
1
 40
1
 10
2425.708960
 20
396.321345
 30
0.0
 10
2423.621583
 20
396.321345
 30
0.0
 10
2421.929430
 20
394.629192
 30
0.0
 10
2421.929430
 20
392.541815
 30
0.0
  0
SPLINE
  5
137
100
AcDbEntity
  8
MODELSKETCH_VISIBLE
 62
7
100
AcDbSpline
 70
8
 71
3
 72
8
 73
4
 74
0
 40
0
 40
0
 40
0
 40
0
 40
1
 40
1
 40
1
 40
1
 10
2421.929430
 20
392.541815
 30
0.0
 10
2421.929430
 20
391.191519
 30
0.0
 10
2422.649804
 20
389.943794
 30
0.0
 10
2423.819195
 20
389.268646
 30
0.0
  0
SPLINE
  5
138
100
AcDbEntity
  8
MODELSKETCH_VISIBLE
 62
7
100
AcDbSpline
 70
8
 71
3
 72
8
 73
4
 74
0
 40
0
 40
0
 40
0
 40
0
 40
1
 40
1
 40
1
 40
1
 10
2423.819195
 20
389.268646
 30
0.0
 10
2424.988586
 20
388.593498
 30
0.0
 10
2426.429334
 20
388.593498
 30
0.0
 10
2427.598725
 20
389.268646
 30
0.0
  0
SPLINE
  5
139
100
AcDbEntity
  8
MODELSKETCH_VISIBLE
 62
7
100
AcDbSpline
 70
8
 71
3
 72
8
 73
4
 74
0
 40
0
 40
0
 40
0
 40
0
 40
1
 40
1
 40
1
 40
1
 10
2427.598725
 20
389.268646
 30
0.0
 10
2428.768116
 20
389.943794
 30
0.0
 10
2429.488490
 20
391.191519
 30
0.0
 10
2429.488490
 20
392.541815
 30
0.0
  0
LWPOLYLINE
  5
13a
100
AcDbEntity
  8
MODELSKETCH_VISIBLE
 62
7
100
AcDbPolyline
 90
2
 70
0
 10
2702.384000
 20
184.339685
 30
0.0
 10
2702.384000
 20
417.230685
 30
0.0
  0
LWPOLYLINE
  5
13b
100
AcDbEntity
  8
MODELSKETCH_VISIBLE
 62
7
100
AcDbPolyline
 90
1
 70
1
 10
2429.488490
 20
392.541815
 30
0.0
  0
LWPOLYLINE
  5
13c
100
AcDbEntity
  8
MODELSKETCH_VISIBLE
 62
7
100
AcDbPolyline
 90
2
 70
0
 10
2702.227000
 20
417.806685
 30
0.0
 10
2648.439000
 20
511.209685
 30
0.0
  0
SPLINE
  5
13d
100
AcDbEntity
  8
MODELSKETCH_VISIBLE
 62
7
100
AcDbSpline
 70
8
 71
3
 72
8
 73
4
 74
0
 40
0
 40
0
 40
0
 40
0
 40
1
 40
1
 40
1
 40
1
 10
2440.601315
 20
745.622985
 30
0.0
 10
2440.601315
 20
745.960585
 30
0.0
 10
2440.762168
 20
746.294785
 30
0.0
 10
2441.023978
 20
746.506385
 30
0.0
  0
SPLINE
  5
13e
100
AcDbEntity
  8
MODELSKETCH_VISIBLE
 62
7
100
AcDbSpline
 70
8
 71
3
 72
8
 73
4
 74
0
 40
0
 40
0
 40
0
 40
0
 40
1
 40
1
 40
1
 40
1
 10
2441.023978
 20
746.506385
 30
0.0
 10
2441.220335
 20
746.665185
 30
0.0
 10
2441.473481
 20
746.754885
 30
0.0
 10
2441.726759
 20
746.756785
 30
0.0
  0
LWPOLYLINE
  5
13f
100
AcDbEntity
  8
MODELSKETCH_VISIBLE
 62
7
100
AcDbPolyline
 90
2
 70
0
 10
2479.378000
 20
157.879685
 30
0.0
 10
2479.378000
 20
165.249685
 30
0.0
  0
SPLINE
  5
140
100
AcDbEntity
  8
MODELSKETCH_VISIBLE
 62
7
100
AcDbSpline
 70
8
 71
3
 72
8
 73
4
 74
0
 40
0
 40
0
 40
0
 40
0
 40
1
 40
1
 40
1
 40
1
 10
2441.726759
 20
528.108045
 30
0.0
 10
2441.389055
 20
528.111045
 30
0.0
 10
2441.056137
 20
528.274245
 30
0.0
 10
2440.846476
 20
528.537595
 30
0.0
  0
SPLINE
  5
141
100
AcDbEntity
  8
MODELSKETCH_VISIBLE
 62
7
100
AcDbSpline
 70
8
 71
3
 72
8
 73
4
 74
0
 40
0
 40
0
 40
0
 40
0
 40
1
 40
1
 40
1
 40
1
 10
2440.846476
 20
528.537595
 30
0.0
 10
2440.689229
 20
528.735095
 30
0.0
 10
2440.601315
 20
528.988695
 30
0.0
 10
2440.601315
 20
529.241875
 30
0.0
  0
LWPOLYLINE
  5
142
100
AcDbEntity
  8
MODELSKETCH_VISIBLE
 62
7
100
AcDbPolyline
 90
2
 70
0
 10
2440.601300
 20
529.241685
 30
0.0
 10
2440.601300
 20
745.619685
 30
0.0
  0
LWPOLYLINE
  5
143
100
AcDbEntity
  8
MODELSKETCH_VISIBLE
 62
7
100
AcDbPolyline
 90
2
 70
0
 10
2652.808000
 20
528.107685
 30
0.0
 10
2441.735400
 20
528.107685
 30
0.0
  0
SPLINE
  5
144
100
AcDbEntity
  8
MODELSKETCH_VISIBLE
 62
7
100
AcDbSpline
 70
8
 71
3
 72
8
 73
4
 74
0
 40
0
 40
0
 40
0
 40
0
 40
1
 40
1
 40
1
 40
1
 10
2693.702840
 20
472.625155
 30
0.0
 10
2693.401958
 20
472.666537
 30
0.0
 10
2693.120183
 20
472.834961
 30
0.0
 10
2692.941290
 20
473.080355
 30
0.0
  0
LWPOLYLINE
  5
145
100
AcDbEntity
  8
MODELSKETCH_VISIBLE
 62
7
100
AcDbPolyline
 90
2
 70
0
 10
2692.933000
 20
473.091685
 30
0.0
 10
2652.808000
 20
528.107685
 30
0.0
  0
LWPOLYLINE
  5
146
100
AcDbEntity
  8
MODELSKETCH_VISIBLE
 62
7
100
AcDbPolyline
 90
2
 70
0
 10
2835.649000
 20
454.162685
 30
0.0
 10
2693.711000
 20
472.623685
 30
0.0
  0
LWPOLYLINE
  5
147
100
AcDbEntity
  8
MODELSKETCH_VISIBLE
 62
7
100
AcDbPolyline
 90
2
 70
0
 10
2657.184000
 20
773.209685
 30
0.0
 10
2728.987000
 20
773.209685
 30
0.0
  0
LWPOLYLINE
  5
148
100
AcDbEntity
  8
MODELSKETCH_VISIBLE
 62
7
100
AcDbPolyline
 90
2
 70
0
 10
2656.050000
 20
764.709685
 30
0.0
 10
2656.050000
 20
772.079685
 30
0.0
  0
SPLINE
  5
149
100
AcDbEntity
  8
MODELSKETCH_VISIBLE
 62
7
100
AcDbSpline
 70
8
 71
3
 72
8
 73
4
 74
0
 40
0
 40
0
 40
0
 40
0
 40
1
 40
1
 40
1
 40
1
 10
2584.236910
 20
763.574885
 30
0.0
 10
2584.236910
 20
763.912385
 30
0.0
 10
2584.397890
 20
764.246485
 30
0.0
 10
2584.659680
 20
764.458185
 30
0.0
  0
SPLINE
  5
14a
100
AcDbEntity
  8
MODELSKETCH_VISIBLE
 62
7
100
AcDbSpline
 70
8
 71
3
 72
8
 73
4
 74
0
 40
0
 40
0
 40
0
 40
0
 40
1
 40
1
 40
1
 40
1
 10
2584.659680
 20
764.458185
 30
0.0
 10
2584.856030
 20
764.616885
 30
0.0
 10
2585.109080
 20
764.706785
 30
0.0
 10
2585.362360
 20
764.708685
 30
0.0
  0
LWPOLYLINE
  5
14b
100
AcDbEntity
  8
MODELSKETCH_VISIBLE
 62
7
100
AcDbPolyline
 90
2
 70
0
 10
2585.371000
 20
764.709685
 30
0.0
 10
2656.050000
 20
764.709685
 30
0.0
  0
LWPOLYLINE
  5
14c
100
AcDbEntity
  8
MODELSKETCH_VISIBLE
 62
7
100
AcDbPolyline
 90
2
 70
0
 10
2584.237000
 20
746.759685
 30
0.0
 10
2584.237000
 20
763.579685
 30
0.0
  0
LWPOLYLINE
  5
14d
100
AcDbEntity
  8
MODELSKETCH_VISIBLE
 62
7
100
AcDbPolyline
 90
2
 70
0
 10
2441.735400
 20
746.759685
 30
0.0
 10
2584.237000
 20
746.759685
 30
0.0
  0
SPLINE
  5
14e
100
AcDbEntity
  8
MODELSKETCH_VISIBLE
 62
7
100
AcDbSpline
 70
8
 71
3
 72
8
 73
4
 74
0
 40
0
 40
0
 40
0
 40
0
 40
1
 40
1
 40
1
 40
1
 10
2588.946440
 20
674.389525
 30
0.0
 10
2588.943812
 20
672.304010
 30
0.0
 10
2587.252431
 20
670.614759
 30
0.0
 10
2585.166915
 20
670.614759
 30
0.0
  0
SPLINE
  5
14f
100
AcDbEntity
  8
MODELSKETCH_VISIBLE
 62
7
100
AcDbSpline
 70
8
 71
3
 72
8
 73
4
 74
0
 40
0
 40
0
 40
0
 40
0
 40
1
 40
1
 40
1
 40
1
 10
2585.166915
 20
670.614759
 30
0.0
 10
2583.081399
 20
670.614759
 30
0.0
 10
2581.390018
 20
672.304010
 30
0.0
 10
2581.387390
 20
674.389525
 30
0.0
  0
SPLINE
  5
150
100
AcDbEntity
  8
MODELSKETCH_VISIBLE
 62
7
100
AcDbSpline
 70
8
 71
3
 72
8
 73
4
 74
0
 40
0
 40
0
 40
0
 40
0
 40
1
 40
1
 40
1
 40
1
 10
2581.387390
 20
674.389525
 30
0.0
 10
2581.390018
 20
676.475040
 30
0.0
 10
2583.081399
 20
678.164291
 30
0.0
 10
2585.166915
 20
678.164291
 30
0.0
  0
SPLINE
  5
151
100
AcDbEntity
  8
MODELSKETCH_VISIBLE
 62
7
100
AcDbSpline
 70
8
 71
3
 72
8
 73
4
 74
0
 40
0
 40
0
 40
0
 40
0
 40
1
 40
1
 40
1
 40
1
 10
2585.166915
 20
678.164291
 30
0.0
 10
2587.252431
 20
678.164291
 30
0.0
 10
2588.943812
 20
676.475040
 30
0.0
 10
2588.946440
 20
674.389525
 30
0.0
  0
LWPOLYLINE
  5
152
100
AcDbEntity
  8
MODELSKETCH_VISIBLE
 62
7
100
AcDbPolyline
 90
1
 70
1
 10
2441.726800
 20
746.759685
 30
0.0
  0
SPLINE
  5
153
100
AcDbEntity
  8
MODELSKETCH_VISIBLE
 62
7
100
AcDbSpline
 70
8
 71
3
 72
8
 73
4
 74
0
 40
0
 40
0
 40
0
 40
0
 40
1
 40
1
 40
1
 40
1
 10
2804.258570
 20
687.672685
 30
0.0
 10
2804.258570
 20
686.322389
 30
0.0
 10
2803.538196
 20
685.074664
 30
0.0
 10
2802.368805
 20
684.399516
 30
0.0
  0
SPLINE
  5
154
100
AcDbEntity
  8
MODELSKETCH_VISIBLE
 62
7
100
AcDbSpline
 70
8
 71
3
 72
8
 73
4
 74
0
 40
0
 40
0
 40
0
 40
0
 40
1
 40
1
 40
1
 40
1
 10
2802.368805
 20
684.399516
 30
0.0
 10
2801.199414
 20
683.724368
 30
0.0
 10
2799.758666
 20
683.724368
 30
0.0
 10
2798.589275
 20
684.399516
 30
0.0
  0
SPLINE
  5
155
100
AcDbEntity
  8
MODELSKETCH_VISIBLE
 62
7
100
AcDbSpline
 70
8
 71
3
 72
8
 73
4
 74
0
 40
0
 40
0
 40
0
 40
0
 40
1
 40
1
 40
1
 40
1
 10
2798.589275
 20
684.399516
 30
0.0
 10
2797.419884
 20
685.074664
 30
0.0
 10
2796.699510
 20
686.322389
 30
0.0
 10
2796.699510
 20
687.672685
 30
0.0
  0
SPLINE
  5
156
100
AcDbEntity
  8
MODELSKETCH_VISIBLE
 62
7
100
AcDbSpline
 70
8
 71
3
 72
8
 73
4
 74
0
 40
0
 40
0
 40
0
 40
0
 40
1
 40
1
 40
1
 40
1
 10
2796.699510
 20
687.672685
 30
0.0
 10
2796.699510
 20
689.022981
 30
0.0
 10
2797.419884
 20
690.270706
 30
0.0
 10
2798.589275
 20
690.945854
 30
0.0
  0
SPLINE
  5
157
100
AcDbEntity
  8
MODELSKETCH_VISIBLE
 62
7
100
AcDbSpline
 70
8
 71
3
 72
8
 73
4
 74
0
 40
0
 40
0
 40
0
 40
0
 40
1
 40
1
 40
1
 40
1
 10
2798.589275
 20
690.945854
 30
0.0
 10
2799.758666
 20
691.621002
 30
0.0
 10
2801.199414
 20
691.621002
 30
0.0
 10
2802.368805
 20
690.945854
 30
0.0
  0
SPLINE
  5
158
100
AcDbEntity
  8
MODELSKETCH_VISIBLE
 62
7
100
AcDbSpline
 70
8
 71
3
 72
8
 73
4
 74
0
 40
0
 40
0
 40
0
 40
0
 40
1
 40
1
 40
1
 40
1
 10
2802.368805
 20
690.945854
 30
0.0
 10
2803.538196
 20
690.270706
 30
0.0
 10
2804.258570
 20
689.022981
 30
0.0
 10
2804.258570
 20
687.672685
 30
0.0
  0
LWPOLYLINE
  5
159
100
AcDbEntity
  8
MODELSKETCH_VISIBLE
 62
7
100
AcDbPolyline
 90
1
 70
1
 10
2588.946440
 20
674.389525
 30
0.0
  0
SPLINE
  5
15a
100
AcDbEntity
  8
MODELSKETCH_VISIBLE
 62
7
100
AcDbSpline
 70
8
 71
3
 72
8
 73
4
 74
0
 40
0
 40
0
 40
0
 40
0
 40
1
 40
1
 40
1
 40
1
 10
2656.050250
 20
772.080085
 30
0.0
 10
2656.050250
 20
772.417585
 30
0.0
 10
2656.211250
 20
772.751685
 30
0.0
 10
2656.473040
 20
772.963385
 30
0.0
  0
SPLINE
  5
15b
100
AcDbEntity
  8
MODELSKETCH_VISIBLE
 62
7
100
AcDbSpline
 70
8
 71
3
 72
8
 73
4
 74
0
 40
0
 40
0
 40
0
 40
0
 40
1
 40
1
 40
1
 40
1
 10
2656.473040
 20
772.963385
 30
0.0
 10
2656.669380
 20
773.122085
 30
0.0
 10
2656.922410
 20
773.211985
 30
0.0
 10
2657.175690
 20
773.213885
 30
0.0
  0
SPLINE
  5
15c
100
AcDbEntity
  8
MODELSKETCH_VISIBLE
 62
7
100
AcDbSpline
 70
8
 71
3
 72
8
 73
4
 74
0
 40
0
 40
0
 40
0
 40
0
 40
1
 40
1
 40
1
 40
1
 10
2856.245970
 20
508.638345
 30
0.0
 10
2856.245970
 20
507.288049
 30
0.0
 10
2855.525596
 20
506.040324
 30
0.0
 10
2854.356205
 20
505.365176
 30
0.0
  0
SPLINE
  5
15d
100
AcDbEntity
  8
MODELSKETCH_VISIBLE
 62
7
100
AcDbSpline
 70
8
 71
3
 72
8
 73
4
 74
0
 40
0
 40
0
 40
0
 40
0
 40
1
 40
1
 40
1
 40
1
 10
2854.356205
 20
505.365176
 30
0.0
 10
2853.186814
 20
504.690028
 30
0.0
 10
2851.746066
 20
504.690028
 30
0.0
 10
2850.576675
 20
505.365176
 30
0.0
  0
SPLINE
  5
15e
100
AcDbEntity
  8
MODELSKETCH_VISIBLE
 62
7
100
AcDbSpline
 70
8
 71
3
 72
8
 73
4
 74
0
 40
0
 40
0
 40
0
 40
0
 40
1
 40
1
 40
1
 40
1
 10
2850.576675
 20
505.365176
 30
0.0
 10
2849.407284
 20
506.040324
 30
0.0
 10
2848.686910
 20
507.288049
 30
0.0
 10
2848.686910
 20
508.638345
 30
0.0
  0
SPLINE
  5
15f
100
AcDbEntity
  8
MODELSKETCH_VISIBLE
 62
7
100
AcDbSpline
 70
8
 71
3
 72
8
 73
4
 74
0
 40
0
 40
0
 40
0
 40
0
 40
1
 40
1
 40
1
 40
1
 10
2848.686910
 20
508.638345
 30
0.0
 10
2848.686910
 20
509.988641
 30
0.0
 10
2849.407284
 20
511.236366
 30
0.0
 10
2850.576675
 20
511.911514
 30
0.0
  0
SPLINE
  5
160
100
AcDbEntity
  8
MODELSKETCH_VISIBLE
 62
7
100
AcDbSpline
 70
8
 71
3
 72
8
 73
4
 74
0
 40
0
 40
0
 40
0
 40
0
 40
1
 40
1
 40
1
 40
1
 10
2850.576675
 20
511.911514
 30
0.0
 10
2851.746066
 20
512.586662
 30
0.0
 10
2853.186814
 20
512.586662
 30
0.0
 10
2854.356205
 20
511.911514
 30
0.0
  0
SPLINE
  5
161
100
AcDbEntity
  8
MODELSKETCH_VISIBLE
 62
7
100
AcDbSpline
 70
8
 71
3
 72
8
 73
4
 74
0
 40
0
 40
0
 40
0
 40
0
 40
1
 40
1
 40
1
 40
1
 10
2854.356205
 20
511.911514
 30
0.0
 10
2855.525596
 20
511.236366
 30
0.0
 10
2856.245970
 20
509.988641
 30
0.0
 10
2856.245970
 20
508.638345
 30
0.0
  0
LWPOLYLINE
  5
162
100
AcDbEntity
  8
MODELSKETCH_VISIBLE
 62
7
100
AcDbPolyline
 90
1
 70
1
 10
2804.258570
 20
687.672685
 30
0.0
  0
LWPOLYLINE
  5
163
100
AcDbEntity
  8
MODELSKETCH_VISIBLE
 62
7
100
AcDbPolyline
 90
1
 70
1
 10
2856.245970
 20
508.638345
 30
0.0
  0
SPLINE
  5
164
100
AcDbEntity
  8
MODELSKETCH_VISIBLE
 62
7
100
AcDbSpline
 70
8
 71
3
 72
8
 73
4
 74
0
 40
0
 40
0
 40
0
 40
0
 40
1
 40
1
 40
1
 40
1
 10
2952.009920
 20
746.756885
 30
0.0
 10
2952.349280
 20
746.756885
 30
0.0
 10
2952.684920
 20
746.593985
 30
0.0
 10
2952.896470
 20
746.330085
 30
0.0
  0
SPLINE
  5
165
100
AcDbEntity
  8
MODELSKETCH_VISIBLE
 62
7
100
AcDbSpline
 70
8
 71
3
 72
8
 73
4
 74
0
 40
0
 40
0
 40
0
 40
0
 40
1
 40
1
 40
1
 40
1
 10
2952.896470
 20
746.330085
 30
0.0
 10
2953.055140
 20
746.132185
 30
0.0
 10
2953.144000
 20
745.877385
 30
0.0
 10
2953.144000
 20
745.622985
 30
0.0
  0
LWPOLYLINE
  5
166
100
AcDbEntity
  8
MODELSKETCH_VISIBLE
 62
7
100
AcDbPolyline
 90
2
 70
0
 10
2886.997000
 20
746.759685
 30
0.0
 10
2951.992000
 20
746.759685
 30
0.0
  0
SPLINE
  5
167
100
AcDbEntity
  8
MODELSKETCH_VISIBLE
 62
7
100
AcDbSpline
 70
8
 71
3
 72
8
 73
4
 74
0
 40
0
 40
0
 40
0
 40
0
 40
1
 40
1
 40
1
 40
1
 10
2729.004390
 20
773.213885
 30
0.0
 10
2729.258910
 20
773.213885
 30
0.0
 10
2729.513840
 20
773.124885
 30
0.0
 10
2729.711810
 20
772.966385
 30
0.0
  0
SPLINE
  5
168
100
AcDbEntity
  8
MODELSKETCH_VISIBLE
 62
7
100
AcDbSpline
 70
8
 71
3
 72
8
 73
4
 74
0
 40
0
 40
0
 40
0
 40
0
 40
1
 40
1
 40
1
 40
1
 10
2729.711810
 20
772.966385
 30
0.0
 10
2729.975770
 20
772.754885
 30
0.0
 10
2730.138470
 20
772.419285
 30
0.0
 10
2730.138470
 20
772.080085
 30
0.0
  0
SPLINE
  5
169
100
AcDbEntity
  8
MODELSKETCH_VISIBLE
 62
7
100
AcDbSpline
 70
8
 71
3
 72
8
 73
4
 74
0
 40
0
 40
0
 40
0
 40
0
 40
1
 40
1
 40
1
 40
1
 10
2953.144000
 20
512.728295
 30
0.0
 10
2953.144004
 20
512.530869
 30
0.0
 10
2953.091272
 20
512.333636
 30
0.0
 10
2952.992740
 20
512.162545
 30
0.0
  0
SPLINE
  5
16a
100
AcDbEntity
  8
MODELSKETCH_VISIBLE
 62
7
100
AcDbSpline
 70
8
 71
3
 72
8
 73
4
 74
0
 40
0
 40
0
 40
0
 40
0
 40
1
 40
1
 40
1
 40
1
 10
2885.863270
 20
755.262085
 30
0.0
 10
2886.202630
 20
755.262085
 30
0.0
 10
2886.538290
 20
755.099285
 30
0.0
 10
2886.749840
 20
754.835285
 30
0.0
  0
SPLINE
  5
16b
100
AcDbEntity
  8
MODELSKETCH_VISIBLE
 62
7
100
AcDbSpline
 70
8
 71
3
 72
8
 73
4
 74
0
 40
0
 40
0
 40
0
 40
0
 40
1
 40
1
 40
1
 40
1
 10
2886.749840
 20
754.835285
 30
0.0
 10
2886.908500
 20
754.637385
 30
0.0
 10
2886.997360
 20
754.382585
 30
0.0
 10
2886.997360
 20
754.128185
 30
0.0
  0
LWPOLYLINE
  5
16c
100
AcDbEntity
  8
MODELSKETCH_VISIBLE
 62
7
100
AcDbPolyline
 90
2
 70
0
 10
2886.997000
 20
754.129685
 30
0.0
 10
2886.997000
 20
746.759685
 30
0.0
  0
LWPOLYLINE
  5
16d
100
AcDbEntity
  8
MODELSKETCH_VISIBLE
 62
7
100
AcDbPolyline
 90
2
 70
0
 10
2801.952000
 20
755.259685
 30
0.0
 10
2885.845000
 20
755.259685
 30
0.0
  0
LWPOLYLINE
  5
16e
100
AcDbEntity
  8
MODELSKETCH_VISIBLE
 62
7
100
AcDbPolyline
 90
2
 70
0
 10
2801.952000
 20
763.579685
 30
0.0
 10
2801.952000
 20
755.259685
 30
0.0
  0
SPLINE
  5
16f
100
AcDbEntity
  8
MODELSKETCH_VISIBLE
 62
7
100
AcDbSpline
 70
8
 71
3
 72
8
 73
4
 74
0
 40
0
 40
0
 40
0
 40
0
 40
1
 40
1
 40
1
 40
1
 10
2800.817590
 20
764.708685
 30
0.0
 10
2801.156950
 20
764.708685
 30
0.0
 10
2801.492620
 20
764.545885
 30
0.0
 10
2801.704170
 20
764.281985
 30
0.0
  0
SPLINE
  5
170
100
AcDbEntity
  8
MODELSKETCH_VISIBLE
 62
7
100
AcDbSpline
 70
8
 71
3
 72
8
 73
4
 74
0
 40
0
 40
0
 40
0
 40
0
 40
1
 40
1
 40
1
 40
1
 10
2801.704170
 20
764.281985
 30
0.0
 10
2801.862830
 20
764.084085
 30
0.0
 10
2801.951670
 20
763.829285
 30
0.0
 10
2801.951670
 20
763.574885
 30
0.0
  0
LWPOLYLINE
  5
171
100
AcDbEntity
  8
MODELSKETCH_VISIBLE
 62
7
100
AcDbPolyline
 90
2
 70
0
 10
2897.631000
 20
418.343685
 30
0.0
 10
2835.649000
 20
454.162685
 30
0.0
  0
LWPOLYLINE
  5
172
100
AcDbEntity
  8
MODELSKETCH_VISIBLE
 62
7
100
AcDbPolyline
 90
2
 70
0
 10
2730.138000
 20
764.709685
 30
0.0
 10
2800.800000
 20
764.709685
 30
0.0
  0
SPLINE
  5
173
100
AcDbEntity
  8
MODELSKETCH_VISIBLE
 62
7
100
AcDbSpline
 70
8
 71
3
 72
8
 73
4
 74
0
 40
0
 40
0
 40
0
 40
0
 40
1
 40
1
 40
1
 40
1
 10
2680.248490
 20
537.417555
 30
0.0
 10
2680.248490
 20
535.330178
 30
0.0
 10
2678.556337
 20
533.638025
 30
0.0
 10
2676.468960
 20
533.638025
 30
0.0
  0
SPLINE
  5
174
100
AcDbEntity
  8
MODELSKETCH_VISIBLE
 62
7
100
AcDbSpline
 70
8
 71
3
 72
8
 73
4
 74
0
 40
0
 40
0
 40
0
 40
0
 40
1
 40
1
 40
1
 40
1
 10
2676.468960
 20
533.638025
 30
0.0
 10
2674.381583
 20
533.638025
 30
0.0
 10
2672.689430
 20
535.330178
 30
0.0
 10
2672.689430
 20
537.417555
 30
0.0
  0
SPLINE
  5
175
100
AcDbEntity
  8
MODELSKETCH_VISIBLE
 62
7
100
AcDbSpline
 70
8
 71
3
 72
8
 73
4
 74
0
 40
0
 40
0
 40
0
 40
0
 40
1
 40
1
 40
1
 40
1
 10
2672.689430
 20
537.417555
 30
0.0
 10
2672.689430
 20
538.767851
 30
0.0
 10
2673.409804
 20
540.015576
 30
0.0
 10
2674.579195
 20
540.690724
 30
0.0
  0
SPLINE
  5
176
100
AcDbEntity
  8
MODELSKETCH_VISIBLE
 62
7
100
AcDbSpline
 70
8
 71
3
 72
8
 73
4
 74
0
 40
0
 40
0
 40
0
 40
0
 40
1
 40
1
 40
1
 40
1
 10
2674.579195
 20
540.690724
 30
0.0
 10
2675.748586
 20
541.365872
 30
0.0
 10
2677.189334
 20
541.365872
 30
0.0
 10
2678.358725
 20
540.690724
 30
0.0
  0
SPLINE
  5
177
100
AcDbEntity
  8
MODELSKETCH_VISIBLE
 62
7
100
AcDbSpline
 70
8
 71
3
 72
8
 73
4
 74
0
 40
0
 40
0
 40
0
 40
0
 40
1
 40
1
 40
1
 40
1
 10
2678.358725
 20
540.690724
 30
0.0
 10
2679.528116
 20
540.015576
 30
0.0
 10
2680.248490
 20
538.767851
 30
0.0
 10
2680.248490
 20
537.417555
 30
0.0
  0
LWPOLYLINE
  5
178
100
AcDbEntity
  8
MODELSKETCH_VISIBLE
 62
7
100
AcDbPolyline
 90
2
 70
0
 10
2953.144000
 20
745.619685
 30
0.0
 10
2953.144000
 20
512.728685
 30
0.0
  0
LWPOLYLINE
  5
179
100
AcDbEntity
  8
MODELSKETCH_VISIBLE
 62
7
100
AcDbPolyline
 90
1
 70
1
 10
2680.248490
 20
537.417555
 30
0.0
  0
LWPOLYLINE
  5
17a
100
AcDbEntity
  8
MODELSKETCH_VISIBLE
 62
7
100
AcDbPolyline
 90
2
 70
0
 10
2952.987000
 20
512.152685
 30
0.0
 10
2899.199000
 20
418.749685
 30
0.0
  0
SPLINE
  5
17b
100
AcDbEntity
  8
SECTION_JOG_LINES
 62
7
100
AcDbSpline
 70
8
 71
3
 72
8
 73
4
 74
0
 40
0
 40
0
 40
0
 40
0
 40
1
 40
1
 40
1
 40
1
 10
2290.631370
 20
1383.237745
 30
0.0
 10
2290.461190
 20
1382.944835
 30
0.0
 10
2290.152480
 20
1382.736585
 30
0.0
 10
2289.818470
 20
1382.685885
 30
0.0
  0
SPLINE
  5
17c
100
AcDbEntity
  8
SECTION_JOG_LINES
 62
7
100
AcDbSpline
 70
8
 71
3
 72
8
 73
4
 74
0
 40
0
 40
0
 40
0
 40
0
 40
1
 40
1
 40
1
 40
1
 10
2289.818470
 20
1382.685885
 30
0.0
 10
2289.567970
 20
1382.647885
 30
0.0
 10
2289.303230
 20
1382.698485
 30
0.0
 10
2289.083200
 20
1382.825585
 30
0.0
  0
SPLINE
  5
17d
100
AcDbEntity
  8
SECTION_JOG_LINES
 62
7
100
AcDbSpline
 70
8
 71
3
 72
8
 73
4
 74
0
 40
0
 40
0
 40
0
 40
0
 40
1
 40
1
 40
1
 40
1
 10
1978.251360
 20
1284.154185
 30
0.0
 10
1978.251360
 20
1282.803889
 30
0.0
 10
1977.530986
 20
1281.556164
 30
0.0
 10
1976.361595
 20
1280.881016
 30
0.0
  0
SPLINE
  5
17e
100
AcDbEntity
  8
SECTION_JOG_LINES
 62
7
100
AcDbSpline
 70
8
 71
3
 72
8
 73
4
 74
0
 40
0
 40
0
 40
0
 40
0
 40
1
 40
1
 40
1
 40
1
 10
1976.361595
 20
1280.881016
 30
0.0
 10
1975.192204
 20
1280.205868
 30
0.0
 10
1973.751456
 20
1280.205868
 30
0.0
 10
1972.582065
 20
1280.881016
 30
0.0
  0
SPLINE
  5
17f
100
AcDbEntity
  8
SECTION_JOG_LINES
 62
7
100
AcDbSpline
 70
8
 71
3
 72
8
 73
4
 74
0
 40
0
 40
0
 40
0
 40
0
 40
1
 40
1
 40
1
 40
1
 10
1972.582065
 20
1280.881016
 30
0.0
 10
1971.412674
 20
1281.556164
 30
0.0
 10
1970.692300
 20
1282.803889
 30
0.0
 10
1970.692300
 20
1284.154185
 30
0.0
  0
SPLINE
  5
180
100
AcDbEntity
  8
SECTION_JOG_LINES
 62
7
100
AcDbSpline
 70
8
 71
3
 72
8
 73
4
 74
0
 40
0
 40
0
 40
0
 40
0
 40
1
 40
1
 40
1
 40
1
 10
1970.692300
 20
1284.154185
 30
0.0
 10
1970.692300
 20
1285.504481
 30
0.0
 10
1971.412674
 20
1286.752206
 30
0.0
 10
1972.582065
 20
1287.427354
 30
0.0
  0
SPLINE
  5
181
100
AcDbEntity
  8
SECTION_JOG_LINES
 62
7
100
AcDbSpline
 70
8
 71
3
 72
8
 73
4
 74
0
 40
0
 40
0
 40
0
 40
0
 40
1
 40
1
 40
1
 40
1
 10
1972.582065
 20
1287.427354
 30
0.0
 10
1973.751456
 20
1288.102502
 30
0.0
 10
1975.192204
 20
1288.102502
 30
0.0
 10
1976.361595
 20
1287.427354
 30
0.0
  0
SPLINE
  5
182
100
AcDbEntity
  8
SECTION_JOG_LINES
 62
7
100
AcDbSpline
 70
8
 71
3
 72
8
 73
4
 74
0
 40
0
 40
0
 40
0
 40
0
 40
1
 40
1
 40
1
 40
1
 10
1976.361595
 20
1287.427354
 30
0.0
 10
1977.530986
 20
1286.752206
 30
0.0
 10
1978.251360
 20
1285.504481
 30
0.0
 10
1978.251360
 20
1284.154185
 30
0.0
  0
LWPOLYLINE
  5
183
100
AcDbEntity
  8
MODELSKETCH_VISIBLE
 62
7
100
AcDbPolyline
 90
2
 70
0
 10
2730.138000
 20
772.079685
 30
0.0
 10
2730.138000
 20
764.709685
 30
0.0
  0
LWPOLYLINE
  5
184
100
AcDbEntity
  8
SECTION_JOG_LINES
 62
7
100
AcDbPolyline
 90
1
 70
1
 10
1978.251360
 20
1284.154185
 30
0.0
  0
LWPOLYLINE
  5
185
100
AcDbEntity
  8
SECTION_JOG_LINES
 62
7
100
AcDbPolyline
 90
2
 70
0
 10
2252.101000
 20
1229.565685
 30
0.0
 10
2199.188000
 20
1229.565685
 30
0.0
  0
LWPOLYLINE
  5
186
100
AcDbEntity
  8
SECTION_JOG_LINES
 62
7
100
AcDbPolyline
 90
2
 70
0
 10
2252.101000
 20
1282.476685
 30
0.0
 10
2252.101000
 20
1229.565685
 30
0.0
  0
LWPOLYLINE
  5
187
100
AcDbEntity
  8
SECTION_JOG_LINES
 62
7
100
AcDbPolyline
 90
2
 70
0
 10
2199.188000
 20
1282.476685
 30
0.0
 10
2252.101000
 20
1282.476685
 30
0.0
  0
LWPOLYLINE
  5
188
100
AcDbEntity
  8
SECTION_JOG_LINES
 62
7
100
AcDbPolyline
 90
2
 70
0
 10
2199.188000
 20
1229.565685
 30
0.0
 10
2199.188000
 20
1282.476685
 30
0.0
  0
LWPOLYLINE
  5
189
100
AcDbEntity
  8
SECTION_JOG_LINES
 62
7
100
AcDbPolyline
 90
2
 70
0
 10
2252.101000
 20
1157.753685
 30
0.0
 10
2199.188000
 20
1157.753685
 30
0.0
  0
LWPOLYLINE
  5
18a
100
AcDbEntity
  8
SECTION_JOG_LINES
 62
7
100
AcDbPolyline
 90
2
 70
0
 10
2252.101000
 20
1210.667685
 30
0.0
 10
2252.101000
 20
1157.753685
 30
0.0
  0
LWPOLYLINE
  5
18b
100
AcDbEntity
  8
SECTION_JOG_LINES
 62
7
100
AcDbPolyline
 90
2
 70
0
 10
2199.188000
 20
1210.667685
 30
0.0
 10
2252.101000
 20
1210.667685
 30
0.0
  0
LWPOLYLINE
  5
18c
100
AcDbEntity
  8
SECTION_JOG_LINES
 62
7
100
AcDbPolyline
 90
2
 70
0
 10
2199.188000
 20
1157.753685
 30
0.0
 10
2199.188000
 20
1210.667685
 30
0.0
  0
LWPOLYLINE
  5
18d
100
AcDbEntity
  8
SECTION_JOG_LINES
 62
7
100
AcDbPolyline
 90
2
 70
0
 10
1840.121000
 20
1292.436685
 30
0.0
 10
1840.121000
 20
1345.356685
 30
0.0
  0
LWPOLYLINE
  5
18e
100
AcDbEntity
  8
SECTION_JOG_LINES
 62
7
100
AcDbPolyline
 90
2
 70
0
 10
1893.034000
 20
1292.436685
 30
0.0
 10
1840.121000
 20
1292.436685
 30
0.0
  0
LWPOLYLINE
  5
18f
100
AcDbEntity
  8
SECTION_JOG_LINES
 62
7
100
AcDbPolyline
 90
2
 70
0
 10
1893.034000
 20
1345.356685
 30
0.0
 10
1893.034000
 20
1292.436685
 30
0.0
  0
LWPOLYLINE
  5
190
100
AcDbEntity
  8
SECTION_JOG_LINES
 62
7
100
AcDbPolyline
 90
2
 70
0
 10
1840.121000
 20
1345.356685
 30
0.0
 10
1893.034000
 20
1345.356685
 30
0.0
  0
LWPOLYLINE
  5
191
100
AcDbEntity
  8
SECTION_JOG_LINES
 62
7
100
AcDbPolyline
 90
2
 70
0
 10
1893.034000
 20
1273.536685
 30
0.0
 10
1893.034000
 20
1220.627685
 30
0.0
  0
LWPOLYLINE
  5
192
100
AcDbEntity
  8
SECTION_JOG_LINES
 62
7
100
AcDbPolyline
 90
2
 70
0
 10
1840.121000
 20
1273.536685
 30
0.0
 10
1893.034000
 20
1273.536685
 30
0.0
  0
LWPOLYLINE
  5
193
100
AcDbEntity
  8
SECTION_JOG_LINES
 62
7
100
AcDbPolyline
 90
2
 70
0
 10
1840.121000
 20
1220.627685
 30
0.0
 10
1840.121000
 20
1273.536685
 30
0.0
  0
LWPOLYLINE
  5
194
100
AcDbEntity
  8
SECTION_JOG_LINES
 62
7
100
AcDbPolyline
 90
2
 70
0
 10
1893.034000
 20
1220.627685
 30
0.0
 10
1840.121000
 20
1220.627685
 30
0.0
  0
LWPOLYLINE
  5
195
100
AcDbEntity
  8
SECTION_JOG_LINES
 62
7
100
AcDbPolyline
 90
2
 70
0
 10
2108.468000
 20
1300.466685
 30
0.0
 10
2108.468000
 20
1247.553685
 30
0.0
  0
LWPOLYLINE
  5
196
100
AcDbEntity
  8
SECTION_JOG_LINES
 62
7
100
AcDbPolyline
 90
2
 70
0
 10
2055.554000
 20
1300.466685
 30
0.0
 10
2108.468000
 20
1300.466685
 30
0.0
  0
LWPOLYLINE
  5
197
100
AcDbEntity
  8
SECTION_JOG_LINES
 62
7
100
AcDbPolyline
 90
2
 70
0
 10
2055.554000
 20
1247.553685
 30
0.0
 10
2055.554000
 20
1300.466685
 30
0.0
  0
LWPOLYLINE
  5
198
100
AcDbEntity
  8
SECTION_JOG_LINES
 62
7
100
AcDbPolyline
 90
2
 70
0
 10
2108.468000
 20
1247.553685
 30
0.0
 10
2055.554000
 20
1247.553685
 30
0.0
  0
LWPOLYLINE
  5
199
100
AcDbEntity
  8
SECTION_JOG_LINES
 62
7
100
AcDbPolyline
 90
2
 70
0
 10
2271.661000
 20
1130.688685
 30
0.0
 10
2317.484000
 20
1104.231685
 30
0.0
  0
LWPOLYLINE
  5
19a
100
AcDbEntity
  8
SECTION_JOG_LINES
 62
7
100
AcDbPolyline
 90
2
 70
0
 10
2245.205000
 20
1084.864685
 30
0.0
 10
2271.661000
 20
1130.688685
 30
0.0
  0
LWPOLYLINE
  5
19b
100
AcDbEntity
  8
SECTION_JOG_LINES
 62
7
100
AcDbPolyline
 90
2
 70
0
 10
2291.029000
 20
1058.407685
 30
0.0
 10
2245.205000
 20
1084.864685
 30
0.0
  0
LWPOLYLINE
  5
19c
100
AcDbEntity
  8
SECTION_JOG_LINES
 62
7
100
AcDbPolyline
 90
2
 70
0
 10
2317.484000
 20
1104.231685
 30
0.0
 10
2291.029000
 20
1058.407685
 30
0.0
  0
LWPOLYLINE
  5
19d
100
AcDbEntity
  8
SECTION_JOG_LINES
 62
7
100
AcDbPolyline
 90
2
 70
0
 10
2127.370000
 20
1310.386685
 30
0.0
 10
2127.370000
 20
1363.306685
 30
0.0
  0
LWPOLYLINE
  5
19e
100
AcDbEntity
  8
SECTION_JOG_LINES
 62
7
100
AcDbPolyline
 90
2
 70
0
 10
2180.284000
 20
1310.386685
 30
0.0
 10
2127.370000
 20
1310.386685
 30
0.0
  0
LWPOLYLINE
  5
19f
100
AcDbEntity
  8
SECTION_JOG_LINES
 62
7
100
AcDbPolyline
 90
2
 70
0
 10
2180.284000
 20
1363.306685
 30
0.0
 10
2180.284000
 20
1310.386685
 30
0.0
  0
LWPOLYLINE
  5
1a0
100
AcDbEntity
  8
SECTION_JOG_LINES
 62
7
100
AcDbPolyline
 90
2
 70
0
 10
2127.370000
 20
1363.306685
 30
0.0
 10
2180.284000
 20
1363.306685
 30
0.0
  0
LWPOLYLINE
  5
1a1
100
AcDbEntity
  8
SECTION_JOG_LINES
 62
7
100
AcDbPolyline
 90
2
 70
0
 10
1983.737000
 20
1166.751685
 30
0.0
 10
1983.737000
 20
1219.665685
 30
0.0
  0
LWPOLYLINE
  5
1a2
100
AcDbEntity
  8
SECTION_JOG_LINES
 62
7
100
AcDbPolyline
 90
2
 70
0
 10
2036.650000
 20
1166.751685
 30
0.0
 10
1983.737000
 20
1166.751685
 30
0.0
  0
LWPOLYLINE
  5
1a3
100
AcDbEntity
  8
SECTION_JOG_LINES
 62
7
100
AcDbPolyline
 90
2
 70
0
 10
2036.650000
 20
1219.665685
 30
0.0
 10
2036.650000
 20
1166.751685
 30
0.0
  0
LWPOLYLINE
  5
1a4
100
AcDbEntity
  8
SECTION_JOG_LINES
 62
7
100
AcDbPolyline
 90
2
 70
0
 10
1983.737000
 20
1219.665685
 30
0.0
 10
2036.650000
 20
1219.665685
 30
0.0
  0
LWPOLYLINE
  5
1a5
100
AcDbEntity
  8
SECTION_JOG_LINES
 62
7
100
AcDbPolyline
 90
2
 70
0
 10
2108.468000
 20
1319.366685
 30
0.0
 10
2055.554000
 20
1319.366685
 30
0.0
  0
LWPOLYLINE
  5
1a6
100
AcDbEntity
  8
SECTION_JOG_LINES
 62
7
100
AcDbPolyline
 90
2
 70
0
 10
2108.468000
 20
1372.276685
 30
0.0
 10
2108.468000
 20
1319.366685
 30
0.0
  0
LWPOLYLINE
  5
1a7
100
AcDbEntity
  8
SECTION_JOG_LINES
 62
7
100
AcDbPolyline
 90
2
 70
0
 10
2055.554000
 20
1372.276685
 30
0.0
 10
2108.468000
 20
1372.276685
 30
0.0
  0
LWPOLYLINE
  5
1a8
100
AcDbEntity
  8
SECTION_JOG_LINES
 62
7
100
AcDbPolyline
 90
2
 70
0
 10
2055.554000
 20
1319.366685
 30
0.0
 10
2055.554000
 20
1372.276685
 30
0.0
  0
LWPOLYLINE
  5
1a9
100
AcDbEntity
  8
SECTION_JOG_LINES
 62
7
100
AcDbPolyline
 90
2
 70
0
 10
1983.737000
 20
1238.562685
 30
0.0
 10
1983.737000
 20
1291.476685
 30
0.0
  0
LWPOLYLINE
  5
1aa
100
AcDbEntity
  8
SECTION_JOG_LINES
 62
7
100
AcDbPolyline
 90
2
 70
0
 10
2036.650000
 20
1238.562685
 30
0.0
 10
1983.737000
 20
1238.562685
 30
0.0
  0
LWPOLYLINE
  5
1ab
100
AcDbEntity
  8
SECTION_JOG_LINES
 62
7
100
AcDbPolyline
 90
2
 70
0
 10
2036.650000
 20
1291.476685
 30
0.0
 10
2036.650000
 20
1238.562685
 30
0.0
  0
LWPOLYLINE
  5
1ac
100
AcDbEntity
  8
SECTION_JOG_LINES
 62
7
100
AcDbPolyline
 90
2
 70
0
 10
1983.737000
 20
1291.476685
 30
0.0
 10
2036.650000
 20
1291.476685
 30
0.0
  0
LWPOLYLINE
  5
1ad
100
AcDbEntity
  8
SECTION_JOG_LINES
 62
7
100
AcDbPolyline
 90
2
 70
0
 10
1964.838000
 20
1345.356685
 30
0.0
 10
1964.838000
 20
1292.436685
 30
0.0
  0
LWPOLYLINE
  5
1ae
100
AcDbEntity
  8
SECTION_JOG_LINES
 62
7
100
AcDbPolyline
 90
2
 70
0
 10
1911.925000
 20
1345.356685
 30
0.0
 10
1964.838000
 20
1345.356685
 30
0.0
  0
LWPOLYLINE
  5
1af
100
AcDbEntity
  8
SECTION_JOG_LINES
 62
7
100
AcDbPolyline
 90
2
 70
0
 10
1911.925000
 20
1292.436685
 30
0.0
 10
1911.925000
 20
1345.356685
 30
0.0
  0
LWPOLYLINE
  5
1b0
100
AcDbEntity
  8
SECTION_JOG_LINES
 62
7
100
AcDbPolyline
 90
2
 70
0
 10
1964.838000
 20
1292.436685
 30
0.0
 10
1911.925000
 20
1292.436685
 30
0.0
  0
LWPOLYLINE
  5
1b1
100
AcDbEntity
  8
SECTION_JOG_LINES
 62
7
100
AcDbPolyline
 90
2
 70
0
 10
1911.925000
 20
1220.627685
 30
0.0
 10
1911.925000
 20
1273.536685
 30
0.0
  0
LWPOLYLINE
  5
1b2
100
AcDbEntity
  8
SECTION_JOG_LINES
 62
7
100
AcDbPolyline
 90
2
 70
0
 10
1964.838000
 20
1220.627685
 30
0.0
 10
1911.925000
 20
1220.627685
 30
0.0
  0
LWPOLYLINE
  5
1b3
100
AcDbEntity
  8
SECTION_JOG_LINES
 62
7
100
AcDbPolyline
 90
2
 70
0
 10
1964.838000
 20
1273.536685
 30
0.0
 10
1964.838000
 20
1220.627685
 30
0.0
  0
LWPOLYLINE
  5
1b4
100
AcDbEntity
  8
SECTION_JOG_LINES
 62
7
100
AcDbPolyline
 90
2
 70
0
 10
1911.925000
 20
1273.536685
 30
0.0
 10
1964.838000
 20
1273.536685
 30
0.0
  0
LWPOLYLINE
  5
1b5
100
AcDbEntity
  8
SECTION_JOG_LINES
 62
7
100
AcDbPolyline
 90
2
 70
0
 10
1964.838000
 20
1148.815685
 30
0.0
 10
1911.925000
 20
1148.815685
 30
0.0
  0
LWPOLYLINE
  5
1b6
100
AcDbEntity
  8
SECTION_JOG_LINES
 62
7
100
AcDbPolyline
 90
2
 70
0
 10
1964.838000
 20
1201.729685
 30
0.0
 10
1964.838000
 20
1148.815685
 30
0.0
  0
LWPOLYLINE
  5
1b7
100
AcDbEntity
  8
SECTION_JOG_LINES
 62
7
100
AcDbPolyline
 90
2
 70
0
 10
1911.925000
 20
1201.729685
 30
0.0
 10
1964.838000
 20
1201.729685
 30
0.0
  0
LWPOLYLINE
  5
1b8
100
AcDbEntity
  8
SECTION_JOG_LINES
 62
7
100
AcDbPolyline
 90
2
 70
0
 10
1911.925000
 20
1148.815685
 30
0.0
 10
1911.925000
 20
1201.729685
 30
0.0
  0
LWPOLYLINE
  5
1b9
100
AcDbEntity
  8
SECTION_JOG_LINES
 62
7
100
AcDbPolyline
 90
2
 70
0
 10
2144.448000
 20
1092.470685
 30
0.0
 10
2091.534000
 20
1092.470685
 30
0.0
  0
LWPOLYLINE
  5
1ba
100
AcDbEntity
  8
SECTION_JOG_LINES
 62
7
100
AcDbPolyline
 90
2
 70
0
 10
2144.448000
 20
1145.385685
 30
0.0
 10
2144.448000
 20
1092.470685
 30
0.0
  0
LWPOLYLINE
  5
1bb
100
AcDbEntity
  8
SECTION_JOG_LINES
 62
7
100
AcDbPolyline
 90
2
 70
0
 10
2091.534000
 20
1145.385685
 30
0.0
 10
2144.448000
 20
1145.385685
 30
0.0
  0
LWPOLYLINE
  5
1bc
100
AcDbEntity
  8
SECTION_JOG_LINES
 62
7
100
AcDbPolyline
 90
2
 70
0
 10
2091.534000
 20
1092.470685
 30
0.0
 10
2091.534000
 20
1145.385685
 30
0.0
  0
LWPOLYLINE
  5
1bd
100
AcDbEntity
  8
SECTION_JOG_LINES
 62
7
100
AcDbPolyline
 90
2
 70
0
 10
2127.370000
 20
1238.579685
 30
0.0
 10
2127.370000
 20
1291.496685
 30
0.0
  0
LWPOLYLINE
  5
1be
100
AcDbEntity
  8
SECTION_JOG_LINES
 62
7
100
AcDbPolyline
 90
2
 70
0
 10
2180.284000
 20
1238.579685
 30
0.0
 10
2127.370000
 20
1238.579685
 30
0.0
  0
LWPOLYLINE
  5
1bf
100
AcDbEntity
  8
SECTION_JOG_LINES
 62
7
100
AcDbPolyline
 90
2
 70
0
 10
2180.284000
 20
1291.496685
 30
0.0
 10
2180.284000
 20
1238.579685
 30
0.0
  0
LWPOLYLINE
  5
1c0
100
AcDbEntity
  8
SECTION_JOG_LINES
 62
7
100
AcDbPolyline
 90
2
 70
0
 10
2127.370000
 20
1291.496685
 30
0.0
 10
2180.284000
 20
1291.496685
 30
0.0
  0
LWPOLYLINE
  5
1c1
100
AcDbEntity
  8
SECTION_JOG_LINES
 62
7
100
AcDbPolyline
 90
2
 70
0
 10
1893.034000
 20
1148.815685
 30
0.0
 10
1840.121000
 20
1148.815685
 30
0.0
  0
LWPOLYLINE
  5
1c2
100
AcDbEntity
  8
SECTION_JOG_LINES
 62
7
100
AcDbPolyline
 90
2
 70
0
 10
1893.034000
 20
1201.729685
 30
0.0
 10
1893.034000
 20
1148.815685
 30
0.0
  0
LWPOLYLINE
  5
1c3
100
AcDbEntity
  8
SECTION_JOG_LINES
 62
7
100
AcDbPolyline
 90
2
 70
0
 10
1840.121000
 20
1201.729685
 30
0.0
 10
1893.034000
 20
1201.729685
 30
0.0
  0
LWPOLYLINE
  5
1c4
100
AcDbEntity
  8
SECTION_JOG_LINES
 62
7
100
AcDbPolyline
 90
2
 70
0
 10
1840.121000
 20
1148.815685
 30
0.0
 10
1840.121000
 20
1201.729685
 30
0.0
  0
LWPOLYLINE
  5
1c5
100
AcDbEntity
  8
SECTION_JOG_LINES
 62
7
100
AcDbPolyline
 90
2
 70
0
 10
2164.817000
 20
1089.975685
 30
0.0
 10
2178.512000
 20
1141.086685
 30
0.0
  0
LWPOLYLINE
  5
1c6
100
AcDbEntity
  8
SECTION_JOG_LINES
 62
7
100
AcDbPolyline
 90
2
 70
0
 10
2215.928000
 20
1076.280685
 30
0.0
 10
2164.817000
 20
1089.975685
 30
0.0
  0
LWPOLYLINE
  5
1c7
100
AcDbEntity
  8
SECTION_JOG_LINES
 62
7
100
AcDbPolyline
 90
2
 70
0
 10
2229.623000
 20
1127.391685
 30
0.0
 10
2215.928000
 20
1076.280685
 30
0.0
  0
LWPOLYLINE
  5
1c8
100
AcDbEntity
  8
SECTION_JOG_LINES
 62
7
100
AcDbPolyline
 90
2
 70
0
 10
2178.512000
 20
1141.086685
 30
0.0
 10
2229.623000
 20
1127.391685
 30
0.0
  0
LWPOLYLINE
  5
1c9
100
AcDbEntity
  8
SECTION_JOG_LINES
 62
7
100
AcDbPolyline
 90
2
 70
0
 10
2108.468000
 20
1175.743685
 30
0.0
 10
2055.554000
 20
1175.743685
 30
0.0
  0
LWPOLYLINE
  5
1ca
100
AcDbEntity
  8
SECTION_JOG_LINES
 62
7
100
AcDbPolyline
 90
2
 70
0
 10
2108.468000
 20
1228.657685
 30
0.0
 10
2108.468000
 20
1175.743685
 30
0.0
  0
LWPOLYLINE
  5
1cb
100
AcDbEntity
  8
SECTION_JOG_LINES
 62
7
100
AcDbPolyline
 90
2
 70
0
 10
2055.554000
 20
1228.657685
 30
0.0
 10
2108.468000
 20
1228.657685
 30
0.0
  0
LWPOLYLINE
  5
1cc
100
AcDbEntity
  8
SECTION_JOG_LINES
 62
7
100
AcDbPolyline
 90
2
 70
0
 10
2055.554000
 20
1175.743685
 30
0.0
 10
2055.554000
 20
1228.657685
 30
0.0
  0
LWPOLYLINE
  5
1cd
100
AcDbEntity
  8
SECTION_JOG_LINES
 62
7
100
AcDbPolyline
 90
2
 70
0
 10
2036.650000
 20
1363.286685
 30
0.0
 10
2036.650000
 20
1310.376685
 30
0.0
  0
LWPOLYLINE
  5
1ce
100
AcDbEntity
  8
SECTION_JOG_LINES
 62
7
100
AcDbPolyline
 90
2
 70
0
 10
1983.737000
 20
1363.286685
 30
0.0
 10
2036.650000
 20
1363.286685
 30
0.0
  0
LWPOLYLINE
  5
1cf
100
AcDbEntity
  8
SECTION_JOG_LINES
 62
7
100
AcDbPolyline
 90
2
 70
0
 10
1983.737000
 20
1310.376685
 30
0.0
 10
1983.737000
 20
1363.286685
 30
0.0
  0
LWPOLYLINE
  5
1d0
100
AcDbEntity
  8
SECTION_JOG_LINES
 62
7
100
AcDbPolyline
 90
2
 70
0
 10
2036.650000
 20
1310.376685
 30
0.0
 10
1983.737000
 20
1310.376685
 30
0.0
  0
LWPOLYLINE
  5
1d1
100
AcDbEntity
  8
SECTION_JOG_LINES
 62
7
100
AcDbPolyline
 90
2
 70
0
 10
2252.101000
 20
1354.286685
 30
0.0
 10
2252.101000
 20
1301.376685
 30
0.0
  0
LWPOLYLINE
  5
1d2
100
AcDbEntity
  8
SECTION_JOG_LINES
 62
7
100
AcDbPolyline
 90
2
 70
0
 10
2199.188000
 20
1354.286685
 30
0.0
 10
2252.101000
 20
1354.286685
 30
0.0
  0
LWPOLYLINE
  5
1d3
100
AcDbEntity
  8
SECTION_JOG_LINES
 62
7
100
AcDbPolyline
 90
2
 70
0
 10
2199.188000
 20
1301.376685
 30
0.0
 10
2199.188000
 20
1354.286685
 30
0.0
  0
LWPOLYLINE
  5
1d4
100
AcDbEntity
  8
SECTION_JOG_LINES
 62
7
100
AcDbPolyline
 90
2
 70
0
 10
2252.101000
 20
1301.376685
 30
0.0
 10
2199.188000
 20
1301.376685
 30
0.0
  0
LWPOLYLINE
  5
1d5
100
AcDbEntity
  8
SECTION_JOG_LINES
 62
7
100
AcDbPolyline
 90
2
 70
0
 10
2127.370000
 20
1219.681685
 30
0.0
 10
2180.284000
 20
1219.681685
 30
0.0
  0
LWPOLYLINE
  5
1d6
100
AcDbEntity
  8
SECTION_JOG_LINES
 62
7
100
AcDbPolyline
 90
2
 70
0
 10
2127.370000
 20
1166.767685
 30
0.0
 10
2127.370000
 20
1219.681685
 30
0.0
  0
LWPOLYLINE
  5
1d7
100
AcDbEntity
  8
SECTION_JOG_LINES
 62
7
100
AcDbPolyline
 90
2
 70
0
 10
2180.284000
 20
1166.767685
 30
0.0
 10
2127.370000
 20
1166.767685
 30
0.0
  0
LWPOLYLINE
  5
1d8
100
AcDbEntity
  8
SECTION_JOG_LINES
 62
7
100
AcDbPolyline
 90
2
 70
0
 10
2180.284000
 20
1219.681685
 30
0.0
 10
2180.284000
 20
1166.767685
 30
0.0
  0
SPLINE
  5
1d9
100
AcDbEntity
  8
SECTION_JOG_LINES
 62
7
100
AcDbSpline
 70
8
 71
3
 72
8
 73
4
 74
0
 40
0
 40
0
 40
0
 40
0
 40
1
 40
1
 40
1
 40
1
 10
2069.553400
 20
1147.182195
 30
0.0
 10
2069.550772
 20
1145.096680
 30
0.0
 10
2067.859391
 20
1143.407429
 30
0.0
 10
2065.773875
 20
1143.407429
 30
0.0
  0
SPLINE
  5
1da
100
AcDbEntity
  8
SECTION_JOG_LINES
 62
7
100
AcDbSpline
 70
8
 71
3
 72
8
 73
4
 74
0
 40
0
 40
0
 40
0
 40
0
 40
1
 40
1
 40
1
 40
1
 10
2065.773875
 20
1143.407429
 30
0.0
 10
2063.688359
 20
1143.407429
 30
0.0
 10
2061.996978
 20
1145.096680
 30
0.0
 10
2061.994350
 20
1147.182195
 30
0.0
  0
SPLINE
  5
1db
100
AcDbEntity
  8
SECTION_JOG_LINES
 62
7
100
AcDbSpline
 70
8
 71
3
 72
8
 73
4
 74
0
 40
0
 40
0
 40
0
 40
0
 40
1
 40
1
 40
1
 40
1
 10
2061.994350
 20
1147.182195
 30
0.0
 10
2061.996978
 20
1149.267710
 30
0.0
 10
2063.688359
 20
1150.956961
 30
0.0
 10
2065.773875
 20
1150.956961
 30
0.0
  0
SPLINE
  5
1dc
100
AcDbEntity
  8
SECTION_JOG_LINES
 62
7
100
AcDbSpline
 70
8
 71
3
 72
8
 73
4
 74
0
 40
0
 40
0
 40
0
 40
0
 40
1
 40
1
 40
1
 40
1
 10
2065.773875
 20
1150.956961
 30
0.0
 10
2067.859391
 20
1150.956961
 30
0.0
 10
2069.550772
 20
1149.267710
 30
0.0
 10
2069.553400
 20
1147.182195
 30
0.0
  0
LWPOLYLINE
  5
1dd
100
AcDbEntity
  8
SECTION_JOG_LINES
 62
7
100
AcDbPolyline
 90
17
 70
1
 10
2043.226000
 20
1140.774685
 30
0.0
 10
1832.522000
 20
1140.774685
 30
0.0
 10
1832.522000
 20
1353.376685
 30
0.0
 10
1976.147000
 20
1353.376685
 30
0.0
 10
1976.147000
 20
1371.326685
 30
0.0
 10
2047.955000
 20
1371.326685
 30
0.0
 10
2047.955000
 20
1379.836685
 30
0.0
 10
2115.990000
 20
1379.836685
 30
0.0
 10
2115.990000
 20
1371.326685
 30
0.0
 10
2187.798000
 20
1371.326685
 30
0.0
 10
2187.798000
 20
1361.876685
 30
0.0
 10
2261.498000
 20
1361.876685
 30
0.0
 10
2261.498000
 20
1166.049685
 30
0.0
 10
2338.314000
 20
1121.719685
 30
0.0
 10
2286.385000
 20
1031.541685
 30
0.0
 10
2225.506000
 20
1066.725685
 30
0.0
 10
2083.784000
 20
1085.160685
 30
0.0
  0
SPLINE
  5
1de
100
AcDbEntity
  8
SECTION_JOG_LINES
 62
7
100
AcDbSpline
 70
8
 71
3
 72
8
 73
4
 74
0
 40
0
 40
0
 40
0
 40
0
 40
1
 40
1
 40
1
 40
1
 10
2245.550880
 20
1118.402985
 30
0.0
 10
2245.548252
 20
1116.317470
 30
0.0
 10
2243.856871
 20
1114.628219
 30
0.0
 10
2241.771355
 20
1114.628219
 30
0.0
  0
SPLINE
  5
1df
100
AcDbEntity
  8
SECTION_JOG_LINES
 62
7
100
AcDbSpline
 70
8
 71
3
 72
8
 73
4
 74
0
 40
0
 40
0
 40
0
 40
0
 40
1
 40
1
 40
1
 40
1
 10
2241.771355
 20
1114.628219
 30
0.0
 10
2239.685839
 20
1114.628219
 30
0.0
 10
2237.994458
 20
1116.317470
 30
0.0
 10
2237.991830
 20
1118.402985
 30
0.0
  0
SPLINE
  5
1e0
100
AcDbEntity
  8
SECTION_JOG_LINES
 62
7
100
AcDbSpline
 70
8
 71
3
 72
8
 73
4
 74
0
 40
0
 40
0
 40
0
 40
0
 40
1
 40
1
 40
1
 40
1
 10
2237.991830
 20
1118.402985
 30
0.0
 10
2237.994458
 20
1120.488500
 30
0.0
 10
2239.685839
 20
1122.177751
 30
0.0
 10
2241.771355
 20
1122.177751
 30
0.0
  0
SPLINE
  5
1e1
100
AcDbEntity
  8
SECTION_JOG_LINES
 62
7
100
AcDbSpline
 70
8
 71
3
 72
8
 73
4
 74
0
 40
0
 40
0
 40
0
 40
0
 40
1
 40
1
 40
1
 40
1
 10
2241.771355
 20
1122.177751
 30
0.0
 10
2243.856871
 20
1122.177751
 30
0.0
 10
2245.548252
 20
1120.488500
 30
0.0
 10
2245.550880
 20
1118.402985
 30
0.0
  0
LWPOLYLINE
  5
1e2
100
AcDbEntity
  8
SECTION_JOG_LINES
 62
7
100
AcDbPolyline
 90
1
 70
1
 10
2069.553400
 20
1147.182195
 30
0.0
  0
SPLINE
  5
1e3
100
AcDbEntity
  8
SECTION_JOG_LINES
 62
7
100
AcDbSpline
 70
8
 71
3
 72
8
 73
4
 74
0
 40
0
 40
0
 40
0
 40
0
 40
1
 40
1
 40
1
 40
1
 10
2193.563480
 20
1297.437285
 30
0.0
 10
2193.560852
 20
1295.351770
 30
0.0
 10
2191.869471
 20
1293.662519
 30
0.0
 10
2189.783955
 20
1293.662519
 30
0.0
  0
SPLINE
  5
1e4
100
AcDbEntity
  8
SECTION_JOG_LINES
 62
7
100
AcDbSpline
 70
8
 71
3
 72
8
 73
4
 74
0
 40
0
 40
0
 40
0
 40
0
 40
1
 40
1
 40
1
 40
1
 10
2189.783955
 20
1293.662519
 30
0.0
 10
2187.698439
 20
1293.662519
 30
0.0
 10
2186.007058
 20
1295.351770
 30
0.0
 10
2186.004430
 20
1297.437285
 30
0.0
  0
SPLINE
  5
1e5
100
AcDbEntity
  8
SECTION_JOG_LINES
 62
7
100
AcDbSpline
 70
8
 71
3
 72
8
 73
4
 74
0
 40
0
 40
0
 40
0
 40
0
 40
1
 40
1
 40
1
 40
1
 10
2186.004430
 20
1297.437285
 30
0.0
 10
2186.007058
 20
1299.522800
 30
0.0
 10
2187.698439
 20
1301.212051
 30
0.0
 10
2189.783955
 20
1301.212051
 30
0.0
  0
SPLINE
  5
1e6
100
AcDbEntity
  8
SECTION_JOG_LINES
 62
7
100
AcDbSpline
 70
8
 71
3
 72
8
 73
4
 74
0
 40
0
 40
0
 40
0
 40
0
 40
1
 40
1
 40
1
 40
1
 10
2189.783955
 20
1301.212051
 30
0.0
 10
2191.869471
 20
1301.212051
 30
0.0
 10
2193.560852
 20
1299.522800
 30
0.0
 10
2193.563480
 20
1297.437285
 30
0.0
  0
LWPOLYLINE
  5
1e7
100
AcDbEntity
  8
SECTION_JOG_LINES
 62
7
100
AcDbPolyline
 90
1
 70
1
 10
2245.550880
 20
1118.402985
 30
0.0
  0
SPLINE
  5
1e8
100
AcDbEntity
  8
SECTION_JOG_LINES
 62
7
100
AcDbSpline
 70
8
 71
3
 72
8
 73
4
 74
0
 40
0
 40
0
 40
0
 40
0
 40
1
 40
1
 40
1
 40
1
 10
2806.831370
 20
1366.075745
 30
0.0
 10
2806.661190
 20
1365.782835
 30
0.0
 10
2806.352480
 20
1365.574585
 30
0.0
 10
2806.018470
 20
1365.523885
 30
0.0
  0
SPLINE
  5
1e9
100
AcDbEntity
  8
SECTION_JOG_LINES
 62
7
100
AcDbSpline
 70
8
 71
3
 72
8
 73
4
 74
0
 40
0
 40
0
 40
0
 40
0
 40
1
 40
1
 40
1
 40
1
 10
2806.018470
 20
1365.523885
 30
0.0
 10
2805.767970
 20
1365.485885
 30
0.0
 10
2805.503230
 20
1365.536485
 30
0.0
 10
2805.283200
 20
1365.663585
 30
0.0
  0
SPLINE
  5
1ea
100
AcDbEntity
  8
SECTION_JOG_LINES
 62
7
100
AcDbSpline
 70
8
 71
3
 72
8
 73
4
 74
0
 40
0
 40
0
 40
0
 40
0
 40
1
 40
1
 40
1
 40
1
 10
2494.451360
 20
1266.992185
 30
0.0
 10
2494.451360
 20
1265.641889
 30
0.0
 10
2493.730986
 20
1264.394164
 30
0.0
 10
2492.561595
 20
1263.719016
 30
0.0
  0
SPLINE
  5
1eb
100
AcDbEntity
  8
SECTION_JOG_LINES
 62
7
100
AcDbSpline
 70
8
 71
3
 72
8
 73
4
 74
0
 40
0
 40
0
 40
0
 40
0
 40
1
 40
1
 40
1
 40
1
 10
2492.561595
 20
1263.719016
 30
0.0
 10
2491.392204
 20
1263.043868
 30
0.0
 10
2489.951456
 20
1263.043868
 30
0.0
 10
2488.782065
 20
1263.719016
 30
0.0
  0
SPLINE
  5
1ec
100
AcDbEntity
  8
SECTION_JOG_LINES
 62
7
100
AcDbSpline
 70
8
 71
3
 72
8
 73
4
 74
0
 40
0
 40
0
 40
0
 40
0
 40
1
 40
1
 40
1
 40
1
 10
2488.782065
 20
1263.719016
 30
0.0
 10
2487.612674
 20
1264.394164
 30
0.0
 10
2486.892300
 20
1265.641889
 30
0.0
 10
2486.892300
 20
1266.992185
 30
0.0
  0
SPLINE
  5
1ed
100
AcDbEntity
  8
SECTION_JOG_LINES
 62
7
100
AcDbSpline
 70
8
 71
3
 72
8
 73
4
 74
0
 40
0
 40
0
 40
0
 40
0
 40
1
 40
1
 40
1
 40
1
 10
2486.892300
 20
1266.992185
 30
0.0
 10
2486.892300
 20
1268.342481
 30
0.0
 10
2487.612674
 20
1269.590206
 30
0.0
 10
2488.782065
 20
1270.265354
 30
0.0
  0
SPLINE
  5
1ee
100
AcDbEntity
  8
SECTION_JOG_LINES
 62
7
100
AcDbSpline
 70
8
 71
3
 72
8
 73
4
 74
0
 40
0
 40
0
 40
0
 40
0
 40
1
 40
1
 40
1
 40
1
 10
2488.782065
 20
1270.265354
 30
0.0
 10
2489.951456
 20
1270.940502
 30
0.0
 10
2491.392204
 20
1270.940502
 30
0.0
 10
2492.561595
 20
1270.265354
 30
0.0
  0
SPLINE
  5
1ef
100
AcDbEntity
  8
SECTION_JOG_LINES
 62
7
100
AcDbSpline
 70
8
 71
3
 72
8
 73
4
 74
0
 40
0
 40
0
 40
0
 40
0
 40
1
 40
1
 40
1
 40
1
 10
2492.561595
 20
1270.265354
 30
0.0
 10
2493.730986
 20
1269.590206
 30
0.0
 10
2494.451360
 20
1268.342481
 30
0.0
 10
2494.451360
 20
1266.992185
 30
0.0
  0
LWPOLYLINE
  5
1f0
100
AcDbEntity
  8
SECTION_JOG_LINES
 62
7
100
AcDbPolyline
 90
1
 70
1
 10
2193.563480
 20
1297.437285
 30
0.0
  0
LWPOLYLINE
  5
1f1
100
AcDbEntity
  8
SECTION_JOG_LINES
 62
7
100
AcDbPolyline
 90
1
 70
1
 10
2494.451360
 20
1266.992185
 30
0.0
  0
LWPOLYLINE
  5
1f2
100
AcDbEntity
  8
SECTION_JOG_LINES
 62
7
100
AcDbPolyline
 90
2
 70
0
 10
2768.301000
 20
1212.403685
 30
0.0
 10
2715.388000
 20
1212.403685
 30
0.0
  0
LWPOLYLINE
  5
1f3
100
AcDbEntity
  8
SECTION_JOG_LINES
 62
7
100
AcDbPolyline
 90
2
 70
0
 10
2768.301000
 20
1265.314685
 30
0.0
 10
2768.301000
 20
1212.403685
 30
0.0
  0
LWPOLYLINE
  5
1f4
100
AcDbEntity
  8
SECTION_JOG_LINES
 62
7
100
AcDbPolyline
 90
2
 70
0
 10
2715.388000
 20
1265.314685
 30
0.0
 10
2768.301000
 20
1265.314685
 30
0.0
  0
LWPOLYLINE
  5
1f5
100
AcDbEntity
  8
SECTION_JOG_LINES
 62
7
100
AcDbPolyline
 90
2
 70
0
 10
2715.388000
 20
1212.403685
 30
0.0
 10
2715.388000
 20
1265.314685
 30
0.0
  0
LWPOLYLINE
  5
1f6
100
AcDbEntity
  8
SECTION_JOG_LINES
 62
7
100
AcDbPolyline
 90
2
 70
0
 10
2768.301000
 20
1140.591685
 30
0.0
 10
2715.388000
 20
1140.591685
 30
0.0
  0
LWPOLYLINE
  5
1f7
100
AcDbEntity
  8
SECTION_JOG_LINES
 62
7
100
AcDbPolyline
 90
2
 70
0
 10
2768.301000
 20
1193.505685
 30
0.0
 10
2768.301000
 20
1140.591685
 30
0.0
  0
LWPOLYLINE
  5
1f8
100
AcDbEntity
  8
SECTION_JOG_LINES
 62
7
100
AcDbPolyline
 90
2
 70
0
 10
2715.388000
 20
1193.505685
 30
0.0
 10
2768.301000
 20
1193.505685
 30
0.0
  0
LWPOLYLINE
  5
1f9
100
AcDbEntity
  8
SECTION_JOG_LINES
 62
7
100
AcDbPolyline
 90
2
 70
0
 10
2715.388000
 20
1140.591685
 30
0.0
 10
2715.388000
 20
1193.505685
 30
0.0
  0
LWPOLYLINE
  5
1fa
100
AcDbEntity
  8
SECTION_JOG_LINES
 62
7
100
AcDbPolyline
 90
2
 70
0
 10
2356.321000
 20
1275.274685
 30
0.0
 10
2356.321000
 20
1328.194685
 30
0.0
  0
LWPOLYLINE
  5
1fb
100
AcDbEntity
  8
SECTION_JOG_LINES
 62
7
100
AcDbPolyline
 90
2
 70
0
 10
2409.234000
 20
1275.274685
 30
0.0
 10
2356.321000
 20
1275.274685
 30
0.0
  0
LWPOLYLINE
  5
1fc
100
AcDbEntity
  8
SECTION_JOG_LINES
 62
7
100
AcDbPolyline
 90
2
 70
0
 10
2409.234000
 20
1328.194685
 30
0.0
 10
2409.234000
 20
1275.274685
 30
0.0
  0
LWPOLYLINE
  5
1fd
100
AcDbEntity
  8
SECTION_JOG_LINES
 62
7
100
AcDbPolyline
 90
2
 70
0
 10
2356.321000
 20
1328.194685
 30
0.0
 10
2409.234000
 20
1328.194685
 30
0.0
  0
LWPOLYLINE
  5
1fe
100
AcDbEntity
  8
SECTION_JOG_LINES
 62
7
100
AcDbPolyline
 90
2
 70
0
 10
2409.234000
 20
1256.374685
 30
0.0
 10
2409.234000
 20
1203.465685
 30
0.0
  0
LWPOLYLINE
  5
1ff
100
AcDbEntity
  8
SECTION_JOG_LINES
 62
7
100
AcDbPolyline
 90
2
 70
0
 10
2356.321000
 20
1256.374685
 30
0.0
 10
2409.234000
 20
1256.374685
 30
0.0
  0
LWPOLYLINE
  5
200
100
AcDbEntity
  8
SECTION_JOG_LINES
 62
7
100
AcDbPolyline
 90
2
 70
0
 10
2356.321000
 20
1203.465685
 30
0.0
 10
2356.321000
 20
1256.374685
 30
0.0
  0
LWPOLYLINE
  5
201
100
AcDbEntity
  8
SECTION_JOG_LINES
 62
7
100
AcDbPolyline
 90
2
 70
0
 10
2409.234000
 20
1203.465685
 30
0.0
 10
2356.321000
 20
1203.465685
 30
0.0
  0
LWPOLYLINE
  5
202
100
AcDbEntity
  8
SECTION_JOG_LINES
 62
7
100
AcDbPolyline
 90
2
 70
0
 10
2624.668000
 20
1283.304685
 30
0.0
 10
2624.668000
 20
1230.391685
 30
0.0
  0
LWPOLYLINE
  5
203
100
AcDbEntity
  8
SECTION_JOG_LINES
 62
7
100
AcDbPolyline
 90
2
 70
0
 10
2571.754000
 20
1283.304685
 30
0.0
 10
2624.668000
 20
1283.304685
 30
0.0
  0
LWPOLYLINE
  5
204
100
AcDbEntity
  8
SECTION_JOG_LINES
 62
7
100
AcDbPolyline
 90
2
 70
0
 10
2571.754000
 20
1230.391685
 30
0.0
 10
2571.754000
 20
1283.304685
 30
0.0
  0
LWPOLYLINE
  5
205
100
AcDbEntity
  8
SECTION_JOG_LINES
 62
7
100
AcDbPolyline
 90
2
 70
0
 10
2624.668000
 20
1230.391685
 30
0.0
 10
2571.754000
 20
1230.391685
 30
0.0
  0
LWPOLYLINE
  5
206
100
AcDbEntity
  8
SECTION_JOG_LINES
 62
7
100
AcDbPolyline
 90
2
 70
0
 10
2787.861000
 20
1113.526685
 30
0.0
 10
2833.684000
 20
1087.069685
 30
0.0
  0
LWPOLYLINE
  5
207
100
AcDbEntity
  8
SECTION_JOG_LINES
 62
7
100
AcDbPolyline
 90
2
 70
0
 10
2761.405000
 20
1067.702685
 30
0.0
 10
2787.861000
 20
1113.526685
 30
0.0
  0
LWPOLYLINE
  5
208
100
AcDbEntity
  8
SECTION_JOG_LINES
 62
7
100
AcDbPolyline
 90
2
 70
0
 10
2807.229000
 20
1041.245685
 30
0.0
 10
2761.405000
 20
1067.702685
 30
0.0
  0
LWPOLYLINE
  5
209
100
AcDbEntity
  8
SECTION_JOG_LINES
 62
7
100
AcDbPolyline
 90
2
 70
0
 10
2833.684000
 20
1087.069685
 30
0.0
 10
2807.229000
 20
1041.245685
 30
0.0
  0
LWPOLYLINE
  5
20a
100
AcDbEntity
  8
SECTION_JOG_LINES
 62
7
100
AcDbPolyline
 90
2
 70
0
 10
2643.570000
 20
1293.224685
 30
0.0
 10
2643.570000
 20
1346.144685
 30
0.0
  0
LWPOLYLINE
  5
20b
100
AcDbEntity
  8
SECTION_JOG_LINES
 62
7
100
AcDbPolyline
 90
2
 70
0
 10
2696.484000
 20
1293.224685
 30
0.0
 10
2643.570000
 20
1293.224685
 30
0.0
  0
LWPOLYLINE
  5
20c
100
AcDbEntity
  8
SECTION_JOG_LINES
 62
7
100
AcDbPolyline
 90
2
 70
0
 10
2696.484000
 20
1346.144685
 30
0.0
 10
2696.484000
 20
1293.224685
 30
0.0
  0
LWPOLYLINE
  5
20d
100
AcDbEntity
  8
SECTION_JOG_LINES
 62
7
100
AcDbPolyline
 90
2
 70
0
 10
2643.570000
 20
1346.144685
 30
0.0
 10
2696.484000
 20
1346.144685
 30
0.0
  0
LWPOLYLINE
  5
20e
100
AcDbEntity
  8
SECTION_JOG_LINES
 62
7
100
AcDbPolyline
 90
2
 70
0
 10
2499.937000
 20
1149.589685
 30
0.0
 10
2499.937000
 20
1202.503685
 30
0.0
  0
LWPOLYLINE
  5
20f
100
AcDbEntity
  8
SECTION_JOG_LINES
 62
7
100
AcDbPolyline
 90
2
 70
0
 10
2552.850000
 20
1149.589685
 30
0.0
 10
2499.937000
 20
1149.589685
 30
0.0
  0
LWPOLYLINE
  5
210
100
AcDbEntity
  8
SECTION_JOG_LINES
 62
7
100
AcDbPolyline
 90
2
 70
0
 10
2552.850000
 20
1202.503685
 30
0.0
 10
2552.850000
 20
1149.589685
 30
0.0
  0
LWPOLYLINE
  5
211
100
AcDbEntity
  8
SECTION_JOG_LINES
 62
7
100
AcDbPolyline
 90
2
 70
0
 10
2499.937000
 20
1202.503685
 30
0.0
 10
2552.850000
 20
1202.503685
 30
0.0
  0
LWPOLYLINE
  5
212
100
AcDbEntity
  8
SECTION_JOG_LINES
 62
7
100
AcDbPolyline
 90
2
 70
0
 10
2624.668000
 20
1302.204685
 30
0.0
 10
2571.754000
 20
1302.204685
 30
0.0
  0
LWPOLYLINE
  5
213
100
AcDbEntity
  8
SECTION_JOG_LINES
 62
7
100
AcDbPolyline
 90
2
 70
0
 10
2624.668000
 20
1355.114685
 30
0.0
 10
2624.668000
 20
1302.204685
 30
0.0
  0
LWPOLYLINE
  5
214
100
AcDbEntity
  8
SECTION_JOG_LINES
 62
7
100
AcDbPolyline
 90
2
 70
0
 10
2571.754000
 20
1355.114685
 30
0.0
 10
2624.668000
 20
1355.114685
 30
0.0
  0
LWPOLYLINE
  5
215
100
AcDbEntity
  8
SECTION_JOG_LINES
 62
7
100
AcDbPolyline
 90
2
 70
0
 10
2571.754000
 20
1302.204685
 30
0.0
 10
2571.754000
 20
1355.114685
 30
0.0
  0
LWPOLYLINE
  5
216
100
AcDbEntity
  8
SECTION_JOG_LINES
 62
7
100
AcDbPolyline
 90
2
 70
0
 10
2499.937000
 20
1221.400685
 30
0.0
 10
2499.937000
 20
1274.314685
 30
0.0
  0
LWPOLYLINE
  5
217
100
AcDbEntity
  8
SECTION_JOG_LINES
 62
7
100
AcDbPolyline
 90
2
 70
0
 10
2552.850000
 20
1221.400685
 30
0.0
 10
2499.937000
 20
1221.400685
 30
0.0
  0
LWPOLYLINE
  5
218
100
AcDbEntity
  8
SECTION_JOG_LINES
 62
7
100
AcDbPolyline
 90
2
 70
0
 10
2552.850000
 20
1274.314685
 30
0.0
 10
2552.850000
 20
1221.400685
 30
0.0
  0
LWPOLYLINE
  5
219
100
AcDbEntity
  8
SECTION_JOG_LINES
 62
7
100
AcDbPolyline
 90
2
 70
0
 10
2499.937000
 20
1274.314685
 30
0.0
 10
2552.850000
 20
1274.314685
 30
0.0
  0
LWPOLYLINE
  5
21a
100
AcDbEntity
  8
SECTION_JOG_LINES
 62
7
100
AcDbPolyline
 90
2
 70
0
 10
2481.038000
 20
1328.194685
 30
0.0
 10
2481.038000
 20
1275.274685
 30
0.0
  0
LWPOLYLINE
  5
21b
100
AcDbEntity
  8
SECTION_JOG_LINES
 62
7
100
AcDbPolyline
 90
2
 70
0
 10
2428.125000
 20
1328.194685
 30
0.0
 10
2481.038000
 20
1328.194685
 30
0.0
  0
LWPOLYLINE
  5
21c
100
AcDbEntity
  8
SECTION_JOG_LINES
 62
7
100
AcDbPolyline
 90
2
 70
0
 10
2428.125000
 20
1275.274685
 30
0.0
 10
2428.125000
 20
1328.194685
 30
0.0
  0
LWPOLYLINE
  5
21d
100
AcDbEntity
  8
SECTION_JOG_LINES
 62
7
100
AcDbPolyline
 90
2
 70
0
 10
2481.038000
 20
1275.274685
 30
0.0
 10
2428.125000
 20
1275.274685
 30
0.0
  0
LWPOLYLINE
  5
21e
100
AcDbEntity
  8
SECTION_JOG_LINES
 62
7
100
AcDbPolyline
 90
2
 70
0
 10
2428.125000
 20
1203.465685
 30
0.0
 10
2428.125000
 20
1256.374685
 30
0.0
  0
LWPOLYLINE
  5
21f
100
AcDbEntity
  8
SECTION_JOG_LINES
 62
7
100
AcDbPolyline
 90
2
 70
0
 10
2481.038000
 20
1203.465685
 30
0.0
 10
2428.125000
 20
1203.465685
 30
0.0
  0
LWPOLYLINE
  5
220
100
AcDbEntity
  8
SECTION_JOG_LINES
 62
7
100
AcDbPolyline
 90
2
 70
0
 10
2481.038000
 20
1256.374685
 30
0.0
 10
2481.038000
 20
1203.465685
 30
0.0
  0
LWPOLYLINE
  5
221
100
AcDbEntity
  8
SECTION_JOG_LINES
 62
7
100
AcDbPolyline
 90
2
 70
0
 10
2428.125000
 20
1256.374685
 30
0.0
 10
2481.038000
 20
1256.374685
 30
0.0
  0
LWPOLYLINE
  5
222
100
AcDbEntity
  8
SECTION_JOG_LINES
 62
7
100
AcDbPolyline
 90
2
 70
0
 10
2481.038000
 20
1131.653685
 30
0.0
 10
2428.125000
 20
1131.653685
 30
0.0
  0
LWPOLYLINE
  5
223
100
AcDbEntity
  8
SECTION_JOG_LINES
 62
7
100
AcDbPolyline
 90
2
 70
0
 10
2481.038000
 20
1184.567685
 30
0.0
 10
2481.038000
 20
1131.653685
 30
0.0
  0
LWPOLYLINE
  5
224
100
AcDbEntity
  8
SECTION_JOG_LINES
 62
7
100
AcDbPolyline
 90
2
 70
0
 10
2428.125000
 20
1184.567685
 30
0.0
 10
2481.038000
 20
1184.567685
 30
0.0
  0
LWPOLYLINE
  5
225
100
AcDbEntity
  8
SECTION_JOG_LINES
 62
7
100
AcDbPolyline
 90
2
 70
0
 10
2428.125000
 20
1131.653685
 30
0.0
 10
2428.125000
 20
1184.567685
 30
0.0
  0
LWPOLYLINE
  5
226
100
AcDbEntity
  8
SECTION_JOG_LINES
 62
7
100
AcDbPolyline
 90
2
 70
0
 10
2660.648000
 20
1075.308685
 30
0.0
 10
2607.734000
 20
1075.308685
 30
0.0
  0
LWPOLYLINE
  5
227
100
AcDbEntity
  8
SECTION_JOG_LINES
 62
7
100
AcDbPolyline
 90
2
 70
0
 10
2660.648000
 20
1128.223685
 30
0.0
 10
2660.648000
 20
1075.308685
 30
0.0
  0
LWPOLYLINE
  5
228
100
AcDbEntity
  8
SECTION_JOG_LINES
 62
7
100
AcDbPolyline
 90
2
 70
0
 10
2607.734000
 20
1128.223685
 30
0.0
 10
2660.648000
 20
1128.223685
 30
0.0
  0
LWPOLYLINE
  5
229
100
AcDbEntity
  8
SECTION_JOG_LINES
 62
7
100
AcDbPolyline
 90
2
 70
0
 10
2607.734000
 20
1075.308685
 30
0.0
 10
2607.734000
 20
1128.223685
 30
0.0
  0
LWPOLYLINE
  5
22a
100
AcDbEntity
  8
SECTION_JOG_LINES
 62
7
100
AcDbPolyline
 90
2
 70
0
 10
2643.570000
 20
1221.417685
 30
0.0
 10
2643.570000
 20
1274.334685
 30
0.0
  0
LWPOLYLINE
  5
22b
100
AcDbEntity
  8
SECTION_JOG_LINES
 62
7
100
AcDbPolyline
 90
2
 70
0
 10
2696.484000
 20
1221.417685
 30
0.0
 10
2643.570000
 20
1221.417685
 30
0.0
  0
LWPOLYLINE
  5
22c
100
AcDbEntity
  8
SECTION_JOG_LINES
 62
7
100
AcDbPolyline
 90
2
 70
0
 10
2696.484000
 20
1274.334685
 30
0.0
 10
2696.484000
 20
1221.417685
 30
0.0
  0
LWPOLYLINE
  5
22d
100
AcDbEntity
  8
SECTION_JOG_LINES
 62
7
100
AcDbPolyline
 90
2
 70
0
 10
2643.570000
 20
1274.334685
 30
0.0
 10
2696.484000
 20
1274.334685
 30
0.0
  0
LWPOLYLINE
  5
22e
100
AcDbEntity
  8
SECTION_JOG_LINES
 62
7
100
AcDbPolyline
 90
2
 70
0
 10
2409.234000
 20
1131.653685
 30
0.0
 10
2356.321000
 20
1131.653685
 30
0.0
  0
LWPOLYLINE
  5
22f
100
AcDbEntity
  8
SECTION_JOG_LINES
 62
7
100
AcDbPolyline
 90
2
 70
0
 10
2409.234000
 20
1184.567685
 30
0.0
 10
2409.234000
 20
1131.653685
 30
0.0
  0
LWPOLYLINE
  5
230
100
AcDbEntity
  8
SECTION_JOG_LINES
 62
7
100
AcDbPolyline
 90
2
 70
0
 10
2356.321000
 20
1184.567685
 30
0.0
 10
2409.234000
 20
1184.567685
 30
0.0
  0
LWPOLYLINE
  5
231
100
AcDbEntity
  8
SECTION_JOG_LINES
 62
7
100
AcDbPolyline
 90
2
 70
0
 10
2356.321000
 20
1131.653685
 30
0.0
 10
2356.321000
 20
1184.567685
 30
0.0
  0
LWPOLYLINE
  5
232
100
AcDbEntity
  8
SECTION_JOG_LINES
 62
7
100
AcDbPolyline
 90
2
 70
0
 10
2681.017000
 20
1072.813685
 30
0.0
 10
2694.712000
 20
1123.924685
 30
0.0
  0
LWPOLYLINE
  5
233
100
AcDbEntity
  8
SECTION_JOG_LINES
 62
7
100
AcDbPolyline
 90
2
 70
0
 10
2732.128000
 20
1059.118685
 30
0.0
 10
2681.017000
 20
1072.813685
 30
0.0
  0
LWPOLYLINE
  5
234
100
AcDbEntity
  8
SECTION_JOG_LINES
 62
7
100
AcDbPolyline
 90
2
 70
0
 10
2745.823000
 20
1110.229685
 30
0.0
 10
2732.128000
 20
1059.118685
 30
0.0
  0
LWPOLYLINE
  5
235
100
AcDbEntity
  8
SECTION_JOG_LINES
 62
7
100
AcDbPolyline
 90
2
 70
0
 10
2694.712000
 20
1123.924685
 30
0.0
 10
2745.823000
 20
1110.229685
 30
0.0
  0
LWPOLYLINE
  5
236
100
AcDbEntity
  8
SECTION_JOG_LINES
 62
7
100
AcDbPolyline
 90
2
 70
0
 10
2624.668000
 20
1158.581685
 30
0.0
 10
2571.754000
 20
1158.581685
 30
0.0
  0
LWPOLYLINE
  5
237
100
AcDbEntity
  8
SECTION_JOG_LINES
 62
7
100
AcDbPolyline
 90
2
 70
0
 10
2624.668000
 20
1211.495685
 30
0.0
 10
2624.668000
 20
1158.581685
 30
0.0
  0
LWPOLYLINE
  5
238
100
AcDbEntity
  8
SECTION_JOG_LINES
 62
7
100
AcDbPolyline
 90
2
 70
0
 10
2571.754000
 20
1211.495685
 30
0.0
 10
2624.668000
 20
1211.495685
 30
0.0
  0
LWPOLYLINE
  5
239
100
AcDbEntity
  8
SECTION_JOG_LINES
 62
7
100
AcDbPolyline
 90
2
 70
0
 10
2571.754000
 20
1158.581685
 30
0.0
 10
2571.754000
 20
1211.495685
 30
0.0
  0
LWPOLYLINE
  5
23a
100
AcDbEntity
  8
SECTION_JOG_LINES
 62
7
100
AcDbPolyline
 90
2
 70
0
 10
2552.850000
 20
1346.124685
 30
0.0
 10
2552.850000
 20
1293.214685
 30
0.0
  0
LWPOLYLINE
  5
23b
100
AcDbEntity
  8
SECTION_JOG_LINES
 62
7
100
AcDbPolyline
 90
2
 70
0
 10
2499.937000
 20
1346.124685
 30
0.0
 10
2552.850000
 20
1346.124685
 30
0.0
  0
LWPOLYLINE
  5
23c
100
AcDbEntity
  8
SECTION_JOG_LINES
 62
7
100
AcDbPolyline
 90
2
 70
0
 10
2499.937000
 20
1293.214685
 30
0.0
 10
2499.937000
 20
1346.124685
 30
0.0
  0
LWPOLYLINE
  5
23d
100
AcDbEntity
  8
SECTION_JOG_LINES
 62
7
100
AcDbPolyline
 90
2
 70
0
 10
2552.850000
 20
1293.214685
 30
0.0
 10
2499.937000
 20
1293.214685
 30
0.0
  0
LWPOLYLINE
  5
23e
100
AcDbEntity
  8
SECTION_JOG_LINES
 62
7
100
AcDbPolyline
 90
2
 70
0
 10
2768.301000
 20
1337.124685
 30
0.0
 10
2768.301000
 20
1284.214685
 30
0.0
  0
LWPOLYLINE
  5
23f
100
AcDbEntity
  8
SECTION_JOG_LINES
 62
7
100
AcDbPolyline
 90
2
 70
0
 10
2715.388000
 20
1337.124685
 30
0.0
 10
2768.301000
 20
1337.124685
 30
0.0
  0
LWPOLYLINE
  5
240
100
AcDbEntity
  8
SECTION_JOG_LINES
 62
7
100
AcDbPolyline
 90
2
 70
0
 10
2715.388000
 20
1284.214685
 30
0.0
 10
2715.388000
 20
1337.124685
 30
0.0
  0
LWPOLYLINE
  5
241
100
AcDbEntity
  8
SECTION_JOG_LINES
 62
7
100
AcDbPolyline
 90
2
 70
0
 10
2768.301000
 20
1284.214685
 30
0.0
 10
2715.388000
 20
1284.214685
 30
0.0
  0
LWPOLYLINE
  5
242
100
AcDbEntity
  8
SECTION_JOG_LINES
 62
7
100
AcDbPolyline
 90
2
 70
0
 10
2643.570000
 20
1202.519685
 30
0.0
 10
2696.484000
 20
1202.519685
 30
0.0
  0
LWPOLYLINE
  5
243
100
AcDbEntity
  8
SECTION_JOG_LINES
 62
7
100
AcDbPolyline
 90
2
 70
0
 10
2643.570000
 20
1149.605685
 30
0.0
 10
2643.570000
 20
1202.519685
 30
0.0
  0
LWPOLYLINE
  5
244
100
AcDbEntity
  8
SECTION_JOG_LINES
 62
7
100
AcDbPolyline
 90
2
 70
0
 10
2696.484000
 20
1149.605685
 30
0.0
 10
2643.570000
 20
1149.605685
 30
0.0
  0
LWPOLYLINE
  5
245
100
AcDbEntity
  8
SECTION_JOG_LINES
 62
7
100
AcDbPolyline
 90
2
 70
0
 10
2696.484000
 20
1202.519685
 30
0.0
 10
2696.484000
 20
1149.605685
 30
0.0
  0
SPLINE
  5
246
100
AcDbEntity
  8
SECTION_JOG_LINES
 62
7
100
AcDbSpline
 70
8
 71
3
 72
8
 73
4
 74
0
 40
0
 40
0
 40
0
 40
0
 40
1
 40
1
 40
1
 40
1
 10
2585.753400
 20
1130.020195
 30
0.0
 10
2585.750772
 20
1127.934680
 30
0.0
 10
2584.059391
 20
1126.245429
 30
0.0
 10
2581.973875
 20
1126.245429
 30
0.0
  0
SPLINE
  5
247
100
AcDbEntity
  8
SECTION_JOG_LINES
 62
7
100
AcDbSpline
 70
8
 71
3
 72
8
 73
4
 74
0
 40
0
 40
0
 40
0
 40
0
 40
1
 40
1
 40
1
 40
1
 10
2581.973875
 20
1126.245429
 30
0.0
 10
2579.888359
 20
1126.245429
 30
0.0
 10
2578.196978
 20
1127.934680
 30
0.0
 10
2578.194350
 20
1130.020195
 30
0.0
  0
SPLINE
  5
248
100
AcDbEntity
  8
SECTION_JOG_LINES
 62
7
100
AcDbSpline
 70
8
 71
3
 72
8
 73
4
 74
0
 40
0
 40
0
 40
0
 40
0
 40
1
 40
1
 40
1
 40
1
 10
2578.194350
 20
1130.020195
 30
0.0
 10
2578.196978
 20
1132.105710
 30
0.0
 10
2579.888359
 20
1133.794961
 30
0.0
 10
2581.973875
 20
1133.794961
 30
0.0
  0
SPLINE
  5
249
100
AcDbEntity
  8
SECTION_JOG_LINES
 62
7
100
AcDbSpline
 70
8
 71
3
 72
8
 73
4
 74
0
 40
0
 40
0
 40
0
 40
0
 40
1
 40
1
 40
1
 40
1
 10
2581.973875
 20
1133.794961
 30
0.0
 10
2584.059391
 20
1133.794961
 30
0.0
 10
2585.750772
 20
1132.105710
 30
0.0
 10
2585.753400
 20
1130.020195
 30
0.0
  0
LWPOLYLINE
  5
24a
100
AcDbEntity
  8
SECTION_JOG_LINES
 62
7
100
AcDbPolyline
 90
17
 70
1
 10
2559.426000
 20
1123.612685
 30
0.0
 10
2348.722000
 20
1123.612685
 30
0.0
 10
2348.722000
 20
1336.214685
 30
0.0
 10
2492.347000
 20
1336.214685
 30
0.0
 10
2492.347000
 20
1354.164685
 30
0.0
 10
2564.155000
 20
1354.164685
 30
0.0
 10
2564.155000
 20
1362.674685
 30
0.0
 10
2632.190000
 20
1362.674685
 30
0.0
 10
2632.190000
 20
1354.164685
 30
0.0
 10
2703.998000
 20
1354.164685
 30
0.0
 10
2703.998000
 20
1344.714685
 30
0.0
 10
2777.698000
 20
1344.714685
 30
0.0
 10
2777.698000
 20
1148.887685
 30
0.0
 10
2854.514000
 20
1104.557685
 30
0.0
 10
2802.585000
 20
1014.379685
 30
0.0
 10
2741.706000
 20
1049.563685
 30
0.0
 10
2599.984000
 20
1067.998685
 30
0.0
  0
SPLINE
  5
24b
100
AcDbEntity
  8
SECTION_JOG_LINES
 62
7
100
AcDbSpline
 70
8
 71
3
 72
8
 73
4
 74
0
 40
0
 40
0
 40
0
 40
0
 40
1
 40
1
 40
1
 40
1
 10
2761.750880
 20
1101.240985
 30
0.0
 10
2761.748252
 20
1099.155470
 30
0.0
 10
2760.056871
 20
1097.466219
 30
0.0
 10
2757.971355
 20
1097.466219
 30
0.0
  0
SPLINE
  5
24c
100
AcDbEntity
  8
SECTION_JOG_LINES
 62
7
100
AcDbSpline
 70
8
 71
3
 72
8
 73
4
 74
0
 40
0
 40
0
 40
0
 40
0
 40
1
 40
1
 40
1
 40
1
 10
2757.971355
 20
1097.466219
 30
0.0
 10
2755.885839
 20
1097.466219
 30
0.0
 10
2754.194458
 20
1099.155470
 30
0.0
 10
2754.191830
 20
1101.240985
 30
0.0
  0
SPLINE
  5
24d
100
AcDbEntity
  8
SECTION_JOG_LINES
 62
7
100
AcDbSpline
 70
8
 71
3
 72
8
 73
4
 74
0
 40
0
 40
0
 40
0
 40
0
 40
1
 40
1
 40
1
 40
1
 10
2754.191830
 20
1101.240985
 30
0.0
 10
2754.194458
 20
1103.326500
 30
0.0
 10
2755.885839
 20
1105.015751
 30
0.0
 10
2757.971355
 20
1105.015751
 30
0.0
  0
SPLINE
  5
24e
100
AcDbEntity
  8
SECTION_JOG_LINES
 62
7
100
AcDbSpline
 70
8
 71
3
 72
8
 73
4
 74
0
 40
0
 40
0
 40
0
 40
0
 40
1
 40
1
 40
1
 40
1
 10
2757.971355
 20
1105.015751
 30
0.0
 10
2760.056871
 20
1105.015751
 30
0.0
 10
2761.748252
 20
1103.326500
 30
0.0
 10
2761.750880
 20
1101.240985
 30
0.0
  0
LWPOLYLINE
  5
24f
100
AcDbEntity
  8
SECTION_JOG_LINES
 62
7
100
AcDbPolyline
 90
1
 70
1
 10
2585.753400
 20
1130.020195
 30
0.0
  0
SPLINE
  5
250
100
AcDbEntity
  8
SECTION_JOG_LINES
 62
7
100
AcDbSpline
 70
8
 71
3
 72
8
 73
4
 74
0
 40
0
 40
0
 40
0
 40
0
 40
1
 40
1
 40
1
 40
1
 10
2709.763480
 20
1280.275285
 30
0.0
 10
2709.760852
 20
1278.189770
 30
0.0
 10
2708.069471
 20
1276.500519
 30
0.0
 10
2705.983955
 20
1276.500519
 30
0.0
  0
SPLINE
  5
251
100
AcDbEntity
  8
SECTION_JOG_LINES
 62
7
100
AcDbSpline
 70
8
 71
3
 72
8
 73
4
 74
0
 40
0
 40
0
 40
0
 40
0
 40
1
 40
1
 40
1
 40
1
 10
2705.983955
 20
1276.500519
 30
0.0
 10
2703.898439
 20
1276.500519
 30
0.0
 10
2702.207058
 20
1278.189770
 30
0.0
 10
2702.204430
 20
1280.275285
 30
0.0
  0
SPLINE
  5
252
100
AcDbEntity
  8
SECTION_JOG_LINES
 62
7
100
AcDbSpline
 70
8
 71
3
 72
8
 73
4
 74
0
 40
0
 40
0
 40
0
 40
0
 40
1
 40
1
 40
1
 40
1
 10
2702.204430
 20
1280.275285
 30
0.0
 10
2702.207058
 20
1282.360800
 30
0.0
 10
2703.898439
 20
1284.050051
 30
0.0
 10
2705.983955
 20
1284.050051
 30
0.0
  0
SPLINE
  5
253
100
AcDbEntity
  8
SECTION_JOG_LINES
 62
7
100
AcDbSpline
 70
8
 71
3
 72
8
 73
4
 74
0
 40
0
 40
0
 40
0
 40
0
 40
1
 40
1
 40
1
 40
1
 10
2705.983955
 20
1284.050051
 30
0.0
 10
2708.069471
 20
1284.050051
 30
0.0
 10
2709.760852
 20
1282.360800
 30
0.0
 10
2709.763480
 20
1280.275285
 30
0.0
  0
LWPOLYLINE
  5
254
100
AcDbEntity
  8
SECTION_JOG_LINES
 62
7
100
AcDbPolyline
 90
1
 70
1
 10
2761.750880
 20
1101.240985
 30
0.0
  0
SPLINE
  5
255
100
AcDbEntity
  8
SECTION_JOG_LINES
 62
7
100
AcDbSpline
 70
8
 71
3
 72
8
 73
4
 74
0
 40
0
 40
0
 40
0
 40
0
 40
1
 40
1
 40
1
 40
1
 10
1808.651370
 20
1363.847745
 30
0.0
 10
1808.481190
 20
1363.554835
 30
0.0
 10
1808.172480
 20
1363.346585
 30
0.0
 10
1807.838470
 20
1363.295885
 30
0.0
  0
SPLINE
  5
256
100
AcDbEntity
  8
SECTION_JOG_LINES
 62
7
100
AcDbSpline
 70
8
 71
3
 72
8
 73
4
 74
0
 40
0
 40
0
 40
0
 40
0
 40
1
 40
1
 40
1
 40
1
 10
1807.838470
 20
1363.295885
 30
0.0
 10
1807.587970
 20
1363.257885
 30
0.0
 10
1807.323230
 20
1363.308485
 30
0.0
 10
1807.103200
 20
1363.435585
 30
0.0
  0
SPLINE
  5
257
100
AcDbEntity
  8
SECTION_JOG_LINES
 62
7
100
AcDbSpline
 70
8
 71
3
 72
8
 73
4
 74
0
 40
0
 40
0
 40
0
 40
0
 40
1
 40
1
 40
1
 40
1
 10
1496.271360
 20
1264.764185
 30
0.0
 10
1496.271360
 20
1263.413889
 30
0.0
 10
1495.550986
 20
1262.166164
 30
0.0
 10
1494.381595
 20
1261.491016
 30
0.0
  0
SPLINE
  5
258
100
AcDbEntity
  8
SECTION_JOG_LINES
 62
7
100
AcDbSpline
 70
8
 71
3
 72
8
 73
4
 74
0
 40
0
 40
0
 40
0
 40
0
 40
1
 40
1
 40
1
 40
1
 10
1494.381595
 20
1261.491016
 30
0.0
 10
1493.212204
 20
1260.815868
 30
0.0
 10
1491.771456
 20
1260.815868
 30
0.0
 10
1490.602065
 20
1261.491016
 30
0.0
  0
SPLINE
  5
259
100
AcDbEntity
  8
SECTION_JOG_LINES
 62
7
100
AcDbSpline
 70
8
 71
3
 72
8
 73
4
 74
0
 40
0
 40
0
 40
0
 40
0
 40
1
 40
1
 40
1
 40
1
 10
1490.602065
 20
1261.491016
 30
0.0
 10
1489.432674
 20
1262.166164
 30
0.0
 10
1488.712300
 20
1263.413889
 30
0.0
 10
1488.712300
 20
1264.764185
 30
0.0
  0
SPLINE
  5
25a
100
AcDbEntity
  8
SECTION_JOG_LINES
 62
7
100
AcDbSpline
 70
8
 71
3
 72
8
 73
4
 74
0
 40
0
 40
0
 40
0
 40
0
 40
1
 40
1
 40
1
 40
1
 10
1488.712300
 20
1264.764185
 30
0.0
 10
1488.712300
 20
1266.114481
 30
0.0
 10
1489.432674
 20
1267.362206
 30
0.0
 10
1490.602065
 20
1268.037354
 30
0.0
  0
SPLINE
  5
25b
100
AcDbEntity
  8
SECTION_JOG_LINES
 62
7
100
AcDbSpline
 70
8
 71
3
 72
8
 73
4
 74
0
 40
0
 40
0
 40
0
 40
0
 40
1
 40
1
 40
1
 40
1
 10
1490.602065
 20
1268.037354
 30
0.0
 10
1491.771456
 20
1268.712502
 30
0.0
 10
1493.212204
 20
1268.712502
 30
0.0
 10
1494.381595
 20
1268.037354
 30
0.0
  0
SPLINE
  5
25c
100
AcDbEntity
  8
SECTION_JOG_LINES
 62
7
100
AcDbSpline
 70
8
 71
3
 72
8
 73
4
 74
0
 40
0
 40
0
 40
0
 40
0
 40
1
 40
1
 40
1
 40
1
 10
1494.381595
 20
1268.037354
 30
0.0
 10
1495.550986
 20
1267.362206
 30
0.0
 10
1496.271360
 20
1266.114481
 30
0.0
 10
1496.271360
 20
1264.764185
 30
0.0
  0
LWPOLYLINE
  5
25d
100
AcDbEntity
  8
SECTION_JOG_LINES
 62
7
100
AcDbPolyline
 90
1
 70
1
 10
2709.763480
 20
1280.275285
 30
0.0
  0
LWPOLYLINE
  5
25e
100
AcDbEntity
  8
SECTION_JOG_LINES
 62
7
100
AcDbPolyline
 90
1
 70
1
 10
1496.271360
 20
1264.764185
 30
0.0
  0
LWPOLYLINE
  5
25f
100
AcDbEntity
  8
SECTION_JOG_LINES
 62
7
100
AcDbPolyline
 90
2
 70
0
 10
1770.121000
 20
1210.175685
 30
0.0
 10
1717.208000
 20
1210.175685
 30
0.0
  0
LWPOLYLINE
  5
260
100
AcDbEntity
  8
SECTION_JOG_LINES
 62
7
100
AcDbPolyline
 90
2
 70
0
 10
1770.121000
 20
1263.086685
 30
0.0
 10
1770.121000
 20
1210.175685
 30
0.0
  0
LWPOLYLINE
  5
261
100
AcDbEntity
  8
SECTION_JOG_LINES
 62
7
100
AcDbPolyline
 90
2
 70
0
 10
1717.208000
 20
1263.086685
 30
0.0
 10
1770.121000
 20
1263.086685
 30
0.0
  0
LWPOLYLINE
  5
262
100
AcDbEntity
  8
SECTION_JOG_LINES
 62
7
100
AcDbPolyline
 90
2
 70
0
 10
1717.208000
 20
1210.175685
 30
0.0
 10
1717.208000
 20
1263.086685
 30
0.0
  0
LWPOLYLINE
  5
263
100
AcDbEntity
  8
SECTION_JOG_LINES
 62
7
100
AcDbPolyline
 90
2
 70
0
 10
1770.121000
 20
1138.363685
 30
0.0
 10
1717.208000
 20
1138.363685
 30
0.0
  0
LWPOLYLINE
  5
264
100
AcDbEntity
  8
SECTION_JOG_LINES
 62
7
100
AcDbPolyline
 90
2
 70
0
 10
1770.121000
 20
1191.277685
 30
0.0
 10
1770.121000
 20
1138.363685
 30
0.0
  0
LWPOLYLINE
  5
265
100
AcDbEntity
  8
SECTION_JOG_LINES
 62
7
100
AcDbPolyline
 90
2
 70
0
 10
1717.208000
 20
1191.277685
 30
0.0
 10
1770.121000
 20
1191.277685
 30
0.0
  0
LWPOLYLINE
  5
266
100
AcDbEntity
  8
SECTION_JOG_LINES
 62
7
100
AcDbPolyline
 90
2
 70
0
 10
1717.208000
 20
1138.363685
 30
0.0
 10
1717.208000
 20
1191.277685
 30
0.0
  0
LWPOLYLINE
  5
267
100
AcDbEntity
  8
SECTION_JOG_LINES
 62
7
100
AcDbPolyline
 90
2
 70
0
 10
1358.141000
 20
1273.046685
 30
0.0
 10
1358.141000
 20
1325.966685
 30
0.0
  0
LWPOLYLINE
  5
268
100
AcDbEntity
  8
SECTION_JOG_LINES
 62
7
100
AcDbPolyline
 90
2
 70
0
 10
1411.054000
 20
1273.046685
 30
0.0
 10
1358.141000
 20
1273.046685
 30
0.0
  0
LWPOLYLINE
  5
269
100
AcDbEntity
  8
SECTION_JOG_LINES
 62
7
100
AcDbPolyline
 90
2
 70
0
 10
1411.054000
 20
1325.966685
 30
0.0
 10
1411.054000
 20
1273.046685
 30
0.0
  0
LWPOLYLINE
  5
26a
100
AcDbEntity
  8
SECTION_JOG_LINES
 62
7
100
AcDbPolyline
 90
2
 70
0
 10
1358.141000
 20
1325.966685
 30
0.0
 10
1411.054000
 20
1325.966685
 30
0.0
  0
LWPOLYLINE
  5
26b
100
AcDbEntity
  8
SECTION_JOG_LINES
 62
7
100
AcDbPolyline
 90
2
 70
0
 10
1411.054000
 20
1254.146685
 30
0.0
 10
1411.054000
 20
1201.237685
 30
0.0
  0
LWPOLYLINE
  5
26c
100
AcDbEntity
  8
SECTION_JOG_LINES
 62
7
100
AcDbPolyline
 90
2
 70
0
 10
1358.141000
 20
1254.146685
 30
0.0
 10
1411.054000
 20
1254.146685
 30
0.0
  0
LWPOLYLINE
  5
26d
100
AcDbEntity
  8
SECTION_JOG_LINES
 62
7
100
AcDbPolyline
 90
2
 70
0
 10
1358.141000
 20
1201.237685
 30
0.0
 10
1358.141000
 20
1254.146685
 30
0.0
  0
LWPOLYLINE
  5
26e
100
AcDbEntity
  8
SECTION_JOG_LINES
 62
7
100
AcDbPolyline
 90
2
 70
0
 10
1411.054000
 20
1201.237685
 30
0.0
 10
1358.141000
 20
1201.237685
 30
0.0
  0
LWPOLYLINE
  5
26f
100
AcDbEntity
  8
SECTION_JOG_LINES
 62
7
100
AcDbPolyline
 90
2
 70
0
 10
1626.488000
 20
1281.076685
 30
0.0
 10
1626.488000
 20
1228.163685
 30
0.0
  0
LWPOLYLINE
  5
270
100
AcDbEntity
  8
SECTION_JOG_LINES
 62
7
100
AcDbPolyline
 90
2
 70
0
 10
1573.574000
 20
1281.076685
 30
0.0
 10
1626.488000
 20
1281.076685
 30
0.0
  0
LWPOLYLINE
  5
271
100
AcDbEntity
  8
SECTION_JOG_LINES
 62
7
100
AcDbPolyline
 90
2
 70
0
 10
1573.574000
 20
1228.163685
 30
0.0
 10
1573.574000
 20
1281.076685
 30
0.0
  0
LWPOLYLINE
  5
272
100
AcDbEntity
  8
SECTION_JOG_LINES
 62
7
100
AcDbPolyline
 90
2
 70
0
 10
1626.488000
 20
1228.163685
 30
0.0
 10
1573.574000
 20
1228.163685
 30
0.0
  0
LWPOLYLINE
  5
273
100
AcDbEntity
  8
SECTION_JOG_LINES
 62
7
100
AcDbPolyline
 90
2
 70
0
 10
1789.681000
 20
1111.298685
 30
0.0
 10
1835.504000
 20
1084.841685
 30
0.0
  0
LWPOLYLINE
  5
274
100
AcDbEntity
  8
SECTION_JOG_LINES
 62
7
100
AcDbPolyline
 90
2
 70
0
 10
1763.225000
 20
1065.474685
 30
0.0
 10
1789.681000
 20
1111.298685
 30
0.0
  0
LWPOLYLINE
  5
275
100
AcDbEntity
  8
SECTION_JOG_LINES
 62
7
100
AcDbPolyline
 90
2
 70
0
 10
1809.049000
 20
1039.017685
 30
0.0
 10
1763.225000
 20
1065.474685
 30
0.0
  0
LWPOLYLINE
  5
276
100
AcDbEntity
  8
SECTION_JOG_LINES
 62
7
100
AcDbPolyline
 90
2
 70
0
 10
1835.504000
 20
1084.841685
 30
0.0
 10
1809.049000
 20
1039.017685
 30
0.0
  0
LWPOLYLINE
  5
277
100
AcDbEntity
  8
SECTION_JOG_LINES
 62
7
100
AcDbPolyline
 90
2
 70
0
 10
1645.390000
 20
1290.996685
 30
0.0
 10
1645.390000
 20
1343.916685
 30
0.0
  0
LWPOLYLINE
  5
278
100
AcDbEntity
  8
SECTION_JOG_LINES
 62
7
100
AcDbPolyline
 90
2
 70
0
 10
1698.304000
 20
1290.996685
 30
0.0
 10
1645.390000
 20
1290.996685
 30
0.0
  0
LWPOLYLINE
  5
279
100
AcDbEntity
  8
SECTION_JOG_LINES
 62
7
100
AcDbPolyline
 90
2
 70
0
 10
1698.304000
 20
1343.916685
 30
0.0
 10
1698.304000
 20
1290.996685
 30
0.0
  0
LWPOLYLINE
  5
27a
100
AcDbEntity
  8
SECTION_JOG_LINES
 62
7
100
AcDbPolyline
 90
2
 70
0
 10
1645.390000
 20
1343.916685
 30
0.0
 10
1698.304000
 20
1343.916685
 30
0.0
  0
LWPOLYLINE
  5
27b
100
AcDbEntity
  8
SECTION_JOG_LINES
 62
7
100
AcDbPolyline
 90
2
 70
0
 10
1501.757000
 20
1147.361685
 30
0.0
 10
1501.757000
 20
1200.275685
 30
0.0
  0
LWPOLYLINE
  5
27c
100
AcDbEntity
  8
SECTION_JOG_LINES
 62
7
100
AcDbPolyline
 90
2
 70
0
 10
1554.670000
 20
1147.361685
 30
0.0
 10
1501.757000
 20
1147.361685
 30
0.0
  0
LWPOLYLINE
  5
27d
100
AcDbEntity
  8
SECTION_JOG_LINES
 62
7
100
AcDbPolyline
 90
2
 70
0
 10
1554.670000
 20
1200.275685
 30
0.0
 10
1554.670000
 20
1147.361685
 30
0.0
  0
LWPOLYLINE
  5
27e
100
AcDbEntity
  8
SECTION_JOG_LINES
 62
7
100
AcDbPolyline
 90
2
 70
0
 10
1501.757000
 20
1200.275685
 30
0.0
 10
1554.670000
 20
1200.275685
 30
0.0
  0
LWPOLYLINE
  5
27f
100
AcDbEntity
  8
SECTION_JOG_LINES
 62
7
100
AcDbPolyline
 90
2
 70
0
 10
1626.488000
 20
1299.976685
 30
0.0
 10
1573.574000
 20
1299.976685
 30
0.0
  0
LWPOLYLINE
  5
280
100
AcDbEntity
  8
SECTION_JOG_LINES
 62
7
100
AcDbPolyline
 90
2
 70
0
 10
1626.488000
 20
1352.886685
 30
0.0
 10
1626.488000
 20
1299.976685
 30
0.0
  0
LWPOLYLINE
  5
281
100
AcDbEntity
  8
SECTION_JOG_LINES
 62
7
100
AcDbPolyline
 90
2
 70
0
 10
1573.574000
 20
1352.886685
 30
0.0
 10
1626.488000
 20
1352.886685
 30
0.0
  0
LWPOLYLINE
  5
282
100
AcDbEntity
  8
SECTION_JOG_LINES
 62
7
100
AcDbPolyline
 90
2
 70
0
 10
1573.574000
 20
1299.976685
 30
0.0
 10
1573.574000
 20
1352.886685
 30
0.0
  0
LWPOLYLINE
  5
283
100
AcDbEntity
  8
SECTION_JOG_LINES
 62
7
100
AcDbPolyline
 90
2
 70
0
 10
1501.757000
 20
1219.172685
 30
0.0
 10
1501.757000
 20
1272.086685
 30
0.0
  0
LWPOLYLINE
  5
284
100
AcDbEntity
  8
SECTION_JOG_LINES
 62
7
100
AcDbPolyline
 90
2
 70
0
 10
1554.670000
 20
1219.172685
 30
0.0
 10
1501.757000
 20
1219.172685
 30
0.0
  0
LWPOLYLINE
  5
285
100
AcDbEntity
  8
SECTION_JOG_LINES
 62
7
100
AcDbPolyline
 90
2
 70
0
 10
1554.670000
 20
1272.086685
 30
0.0
 10
1554.670000
 20
1219.172685
 30
0.0
  0
LWPOLYLINE
  5
286
100
AcDbEntity
  8
SECTION_JOG_LINES
 62
7
100
AcDbPolyline
 90
2
 70
0
 10
1501.757000
 20
1272.086685
 30
0.0
 10
1554.670000
 20
1272.086685
 30
0.0
  0
LWPOLYLINE
  5
287
100
AcDbEntity
  8
SECTION_JOG_LINES
 62
7
100
AcDbPolyline
 90
2
 70
0
 10
1482.858000
 20
1325.966685
 30
0.0
 10
1482.858000
 20
1273.046685
 30
0.0
  0
LWPOLYLINE
  5
288
100
AcDbEntity
  8
SECTION_JOG_LINES
 62
7
100
AcDbPolyline
 90
2
 70
0
 10
1429.945000
 20
1325.966685
 30
0.0
 10
1482.858000
 20
1325.966685
 30
0.0
  0
LWPOLYLINE
  5
289
100
AcDbEntity
  8
SECTION_JOG_LINES
 62
7
100
AcDbPolyline
 90
2
 70
0
 10
1429.945000
 20
1273.046685
 30
0.0
 10
1429.945000
 20
1325.966685
 30
0.0
  0
LWPOLYLINE
  5
28a
100
AcDbEntity
  8
SECTION_JOG_LINES
 62
7
100
AcDbPolyline
 90
2
 70
0
 10
1482.858000
 20
1273.046685
 30
0.0
 10
1429.945000
 20
1273.046685
 30
0.0
  0
LWPOLYLINE
  5
28b
100
AcDbEntity
  8
SECTION_JOG_LINES
 62
7
100
AcDbPolyline
 90
2
 70
0
 10
1429.945000
 20
1201.237685
 30
0.0
 10
1429.945000
 20
1254.146685
 30
0.0
  0
LWPOLYLINE
  5
28c
100
AcDbEntity
  8
SECTION_JOG_LINES
 62
7
100
AcDbPolyline
 90
2
 70
0
 10
1482.858000
 20
1201.237685
 30
0.0
 10
1429.945000
 20
1201.237685
 30
0.0
  0
LWPOLYLINE
  5
28d
100
AcDbEntity
  8
SECTION_JOG_LINES
 62
7
100
AcDbPolyline
 90
2
 70
0
 10
1482.858000
 20
1254.146685
 30
0.0
 10
1482.858000
 20
1201.237685
 30
0.0
  0
LWPOLYLINE
  5
28e
100
AcDbEntity
  8
SECTION_JOG_LINES
 62
7
100
AcDbPolyline
 90
2
 70
0
 10
1429.945000
 20
1254.146685
 30
0.0
 10
1482.858000
 20
1254.146685
 30
0.0
  0
LWPOLYLINE
  5
28f
100
AcDbEntity
  8
SECTION_JOG_LINES
 62
7
100
AcDbPolyline
 90
2
 70
0
 10
1482.858000
 20
1129.425685
 30
0.0
 10
1429.945000
 20
1129.425685
 30
0.0
  0
LWPOLYLINE
  5
290
100
AcDbEntity
  8
SECTION_JOG_LINES
 62
7
100
AcDbPolyline
 90
2
 70
0
 10
1482.858000
 20
1182.339685
 30
0.0
 10
1482.858000
 20
1129.425685
 30
0.0
  0
LWPOLYLINE
  5
291
100
AcDbEntity
  8
SECTION_JOG_LINES
 62
7
100
AcDbPolyline
 90
2
 70
0
 10
1429.945000
 20
1182.339685
 30
0.0
 10
1482.858000
 20
1182.339685
 30
0.0
  0
LWPOLYLINE
  5
292
100
AcDbEntity
  8
SECTION_JOG_LINES
 62
7
100
AcDbPolyline
 90
2
 70
0
 10
1429.945000
 20
1129.425685
 30
0.0
 10
1429.945000
 20
1182.339685
 30
0.0
  0
LWPOLYLINE
  5
293
100
AcDbEntity
  8
SECTION_JOG_LINES
 62
7
100
AcDbPolyline
 90
2
 70
0
 10
1662.468000
 20
1073.080685
 30
0.0
 10
1609.554000
 20
1073.080685
 30
0.0
  0
LWPOLYLINE
  5
294
100
AcDbEntity
  8
SECTION_JOG_LINES
 62
7
100
AcDbPolyline
 90
2
 70
0
 10
1662.468000
 20
1125.995685
 30
0.0
 10
1662.468000
 20
1073.080685
 30
0.0
  0
LWPOLYLINE
  5
295
100
AcDbEntity
  8
SECTION_JOG_LINES
 62
7
100
AcDbPolyline
 90
2
 70
0
 10
1609.554000
 20
1125.995685
 30
0.0
 10
1662.468000
 20
1125.995685
 30
0.0
  0
LWPOLYLINE
  5
296
100
AcDbEntity
  8
SECTION_JOG_LINES
 62
7
100
AcDbPolyline
 90
2
 70
0
 10
1609.554000
 20
1073.080685
 30
0.0
 10
1609.554000
 20
1125.995685
 30
0.0
  0
LWPOLYLINE
  5
297
100
AcDbEntity
  8
SECTION_JOG_LINES
 62
7
100
AcDbPolyline
 90
2
 70
0
 10
1645.390000
 20
1219.189685
 30
0.0
 10
1645.390000
 20
1272.106685
 30
0.0
  0
LWPOLYLINE
  5
298
100
AcDbEntity
  8
SECTION_JOG_LINES
 62
7
100
AcDbPolyline
 90
2
 70
0
 10
1698.304000
 20
1219.189685
 30
0.0
 10
1645.390000
 20
1219.189685
 30
0.0
  0
LWPOLYLINE
  5
299
100
AcDbEntity
  8
SECTION_JOG_LINES
 62
7
100
AcDbPolyline
 90
2
 70
0
 10
1698.304000
 20
1272.106685
 30
0.0
 10
1698.304000
 20
1219.189685
 30
0.0
  0
LWPOLYLINE
  5
29a
100
AcDbEntity
  8
SECTION_JOG_LINES
 62
7
100
AcDbPolyline
 90
2
 70
0
 10
1645.390000
 20
1272.106685
 30
0.0
 10
1698.304000
 20
1272.106685
 30
0.0
  0
LWPOLYLINE
  5
29b
100
AcDbEntity
  8
SECTION_JOG_LINES
 62
7
100
AcDbPolyline
 90
2
 70
0
 10
1411.054000
 20
1129.425685
 30
0.0
 10
1358.141000
 20
1129.425685
 30
0.0
  0
LWPOLYLINE
  5
29c
100
AcDbEntity
  8
SECTION_JOG_LINES
 62
7
100
AcDbPolyline
 90
2
 70
0
 10
1411.054000
 20
1182.339685
 30
0.0
 10
1411.054000
 20
1129.425685
 30
0.0
  0
LWPOLYLINE
  5
29d
100
AcDbEntity
  8
SECTION_JOG_LINES
 62
7
100
AcDbPolyline
 90
2
 70
0
 10
1358.141000
 20
1182.339685
 30
0.0
 10
1411.054000
 20
1182.339685
 30
0.0
  0
LWPOLYLINE
  5
29e
100
AcDbEntity
  8
SECTION_JOG_LINES
 62
7
100
AcDbPolyline
 90
2
 70
0
 10
1358.141000
 20
1129.425685
 30
0.0
 10
1358.141000
 20
1182.339685
 30
0.0
  0
LWPOLYLINE
  5
29f
100
AcDbEntity
  8
SECTION_JOG_LINES
 62
7
100
AcDbPolyline
 90
2
 70
0
 10
1682.837000
 20
1070.585685
 30
0.0
 10
1696.532000
 20
1121.696685
 30
0.0
  0
LWPOLYLINE
  5
2a0
100
AcDbEntity
  8
SECTION_JOG_LINES
 62
7
100
AcDbPolyline
 90
2
 70
0
 10
1733.948000
 20
1056.890685
 30
0.0
 10
1682.837000
 20
1070.585685
 30
0.0
  0
LWPOLYLINE
  5
2a1
100
AcDbEntity
  8
SECTION_JOG_LINES
 62
7
100
AcDbPolyline
 90
2
 70
0
 10
1747.643000
 20
1108.001685
 30
0.0
 10
1733.948000
 20
1056.890685
 30
0.0
  0
LWPOLYLINE
  5
2a2
100
AcDbEntity
  8
SECTION_JOG_LINES
 62
7
100
AcDbPolyline
 90
2
 70
0
 10
1696.532000
 20
1121.696685
 30
0.0
 10
1747.643000
 20
1108.001685
 30
0.0
  0
LWPOLYLINE
  5
2a3
100
AcDbEntity
  8
SECTION_JOG_LINES
 62
7
100
AcDbPolyline
 90
2
 70
0
 10
1626.488000
 20
1156.353685
 30
0.0
 10
1573.574000
 20
1156.353685
 30
0.0
  0
LWPOLYLINE
  5
2a4
100
AcDbEntity
  8
SECTION_JOG_LINES
 62
7
100
AcDbPolyline
 90
2
 70
0
 10
1626.488000
 20
1209.267685
 30
0.0
 10
1626.488000
 20
1156.353685
 30
0.0
  0
LWPOLYLINE
  5
2a5
100
AcDbEntity
  8
SECTION_JOG_LINES
 62
7
100
AcDbPolyline
 90
2
 70
0
 10
1573.574000
 20
1209.267685
 30
0.0
 10
1626.488000
 20
1209.267685
 30
0.0
  0
LWPOLYLINE
  5
2a6
100
AcDbEntity
  8
SECTION_JOG_LINES
 62
7
100
AcDbPolyline
 90
2
 70
0
 10
1573.574000
 20
1156.353685
 30
0.0
 10
1573.574000
 20
1209.267685
 30
0.0
  0
LWPOLYLINE
  5
2a7
100
AcDbEntity
  8
SECTION_JOG_LINES
 62
7
100
AcDbPolyline
 90
2
 70
0
 10
1554.670000
 20
1343.896685
 30
0.0
 10
1554.670000
 20
1290.986685
 30
0.0
  0
LWPOLYLINE
  5
2a8
100
AcDbEntity
  8
SECTION_JOG_LINES
 62
7
100
AcDbPolyline
 90
2
 70
0
 10
1501.757000
 20
1343.896685
 30
0.0
 10
1554.670000
 20
1343.896685
 30
0.0
  0
LWPOLYLINE
  5
2a9
100
AcDbEntity
  8
SECTION_JOG_LINES
 62
7
100
AcDbPolyline
 90
2
 70
0
 10
1501.757000
 20
1290.986685
 30
0.0
 10
1501.757000
 20
1343.896685
 30
0.0
  0
LWPOLYLINE
  5
2aa
100
AcDbEntity
  8
SECTION_JOG_LINES
 62
7
100
AcDbPolyline
 90
2
 70
0
 10
1554.670000
 20
1290.986685
 30
0.0
 10
1501.757000
 20
1290.986685
 30
0.0
  0
LWPOLYLINE
  5
2ab
100
AcDbEntity
  8
SECTION_JOG_LINES
 62
7
100
AcDbPolyline
 90
2
 70
0
 10
1770.121000
 20
1334.896685
 30
0.0
 10
1770.121000
 20
1281.986685
 30
0.0
  0
LWPOLYLINE
  5
2ac
100
AcDbEntity
  8
SECTION_JOG_LINES
 62
7
100
AcDbPolyline
 90
2
 70
0
 10
1717.208000
 20
1334.896685
 30
0.0
 10
1770.121000
 20
1334.896685
 30
0.0
  0
LWPOLYLINE
  5
2ad
100
AcDbEntity
  8
SECTION_JOG_LINES
 62
7
100
AcDbPolyline
 90
2
 70
0
 10
1717.208000
 20
1281.986685
 30
0.0
 10
1717.208000
 20
1334.896685
 30
0.0
  0
LWPOLYLINE
  5
2ae
100
AcDbEntity
  8
SECTION_JOG_LINES
 62
7
100
AcDbPolyline
 90
2
 70
0
 10
1770.121000
 20
1281.986685
 30
0.0
 10
1717.208000
 20
1281.986685
 30
0.0
  0
LWPOLYLINE
  5
2af
100
AcDbEntity
  8
SECTION_JOG_LINES
 62
7
100
AcDbPolyline
 90
2
 70
0
 10
1645.390000
 20
1200.291685
 30
0.0
 10
1698.304000
 20
1200.291685
 30
0.0
  0
LWPOLYLINE
  5
2b0
100
AcDbEntity
  8
SECTION_JOG_LINES
 62
7
100
AcDbPolyline
 90
2
 70
0
 10
1645.390000
 20
1147.377685
 30
0.0
 10
1645.390000
 20
1200.291685
 30
0.0
  0
LWPOLYLINE
  5
2b1
100
AcDbEntity
  8
SECTION_JOG_LINES
 62
7
100
AcDbPolyline
 90
2
 70
0
 10
1698.304000
 20
1147.377685
 30
0.0
 10
1645.390000
 20
1147.377685
 30
0.0
  0
LWPOLYLINE
  5
2b2
100
AcDbEntity
  8
SECTION_JOG_LINES
 62
7
100
AcDbPolyline
 90
2
 70
0
 10
1698.304000
 20
1200.291685
 30
0.0
 10
1698.304000
 20
1147.377685
 30
0.0
  0
SPLINE
  5
2b3
100
AcDbEntity
  8
SECTION_JOG_LINES
 62
7
100
AcDbSpline
 70
8
 71
3
 72
8
 73
4
 74
0
 40
0
 40
0
 40
0
 40
0
 40
1
 40
1
 40
1
 40
1
 10
1587.573400
 20
1127.792195
 30
0.0
 10
1587.570772
 20
1125.706680
 30
0.0
 10
1585.879391
 20
1124.017429
 30
0.0
 10
1583.793875
 20
1124.017429
 30
0.0
  0
SPLINE
  5
2b4
100
AcDbEntity
  8
SECTION_JOG_LINES
 62
7
100
AcDbSpline
 70
8
 71
3
 72
8
 73
4
 74
0
 40
0
 40
0
 40
0
 40
0
 40
1
 40
1
 40
1
 40
1
 10
1583.793875
 20
1124.017429
 30
0.0
 10
1581.708359
 20
1124.017429
 30
0.0
 10
1580.016978
 20
1125.706680
 30
0.0
 10
1580.014350
 20
1127.792195
 30
0.0
  0
SPLINE
  5
2b5
100
AcDbEntity
  8
SECTION_JOG_LINES
 62
7
100
AcDbSpline
 70
8
 71
3
 72
8
 73
4
 74
0
 40
0
 40
0
 40
0
 40
0
 40
1
 40
1
 40
1
 40
1
 10
1580.014350
 20
1127.792195
 30
0.0
 10
1580.016978
 20
1129.877710
 30
0.0
 10
1581.708359
 20
1131.566961
 30
0.0
 10
1583.793875
 20
1131.566961
 30
0.0
  0
SPLINE
  5
2b6
100
AcDbEntity
  8
SECTION_JOG_LINES
 62
7
100
AcDbSpline
 70
8
 71
3
 72
8
 73
4
 74
0
 40
0
 40
0
 40
0
 40
0
 40
1
 40
1
 40
1
 40
1
 10
1583.793875
 20
1131.566961
 30
0.0
 10
1585.879391
 20
1131.566961
 30
0.0
 10
1587.570772
 20
1129.877710
 30
0.0
 10
1587.573400
 20
1127.792195
 30
0.0
  0
LWPOLYLINE
  5
2b7
100
AcDbEntity
  8
SECTION_JOG_LINES
 62
7
100
AcDbPolyline
 90
17
 70
1
 10
1561.246000
 20
1121.384685
 30
0.0
 10
1350.542000
 20
1121.384685
 30
0.0
 10
1350.542000
 20
1333.986685
 30
0.0
 10
1494.167000
 20
1333.986685
 30
0.0
 10
1494.167000
 20
1351.936685
 30
0.0
 10
1565.975000
 20
1351.936685
 30
0.0
 10
1565.975000
 20
1360.446685
 30
0.0
 10
1634.010000
 20
1360.446685
 30
0.0
 10
1634.010000
 20
1351.936685
 30
0.0
 10
1705.818000
 20
1351.936685
 30
0.0
 10
1705.818000
 20
1342.486685
 30
0.0
 10
1779.518000
 20
1342.486685
 30
0.0
 10
1779.518000
 20
1146.659685
 30
0.0
 10
1856.334000
 20
1102.329685
 30
0.0
 10
1804.405000
 20
1012.151685
 30
0.0
 10
1743.526000
 20
1047.335685
 30
0.0
 10
1601.804000
 20
1065.770685
 30
0.0
  0
SPLINE
  5
2b8
100
AcDbEntity
  8
SECTION_JOG_LINES
 62
7
100
AcDbSpline
 70
8
 71
3
 72
8
 73
4
 74
0
 40
0
 40
0
 40
0
 40
0
 40
1
 40
1
 40
1
 40
1
 10
1763.570880
 20
1099.012985
 30
0.0
 10
1763.568252
 20
1096.927470
 30
0.0
 10
1761.876871
 20
1095.238219
 30
0.0
 10
1759.791355
 20
1095.238219
 30
0.0
  0
SPLINE
  5
2b9
100
AcDbEntity
  8
SECTION_JOG_LINES
 62
7
100
AcDbSpline
 70
8
 71
3
 72
8
 73
4
 74
0
 40
0
 40
0
 40
0
 40
0
 40
1
 40
1
 40
1
 40
1
 10
1759.791355
 20
1095.238219
 30
0.0
 10
1757.705839
 20
1095.238219
 30
0.0
 10
1756.014458
 20
1096.927470
 30
0.0
 10
1756.011830
 20
1099.012985
 30
0.0
  0
SPLINE
  5
2ba
100
AcDbEntity
  8
SECTION_JOG_LINES
 62
7
100
AcDbSpline
 70
8
 71
3
 72
8
 73
4
 74
0
 40
0
 40
0
 40
0
 40
0
 40
1
 40
1
 40
1
 40
1
 10
1756.011830
 20
1099.012985
 30
0.0
 10
1756.014458
 20
1101.098500
 30
0.0
 10
1757.705839
 20
1102.787751
 30
0.0
 10
1759.791355
 20
1102.787751
 30
0.0
  0
SPLINE
  5
2bb
100
AcDbEntity
  8
SECTION_JOG_LINES
 62
7
100
AcDbSpline
 70
8
 71
3
 72
8
 73
4
 74
0
 40
0
 40
0
 40
0
 40
0
 40
1
 40
1
 40
1
 40
1
 10
1759.791355
 20
1102.787751
 30
0.0
 10
1761.876871
 20
1102.787751
 30
0.0
 10
1763.568252
 20
1101.098500
 30
0.0
 10
1763.570880
 20
1099.012985
 30
0.0
  0
LWPOLYLINE
  5
2bc
100
AcDbEntity
  8
SECTION_JOG_LINES
 62
7
100
AcDbPolyline
 90
1
 70
1
 10
1587.573400
 20
1127.792195
 30
0.0
  0
SPLINE
  5
2bd
100
AcDbEntity
  8
SECTION_JOG_LINES
 62
7
100
AcDbSpline
 70
8
 71
3
 72
8
 73
4
 74
0
 40
0
 40
0
 40
0
 40
0
 40
1
 40
1
 40
1
 40
1
 10
1711.583480
 20
1278.047285
 30
0.0
 10
1711.580852
 20
1275.961770
 30
0.0
 10
1709.889471
 20
1274.272519
 30
0.0
 10
1707.803955
 20
1274.272519
 30
0.0
  0
SPLINE
  5
2be
100
AcDbEntity
  8
SECTION_JOG_LINES
 62
7
100
AcDbSpline
 70
8
 71
3
 72
8
 73
4
 74
0
 40
0
 40
0
 40
0
 40
0
 40
1
 40
1
 40
1
 40
1
 10
1707.803955
 20
1274.272519
 30
0.0
 10
1705.718439
 20
1274.272519
 30
0.0
 10
1704.027058
 20
1275.961770
 30
0.0
 10
1704.024430
 20
1278.047285
 30
0.0
  0
SPLINE
  5
2bf
100
AcDbEntity
  8
SECTION_JOG_LINES
 62
7
100
AcDbSpline
 70
8
 71
3
 72
8
 73
4
 74
0
 40
0
 40
0
 40
0
 40
0
 40
1
 40
1
 40
1
 40
1
 10
1704.024430
 20
1278.047285
 30
0.0
 10
1704.027058
 20
1280.132800
 30
0.0
 10
1705.718439
 20
1281.822051
 30
0.0
 10
1707.803955
 20
1281.822051
 30
0.0
  0
SPLINE
  5
2c0
100
AcDbEntity
  8
SECTION_JOG_LINES
 62
7
100
AcDbSpline
 70
8
 71
3
 72
8
 73
4
 74
0
 40
0
 40
0
 40
0
 40
0
 40
1
 40
1
 40
1
 40
1
 10
1707.803955
 20
1281.822051
 30
0.0
 10
1709.889471
 20
1281.822051
 30
0.0
 10
1711.580852
 20
1280.132800
 30
0.0
 10
1711.583480
 20
1278.047285
 30
0.0
  0
LWPOLYLINE
  5
2c1
100
AcDbEntity
  8
SECTION_JOG_LINES
 62
7
100
AcDbPolyline
 90
1
 70
1
 10
1763.570880
 20
1099.012985
 30
0.0
  0
SPLINE
  5
2c2
100
AcDbEntity
  8
SECTION_JOG_LINES
 62
7
100
AcDbSpline
 70
8
 71
3
 72
8
 73
4
 74
0
 40
0
 40
0
 40
0
 40
0
 40
1
 40
1
 40
1
 40
1
 10
2542.591370
 20
756.390625
 30
0.0
 10
2542.421190
 20
756.683535
 30
0.0
 10
2542.112480
 20
756.891785
 30
0.0
 10
2541.778470
 20
756.942485
 30
0.0
  0
SPLINE
  5
2c3
100
AcDbEntity
  8
SECTION_JOG_LINES
 62
7
100
AcDbSpline
 70
8
 71
3
 72
8
 73
4
 74
0
 40
0
 40
0
 40
0
 40
0
 40
1
 40
1
 40
1
 40
1
 10
2541.778470
 20
756.942485
 30
0.0
 10
2541.527970
 20
756.980485
 30
0.0
 10
2541.263230
 20
756.929885
 30
0.0
 10
2541.043200
 20
756.802785
 30
0.0
  0
SPLINE
  5
2c4
100
AcDbEntity
  8
SECTION_JOG_LINES
 62
7
100
AcDbSpline
 70
8
 71
3
 72
8
 73
4
 74
0
 40
0
 40
0
 40
0
 40
0
 40
1
 40
1
 40
1
 40
1
 10
2230.211360
 20
855.474185
 30
0.0
 10
2230.211360
 20
856.824481
 30
0.0
 10
2229.490986
 20
858.072206
 30
0.0
 10
2228.321595
 20
858.747354
 30
0.0
  0
SPLINE
  5
2c5
100
AcDbEntity
  8
SECTION_JOG_LINES
 62
7
100
AcDbSpline
 70
8
 71
3
 72
8
 73
4
 74
0
 40
0
 40
0
 40
0
 40
0
 40
1
 40
1
 40
1
 40
1
 10
2228.321595
 20
858.747354
 30
0.0
 10
2227.152204
 20
859.422502
 30
0.0
 10
2225.711456
 20
859.422502
 30
0.0
 10
2224.542065
 20
858.747354
 30
0.0
  0
SPLINE
  5
2c6
100
AcDbEntity
  8
SECTION_JOG_LINES
 62
7
100
AcDbSpline
 70
8
 71
3
 72
8
 73
4
 74
0
 40
0
 40
0
 40
0
 40
0
 40
1
 40
1
 40
1
 40
1
 10
2224.542065
 20
858.747354
 30
0.0
 10
2223.372674
 20
858.072206
 30
0.0
 10
2222.652300
 20
856.824481
 30
0.0
 10
2222.652300
 20
855.474185
 30
0.0
  0
SPLINE
  5
2c7
100
AcDbEntity
  8
SECTION_JOG_LINES
 62
7
100
AcDbSpline
 70
8
 71
3
 72
8
 73
4
 74
0
 40
0
 40
0
 40
0
 40
0
 40
1
 40
1
 40
1
 40
1
 10
2222.652300
 20
855.474185
 30
0.0
 10
2222.652300
 20
854.123889
 30
0.0
 10
2223.372674
 20
852.876164
 30
0.0
 10
2224.542065
 20
852.201016
 30
0.0
  0
SPLINE
  5
2c8
100
AcDbEntity
  8
SECTION_JOG_LINES
 62
7
100
AcDbSpline
 70
8
 71
3
 72
8
 73
4
 74
0
 40
0
 40
0
 40
0
 40
0
 40
1
 40
1
 40
1
 40
1
 10
2224.542065
 20
852.201016
 30
0.0
 10
2225.711456
 20
851.525868
 30
0.0
 10
2227.152204
 20
851.525868
 30
0.0
 10
2228.321595
 20
852.201016
 30
0.0
  0
SPLINE
  5
2c9
100
AcDbEntity
  8
SECTION_JOG_LINES
 62
7
100
AcDbSpline
 70
8
 71
3
 72
8
 73
4
 74
0
 40
0
 40
0
 40
0
 40
0
 40
1
 40
1
 40
1
 40
1
 10
2228.321595
 20
852.201016
 30
0.0
 10
2229.490986
 20
852.876164
 30
0.0
 10
2230.211360
 20
854.123889
 30
0.0
 10
2230.211360
 20
855.474185
 30
0.0
  0
LWPOLYLINE
  5
2ca
100
AcDbEntity
  8
SECTION_JOG_LINES
 62
7
100
AcDbPolyline
 90
1
 70
1
 10
1711.583480
 20
1278.047285
 30
0.0
  0
LWPOLYLINE
  5
2cb
100
AcDbEntity
  8
SECTION_JOG_LINES
 62
7
100
AcDbPolyline
 90
1
 70
1
 10
2230.211360
 20
855.474185
 30
0.0
  0
LWPOLYLINE
  5
2cc
100
AcDbEntity
  8
SECTION_JOG_LINES
 62
7
100
AcDbPolyline
 90
2
 70
0
 10
2504.061000
 20
910.062685
 30
0.0
 10
2451.148000
 20
910.062685
 30
0.0
  0
LWPOLYLINE
  5
2cd
100
AcDbEntity
  8
SECTION_JOG_LINES
 62
7
100
AcDbPolyline
 90
2
 70
0
 10
2504.061000
 20
857.151685
 30
0.0
 10
2504.061000
 20
910.062685
 30
0.0
  0
LWPOLYLINE
  5
2ce
100
AcDbEntity
  8
SECTION_JOG_LINES
 62
7
100
AcDbPolyline
 90
2
 70
0
 10
2451.148000
 20
857.151685
 30
0.0
 10
2504.061000
 20
857.151685
 30
0.0
  0
LWPOLYLINE
  5
2cf
100
AcDbEntity
  8
SECTION_JOG_LINES
 62
7
100
AcDbPolyline
 90
2
 70
0
 10
2451.148000
 20
910.062685
 30
0.0
 10
2451.148000
 20
857.151685
 30
0.0
  0
LWPOLYLINE
  5
2d0
100
AcDbEntity
  8
SECTION_JOG_LINES
 62
7
100
AcDbPolyline
 90
2
 70
0
 10
2504.061000
 20
981.874685
 30
0.0
 10
2451.148000
 20
981.874685
 30
0.0
  0
LWPOLYLINE
  5
2d1
100
AcDbEntity
  8
SECTION_JOG_LINES
 62
7
100
AcDbPolyline
 90
2
 70
0
 10
2504.061000
 20
928.960685
 30
0.0
 10
2504.061000
 20
981.874685
 30
0.0
  0
LWPOLYLINE
  5
2d2
100
AcDbEntity
  8
SECTION_JOG_LINES
 62
7
100
AcDbPolyline
 90
2
 70
0
 10
2451.148000
 20
928.960685
 30
0.0
 10
2504.061000
 20
928.960685
 30
0.0
  0
LWPOLYLINE
  5
2d3
100
AcDbEntity
  8
SECTION_JOG_LINES
 62
7
100
AcDbPolyline
 90
2
 70
0
 10
2451.148000
 20
981.874685
 30
0.0
 10
2451.148000
 20
928.960685
 30
0.0
  0
LWPOLYLINE
  5
2d4
100
AcDbEntity
  8
SECTION_JOG_LINES
 62
7
100
AcDbPolyline
 90
2
 70
0
 10
2092.081000
 20
847.191685
 30
0.0
 10
2092.081000
 20
794.271685
 30
0.0
  0
LWPOLYLINE
  5
2d5
100
AcDbEntity
  8
SECTION_JOG_LINES
 62
7
100
AcDbPolyline
 90
2
 70
0
 10
2144.994000
 20
847.191685
 30
0.0
 10
2092.081000
 20
847.191685
 30
0.0
  0
LWPOLYLINE
  5
2d6
100
AcDbEntity
  8
SECTION_JOG_LINES
 62
7
100
AcDbPolyline
 90
2
 70
0
 10
2144.994000
 20
794.271685
 30
0.0
 10
2144.994000
 20
847.191685
 30
0.0
  0
LWPOLYLINE
  5
2d7
100
AcDbEntity
  8
SECTION_JOG_LINES
 62
7
100
AcDbPolyline
 90
2
 70
0
 10
2092.081000
 20
794.271685
 30
0.0
 10
2144.994000
 20
794.271685
 30
0.0
  0
LWPOLYLINE
  5
2d8
100
AcDbEntity
  8
SECTION_JOG_LINES
 62
7
100
AcDbPolyline
 90
2
 70
0
 10
2144.994000
 20
866.091685
 30
0.0
 10
2144.994000
 20
919.000685
 30
0.0
  0
LWPOLYLINE
  5
2d9
100
AcDbEntity
  8
SECTION_JOG_LINES
 62
7
100
AcDbPolyline
 90
2
 70
0
 10
2092.081000
 20
866.091685
 30
0.0
 10
2144.994000
 20
866.091685
 30
0.0
  0
LWPOLYLINE
  5
2da
100
AcDbEntity
  8
SECTION_JOG_LINES
 62
7
100
AcDbPolyline
 90
2
 70
0
 10
2092.081000
 20
919.000685
 30
0.0
 10
2092.081000
 20
866.091685
 30
0.0
  0
LWPOLYLINE
  5
2db
100
AcDbEntity
  8
SECTION_JOG_LINES
 62
7
100
AcDbPolyline
 90
2
 70
0
 10
2144.994000
 20
919.000685
 30
0.0
 10
2092.081000
 20
919.000685
 30
0.0
  0
LWPOLYLINE
  5
2dc
100
AcDbEntity
  8
SECTION_JOG_LINES
 62
7
100
AcDbPolyline
 90
2
 70
0
 10
2360.428000
 20
839.161685
 30
0.0
 10
2360.428000
 20
892.074685
 30
0.0
  0
LWPOLYLINE
  5
2dd
100
AcDbEntity
  8
SECTION_JOG_LINES
 62
7
100
AcDbPolyline
 90
2
 70
0
 10
2307.514000
 20
839.161685
 30
0.0
 10
2360.428000
 20
839.161685
 30
0.0
  0
LWPOLYLINE
  5
2de
100
AcDbEntity
  8
SECTION_JOG_LINES
 62
7
100
AcDbPolyline
 90
2
 70
0
 10
2307.514000
 20
892.074685
 30
0.0
 10
2307.514000
 20
839.161685
 30
0.0
  0
LWPOLYLINE
  5
2df
100
AcDbEntity
  8
SECTION_JOG_LINES
 62
7
100
AcDbPolyline
 90
2
 70
0
 10
2360.428000
 20
892.074685
 30
0.0
 10
2307.514000
 20
892.074685
 30
0.0
  0
LWPOLYLINE
  5
2e0
100
AcDbEntity
  8
SECTION_JOG_LINES
 62
7
100
AcDbPolyline
 90
2
 70
0
 10
2523.621000
 20
1008.939685
 30
0.0
 10
2569.444000
 20
1035.396685
 30
0.0
  0
LWPOLYLINE
  5
2e1
100
AcDbEntity
  8
SECTION_JOG_LINES
 62
7
100
AcDbPolyline
 90
2
 70
0
 10
2497.165000
 20
1054.763685
 30
0.0
 10
2523.621000
 20
1008.939685
 30
0.0
  0
LWPOLYLINE
  5
2e2
100
AcDbEntity
  8
SECTION_JOG_LINES
 62
7
100
AcDbPolyline
 90
2
 70
0
 10
2542.989000
 20
1081.220685
 30
0.0
 10
2497.165000
 20
1054.763685
 30
0.0
  0
LWPOLYLINE
  5
2e3
100
AcDbEntity
  8
SECTION_JOG_LINES
 62
7
100
AcDbPolyline
 90
2
 70
0
 10
2569.444000
 20
1035.396685
 30
0.0
 10
2542.989000
 20
1081.220685
 30
0.0
  0
LWPOLYLINE
  5
2e4
100
AcDbEntity
  8
SECTION_JOG_LINES
 62
7
100
AcDbPolyline
 90
2
 70
0
 10
2379.330000
 20
829.241685
 30
0.0
 10
2379.330000
 20
776.321685
 30
0.0
  0
LWPOLYLINE
  5
2e5
100
AcDbEntity
  8
SECTION_JOG_LINES
 62
7
100
AcDbPolyline
 90
2
 70
0
 10
2432.244000
 20
829.241685
 30
0.0
 10
2379.330000
 20
829.241685
 30
0.0
  0
LWPOLYLINE
  5
2e6
100
AcDbEntity
  8
SECTION_JOG_LINES
 62
7
100
AcDbPolyline
 90
2
 70
0
 10
2432.244000
 20
776.321685
 30
0.0
 10
2432.244000
 20
829.241685
 30
0.0
  0
LWPOLYLINE
  5
2e7
100
AcDbEntity
  8
SECTION_JOG_LINES
 62
7
100
AcDbPolyline
 90
2
 70
0
 10
2379.330000
 20
776.321685
 30
0.0
 10
2432.244000
 20
776.321685
 30
0.0
  0
LWPOLYLINE
  5
2e8
100
AcDbEntity
  8
SECTION_JOG_LINES
 62
7
100
AcDbPolyline
 90
2
 70
0
 10
2235.697000
 20
972.876685
 30
0.0
 10
2235.697000
 20
919.962685
 30
0.0
  0
LWPOLYLINE
  5
2e9
100
AcDbEntity
  8
SECTION_JOG_LINES
 62
7
100
AcDbPolyline
 90
2
 70
0
 10
2288.610000
 20
972.876685
 30
0.0
 10
2235.697000
 20
972.876685
 30
0.0
  0
LWPOLYLINE
  5
2ea
100
AcDbEntity
  8
SECTION_JOG_LINES
 62
7
100
AcDbPolyline
 90
2
 70
0
 10
2288.610000
 20
919.962685
 30
0.0
 10
2288.610000
 20
972.876685
 30
0.0
  0
LWPOLYLINE
  5
2eb
100
AcDbEntity
  8
SECTION_JOG_LINES
 62
7
100
AcDbPolyline
 90
2
 70
0
 10
2235.697000
 20
919.962685
 30
0.0
 10
2288.610000
 20
919.962685
 30
0.0
  0
LWPOLYLINE
  5
2ec
100
AcDbEntity
  8
SECTION_JOG_LINES
 62
7
100
AcDbPolyline
 90
2
 70
0
 10
2360.428000
 20
820.261685
 30
0.0
 10
2307.514000
 20
820.261685
 30
0.0
  0
LWPOLYLINE
  5
2ed
100
AcDbEntity
  8
SECTION_JOG_LINES
 62
7
100
AcDbPolyline
 90
2
 70
0
 10
2360.428000
 20
767.351685
 30
0.0
 10
2360.428000
 20
820.261685
 30
0.0
  0
LWPOLYLINE
  5
2ee
100
AcDbEntity
  8
SECTION_JOG_LINES
 62
7
100
AcDbPolyline
 90
2
 70
0
 10
2307.514000
 20
767.351685
 30
0.0
 10
2360.428000
 20
767.351685
 30
0.0
  0
LWPOLYLINE
  5
2ef
100
AcDbEntity
  8
SECTION_JOG_LINES
 62
7
100
AcDbPolyline
 90
2
 70
0
 10
2307.514000
 20
820.261685
 30
0.0
 10
2307.514000
 20
767.351685
 30
0.0
  0
LWPOLYLINE
  5
2f0
100
AcDbEntity
  8
SECTION_JOG_LINES
 62
7
100
AcDbPolyline
 90
2
 70
0
 10
2235.697000
 20
901.065685
 30
0.0
 10
2235.697000
 20
848.151685
 30
0.0
  0
LWPOLYLINE
  5
2f1
100
AcDbEntity
  8
SECTION_JOG_LINES
 62
7
100
AcDbPolyline
 90
2
 70
0
 10
2288.610000
 20
901.065685
 30
0.0
 10
2235.697000
 20
901.065685
 30
0.0
  0
LWPOLYLINE
  5
2f2
100
AcDbEntity
  8
SECTION_JOG_LINES
 62
7
100
AcDbPolyline
 90
2
 70
0
 10
2288.610000
 20
848.151685
 30
0.0
 10
2288.610000
 20
901.065685
 30
0.0
  0
LWPOLYLINE
  5
2f3
100
AcDbEntity
  8
SECTION_JOG_LINES
 62
7
100
AcDbPolyline
 90
2
 70
0
 10
2235.697000
 20
848.151685
 30
0.0
 10
2288.610000
 20
848.151685
 30
0.0
  0
LWPOLYLINE
  5
2f4
100
AcDbEntity
  8
SECTION_JOG_LINES
 62
7
100
AcDbPolyline
 90
2
 70
0
 10
2216.798000
 20
794.271685
 30
0.0
 10
2216.798000
 20
847.191685
 30
0.0
  0
LWPOLYLINE
  5
2f5
100
AcDbEntity
  8
SECTION_JOG_LINES
 62
7
100
AcDbPolyline
 90
2
 70
0
 10
2163.885000
 20
794.271685
 30
0.0
 10
2216.798000
 20
794.271685
 30
0.0
  0
LWPOLYLINE
  5
2f6
100
AcDbEntity
  8
SECTION_JOG_LINES
 62
7
100
AcDbPolyline
 90
2
 70
0
 10
2163.885000
 20
847.191685
 30
0.0
 10
2163.885000
 20
794.271685
 30
0.0
  0
LWPOLYLINE
  5
2f7
100
AcDbEntity
  8
SECTION_JOG_LINES
 62
7
100
AcDbPolyline
 90
2
 70
0
 10
2216.798000
 20
847.191685
 30
0.0
 10
2163.885000
 20
847.191685
 30
0.0
  0
LWPOLYLINE
  5
2f8
100
AcDbEntity
  8
SECTION_JOG_LINES
 62
7
100
AcDbPolyline
 90
2
 70
0
 10
2163.885000
 20
919.000685
 30
0.0
 10
2163.885000
 20
866.091685
 30
0.0
  0
LWPOLYLINE
  5
2f9
100
AcDbEntity
  8
SECTION_JOG_LINES
 62
7
100
AcDbPolyline
 90
2
 70
0
 10
2216.798000
 20
919.000685
 30
0.0
 10
2163.885000
 20
919.000685
 30
0.0
  0
LWPOLYLINE
  5
2fa
100
AcDbEntity
  8
SECTION_JOG_LINES
 62
7
100
AcDbPolyline
 90
2
 70
0
 10
2216.798000
 20
866.091685
 30
0.0
 10
2216.798000
 20
919.000685
 30
0.0
  0
LWPOLYLINE
  5
2fb
100
AcDbEntity
  8
SECTION_JOG_LINES
 62
7
100
AcDbPolyline
 90
2
 70
0
 10
2163.885000
 20
866.091685
 30
0.0
 10
2216.798000
 20
866.091685
 30
0.0
  0
LWPOLYLINE
  5
2fc
100
AcDbEntity
  8
SECTION_JOG_LINES
 62
7
100
AcDbPolyline
 90
2
 70
0
 10
2216.798000
 20
990.812685
 30
0.0
 10
2163.885000
 20
990.812685
 30
0.0
  0
LWPOLYLINE
  5
2fd
100
AcDbEntity
  8
SECTION_JOG_LINES
 62
7
100
AcDbPolyline
 90
2
 70
0
 10
2216.798000
 20
937.898685
 30
0.0
 10
2216.798000
 20
990.812685
 30
0.0
  0
LWPOLYLINE
  5
2fe
100
AcDbEntity
  8
SECTION_JOG_LINES
 62
7
100
AcDbPolyline
 90
2
 70
0
 10
2163.885000
 20
937.898685
 30
0.0
 10
2216.798000
 20
937.898685
 30
0.0
  0
LWPOLYLINE
  5
2ff
100
AcDbEntity
  8
SECTION_JOG_LINES
 62
7
100
AcDbPolyline
 90
2
 70
0
 10
2163.885000
 20
990.812685
 30
0.0
 10
2163.885000
 20
937.898685
 30
0.0
  0
LWPOLYLINE
  5
300
100
AcDbEntity
  8
SECTION_JOG_LINES
 62
7
100
AcDbPolyline
 90
2
 70
0
 10
2396.408000
 20
1047.157685
 30
0.0
 10
2343.494000
 20
1047.157685
 30
0.0
  0
LWPOLYLINE
  5
301
100
AcDbEntity
  8
SECTION_JOG_LINES
 62
7
100
AcDbPolyline
 90
2
 70
0
 10
2396.408000
 20
994.242685
 30
0.0
 10
2396.408000
 20
1047.157685
 30
0.0
  0
LWPOLYLINE
  5
302
100
AcDbEntity
  8
SECTION_JOG_LINES
 62
7
100
AcDbPolyline
 90
2
 70
0
 10
2343.494000
 20
994.242685
 30
0.0
 10
2396.408000
 20
994.242685
 30
0.0
  0
LWPOLYLINE
  5
303
100
AcDbEntity
  8
SECTION_JOG_LINES
 62
7
100
AcDbPolyline
 90
2
 70
0
 10
2343.494000
 20
1047.157685
 30
0.0
 10
2343.494000
 20
994.242685
 30
0.0
  0
LWPOLYLINE
  5
304
100
AcDbEntity
  8
SECTION_JOG_LINES
 62
7
100
AcDbPolyline
 90
2
 70
0
 10
2379.330000
 20
901.048685
 30
0.0
 10
2379.330000
 20
848.131685
 30
0.0
  0
LWPOLYLINE
  5
305
100
AcDbEntity
  8
SECTION_JOG_LINES
 62
7
100
AcDbPolyline
 90
2
 70
0
 10
2432.244000
 20
901.048685
 30
0.0
 10
2379.330000
 20
901.048685
 30
0.0
  0
LWPOLYLINE
  5
306
100
AcDbEntity
  8
SECTION_JOG_LINES
 62
7
100
AcDbPolyline
 90
2
 70
0
 10
2432.244000
 20
848.131685
 30
0.0
 10
2432.244000
 20
901.048685
 30
0.0
  0
LWPOLYLINE
  5
307
100
AcDbEntity
  8
SECTION_JOG_LINES
 62
7
100
AcDbPolyline
 90
2
 70
0
 10
2379.330000
 20
848.131685
 30
0.0
 10
2432.244000
 20
848.131685
 30
0.0
  0
LWPOLYLINE
  5
308
100
AcDbEntity
  8
SECTION_JOG_LINES
 62
7
100
AcDbPolyline
 90
2
 70
0
 10
2144.994000
 20
990.812685
 30
0.0
 10
2092.081000
 20
990.812685
 30
0.0
  0
LWPOLYLINE
  5
309
100
AcDbEntity
  8
SECTION_JOG_LINES
 62
7
100
AcDbPolyline
 90
2
 70
0
 10
2144.994000
 20
937.898685
 30
0.0
 10
2144.994000
 20
990.812685
 30
0.0
  0
LWPOLYLINE
  5
30a
100
AcDbEntity
  8
SECTION_JOG_LINES
 62
7
100
AcDbPolyline
 90
2
 70
0
 10
2092.081000
 20
937.898685
 30
0.0
 10
2144.994000
 20
937.898685
 30
0.0
  0
LWPOLYLINE
  5
30b
100
AcDbEntity
  8
SECTION_JOG_LINES
 62
7
100
AcDbPolyline
 90
2
 70
0
 10
2092.081000
 20
990.812685
 30
0.0
 10
2092.081000
 20
937.898685
 30
0.0
  0
LWPOLYLINE
  5
30c
100
AcDbEntity
  8
SECTION_JOG_LINES
 62
7
100
AcDbPolyline
 90
2
 70
0
 10
2416.777000
 20
1049.652685
 30
0.0
 10
2430.472000
 20
998.541685
 30
0.0
  0
LWPOLYLINE
  5
30d
100
AcDbEntity
  8
SECTION_JOG_LINES
 62
7
100
AcDbPolyline
 90
2
 70
0
 10
2467.888000
 20
1063.347685
 30
0.0
 10
2416.777000
 20
1049.652685
 30
0.0
  0
LWPOLYLINE
  5
30e
100
AcDbEntity
  8
SECTION_JOG_LINES
 62
7
100
AcDbPolyline
 90
2
 70
0
 10
2481.583000
 20
1012.236685
 30
0.0
 10
2467.888000
 20
1063.347685
 30
0.0
  0
LWPOLYLINE
  5
30f
100
AcDbEntity
  8
SECTION_JOG_LINES
 62
7
100
AcDbPolyline
 90
2
 70
0
 10
2430.472000
 20
998.541685
 30
0.0
 10
2481.583000
 20
1012.236685
 30
0.0
  0
LWPOLYLINE
  5
310
100
AcDbEntity
  8
SECTION_JOG_LINES
 62
7
100
AcDbPolyline
 90
2
 70
0
 10
2360.428000
 20
963.884685
 30
0.0
 10
2307.514000
 20
963.884685
 30
0.0
  0
LWPOLYLINE
  5
311
100
AcDbEntity
  8
SECTION_JOG_LINES
 62
7
100
AcDbPolyline
 90
2
 70
0
 10
2360.428000
 20
910.970685
 30
0.0
 10
2360.428000
 20
963.884685
 30
0.0
  0
LWPOLYLINE
  5
312
100
AcDbEntity
  8
SECTION_JOG_LINES
 62
7
100
AcDbPolyline
 90
2
 70
0
 10
2307.514000
 20
910.970685
 30
0.0
 10
2360.428000
 20
910.970685
 30
0.0
  0
LWPOLYLINE
  5
313
100
AcDbEntity
  8
SECTION_JOG_LINES
 62
7
100
AcDbPolyline
 90
2
 70
0
 10
2307.514000
 20
963.884685
 30
0.0
 10
2307.514000
 20
910.970685
 30
0.0
  0
LWPOLYLINE
  5
314
100
AcDbEntity
  8
SECTION_JOG_LINES
 62
7
100
AcDbPolyline
 90
2
 70
0
 10
2288.610000
 20
776.341685
 30
0.0
 10
2288.610000
 20
829.251685
 30
0.0
  0
LWPOLYLINE
  5
315
100
AcDbEntity
  8
SECTION_JOG_LINES
 62
7
100
AcDbPolyline
 90
2
 70
0
 10
2235.697000
 20
776.341685
 30
0.0
 10
2288.610000
 20
776.341685
 30
0.0
  0
LWPOLYLINE
  5
316
100
AcDbEntity
  8
SECTION_JOG_LINES
 62
7
100
AcDbPolyline
 90
2
 70
0
 10
2235.697000
 20
829.251685
 30
0.0
 10
2235.697000
 20
776.341685
 30
0.0
  0
LWPOLYLINE
  5
317
100
AcDbEntity
  8
SECTION_JOG_LINES
 62
7
100
AcDbPolyline
 90
2
 70
0
 10
2288.610000
 20
829.251685
 30
0.0
 10
2235.697000
 20
829.251685
 30
0.0
  0
LWPOLYLINE
  5
318
100
AcDbEntity
  8
SECTION_JOG_LINES
 62
7
100
AcDbPolyline
 90
2
 70
0
 10
2504.061000
 20
785.341685
 30
0.0
 10
2504.061000
 20
838.251685
 30
0.0
  0
LWPOLYLINE
  5
319
100
AcDbEntity
  8
SECTION_JOG_LINES
 62
7
100
AcDbPolyline
 90
2
 70
0
 10
2451.148000
 20
785.341685
 30
0.0
 10
2504.061000
 20
785.341685
 30
0.0
  0
LWPOLYLINE
  5
31a
100
AcDbEntity
  8
SECTION_JOG_LINES
 62
7
100
AcDbPolyline
 90
2
 70
0
 10
2451.148000
 20
838.251685
 30
0.0
 10
2451.148000
 20
785.341685
 30
0.0
  0
LWPOLYLINE
  5
31b
100
AcDbEntity
  8
SECTION_JOG_LINES
 62
7
100
AcDbPolyline
 90
2
 70
0
 10
2504.061000
 20
838.251685
 30
0.0
 10
2451.148000
 20
838.251685
 30
0.0
  0
LWPOLYLINE
  5
31c
100
AcDbEntity
  8
SECTION_JOG_LINES
 62
7
100
AcDbPolyline
 90
2
 70
0
 10
2379.330000
 20
919.946685
 30
0.0
 10
2432.244000
 20
919.946685
 30
0.0
  0
LWPOLYLINE
  5
31d
100
AcDbEntity
  8
SECTION_JOG_LINES
 62
7
100
AcDbPolyline
 90
2
 70
0
 10
2379.330000
 20
972.860685
 30
0.0
 10
2379.330000
 20
919.946685
 30
0.0
  0
LWPOLYLINE
  5
31e
100
AcDbEntity
  8
SECTION_JOG_LINES
 62
7
100
AcDbPolyline
 90
2
 70
0
 10
2432.244000
 20
972.860685
 30
0.0
 10
2379.330000
 20
972.860685
 30
0.0
  0
LWPOLYLINE
  5
31f
100
AcDbEntity
  8
SECTION_JOG_LINES
 62
7
100
AcDbPolyline
 90
2
 70
0
 10
2432.244000
 20
919.946685
 30
0.0
 10
2432.244000
 20
972.860685
 30
0.0
  0
SPLINE
  5
320
100
AcDbEntity
  8
SECTION_JOG_LINES
 62
7
100
AcDbSpline
 70
8
 71
3
 72
8
 73
4
 74
0
 40
0
 40
0
 40
0
 40
0
 40
1
 40
1
 40
1
 40
1
 10
2321.513400
 20
992.446175
 30
0.0
 10
2321.510772
 20
994.531690
 30
0.0
 10
2319.819391
 20
996.220941
 30
0.0
 10
2317.733875
 20
996.220941
 30
0.0
  0
SPLINE
  5
321
100
AcDbEntity
  8
SECTION_JOG_LINES
 62
7
100
AcDbSpline
 70
8
 71
3
 72
8
 73
4
 74
0
 40
0
 40
0
 40
0
 40
0
 40
1
 40
1
 40
1
 40
1
 10
2317.733875
 20
996.220941
 30
0.0
 10
2315.648359
 20
996.220941
 30
0.0
 10
2313.956978
 20
994.531690
 30
0.0
 10
2313.954350
 20
992.446175
 30
0.0
  0
SPLINE
  5
322
100
AcDbEntity
  8
SECTION_JOG_LINES
 62
7
100
AcDbSpline
 70
8
 71
3
 72
8
 73
4
 74
0
 40
0
 40
0
 40
0
 40
0
 40
1
 40
1
 40
1
 40
1
 10
2313.954350
 20
992.446175
 30
0.0
 10
2313.956978
 20
990.360660
 30
0.0
 10
2315.648359
 20
988.671409
 30
0.0
 10
2317.733875
 20
988.671409
 30
0.0
  0
SPLINE
  5
323
100
AcDbEntity
  8
SECTION_JOG_LINES
 62
7
100
AcDbSpline
 70
8
 71
3
 72
8
 73
4
 74
0
 40
0
 40
0
 40
0
 40
0
 40
1
 40
1
 40
1
 40
1
 10
2317.733875
 20
988.671409
 30
0.0
 10
2319.819391
 20
988.671409
 30
0.0
 10
2321.510772
 20
990.360660
 30
0.0
 10
2321.513400
 20
992.446175
 30
0.0
  0
LWPOLYLINE
  5
324
100
AcDbEntity
  8
SECTION_JOG_LINES
 62
7
100
AcDbPolyline
 90
17
 70
1
 10
2295.186000
 20
998.853685
 30
0.0
 10
2084.482000
 20
998.853685
 30
0.0
 10
2084.482000
 20
786.251685
 30
0.0
 10
2228.107000
 20
786.251685
 30
0.0
 10
2228.107000
 20
768.301685
 30
0.0
 10
2299.915000
 20
768.301685
 30
0.0
 10
2299.915000
 20
759.791685
 30
0.0
 10
2367.950000
 20
759.791685
 30
0.0
 10
2367.950000
 20
768.301685
 30
0.0
 10
2439.758000
 20
768.301685
 30
0.0
 10
2439.758000
 20
777.751685
 30
0.0
 10
2513.458000
 20
777.751685
 30
0.0
 10
2513.458000
 20
973.578685
 30
0.0
 10
2590.274000
 20
1017.908685
 30
0.0
 10
2538.345000
 20
1108.086685
 30
0.0
 10
2477.466000
 20
1072.902685
 30
0.0
 10
2335.744000
 20
1054.467685
 30
0.0
  0
SPLINE
  5
325
100
AcDbEntity
  8
SECTION_JOG_LINES
 62
7
100
AcDbSpline
 70
8
 71
3
 72
8
 73
4
 74
0
 40
0
 40
0
 40
0
 40
0
 40
1
 40
1
 40
1
 40
1
 10
2497.510880
 20
1021.225385
 30
0.0
 10
2497.508252
 20
1023.310900
 30
0.0
 10
2495.816871
 20
1025.000151
 30
0.0
 10
2493.731355
 20
1025.000151
 30
0.0
  0
SPLINE
  5
326
100
AcDbEntity
  8
SECTION_JOG_LINES
 62
7
100
AcDbSpline
 70
8
 71
3
 72
8
 73
4
 74
0
 40
0
 40
0
 40
0
 40
0
 40
1
 40
1
 40
1
 40
1
 10
2493.731355
 20
1025.000151
 30
0.0
 10
2491.645839
 20
1025.000151
 30
0.0
 10
2489.954458
 20
1023.310900
 30
0.0
 10
2489.951830
 20
1021.225385
 30
0.0
  0
SPLINE
  5
327
100
AcDbEntity
  8
SECTION_JOG_LINES
 62
7
100
AcDbSpline
 70
8
 71
3
 72
8
 73
4
 74
0
 40
0
 40
0
 40
0
 40
0
 40
1
 40
1
 40
1
 40
1
 10
2489.951830
 20
1021.225385
 30
0.0
 10
2489.954458
 20
1019.139870
 30
0.0
 10
2491.645839
 20
1017.450619
 30
0.0
 10
2493.731355
 20
1017.450619
 30
0.0
  0
SPLINE
  5
328
100
AcDbEntity
  8
SECTION_JOG_LINES
 62
7
100
AcDbSpline
 70
8
 71
3
 72
8
 73
4
 74
0
 40
0
 40
0
 40
0
 40
0
 40
1
 40
1
 40
1
 40
1
 10
2493.731355
 20
1017.450619
 30
0.0
 10
2495.816871
 20
1017.450619
 30
0.0
 10
2497.508252
 20
1019.139870
 30
0.0
 10
2497.510880
 20
1021.225385
 30
0.0
  0
LWPOLYLINE
  5
329
100
AcDbEntity
  8
SECTION_JOG_LINES
 62
7
100
AcDbPolyline
 90
1
 70
1
 10
2321.513400
 20
992.446175
 30
0.0
  0
SPLINE
  5
32a
100
AcDbEntity
  8
SECTION_JOG_LINES
 62
7
100
AcDbSpline
 70
8
 71
3
 72
8
 73
4
 74
0
 40
0
 40
0
 40
0
 40
0
 40
1
 40
1
 40
1
 40
1
 10
2445.523480
 20
842.191085
 30
0.0
 10
2445.520852
 20
844.276600
 30
0.0
 10
2443.829471
 20
845.965851
 30
0.0
 10
2441.743955
 20
845.965851
 30
0.0
  0
SPLINE
  5
32b
100
AcDbEntity
  8
SECTION_JOG_LINES
 62
7
100
AcDbSpline
 70
8
 71
3
 72
8
 73
4
 74
0
 40
0
 40
0
 40
0
 40
0
 40
1
 40
1
 40
1
 40
1
 10
2441.743955
 20
845.965851
 30
0.0
 10
2439.658439
 20
845.965851
 30
0.0
 10
2437.967058
 20
844.276600
 30
0.0
 10
2437.964430
 20
842.191085
 30
0.0
  0
SPLINE
  5
32c
100
AcDbEntity
  8
SECTION_JOG_LINES
 62
7
100
AcDbSpline
 70
8
 71
3
 72
8
 73
4
 74
0
 40
0
 40
0
 40
0
 40
0
 40
1
 40
1
 40
1
 40
1
 10
2437.964430
 20
842.191085
 30
0.0
 10
2437.967058
 20
840.105570
 30
0.0
 10
2439.658439
 20
838.416319
 30
0.0
 10
2441.743955
 20
838.416319
 30
0.0
  0
SPLINE
  5
32d
100
AcDbEntity
  8
SECTION_JOG_LINES
 62
7
100
AcDbSpline
 70
8
 71
3
 72
8
 73
4
 74
0
 40
0
 40
0
 40
0
 40
0
 40
1
 40
1
 40
1
 40
1
 10
2441.743955
 20
838.416319
 30
0.0
 10
2443.829471
 20
838.416319
 30
0.0
 10
2445.520852
 20
840.105570
 30
0.0
 10
2445.523480
 20
842.191085
 30
0.0
  0
LWPOLYLINE
  5
32e
100
AcDbEntity
  8
SECTION_JOG_LINES
 62
7
100
AcDbPolyline
 90
1
 70
1
 10
2497.510880
 20
1021.225385
 30
0.0
  0
SPLINE
  5
32f
100
AcDbEntity
  8
SECTION_JOG_LINES
 62
7
100
AcDbSpline
 70
8
 71
3
 72
8
 73
4
 74
0
 40
0
 40
0
 40
0
 40
0
 40
1
 40
1
 40
1
 40
1
 10
3053.401370
 20
762.106625
 30
0.0
 10
3053.231190
 20
762.399535
 30
0.0
 10
3052.922480
 20
762.607785
 30
0.0
 10
3052.588470
 20
762.658485
 30
0.0
  0
SPLINE
  5
330
100
AcDbEntity
  8
SECTION_JOG_LINES
 62
7
100
AcDbSpline
 70
8
 71
3
 72
8
 73
4
 74
0
 40
0
 40
0
 40
0
 40
0
 40
1
 40
1
 40
1
 40
1
 10
3052.588470
 20
762.658485
 30
0.0
 10
3052.337970
 20
762.696485
 30
0.0
 10
3052.073230
 20
762.645885
 30
0.0
 10
3051.853200
 20
762.518785
 30
0.0
  0
SPLINE
  5
331
100
AcDbEntity
  8
SECTION_JOG_LINES
 62
7
100
AcDbSpline
 70
8
 71
3
 72
8
 73
4
 74
0
 40
0
 40
0
 40
0
 40
0
 40
1
 40
1
 40
1
 40
1
 10
2741.021360
 20
861.190185
 30
0.0
 10
2741.021360
 20
862.540481
 30
0.0
 10
2740.300986
 20
863.788206
 30
0.0
 10
2739.131595
 20
864.463354
 30
0.0
  0
SPLINE
  5
332
100
AcDbEntity
  8
SECTION_JOG_LINES
 62
7
100
AcDbSpline
 70
8
 71
3
 72
8
 73
4
 74
0
 40
0
 40
0
 40
0
 40
0
 40
1
 40
1
 40
1
 40
1
 10
2739.131595
 20
864.463354
 30
0.0
 10
2737.962204
 20
865.138502
 30
0.0
 10
2736.521456
 20
865.138502
 30
0.0
 10
2735.352065
 20
864.463354
 30
0.0
  0
SPLINE
  5
333
100
AcDbEntity
  8
SECTION_JOG_LINES
 62
7
100
AcDbSpline
 70
8
 71
3
 72
8
 73
4
 74
0
 40
0
 40
0
 40
0
 40
0
 40
1
 40
1
 40
1
 40
1
 10
2735.352065
 20
864.463354
 30
0.0
 10
2734.182674
 20
863.788206
 30
0.0
 10
2733.462300
 20
862.540481
 30
0.0
 10
2733.462300
 20
861.190185
 30
0.0
  0
SPLINE
  5
334
100
AcDbEntity
  8
SECTION_JOG_LINES
 62
7
100
AcDbSpline
 70
8
 71
3
 72
8
 73
4
 74
0
 40
0
 40
0
 40
0
 40
0
 40
1
 40
1
 40
1
 40
1
 10
2733.462300
 20
861.190185
 30
0.0
 10
2733.462300
 20
859.839889
 30
0.0
 10
2734.182674
 20
858.592164
 30
0.0
 10
2735.352065
 20
857.917016
 30
0.0
  0
SPLINE
  5
335
100
AcDbEntity
  8
SECTION_JOG_LINES
 62
7
100
AcDbSpline
 70
8
 71
3
 72
8
 73
4
 74
0
 40
0
 40
0
 40
0
 40
0
 40
1
 40
1
 40
1
 40
1
 10
2735.352065
 20
857.917016
 30
0.0
 10
2736.521456
 20
857.241868
 30
0.0
 10
2737.962204
 20
857.241868
 30
0.0
 10
2739.131595
 20
857.917016
 30
0.0
  0
SPLINE
  5
336
100
AcDbEntity
  8
SECTION_JOG_LINES
 62
7
100
AcDbSpline
 70
8
 71
3
 72
8
 73
4
 74
0
 40
0
 40
0
 40
0
 40
0
 40
1
 40
1
 40
1
 40
1
 10
2739.131595
 20
857.917016
 30
0.0
 10
2740.300986
 20
858.592164
 30
0.0
 10
2741.021360
 20
859.839889
 30
0.0
 10
2741.021360
 20
861.190185
 30
0.0
  0
LWPOLYLINE
  5
337
100
AcDbEntity
  8
SECTION_JOG_LINES
 62
7
100
AcDbPolyline
 90
1
 70
1
 10
2445.523480
 20
842.191085
 30
0.0
  0
LWPOLYLINE
  5
338
100
AcDbEntity
  8
SECTION_JOG_LINES
 62
7
100
AcDbPolyline
 90
1
 70
1
 10
2741.021360
 20
861.190185
 30
0.0
  0
LWPOLYLINE
  5
339
100
AcDbEntity
  8
SECTION_JOG_LINES
 62
7
100
AcDbPolyline
 90
2
 70
0
 10
3014.871000
 20
915.778685
 30
0.0
 10
2961.958000
 20
915.778685
 30
0.0
  0
LWPOLYLINE
  5
33a
100
AcDbEntity
  8
SECTION_JOG_LINES
 62
7
100
AcDbPolyline
 90
2
 70
0
 10
3014.871000
 20
862.867685
 30
0.0
 10
3014.871000
 20
915.778685
 30
0.0
  0
LWPOLYLINE
  5
33b
100
AcDbEntity
  8
SECTION_JOG_LINES
 62
7
100
AcDbPolyline
 90
2
 70
0
 10
2961.958000
 20
862.867685
 30
0.0
 10
3014.871000
 20
862.867685
 30
0.0
  0
LWPOLYLINE
  5
33c
100
AcDbEntity
  8
SECTION_JOG_LINES
 62
7
100
AcDbPolyline
 90
2
 70
0
 10
2961.958000
 20
915.778685
 30
0.0
 10
2961.958000
 20
862.867685
 30
0.0
  0
LWPOLYLINE
  5
33d
100
AcDbEntity
  8
SECTION_JOG_LINES
 62
7
100
AcDbPolyline
 90
2
 70
0
 10
3014.871000
 20
987.590685
 30
0.0
 10
2961.958000
 20
987.590685
 30
0.0
  0
LWPOLYLINE
  5
33e
100
AcDbEntity
  8
SECTION_JOG_LINES
 62
7
100
AcDbPolyline
 90
2
 70
0
 10
3014.871000
 20
934.676685
 30
0.0
 10
3014.871000
 20
987.590685
 30
0.0
  0
LWPOLYLINE
  5
33f
100
AcDbEntity
  8
SECTION_JOG_LINES
 62
7
100
AcDbPolyline
 90
2
 70
0
 10
2961.958000
 20
934.676685
 30
0.0
 10
3014.871000
 20
934.676685
 30
0.0
  0
LWPOLYLINE
  5
340
100
AcDbEntity
  8
SECTION_JOG_LINES
 62
7
100
AcDbPolyline
 90
2
 70
0
 10
2961.958000
 20
987.590685
 30
0.0
 10
2961.958000
 20
934.676685
 30
0.0
  0
LWPOLYLINE
  5
341
100
AcDbEntity
  8
SECTION_JOG_LINES
 62
7
100
AcDbPolyline
 90
2
 70
0
 10
2602.891000
 20
852.907685
 30
0.0
 10
2602.891000
 20
799.987685
 30
0.0
  0
LWPOLYLINE
  5
342
100
AcDbEntity
  8
SECTION_JOG_LINES
 62
7
100
AcDbPolyline
 90
2
 70
0
 10
2655.804000
 20
852.907685
 30
0.0
 10
2602.891000
 20
852.907685
 30
0.0
  0
LWPOLYLINE
  5
343
100
AcDbEntity
  8
SECTION_JOG_LINES
 62
7
100
AcDbPolyline
 90
2
 70
0
 10
2655.804000
 20
799.987685
 30
0.0
 10
2655.804000
 20
852.907685
 30
0.0
  0
LWPOLYLINE
  5
344
100
AcDbEntity
  8
SECTION_JOG_LINES
 62
7
100
AcDbPolyline
 90
2
 70
0
 10
2602.891000
 20
799.987685
 30
0.0
 10
2655.804000
 20
799.987685
 30
0.0
  0
LWPOLYLINE
  5
345
100
AcDbEntity
  8
SECTION_JOG_LINES
 62
7
100
AcDbPolyline
 90
2
 70
0
 10
2655.804000
 20
871.807685
 30
0.0
 10
2655.804000
 20
924.716685
 30
0.0
  0
LWPOLYLINE
  5
346
100
AcDbEntity
  8
SECTION_JOG_LINES
 62
7
100
AcDbPolyline
 90
2
 70
0
 10
2602.891000
 20
871.807685
 30
0.0
 10
2655.804000
 20
871.807685
 30
0.0
  0
LWPOLYLINE
  5
347
100
AcDbEntity
  8
SECTION_JOG_LINES
 62
7
100
AcDbPolyline
 90
2
 70
0
 10
2602.891000
 20
924.716685
 30
0.0
 10
2602.891000
 20
871.807685
 30
0.0
  0
LWPOLYLINE
  5
348
100
AcDbEntity
  8
SECTION_JOG_LINES
 62
7
100
AcDbPolyline
 90
2
 70
0
 10
2655.804000
 20
924.716685
 30
0.0
 10
2602.891000
 20
924.716685
 30
0.0
  0
LWPOLYLINE
  5
349
100
AcDbEntity
  8
SECTION_JOG_LINES
 62
7
100
AcDbPolyline
 90
2
 70
0
 10
2871.238000
 20
844.877685
 30
0.0
 10
2871.238000
 20
897.790685
 30
0.0
  0
LWPOLYLINE
  5
34a
100
AcDbEntity
  8
SECTION_JOG_LINES
 62
7
100
AcDbPolyline
 90
2
 70
0
 10
2818.324000
 20
844.877685
 30
0.0
 10
2871.238000
 20
844.877685
 30
0.0
  0
LWPOLYLINE
  5
34b
100
AcDbEntity
  8
SECTION_JOG_LINES
 62
7
100
AcDbPolyline
 90
2
 70
0
 10
2818.324000
 20
897.790685
 30
0.0
 10
2818.324000
 20
844.877685
 30
0.0
  0
LWPOLYLINE
  5
34c
100
AcDbEntity
  8
SECTION_JOG_LINES
 62
7
100
AcDbPolyline
 90
2
 70
0
 10
2871.238000
 20
897.790685
 30
0.0
 10
2818.324000
 20
897.790685
 30
0.0
  0
LWPOLYLINE
  5
34d
100
AcDbEntity
  8
SECTION_JOG_LINES
 62
7
100
AcDbPolyline
 90
2
 70
0
 10
3034.431000
 20
1014.655685
 30
0.0
 10
3080.254000
 20
1041.112685
 30
0.0
  0
LWPOLYLINE
  5
34e
100
AcDbEntity
  8
SECTION_JOG_LINES
 62
7
100
AcDbPolyline
 90
2
 70
0
 10
3007.975000
 20
1060.479685
 30
0.0
 10
3034.431000
 20
1014.655685
 30
0.0
  0
LWPOLYLINE
  5
34f
100
AcDbEntity
  8
SECTION_JOG_LINES
 62
7
100
AcDbPolyline
 90
2
 70
0
 10
3053.799000
 20
1086.936685
 30
0.0
 10
3007.975000
 20
1060.479685
 30
0.0
  0
LWPOLYLINE
  5
350
100
AcDbEntity
  8
SECTION_JOG_LINES
 62
7
100
AcDbPolyline
 90
2
 70
0
 10
3080.254000
 20
1041.112685
 30
0.0
 10
3053.799000
 20
1086.936685
 30
0.0
  0
LWPOLYLINE
  5
351
100
AcDbEntity
  8
SECTION_JOG_LINES
 62
7
100
AcDbPolyline
 90
2
 70
0
 10
2890.140000
 20
834.957685
 30
0.0
 10
2890.140000
 20
782.037685
 30
0.0
  0
LWPOLYLINE
  5
352
100
AcDbEntity
  8
SECTION_JOG_LINES
 62
7
100
AcDbPolyline
 90
2
 70
0
 10
2943.054000
 20
834.957685
 30
0.0
 10
2890.140000
 20
834.957685
 30
0.0
  0
LWPOLYLINE
  5
353
100
AcDbEntity
  8
SECTION_JOG_LINES
 62
7
100
AcDbPolyline
 90
2
 70
0
 10
2943.054000
 20
782.037685
 30
0.0
 10
2943.054000
 20
834.957685
 30
0.0
  0
LWPOLYLINE
  5
354
100
AcDbEntity
  8
SECTION_JOG_LINES
 62
7
100
AcDbPolyline
 90
2
 70
0
 10
2890.140000
 20
782.037685
 30
0.0
 10
2943.054000
 20
782.037685
 30
0.0
  0
LWPOLYLINE
  5
355
100
AcDbEntity
  8
SECTION_JOG_LINES
 62
7
100
AcDbPolyline
 90
2
 70
0
 10
2746.507000
 20
978.592685
 30
0.0
 10
2746.507000
 20
925.678685
 30
0.0
  0
LWPOLYLINE
  5
356
100
AcDbEntity
  8
SECTION_JOG_LINES
 62
7
100
AcDbPolyline
 90
2
 70
0
 10
2799.420000
 20
978.592685
 30
0.0
 10
2746.507000
 20
978.592685
 30
0.0
  0
LWPOLYLINE
  5
357
100
AcDbEntity
  8
SECTION_JOG_LINES
 62
7
100
AcDbPolyline
 90
2
 70
0
 10
2799.420000
 20
925.678685
 30
0.0
 10
2799.420000
 20
978.592685
 30
0.0
  0
LWPOLYLINE
  5
358
100
AcDbEntity
  8
SECTION_JOG_LINES
 62
7
100
AcDbPolyline
 90
2
 70
0
 10
2746.507000
 20
925.678685
 30
0.0
 10
2799.420000
 20
925.678685
 30
0.0
  0
LWPOLYLINE
  5
359
100
AcDbEntity
  8
SECTION_JOG_LINES
 62
7
100
AcDbPolyline
 90
2
 70
0
 10
2871.238000
 20
825.977685
 30
0.0
 10
2818.324000
 20
825.977685
 30
0.0
  0
LWPOLYLINE
  5
35a
100
AcDbEntity
  8
SECTION_JOG_LINES
 62
7
100
AcDbPolyline
 90
2
 70
0
 10
2871.238000
 20
773.067685
 30
0.0
 10
2871.238000
 20
825.977685
 30
0.0
  0
LWPOLYLINE
  5
35b
100
AcDbEntity
  8
SECTION_JOG_LINES
 62
7
100
AcDbPolyline
 90
2
 70
0
 10
2818.324000
 20
773.067685
 30
0.0
 10
2871.238000
 20
773.067685
 30
0.0
  0
LWPOLYLINE
  5
35c
100
AcDbEntity
  8
SECTION_JOG_LINES
 62
7
100
AcDbPolyline
 90
2
 70
0
 10
2818.324000
 20
825.977685
 30
0.0
 10
2818.324000
 20
773.067685
 30
0.0
  0
LWPOLYLINE
  5
35d
100
AcDbEntity
  8
SECTION_JOG_LINES
 62
7
100
AcDbPolyline
 90
2
 70
0
 10
2746.507000
 20
906.781685
 30
0.0
 10
2746.507000
 20
853.867685
 30
0.0
  0
LWPOLYLINE
  5
35e
100
AcDbEntity
  8
SECTION_JOG_LINES
 62
7
100
AcDbPolyline
 90
2
 70
0
 10
2799.420000
 20
906.781685
 30
0.0
 10
2746.507000
 20
906.781685
 30
0.0
  0
LWPOLYLINE
  5
35f
100
AcDbEntity
  8
SECTION_JOG_LINES
 62
7
100
AcDbPolyline
 90
2
 70
0
 10
2799.420000
 20
853.867685
 30
0.0
 10
2799.420000
 20
906.781685
 30
0.0
  0
LWPOLYLINE
  5
360
100
AcDbEntity
  8
SECTION_JOG_LINES
 62
7
100
AcDbPolyline
 90
2
 70
0
 10
2746.507000
 20
853.867685
 30
0.0
 10
2799.420000
 20
853.867685
 30
0.0
  0
LWPOLYLINE
  5
361
100
AcDbEntity
  8
SECTION_JOG_LINES
 62
7
100
AcDbPolyline
 90
2
 70
0
 10
2727.608000
 20
799.987685
 30
0.0
 10
2727.608000
 20
852.907685
 30
0.0
  0
LWPOLYLINE
  5
362
100
AcDbEntity
  8
SECTION_JOG_LINES
 62
7
100
AcDbPolyline
 90
2
 70
0
 10
2674.695000
 20
799.987685
 30
0.0
 10
2727.608000
 20
799.987685
 30
0.0
  0
LWPOLYLINE
  5
363
100
AcDbEntity
  8
SECTION_JOG_LINES
 62
7
100
AcDbPolyline
 90
2
 70
0
 10
2674.695000
 20
852.907685
 30
0.0
 10
2674.695000
 20
799.987685
 30
0.0
  0
LWPOLYLINE
  5
364
100
AcDbEntity
  8
SECTION_JOG_LINES
 62
7
100
AcDbPolyline
 90
2
 70
0
 10
2727.608000
 20
852.907685
 30
0.0
 10
2674.695000
 20
852.907685
 30
0.0
  0
LWPOLYLINE
  5
365
100
AcDbEntity
  8
SECTION_JOG_LINES
 62
7
100
AcDbPolyline
 90
2
 70
0
 10
2674.695000
 20
924.716685
 30
0.0
 10
2674.695000
 20
871.807685
 30
0.0
  0
LWPOLYLINE
  5
366
100
AcDbEntity
  8
SECTION_JOG_LINES
 62
7
100
AcDbPolyline
 90
2
 70
0
 10
2727.608000
 20
924.716685
 30
0.0
 10
2674.695000
 20
924.716685
 30
0.0
  0
LWPOLYLINE
  5
367
100
AcDbEntity
  8
SECTION_JOG_LINES
 62
7
100
AcDbPolyline
 90
2
 70
0
 10
2727.608000
 20
871.807685
 30
0.0
 10
2727.608000
 20
924.716685
 30
0.0
  0
LWPOLYLINE
  5
368
100
AcDbEntity
  8
SECTION_JOG_LINES
 62
7
100
AcDbPolyline
 90
2
 70
0
 10
2674.695000
 20
871.807685
 30
0.0
 10
2727.608000
 20
871.807685
 30
0.0
  0
LWPOLYLINE
  5
369
100
AcDbEntity
  8
SECTION_JOG_LINES
 62
7
100
AcDbPolyline
 90
2
 70
0
 10
2727.608000
 20
996.528685
 30
0.0
 10
2674.695000
 20
996.528685
 30
0.0
  0
LWPOLYLINE
  5
36a
100
AcDbEntity
  8
SECTION_JOG_LINES
 62
7
100
AcDbPolyline
 90
2
 70
0
 10
2727.608000
 20
943.614685
 30
0.0
 10
2727.608000
 20
996.528685
 30
0.0
  0
LWPOLYLINE
  5
36b
100
AcDbEntity
  8
SECTION_JOG_LINES
 62
7
100
AcDbPolyline
 90
2
 70
0
 10
2674.695000
 20
943.614685
 30
0.0
 10
2727.608000
 20
943.614685
 30
0.0
  0
LWPOLYLINE
  5
36c
100
AcDbEntity
  8
SECTION_JOG_LINES
 62
7
100
AcDbPolyline
 90
2
 70
0
 10
2674.695000
 20
996.528685
 30
0.0
 10
2674.695000
 20
943.614685
 30
0.0
  0
LWPOLYLINE
  5
36d
100
AcDbEntity
  8
SECTION_JOG_LINES
 62
7
100
AcDbPolyline
 90
2
 70
0
 10
2907.218000
 20
1052.873685
 30
0.0
 10
2854.304000
 20
1052.873685
 30
0.0
  0
LWPOLYLINE
  5
36e
100
AcDbEntity
  8
SECTION_JOG_LINES
 62
7
100
AcDbPolyline
 90
2
 70
0
 10
2907.218000
 20
999.958685
 30
0.0
 10
2907.218000
 20
1052.873685
 30
0.0
  0
LWPOLYLINE
  5
36f
100
AcDbEntity
  8
SECTION_JOG_LINES
 62
7
100
AcDbPolyline
 90
2
 70
0
 10
2854.304000
 20
999.958685
 30
0.0
 10
2907.218000
 20
999.958685
 30
0.0
  0
LWPOLYLINE
  5
370
100
AcDbEntity
  8
SECTION_JOG_LINES
 62
7
100
AcDbPolyline
 90
2
 70
0
 10
2854.304000
 20
1052.873685
 30
0.0
 10
2854.304000
 20
999.958685
 30
0.0
  0
LWPOLYLINE
  5
371
100
AcDbEntity
  8
SECTION_JOG_LINES
 62
7
100
AcDbPolyline
 90
2
 70
0
 10
2890.140000
 20
906.764685
 30
0.0
 10
2890.140000
 20
853.847685
 30
0.0
  0
LWPOLYLINE
  5
372
100
AcDbEntity
  8
SECTION_JOG_LINES
 62
7
100
AcDbPolyline
 90
2
 70
0
 10
2943.054000
 20
906.764685
 30
0.0
 10
2890.140000
 20
906.764685
 30
0.0
  0
LWPOLYLINE
  5
373
100
AcDbEntity
  8
SECTION_JOG_LINES
 62
7
100
AcDbPolyline
 90
2
 70
0
 10
2943.054000
 20
853.847685
 30
0.0
 10
2943.054000
 20
906.764685
 30
0.0
  0
LWPOLYLINE
  5
374
100
AcDbEntity
  8
SECTION_JOG_LINES
 62
7
100
AcDbPolyline
 90
2
 70
0
 10
2890.140000
 20
853.847685
 30
0.0
 10
2943.054000
 20
853.847685
 30
0.0
  0
LWPOLYLINE
  5
375
100
AcDbEntity
  8
SECTION_JOG_LINES
 62
7
100
AcDbPolyline
 90
2
 70
0
 10
2655.804000
 20
996.528685
 30
0.0
 10
2602.891000
 20
996.528685
 30
0.0
  0
LWPOLYLINE
  5
376
100
AcDbEntity
  8
SECTION_JOG_LINES
 62
7
100
AcDbPolyline
 90
2
 70
0
 10
2655.804000
 20
943.614685
 30
0.0
 10
2655.804000
 20
996.528685
 30
0.0
  0
LWPOLYLINE
  5
377
100
AcDbEntity
  8
SECTION_JOG_LINES
 62
7
100
AcDbPolyline
 90
2
 70
0
 10
2602.891000
 20
943.614685
 30
0.0
 10
2655.804000
 20
943.614685
 30
0.0
  0
LWPOLYLINE
  5
378
100
AcDbEntity
  8
SECTION_JOG_LINES
 62
7
100
AcDbPolyline
 90
2
 70
0
 10
2602.891000
 20
996.528685
 30
0.0
 10
2602.891000
 20
943.614685
 30
0.0
  0
LWPOLYLINE
  5
379
100
AcDbEntity
  8
SECTION_JOG_LINES
 62
7
100
AcDbPolyline
 90
2
 70
0
 10
2927.587000
 20
1055.368685
 30
0.0
 10
2941.282000
 20
1004.257685
 30
0.0
  0
LWPOLYLINE
  5
37a
100
AcDbEntity
  8
SECTION_JOG_LINES
 62
7
100
AcDbPolyline
 90
2
 70
0
 10
2978.698000
 20
1069.063685
 30
0.0
 10
2927.587000
 20
1055.368685
 30
0.0
  0
LWPOLYLINE
  5
37b
100
AcDbEntity
  8
SECTION_JOG_LINES
 62
7
100
AcDbPolyline
 90
2
 70
0
 10
2992.393000
 20
1017.952685
 30
0.0
 10
2978.698000
 20
1069.063685
 30
0.0
  0
LWPOLYLINE
  5
37c
100
AcDbEntity
  8
SECTION_JOG_LINES
 62
7
100
AcDbPolyline
 90
2
 70
0
 10
2941.282000
 20
1004.257685
 30
0.0
 10
2992.393000
 20
1017.952685
 30
0.0
  0
LWPOLYLINE
  5
37d
100
AcDbEntity
  8
SECTION_JOG_LINES
 62
7
100
AcDbPolyline
 90
2
 70
0
 10
2871.238000
 20
969.600685
 30
0.0
 10
2818.324000
 20
969.600685
 30
0.0
  0
LWPOLYLINE
  5
37e
100
AcDbEntity
  8
SECTION_JOG_LINES
 62
7
100
AcDbPolyline
 90
2
 70
0
 10
2871.238000
 20
916.686685
 30
0.0
 10
2871.238000
 20
969.600685
 30
0.0
  0
LWPOLYLINE
  5
37f
100
AcDbEntity
  8
SECTION_JOG_LINES
 62
7
100
AcDbPolyline
 90
2
 70
0
 10
2818.324000
 20
916.686685
 30
0.0
 10
2871.238000
 20
916.686685
 30
0.0
  0
LWPOLYLINE
  5
380
100
AcDbEntity
  8
SECTION_JOG_LINES
 62
7
100
AcDbPolyline
 90
2
 70
0
 10
2818.324000
 20
969.600685
 30
0.0
 10
2818.324000
 20
916.686685
 30
0.0
  0
LWPOLYLINE
  5
381
100
AcDbEntity
  8
SECTION_JOG_LINES
 62
7
100
AcDbPolyline
 90
2
 70
0
 10
2799.420000
 20
782.057685
 30
0.0
 10
2799.420000
 20
834.967685
 30
0.0
  0
LWPOLYLINE
  5
382
100
AcDbEntity
  8
SECTION_JOG_LINES
 62
7
100
AcDbPolyline
 90
2
 70
0
 10
2746.507000
 20
782.057685
 30
0.0
 10
2799.420000
 20
782.057685
 30
0.0
  0
LWPOLYLINE
  5
383
100
AcDbEntity
  8
SECTION_JOG_LINES
 62
7
100
AcDbPolyline
 90
2
 70
0
 10
2746.507000
 20
834.967685
 30
0.0
 10
2746.507000
 20
782.057685
 30
0.0
  0
LWPOLYLINE
  5
384
100
AcDbEntity
  8
SECTION_JOG_LINES
 62
7
100
AcDbPolyline
 90
2
 70
0
 10
2799.420000
 20
834.967685
 30
0.0
 10
2746.507000
 20
834.967685
 30
0.0
  0
LWPOLYLINE
  5
385
100
AcDbEntity
  8
SECTION_JOG_LINES
 62
7
100
AcDbPolyline
 90
2
 70
0
 10
3014.871000
 20
791.057685
 30
0.0
 10
3014.871000
 20
843.967685
 30
0.0
  0
LWPOLYLINE
  5
386
100
AcDbEntity
  8
SECTION_JOG_LINES
 62
7
100
AcDbPolyline
 90
2
 70
0
 10
2961.958000
 20
791.057685
 30
0.0
 10
3014.871000
 20
791.057685
 30
0.0
  0
LWPOLYLINE
  5
387
100
AcDbEntity
  8
SECTION_JOG_LINES
 62
7
100
AcDbPolyline
 90
2
 70
0
 10
2961.958000
 20
843.967685
 30
0.0
 10
2961.958000
 20
791.057685
 30
0.0
  0
LWPOLYLINE
  5
388
100
AcDbEntity
  8
SECTION_JOG_LINES
 62
7
100
AcDbPolyline
 90
2
 70
0
 10
3014.871000
 20
843.967685
 30
0.0
 10
2961.958000
 20
843.967685
 30
0.0
  0
LWPOLYLINE
  5
389
100
AcDbEntity
  8
SECTION_JOG_LINES
 62
7
100
AcDbPolyline
 90
2
 70
0
 10
2890.140000
 20
925.662685
 30
0.0
 10
2943.054000
 20
925.662685
 30
0.0
  0
LWPOLYLINE
  5
38a
100
AcDbEntity
  8
SECTION_JOG_LINES
 62
7
100
AcDbPolyline
 90
2
 70
0
 10
2890.140000
 20
978.576685
 30
0.0
 10
2890.140000
 20
925.662685
 30
0.0
  0
LWPOLYLINE
  5
38b
100
AcDbEntity
  8
SECTION_JOG_LINES
 62
7
100
AcDbPolyline
 90
2
 70
0
 10
2943.054000
 20
978.576685
 30
0.0
 10
2890.140000
 20
978.576685
 30
0.0
  0
LWPOLYLINE
  5
38c
100
AcDbEntity
  8
SECTION_JOG_LINES
 62
7
100
AcDbPolyline
 90
2
 70
0
 10
2943.054000
 20
925.662685
 30
0.0
 10
2943.054000
 20
978.576685
 30
0.0
  0
SPLINE
  5
38d
100
AcDbEntity
  8
SECTION_JOG_LINES
 62
7
100
AcDbSpline
 70
8
 71
3
 72
8
 73
4
 74
0
 40
0
 40
0
 40
0
 40
0
 40
1
 40
1
 40
1
 40
1
 10
2832.323400
 20
998.162175
 30
0.0
 10
2832.320772
 20
1000.247690
 30
0.0
 10
2830.629391
 20
1001.936941
 30
0.0
 10
2828.543875
 20
1001.936941
 30
0.0
  0
SPLINE
  5
38e
100
AcDbEntity
  8
SECTION_JOG_LINES
 62
7
100
AcDbSpline
 70
8
 71
3
 72
8
 73
4
 74
0
 40
0
 40
0
 40
0
 40
0
 40
1
 40
1
 40
1
 40
1
 10
2828.543875
 20
1001.936941
 30
0.0
 10
2826.458359
 20
1001.936941
 30
0.0
 10
2824.766978
 20
1000.247690
 30
0.0
 10
2824.764350
 20
998.162175
 30
0.0
  0
SPLINE
  5
38f
100
AcDbEntity
  8
SECTION_JOG_LINES
 62
7
100
AcDbSpline
 70
8
 71
3
 72
8
 73
4
 74
0
 40
0
 40
0
 40
0
 40
0
 40
1
 40
1
 40
1
 40
1
 10
2824.764350
 20
998.162175
 30
0.0
 10
2824.766978
 20
996.076660
 30
0.0
 10
2826.458359
 20
994.387409
 30
0.0
 10
2828.543875
 20
994.387409
 30
0.0
  0
SPLINE
  5
390
100
AcDbEntity
  8
SECTION_JOG_LINES
 62
7
100
AcDbSpline
 70
8
 71
3
 72
8
 73
4
 74
0
 40
0
 40
0
 40
0
 40
0
 40
1
 40
1
 40
1
 40
1
 10
2828.543875
 20
994.387409
 30
0.0
 10
2830.629391
 20
994.387409
 30
0.0
 10
2832.320772
 20
996.076660
 30
0.0
 10
2832.323400
 20
998.162175
 30
0.0
  0
LWPOLYLINE
  5
391
100
AcDbEntity
  8
SECTION_JOG_LINES
 62
7
100
AcDbPolyline
 90
17
 70
1
 10
2805.996000
 20
1004.569685
 30
0.0
 10
2595.292000
 20
1004.569685
 30
0.0
 10
2595.292000
 20
791.967685
 30
0.0
 10
2738.917000
 20
791.967685
 30
0.0
 10
2738.917000
 20
774.017685
 30
0.0
 10
2810.725000
 20
774.017685
 30
0.0
 10
2810.725000
 20
765.507685
 30
0.0
 10
2878.760000
 20
765.507685
 30
0.0
 10
2878.760000
 20
774.017685
 30
0.0
 10
2950.568000
 20
774.017685
 30
0.0
 10
2950.568000
 20
783.467685
 30
0.0
 10
3024.268000
 20
783.467685
 30
0.0
 10
3024.268000
 20
979.294685
 30
0.0
 10
3101.084000
 20
1023.624685
 30
0.0
 10
3049.155000
 20
1113.802685
 30
0.0
 10
2988.276000
 20
1078.618685
 30
0.0
 10
2846.554000
 20
1060.183685
 30
0.0
  0
SPLINE
  5
392
100
AcDbEntity
  8
SECTION_JOG_LINES
 62
7
100
AcDbSpline
 70
8
 71
3
 72
8
 73
4
 74
0
 40
0
 40
0
 40
0
 40
0
 40
1
 40
1
 40
1
 40
1
 10
3008.320880
 20
1026.941385
 30
0.0
 10
3008.318252
 20
1029.026900
 30
0.0
 10
3006.626871
 20
1030.716151
 30
0.0
 10
3004.541355
 20
1030.716151
 30
0.0
  0
SPLINE
  5
393
100
AcDbEntity
  8
SECTION_JOG_LINES
 62
7
100
AcDbSpline
 70
8
 71
3
 72
8
 73
4
 74
0
 40
0
 40
0
 40
0
 40
0
 40
1
 40
1
 40
1
 40
1
 10
3004.541355
 20
1030.716151
 30
0.0
 10
3002.455839
 20
1030.716151
 30
0.0
 10
3000.764458
 20
1029.026900
 30
0.0
 10
3000.761830
 20
1026.941385
 30
0.0
  0
SPLINE
  5
394
100
AcDbEntity
  8
SECTION_JOG_LINES
 62
7
100
AcDbSpline
 70
8
 71
3
 72
8
 73
4
 74
0
 40
0
 40
0
 40
0
 40
0
 40
1
 40
1
 40
1
 40
1
 10
3000.761830
 20
1026.941385
 30
0.0
 10
3000.764458
 20
1024.855870
 30
0.0
 10
3002.455839
 20
1023.166619
 30
0.0
 10
3004.541355
 20
1023.166619
 30
0.0
  0
SPLINE
  5
395
100
AcDbEntity
  8
SECTION_JOG_LINES
 62
7
100
AcDbSpline
 70
8
 71
3
 72
8
 73
4
 74
0
 40
0
 40
0
 40
0
 40
0
 40
1
 40
1
 40
1
 40
1
 10
3004.541355
 20
1023.166619
 30
0.0
 10
3006.626871
 20
1023.166619
 30
0.0
 10
3008.318252
 20
1024.855870
 30
0.0
 10
3008.320880
 20
1026.941385
 30
0.0
  0
LWPOLYLINE
  5
396
100
AcDbEntity
  8
SECTION_JOG_LINES
 62
7
100
AcDbPolyline
 90
1
 70
1
 10
2832.323400
 20
998.162175
 30
0.0
  0
SPLINE
  5
397
100
AcDbEntity
  8
SECTION_JOG_LINES
 62
7
100
AcDbSpline
 70
8
 71
3
 72
8
 73
4
 74
0
 40
0
 40
0
 40
0
 40
0
 40
1
 40
1
 40
1
 40
1
 10
2956.333480
 20
847.907085
 30
0.0
 10
2956.330852
 20
849.992600
 30
0.0
 10
2954.639471
 20
851.681851
 30
0.0
 10
2952.553955
 20
851.681851
 30
0.0
  0
SPLINE
  5
398
100
AcDbEntity
  8
SECTION_JOG_LINES
 62
7
100
AcDbSpline
 70
8
 71
3
 72
8
 73
4
 74
0
 40
0
 40
0
 40
0
 40
0
 40
1
 40
1
 40
1
 40
1
 10
2952.553955
 20
851.681851
 30
0.0
 10
2950.468439
 20
851.681851
 30
0.0
 10
2948.777058
 20
849.992600
 30
0.0
 10
2948.774430
 20
847.907085
 30
0.0
  0
SPLINE
  5
399
100
AcDbEntity
  8
SECTION_JOG_LINES
 62
7
100
AcDbSpline
 70
8
 71
3
 72
8
 73
4
 74
0
 40
0
 40
0
 40
0
 40
0
 40
1
 40
1
 40
1
 40
1
 10
2948.774430
 20
847.907085
 30
0.0
 10
2948.777058
 20
845.821570
 30
0.0
 10
2950.468439
 20
844.132319
 30
0.0
 10
2952.553955
 20
844.132319
 30
0.0
  0
SPLINE
  5
39a
100
AcDbEntity
  8
SECTION_JOG_LINES
 62
7
100
AcDbSpline
 70
8
 71
3
 72
8
 73
4
 74
0
 40
0
 40
0
 40
0
 40
0
 40
1
 40
1
 40
1
 40
1
 10
2952.553955
 20
844.132319
 30
0.0
 10
2954.639471
 20
844.132319
 30
0.0
 10
2956.330852
 20
845.821570
 30
0.0
 10
2956.333480
 20
847.907085
 30
0.0
  0
LWPOLYLINE
  5
39b
100
AcDbEntity
  8
SECTION_JOG_LINES
 62
7
100
AcDbPolyline
 90
1
 70
1
 10
3008.320880
 20
1026.941385
 30
0.0
  0
SPLINE
  5
39c
100
AcDbEntity
  8
SECTION_JOG_LINES
 62
7
100
AcDbSpline
 70
8
 71
3
 72
8
 73
4
 74
0
 40
0
 40
0
 40
0
 40
0
 40
1
 40
1
 40
1
 40
1
 10
2053.081370
 20
756.182625
 30
0.0
 10
2052.911190
 20
756.475535
 30
0.0
 10
2052.602480
 20
756.683785
 30
0.0
 10
2052.268470
 20
756.734485
 30
0.0
  0
SPLINE
  5
39d
100
AcDbEntity
  8
SECTION_JOG_LINES
 62
7
100
AcDbSpline
 70
8
 71
3
 72
8
 73
4
 74
0
 40
0
 40
0
 40
0
 40
0
 40
1
 40
1
 40
1
 40
1
 10
2052.268470
 20
756.734485
 30
0.0
 10
2052.017970
 20
756.772485
 30
0.0
 10
2051.753230
 20
756.721885
 30
0.0
 10
2051.533200
 20
756.594785
 30
0.0
  0
SPLINE
  5
39e
100
AcDbEntity
  8
SECTION_JOG_LINES
 62
7
100
AcDbSpline
 70
8
 71
3
 72
8
 73
4
 74
0
 40
0
 40
0
 40
0
 40
0
 40
1
 40
1
 40
1
 40
1
 10
1740.701360
 20
855.266185
 30
0.0
 10
1740.701360
 20
856.616481
 30
0.0
 10
1739.980986
 20
857.864206
 30
0.0
 10
1738.811595
 20
858.539354
 30
0.0
  0
SPLINE
  5
39f
100
AcDbEntity
  8
SECTION_JOG_LINES
 62
7
100
AcDbSpline
 70
8
 71
3
 72
8
 73
4
 74
0
 40
0
 40
0
 40
0
 40
0
 40
1
 40
1
 40
1
 40
1
 10
1738.811595
 20
858.539354
 30
0.0
 10
1737.642204
 20
859.214502
 30
0.0
 10
1736.201456
 20
859.214502
 30
0.0
 10
1735.032065
 20
858.539354
 30
0.0
  0
SPLINE
  5
3a0
100
AcDbEntity
  8
SECTION_JOG_LINES
 62
7
100
AcDbSpline
 70
8
 71
3
 72
8
 73
4
 74
0
 40
0
 40
0
 40
0
 40
0
 40
1
 40
1
 40
1
 40
1
 10
1735.032065
 20
858.539354
 30
0.0
 10
1733.862674
 20
857.864206
 30
0.0
 10
1733.142300
 20
856.616481
 30
0.0
 10
1733.142300
 20
855.266185
 30
0.0
  0
SPLINE
  5
3a1
100
AcDbEntity
  8
SECTION_JOG_LINES
 62
7
100
AcDbSpline
 70
8
 71
3
 72
8
 73
4
 74
0
 40
0
 40
0
 40
0
 40
0
 40
1
 40
1
 40
1
 40
1
 10
1733.142300
 20
855.266185
 30
0.0
 10
1733.142300
 20
853.915889
 30
0.0
 10
1733.862674
 20
852.668164
 30
0.0
 10
1735.032065
 20
851.993016
 30
0.0
  0
SPLINE
  5
3a2
100
AcDbEntity
  8
SECTION_JOG_LINES
 62
7
100
AcDbSpline
 70
8
 71
3
 72
8
 73
4
 74
0
 40
0
 40
0
 40
0
 40
0
 40
1
 40
1
 40
1
 40
1
 10
1735.032065
 20
851.993016
 30
0.0
 10
1736.201456
 20
851.317868
 30
0.0
 10
1737.642204
 20
851.317868
 30
0.0
 10
1738.811595
 20
851.993016
 30
0.0
  0
SPLINE
  5
3a3
100
AcDbEntity
  8
SECTION_JOG_LINES
 62
7
100
AcDbSpline
 70
8
 71
3
 72
8
 73
4
 74
0
 40
0
 40
0
 40
0
 40
0
 40
1
 40
1
 40
1
 40
1
 10
1738.811595
 20
851.993016
 30
0.0
 10
1739.980986
 20
852.668164
 30
0.0
 10
1740.701360
 20
853.915889
 30
0.0
 10
1740.701360
 20
855.266185
 30
0.0
  0
LWPOLYLINE
  5
3a4
100
AcDbEntity
  8
SECTION_JOG_LINES
 62
7
100
AcDbPolyline
 90
1
 70
1
 10
2956.333480
 20
847.907085
 30
0.0
  0
LWPOLYLINE
  5
3a5
100
AcDbEntity
  8
SECTION_JOG_LINES
 62
7
100
AcDbPolyline
 90
1
 70
1
 10
1740.701360
 20
855.266185
 30
0.0
  0
LWPOLYLINE
  5
3a6
100
AcDbEntity
  8
SECTION_JOG_LINES
 62
7
100
AcDbPolyline
 90
2
 70
0
 10
2014.551000
 20
909.854685
 30
0.0
 10
1961.638000
 20
909.854685
 30
0.0
  0
LWPOLYLINE
  5
3a7
100
AcDbEntity
  8
SECTION_JOG_LINES
 62
7
100
AcDbPolyline
 90
2
 70
0
 10
2014.551000
 20
856.943685
 30
0.0
 10
2014.551000
 20
909.854685
 30
0.0
  0
LWPOLYLINE
  5
3a8
100
AcDbEntity
  8
SECTION_JOG_LINES
 62
7
100
AcDbPolyline
 90
2
 70
0
 10
1961.638000
 20
856.943685
 30
0.0
 10
2014.551000
 20
856.943685
 30
0.0
  0
LWPOLYLINE
  5
3a9
100
AcDbEntity
  8
SECTION_JOG_LINES
 62
7
100
AcDbPolyline
 90
2
 70
0
 10
1961.638000
 20
909.854685
 30
0.0
 10
1961.638000
 20
856.943685
 30
0.0
  0
LWPOLYLINE
  5
3aa
100
AcDbEntity
  8
SECTION_JOG_LINES
 62
7
100
AcDbPolyline
 90
2
 70
0
 10
2014.551000
 20
981.666685
 30
0.0
 10
1961.638000
 20
981.666685
 30
0.0
  0
LWPOLYLINE
  5
3ab
100
AcDbEntity
  8
SECTION_JOG_LINES
 62
7
100
AcDbPolyline
 90
2
 70
0
 10
2014.551000
 20
928.752685
 30
0.0
 10
2014.551000
 20
981.666685
 30
0.0
  0
LWPOLYLINE
  5
3ac
100
AcDbEntity
  8
SECTION_JOG_LINES
 62
7
100
AcDbPolyline
 90
2
 70
0
 10
1961.638000
 20
928.752685
 30
0.0
 10
2014.551000
 20
928.752685
 30
0.0
  0
LWPOLYLINE
  5
3ad
100
AcDbEntity
  8
SECTION_JOG_LINES
 62
7
100
AcDbPolyline
 90
2
 70
0
 10
1961.638000
 20
981.666685
 30
0.0
 10
1961.638000
 20
928.752685
 30
0.0
  0
LWPOLYLINE
  5
3ae
100
AcDbEntity
  8
SECTION_JOG_LINES
 62
7
100
AcDbPolyline
 90
2
 70
0
 10
1602.571000
 20
846.983685
 30
0.0
 10
1602.571000
 20
794.063685
 30
0.0
  0
LWPOLYLINE
  5
3af
100
AcDbEntity
  8
SECTION_JOG_LINES
 62
7
100
AcDbPolyline
 90
2
 70
0
 10
1655.484000
 20
846.983685
 30
0.0
 10
1602.571000
 20
846.983685
 30
0.0
  0
LWPOLYLINE
  5
3b0
100
AcDbEntity
  8
SECTION_JOG_LINES
 62
7
100
AcDbPolyline
 90
2
 70
0
 10
1655.484000
 20
794.063685
 30
0.0
 10
1655.484000
 20
846.983685
 30
0.0
  0
LWPOLYLINE
  5
3b1
100
AcDbEntity
  8
SECTION_JOG_LINES
 62
7
100
AcDbPolyline
 90
2
 70
0
 10
1602.571000
 20
794.063685
 30
0.0
 10
1655.484000
 20
794.063685
 30
0.0
  0
LWPOLYLINE
  5
3b2
100
AcDbEntity
  8
SECTION_JOG_LINES
 62
7
100
AcDbPolyline
 90
2
 70
0
 10
1655.484000
 20
865.883685
 30
0.0
 10
1655.484000
 20
918.792685
 30
0.0
  0
LWPOLYLINE
  5
3b3
100
AcDbEntity
  8
SECTION_JOG_LINES
 62
7
100
AcDbPolyline
 90
2
 70
0
 10
1602.571000
 20
865.883685
 30
0.0
 10
1655.484000
 20
865.883685
 30
0.0
  0
LWPOLYLINE
  5
3b4
100
AcDbEntity
  8
SECTION_JOG_LINES
 62
7
100
AcDbPolyline
 90
2
 70
0
 10
1602.571000
 20
918.792685
 30
0.0
 10
1602.571000
 20
865.883685
 30
0.0
  0
LWPOLYLINE
  5
3b5
100
AcDbEntity
  8
SECTION_JOG_LINES
 62
7
100
AcDbPolyline
 90
2
 70
0
 10
1655.484000
 20
918.792685
 30
0.0
 10
1602.571000
 20
918.792685
 30
0.0
  0
LWPOLYLINE
  5
3b6
100
AcDbEntity
  8
SECTION_JOG_LINES
 62
7
100
AcDbPolyline
 90
2
 70
0
 10
1870.918000
 20
838.953685
 30
0.0
 10
1870.918000
 20
891.866685
 30
0.0
  0
LWPOLYLINE
  5
3b7
100
AcDbEntity
  8
SECTION_JOG_LINES
 62
7
100
AcDbPolyline
 90
2
 70
0
 10
1818.004000
 20
838.953685
 30
0.0
 10
1870.918000
 20
838.953685
 30
0.0
  0
LWPOLYLINE
  5
3b8
100
AcDbEntity
  8
SECTION_JOG_LINES
 62
7
100
AcDbPolyline
 90
2
 70
0
 10
1818.004000
 20
891.866685
 30
0.0
 10
1818.004000
 20
838.953685
 30
0.0
  0
LWPOLYLINE
  5
3b9
100
AcDbEntity
  8
SECTION_JOG_LINES
 62
7
100
AcDbPolyline
 90
2
 70
0
 10
1870.918000
 20
891.866685
 30
0.0
 10
1818.004000
 20
891.866685
 30
0.0
  0
LWPOLYLINE
  5
3ba
100
AcDbEntity
  8
SECTION_JOG_LINES
 62
7
100
AcDbPolyline
 90
2
 70
0
 10
2034.111000
 20
1008.731685
 30
0.0
 10
2079.934000
 20
1035.188685
 30
0.0
  0
LWPOLYLINE
  5
3bb
100
AcDbEntity
  8
SECTION_JOG_LINES
 62
7
100
AcDbPolyline
 90
2
 70
0
 10
2007.655000
 20
1054.555685
 30
0.0
 10
2034.111000
 20
1008.731685
 30
0.0
  0
LWPOLYLINE
  5
3bc
100
AcDbEntity
  8
SECTION_JOG_LINES
 62
7
100
AcDbPolyline
 90
2
 70
0
 10
2053.479000
 20
1081.012685
 30
0.0
 10
2007.655000
 20
1054.555685
 30
0.0
  0
LWPOLYLINE
  5
3bd
100
AcDbEntity
  8
SECTION_JOG_LINES
 62
7
100
AcDbPolyline
 90
2
 70
0
 10
2079.934000
 20
1035.188685
 30
0.0
 10
2053.479000
 20
1081.012685
 30
0.0
  0
LWPOLYLINE
  5
3be
100
AcDbEntity
  8
SECTION_JOG_LINES
 62
7
100
AcDbPolyline
 90
2
 70
0
 10
1889.820000
 20
829.033685
 30
0.0
 10
1889.820000
 20
776.113685
 30
0.0
  0
LWPOLYLINE
  5
3bf
100
AcDbEntity
  8
SECTION_JOG_LINES
 62
7
100
AcDbPolyline
 90
2
 70
0
 10
1942.734000
 20
829.033685
 30
0.0
 10
1889.820000
 20
829.033685
 30
0.0
  0
LWPOLYLINE
  5
3c0
100
AcDbEntity
  8
SECTION_JOG_LINES
 62
7
100
AcDbPolyline
 90
2
 70
0
 10
1942.734000
 20
776.113685
 30
0.0
 10
1942.734000
 20
829.033685
 30
0.0
  0
LWPOLYLINE
  5
3c1
100
AcDbEntity
  8
SECTION_JOG_LINES
 62
7
100
AcDbPolyline
 90
2
 70
0
 10
1889.820000
 20
776.113685
 30
0.0
 10
1942.734000
 20
776.113685
 30
0.0
  0
LWPOLYLINE
  5
3c2
100
AcDbEntity
  8
SECTION_JOG_LINES
 62
7
100
AcDbPolyline
 90
2
 70
0
 10
1746.187000
 20
972.668685
 30
0.0
 10
1746.187000
 20
919.754685
 30
0.0
  0
LWPOLYLINE
  5
3c3
100
AcDbEntity
  8
SECTION_JOG_LINES
 62
7
100
AcDbPolyline
 90
2
 70
0
 10
1799.100000
 20
972.668685
 30
0.0
 10
1746.187000
 20
972.668685
 30
0.0
  0
LWPOLYLINE
  5
3c4
100
AcDbEntity
  8
SECTION_JOG_LINES
 62
7
100
AcDbPolyline
 90
2
 70
0
 10
1799.100000
 20
919.754685
 30
0.0
 10
1799.100000
 20
972.668685
 30
0.0
  0
LWPOLYLINE
  5
3c5
100
AcDbEntity
  8
SECTION_JOG_LINES
 62
7
100
AcDbPolyline
 90
2
 70
0
 10
1746.187000
 20
919.754685
 30
0.0
 10
1799.100000
 20
919.754685
 30
0.0
  0
LWPOLYLINE
  5
3c6
100
AcDbEntity
  8
SECTION_JOG_LINES
 62
7
100
AcDbPolyline
 90
2
 70
0
 10
1870.918000
 20
820.053685
 30
0.0
 10
1818.004000
 20
820.053685
 30
0.0
  0
LWPOLYLINE
  5
3c7
100
AcDbEntity
  8
SECTION_JOG_LINES
 62
7
100
AcDbPolyline
 90
2
 70
0
 10
1870.918000
 20
767.143685
 30
0.0
 10
1870.918000
 20
820.053685
 30
0.0
  0
LWPOLYLINE
  5
3c8
100
AcDbEntity
  8
SECTION_JOG_LINES
 62
7
100
AcDbPolyline
 90
2
 70
0
 10
1818.004000
 20
767.143685
 30
0.0
 10
1870.918000
 20
767.143685
 30
0.0
  0
LWPOLYLINE
  5
3c9
100
AcDbEntity
  8
SECTION_JOG_LINES
 62
7
100
AcDbPolyline
 90
2
 70
0
 10
1818.004000
 20
820.053685
 30
0.0
 10
1818.004000
 20
767.143685
 30
0.0
  0
LWPOLYLINE
  5
3ca
100
AcDbEntity
  8
SECTION_JOG_LINES
 62
7
100
AcDbPolyline
 90
2
 70
0
 10
1746.187000
 20
900.857685
 30
0.0
 10
1746.187000
 20
847.943685
 30
0.0
  0
LWPOLYLINE
  5
3cb
100
AcDbEntity
  8
SECTION_JOG_LINES
 62
7
100
AcDbPolyline
 90
2
 70
0
 10
1799.100000
 20
900.857685
 30
0.0
 10
1746.187000
 20
900.857685
 30
0.0
  0
LWPOLYLINE
  5
3cc
100
AcDbEntity
  8
SECTION_JOG_LINES
 62
7
100
AcDbPolyline
 90
2
 70
0
 10
1799.100000
 20
847.943685
 30
0.0
 10
1799.100000
 20
900.857685
 30
0.0
  0
LWPOLYLINE
  5
3cd
100
AcDbEntity
  8
SECTION_JOG_LINES
 62
7
100
AcDbPolyline
 90
2
 70
0
 10
1746.187000
 20
847.943685
 30
0.0
 10
1799.100000
 20
847.943685
 30
0.0
  0
LWPOLYLINE
  5
3ce
100
AcDbEntity
  8
SECTION_JOG_LINES
 62
7
100
AcDbPolyline
 90
2
 70
0
 10
1727.288000
 20
794.063685
 30
0.0
 10
1727.288000
 20
846.983685
 30
0.0
  0
LWPOLYLINE
  5
3cf
100
AcDbEntity
  8
SECTION_JOG_LINES
 62
7
100
AcDbPolyline
 90
2
 70
0
 10
1674.375000
 20
794.063685
 30
0.0
 10
1727.288000
 20
794.063685
 30
0.0
  0
LWPOLYLINE
  5
3d0
100
AcDbEntity
  8
SECTION_JOG_LINES
 62
7
100
AcDbPolyline
 90
2
 70
0
 10
1674.375000
 20
846.983685
 30
0.0
 10
1674.375000
 20
794.063685
 30
0.0
  0
LWPOLYLINE
  5
3d1
100
AcDbEntity
  8
SECTION_JOG_LINES
 62
7
100
AcDbPolyline
 90
2
 70
0
 10
1727.288000
 20
846.983685
 30
0.0
 10
1674.375000
 20
846.983685
 30
0.0
  0
LWPOLYLINE
  5
3d2
100
AcDbEntity
  8
SECTION_JOG_LINES
 62
7
100
AcDbPolyline
 90
2
 70
0
 10
1674.375000
 20
918.792685
 30
0.0
 10
1674.375000
 20
865.883685
 30
0.0
  0
LWPOLYLINE
  5
3d3
100
AcDbEntity
  8
SECTION_JOG_LINES
 62
7
100
AcDbPolyline
 90
2
 70
0
 10
1727.288000
 20
918.792685
 30
0.0
 10
1674.375000
 20
918.792685
 30
0.0
  0
LWPOLYLINE
  5
3d4
100
AcDbEntity
  8
SECTION_JOG_LINES
 62
7
100
AcDbPolyline
 90
2
 70
0
 10
1727.288000
 20
865.883685
 30
0.0
 10
1727.288000
 20
918.792685
 30
0.0
  0
LWPOLYLINE
  5
3d5
100
AcDbEntity
  8
SECTION_JOG_LINES
 62
7
100
AcDbPolyline
 90
2
 70
0
 10
1674.375000
 20
865.883685
 30
0.0
 10
1727.288000
 20
865.883685
 30
0.0
  0
LWPOLYLINE
  5
3d6
100
AcDbEntity
  8
SECTION_JOG_LINES
 62
7
100
AcDbPolyline
 90
2
 70
0
 10
1727.288000
 20
990.604685
 30
0.0
 10
1674.375000
 20
990.604685
 30
0.0
  0
LWPOLYLINE
  5
3d7
100
AcDbEntity
  8
SECTION_JOG_LINES
 62
7
100
AcDbPolyline
 90
2
 70
0
 10
1727.288000
 20
937.690685
 30
0.0
 10
1727.288000
 20
990.604685
 30
0.0
  0
LWPOLYLINE
  5
3d8
100
AcDbEntity
  8
SECTION_JOG_LINES
 62
7
100
AcDbPolyline
 90
2
 70
0
 10
1674.375000
 20
937.690685
 30
0.0
 10
1727.288000
 20
937.690685
 30
0.0
  0
LWPOLYLINE
  5
3d9
100
AcDbEntity
  8
SECTION_JOG_LINES
 62
7
100
AcDbPolyline
 90
2
 70
0
 10
1674.375000
 20
990.604685
 30
0.0
 10
1674.375000
 20
937.690685
 30
0.0
  0
LWPOLYLINE
  5
3da
100
AcDbEntity
  8
SECTION_JOG_LINES
 62
7
100
AcDbPolyline
 90
2
 70
0
 10
1906.898000
 20
1046.949685
 30
0.0
 10
1853.984000
 20
1046.949685
 30
0.0
  0
LWPOLYLINE
  5
3db
100
AcDbEntity
  8
SECTION_JOG_LINES
 62
7
100
AcDbPolyline
 90
2
 70
0
 10
1906.898000
 20
994.034685
 30
0.0
 10
1906.898000
 20
1046.949685
 30
0.0
  0
LWPOLYLINE
  5
3dc
100
AcDbEntity
  8
SECTION_JOG_LINES
 62
7
100
AcDbPolyline
 90
2
 70
0
 10
1853.984000
 20
994.034685
 30
0.0
 10
1906.898000
 20
994.034685
 30
0.0
  0
LWPOLYLINE
  5
3dd
100
AcDbEntity
  8
SECTION_JOG_LINES
 62
7
100
AcDbPolyline
 90
2
 70
0
 10
1853.984000
 20
1046.949685
 30
0.0
 10
1853.984000
 20
994.034685
 30
0.0
  0
LWPOLYLINE
  5
3de
100
AcDbEntity
  8
SECTION_JOG_LINES
 62
7
100
AcDbPolyline
 90
2
 70
0
 10
1889.820000
 20
900.840685
 30
0.0
 10
1889.820000
 20
847.923685
 30
0.0
  0
LWPOLYLINE
  5
3df
100
AcDbEntity
  8
SECTION_JOG_LINES
 62
7
100
AcDbPolyline
 90
2
 70
0
 10
1942.734000
 20
900.840685
 30
0.0
 10
1889.820000
 20
900.840685
 30
0.0
  0
LWPOLYLINE
  5
3e0
100
AcDbEntity
  8
SECTION_JOG_LINES
 62
7
100
AcDbPolyline
 90
2
 70
0
 10
1942.734000
 20
847.923685
 30
0.0
 10
1942.734000
 20
900.840685
 30
0.0
  0
LWPOLYLINE
  5
3e1
100
AcDbEntity
  8
SECTION_JOG_LINES
 62
7
100
AcDbPolyline
 90
2
 70
0
 10
1889.820000
 20
847.923685
 30
0.0
 10
1942.734000
 20
847.923685
 30
0.0
  0
LWPOLYLINE
  5
3e2
100
AcDbEntity
  8
SECTION_JOG_LINES
 62
7
100
AcDbPolyline
 90
2
 70
0
 10
1655.484000
 20
990.604685
 30
0.0
 10
1602.571000
 20
990.604685
 30
0.0
  0
LWPOLYLINE
  5
3e3
100
AcDbEntity
  8
SECTION_JOG_LINES
 62
7
100
AcDbPolyline
 90
2
 70
0
 10
1655.484000
 20
937.690685
 30
0.0
 10
1655.484000
 20
990.604685
 30
0.0
  0
LWPOLYLINE
  5
3e4
100
AcDbEntity
  8
SECTION_JOG_LINES
 62
7
100
AcDbPolyline
 90
2
 70
0
 10
1602.571000
 20
937.690685
 30
0.0
 10
1655.484000
 20
937.690685
 30
0.0
  0
LWPOLYLINE
  5
3e5
100
AcDbEntity
  8
SECTION_JOG_LINES
 62
7
100
AcDbPolyline
 90
2
 70
0
 10
1602.571000
 20
990.604685
 30
0.0
 10
1602.571000
 20
937.690685
 30
0.0
  0
LWPOLYLINE
  5
3e6
100
AcDbEntity
  8
SECTION_JOG_LINES
 62
7
100
AcDbPolyline
 90
2
 70
0
 10
1927.267000
 20
1049.444685
 30
0.0
 10
1940.962000
 20
998.333685
 30
0.0
  0
LWPOLYLINE
  5
3e7
100
AcDbEntity
  8
SECTION_JOG_LINES
 62
7
100
AcDbPolyline
 90
2
 70
0
 10
1978.378000
 20
1063.139685
 30
0.0
 10
1927.267000
 20
1049.444685
 30
0.0
  0
LWPOLYLINE
  5
3e8
100
AcDbEntity
  8
SECTION_JOG_LINES
 62
7
100
AcDbPolyline
 90
2
 70
0
 10
1992.073000
 20
1012.028685
 30
0.0
 10
1978.378000
 20
1063.139685
 30
0.0
  0
LWPOLYLINE
  5
3e9
100
AcDbEntity
  8
SECTION_JOG_LINES
 62
7
100
AcDbPolyline
 90
2
 70
0
 10
1940.962000
 20
998.333685
 30
0.0
 10
1992.073000
 20
1012.028685
 30
0.0
  0
LWPOLYLINE
  5
3ea
100
AcDbEntity
  8
SECTION_JOG_LINES
 62
7
100
AcDbPolyline
 90
2
 70
0
 10
1870.918000
 20
963.676685
 30
0.0
 10
1818.004000
 20
963.676685
 30
0.0
  0
LWPOLYLINE
  5
3eb
100
AcDbEntity
  8
SECTION_JOG_LINES
 62
7
100
AcDbPolyline
 90
2
 70
0
 10
1870.918000
 20
910.762685
 30
0.0
 10
1870.918000
 20
963.676685
 30
0.0
  0
LWPOLYLINE
  5
3ec
100
AcDbEntity
  8
SECTION_JOG_LINES
 62
7
100
AcDbPolyline
 90
2
 70
0
 10
1818.004000
 20
910.762685
 30
0.0
 10
1870.918000
 20
910.762685
 30
0.0
  0
LWPOLYLINE
  5
3ed
100
AcDbEntity
  8
SECTION_JOG_LINES
 62
7
100
AcDbPolyline
 90
2
 70
0
 10
1818.004000
 20
963.676685
 30
0.0
 10
1818.004000
 20
910.762685
 30
0.0
  0
LWPOLYLINE
  5
3ee
100
AcDbEntity
  8
SECTION_JOG_LINES
 62
7
100
AcDbPolyline
 90
2
 70
0
 10
1799.100000
 20
776.133685
 30
0.0
 10
1799.100000
 20
829.043685
 30
0.0
  0
LWPOLYLINE
  5
3ef
100
AcDbEntity
  8
SECTION_JOG_LINES
 62
7
100
AcDbPolyline
 90
2
 70
0
 10
1746.187000
 20
776.133685
 30
0.0
 10
1799.100000
 20
776.133685
 30
0.0
  0
LWPOLYLINE
  5
3f0
100
AcDbEntity
  8
SECTION_JOG_LINES
 62
7
100
AcDbPolyline
 90
2
 70
0
 10
1746.187000
 20
829.043685
 30
0.0
 10
1746.187000
 20
776.133685
 30
0.0
  0
LWPOLYLINE
  5
3f1
100
AcDbEntity
  8
SECTION_JOG_LINES
 62
7
100
AcDbPolyline
 90
2
 70
0
 10
1799.100000
 20
829.043685
 30
0.0
 10
1746.187000
 20
829.043685
 30
0.0
  0
LWPOLYLINE
  5
3f2
100
AcDbEntity
  8
SECTION_JOG_LINES
 62
7
100
AcDbPolyline
 90
2
 70
0
 10
2014.551000
 20
785.133685
 30
0.0
 10
2014.551000
 20
838.043685
 30
0.0
  0
LWPOLYLINE
  5
3f3
100
AcDbEntity
  8
SECTION_JOG_LINES
 62
7
100
AcDbPolyline
 90
2
 70
0
 10
1961.638000
 20
785.133685
 30
0.0
 10
2014.551000
 20
785.133685
 30
0.0
  0
LWPOLYLINE
  5
3f4
100
AcDbEntity
  8
SECTION_JOG_LINES
 62
7
100
AcDbPolyline
 90
2
 70
0
 10
1961.638000
 20
838.043685
 30
0.0
 10
1961.638000
 20
785.133685
 30
0.0
  0
LWPOLYLINE
  5
3f5
100
AcDbEntity
  8
SECTION_JOG_LINES
 62
7
100
AcDbPolyline
 90
2
 70
0
 10
2014.551000
 20
838.043685
 30
0.0
 10
1961.638000
 20
838.043685
 30
0.0
  0
LWPOLYLINE
  5
3f6
100
AcDbEntity
  8
SECTION_JOG_LINES
 62
7
100
AcDbPolyline
 90
2
 70
0
 10
1889.820000
 20
919.738685
 30
0.0
 10
1942.734000
 20
919.738685
 30
0.0
  0
LWPOLYLINE
  5
3f7
100
AcDbEntity
  8
SECTION_JOG_LINES
 62
7
100
AcDbPolyline
 90
2
 70
0
 10
1889.820000
 20
972.652685
 30
0.0
 10
1889.820000
 20
919.738685
 30
0.0
  0
LWPOLYLINE
  5
3f8
100
AcDbEntity
  8
SECTION_JOG_LINES
 62
7
100
AcDbPolyline
 90
2
 70
0
 10
1942.734000
 20
972.652685
 30
0.0
 10
1889.820000
 20
972.652685
 30
0.0
  0
LWPOLYLINE
  5
3f9
100
AcDbEntity
  8
SECTION_JOG_LINES
 62
7
100
AcDbPolyline
 90
2
 70
0
 10
1942.734000
 20
919.738685
 30
0.0
 10
1942.734000
 20
972.652685
 30
0.0
  0
SPLINE
  5
3fa
100
AcDbEntity
  8
SECTION_JOG_LINES
 62
7
100
AcDbSpline
 70
8
 71
3
 72
8
 73
4
 74
0
 40
0
 40
0
 40
0
 40
0
 40
1
 40
1
 40
1
 40
1
 10
1832.003400
 20
992.238175
 30
0.0
 10
1832.000772
 20
994.323690
 30
0.0
 10
1830.309391
 20
996.012941
 30
0.0
 10
1828.223875
 20
996.012941
 30
0.0
  0
SPLINE
  5
3fb
100
AcDbEntity
  8
SECTION_JOG_LINES
 62
7
100
AcDbSpline
 70
8
 71
3
 72
8
 73
4
 74
0
 40
0
 40
0
 40
0
 40
0
 40
1
 40
1
 40
1
 40
1
 10
1828.223875
 20
996.012941
 30
0.0
 10
1826.138359
 20
996.012941
 30
0.0
 10
1824.446978
 20
994.323690
 30
0.0
 10
1824.444350
 20
992.238175
 30
0.0
  0
SPLINE
  5
3fc
100
AcDbEntity
  8
SECTION_JOG_LINES
 62
7
100
AcDbSpline
 70
8
 71
3
 72
8
 73
4
 74
0
 40
0
 40
0
 40
0
 40
0
 40
1
 40
1
 40
1
 40
1
 10
1824.444350
 20
992.238175
 30
0.0
 10
1824.446978
 20
990.152660
 30
0.0
 10
1826.138359
 20
988.463409
 30
0.0
 10
1828.223875
 20
988.463409
 30
0.0
  0
SPLINE
  5
3fd
100
AcDbEntity
  8
SECTION_JOG_LINES
 62
7
100
AcDbSpline
 70
8
 71
3
 72
8
 73
4
 74
0
 40
0
 40
0
 40
0
 40
0
 40
1
 40
1
 40
1
 40
1
 10
1828.223875
 20
988.463409
 30
0.0
 10
1830.309391
 20
988.463409
 30
0.0
 10
1832.000772
 20
990.152660
 30
0.0
 10
1832.003400
 20
992.238175
 30
0.0
  0
LWPOLYLINE
  5
3fe
100
AcDbEntity
  8
SECTION_JOG_LINES
 62
7
100
AcDbPolyline
 90
17
 70
1
 10
1805.676000
 20
998.645685
 30
0.0
 10
1594.972000
 20
998.645685
 30
0.0
 10
1594.972000
 20
786.043685
 30
0.0
 10
1738.597000
 20
786.043685
 30
0.0
 10
1738.597000
 20
768.093685
 30
0.0
 10
1810.405000
 20
768.093685
 30
0.0
 10
1810.405000
 20
759.583685
 30
0.0
 10
1878.440000
 20
759.583685
 30
0.0
 10
1878.440000
 20
768.093685
 30
0.0
 10
1950.248000
 20
768.093685
 30
0.0
 10
1950.248000
 20
777.543685
 30
0.0
 10
2023.948000
 20
777.543685
 30
0.0
 10
2023.948000
 20
973.370685
 30
0.0
 10
2100.764000
 20
1017.700685
 30
0.0
 10
2048.835000
 20
1107.878685
 30
0.0
 10
1987.956000
 20
1072.694685
 30
0.0
 10
1846.234000
 20
1054.259685
 30
0.0
  0
SPLINE
  5
3ff
100
AcDbEntity
  8
SECTION_JOG_LINES
 62
7
100
AcDbSpline
 70
8
 71
3
 72
8
 73
4
 74
0
 40
0
 40
0
 40
0
 40
0
 40
1
 40
1
 40
1
 40
1
 10
2008.000880
 20
1021.017385
 30
0.0
 10
2007.998252
 20
1023.102900
 30
0.0
 10
2006.306871
 20
1024.792151
 30
0.0
 10
2004.221355
 20
1024.792151
 30
0.0
  0
SPLINE
  5
400
100
AcDbEntity
  8
SECTION_JOG_LINES
 62
7
100
AcDbSpline
 70
8
 71
3
 72
8
 73
4
 74
0
 40
0
 40
0
 40
0
 40
0
 40
1
 40
1
 40
1
 40
1
 10
2004.221355
 20
1024.792151
 30
0.0
 10
2002.135839
 20
1024.792151
 30
0.0
 10
2000.444458
 20
1023.102900
 30
0.0
 10
2000.441830
 20
1021.017385
 30
0.0
  0
SPLINE
  5
401
100
AcDbEntity
  8
SECTION_JOG_LINES
 62
7
100
AcDbSpline
 70
8
 71
3
 72
8
 73
4
 74
0
 40
0
 40
0
 40
0
 40
0
 40
1
 40
1
 40
1
 40
1
 10
2000.441830
 20
1021.017385
 30
0.0
 10
2000.444458
 20
1018.931870
 30
0.0
 10
2002.135839
 20
1017.242619
 30
0.0
 10
2004.221355
 20
1017.242619
 30
0.0
  0
SPLINE
  5
402
100
AcDbEntity
  8
SECTION_JOG_LINES
 62
7
100
AcDbSpline
 70
8
 71
3
 72
8
 73
4
 74
0
 40
0
 40
0
 40
0
 40
0
 40
1
 40
1
 40
1
 40
1
 10
2004.221355
 20
1017.242619
 30
0.0
 10
2006.306871
 20
1017.242619
 30
0.0
 10
2007.998252
 20
1018.931870
 30
0.0
 10
2008.000880
 20
1021.017385
 30
0.0
  0
LWPOLYLINE
  5
403
100
AcDbEntity
  8
SECTION_JOG_LINES
 62
7
100
AcDbPolyline
 90
1
 70
1
 10
1832.003400
 20
992.238175
 30
0.0
  0
SPLINE
  5
404
100
AcDbEntity
  8
SECTION_JOG_LINES
 62
7
100
AcDbSpline
 70
8
 71
3
 72
8
 73
4
 74
0
 40
0
 40
0
 40
0
 40
0
 40
1
 40
1
 40
1
 40
1
 10
1956.013480
 20
841.983085
 30
0.0
 10
1956.010852
 20
844.068600
 30
0.0
 10
1954.319471
 20
845.757851
 30
0.0
 10
1952.233955
 20
845.757851
 30
0.0
  0
SPLINE
  5
405
100
AcDbEntity
  8
SECTION_JOG_LINES
 62
7
100
AcDbSpline
 70
8
 71
3
 72
8
 73
4
 74
0
 40
0
 40
0
 40
0
 40
0
 40
1
 40
1
 40
1
 40
1
 10
1952.233955
 20
845.757851
 30
0.0
 10
1950.148439
 20
845.757851
 30
0.0
 10
1948.457058
 20
844.068600
 30
0.0
 10
1948.454430
 20
841.983085
 30
0.0
  0
SPLINE
  5
406
100
AcDbEntity
  8
SECTION_JOG_LINES
 62
7
100
AcDbSpline
 70
8
 71
3
 72
8
 73
4
 74
0
 40
0
 40
0
 40
0
 40
0
 40
1
 40
1
 40
1
 40
1
 10
1948.454430
 20
841.983085
 30
0.0
 10
1948.457058
 20
839.897570
 30
0.0
 10
1950.148439
 20
838.208319
 30
0.0
 10
1952.233955
 20
838.208319
 30
0.0
  0
SPLINE
  5
407
100
AcDbEntity
  8
SECTION_JOG_LINES
 62
7
100
AcDbSpline
 70
8
 71
3
 72
8
 73
4
 74
0
 40
0
 40
0
 40
0
 40
0
 40
1
 40
1
 40
1
 40
1
 10
1952.233955
 20
838.208319
 30
0.0
 10
1954.319471
 20
838.208319
 30
0.0
 10
1956.010852
 20
839.897570
 30
0.0
 10
1956.013480
 20
841.983085
 30
0.0
  0
LWPOLYLINE
  5
408
100
AcDbEntity
  8
SECTION_JOG_LINES
 62
7
100
AcDbPolyline
 90
1
 70
1
 10
2008.000880
 20
1021.017385
 30
0.0
  0
LWPOLYLINE
  5
409
100
AcDbEntity
  8
SECTION_JOG_LINES
 62
7
100
AcDbPolyline
 90
1
 70
1
 10
1956.013480
 20
841.983085
 30
0.0
  0
ENDSEC
  0
SECTION
  2
OBJECTS
  0
DICTIONARY
  5
C
330
0
100
AcDbDictionary
  3
ACAD_GROUP
350
D
  3
ACAD_MLINESTYLE
350
17
  0
DICTIONARY
  5
D
330
C
100
AcDbDictionary
  0
DICTIONARY
  5
1A
330
C
100
AcDbDictionary
  0
DICTIONARY
  5
17
330
C
100
AcDbDictionary
  3
STANDARD
350
18
  0
DICTIONARY
  5
19
330
C
100
AcDbDictionary
  0
ENDSEC
  0
EOF
